<?xml version="1.0" encoding="UTF-8"?>
<svg width="116px" height="115px" viewBox="0 0 116 115" version="1.1" xmlns="http://www.w3.org/2000/svg" xmlns:xlink="http://www.w3.org/1999/xlink">
    <!-- Generator: Sketch 49.3 (51167) - http://www.bohemiancoding.com/sketch -->
    <title>aparatos</title>
    <desc>Created with Sketch.</desc>
    <defs>
        <polygon id="path-1" points="0 0 116 0 116 116 0 116"></polygon>
    </defs>
    <g id="AUTOTRANSPORTE" stroke="none" stroke-width="1" fill="none" fill-rule="evenodd">
        <g id="SOV-AUTOTRANSPORTE" transform="translate(-778.000000, -5212.000000)">
            <g id="parte-nube" transform="translate(258.000000, 5059.000000)">
                <g id="aparatos" style="mix-blend-mode: overlay;" transform="translate(520.000000, 153.000000)">
                    <mask id="mask-2" fill="white">
                        <use xlink:href="#path-1"></use>
                    </mask>
                    <g id="Clip-2"></g>
                    <path d="M40.9433777,87.2780474 L56.0578565,87.2780474 L56.0578565,76.0400394 L40.9433777,76.0400394 L40.9433777,87.2780474 Z M62.4104796,76.0400394 C63.4299602,76.0400394 64.2568996,75.2065807 64.2568996,74.1790631 C64.2568996,73.1503014 63.4299602,72.3180867 62.4104796,72.3180867 L3.96684099,72.3180867 C3.81996666,72.3180867 3.69284015,72.1874701 3.69284015,72.0406819 L3.69284015,3.99811354 C3.69284015,3.8513253 3.8212009,3.72195262 3.96684099,3.72195262 L93.033159,3.72195262 C93.1787991,3.72195262 93.3071599,3.8513253 93.3071599,3.99811354 L93.3071599,36.7517942 C93.3071599,37.7793119 94.1340993,38.6127705 95.1535799,38.6127705 C96.1730605,38.6127705 97,37.7793119 97,36.7517942 L97,3.99811354 C97,1.79255806 95.221463,0 93.033159,0 L3.96684099,0 C1.77977122,0 0,1.79255806 0,3.99811354 L0,72.0406819 C0,74.2462373 1.77977122,76.0400394 3.96684099,76.0400394 L37.2505376,76.0400394 L37.2505376,87.2780474 L23.0530977,87.2780474 C22.0323828,87.2780474 21.2066776,88.111506 21.2066776,89.1390237 C21.2066776,90.1665414 22.0323828,91 23.0530977,91 L62.4104796,91 C63.4299602,91 64.2568996,90.1665414 64.2568996,89.1390237 C64.2568996,88.111506 63.4299602,87.2780474 62.4104796,87.2780474 L59.7506966,87.2780474 L59.7506966,76.0400394 L62.4104796,76.0400394 Z" id="Fill-1" fill="#FFFFFF" mask="url(#mask-2)"></path>
                    <path d="M62.1493988,59 L8.85060115,59 C7.82881201,59 7,59.6717914 7,60.5 C7,61.3282086 7.82881201,62 8.85060115,62 L62.1493988,62 C63.171188,62 64,61.3282086 64,60.5 C64,59.6717914 63.171188,59 62.1493988,59" id="Fill-3" fill="#FFFFFF" mask="url(#mask-2)"></path>
                    <path d="M112.013334,111.342605 L71.9866656,111.342605 C71.8390573,111.342605 71.7112954,111.215476 71.7112954,111.071234 L71.7112954,100.370418 L112.288705,100.370418 L112.288705,111.071234 C112.288705,111.215476 112.159702,111.342605 112.013334,111.342605 Z M71.9866656,45.6586179 L112.013334,45.6586179 C112.159702,45.6586179 112.288705,45.7845242 112.288705,45.9299888 L112.288705,49.3160133 L71.7112954,49.3160133 L71.7112954,45.9299888 C71.7112954,45.7845242 71.8402977,45.6586179 71.9866656,45.6586179 Z M71.7112954,96.7130227 L112.288705,96.7130227 L112.288705,52.9734088 L71.7112954,52.9734088 L71.7112954,96.7130227 Z M112.013334,42 L71.9866656,42 C69.7874254,42 68,43.7626886 68,45.9299888 L68,111.071234 C68,113.238534 69.7874254,115 71.9866656,115 L112.013334,115 C114.211334,115 116,113.238534 116,111.071234 L116,45.9299888 C116,43.7626886 114.211334,42 112.013334,42 Z" id="Fill-4" fill="#FFFFFF" mask="url(#mask-2)"></path>
                    <path d="M95.1666667,105 L87.8333333,105 C86.8210784,105 86,105.672794 86,106.5 C86,107.328209 86.8210784,108 87.8333333,108 L95.1666667,108 C96.1801471,108 97,107.328209 97,106.5 C97,105.672794 96.1801471,105 95.1666667,105" id="Fill-5" fill="#FFFFFF" mask="url(#mask-2)"></path>
                </g>
            </g>
        </g>
    </g>
</svg>