<?xml version="1.0" encoding="UTF-8"?>
<svg width="133px" height="132px" viewBox="0 0 133 132" version="1.1" xmlns="http://www.w3.org/2000/svg" xmlns:xlink="http://www.w3.org/1999/xlink">
    <!-- Generator: Sketch 49.3 (51167) - http://www.bohemiancoding.com/sketch -->
    <title>aparatos</title>
    <desc>Created with Sketch.</desc>
    <defs>
        <polygon id="path-1" points="0 0 133 0 133 133 0 133"></polygon>
    </defs>
    <g id="Sistemas" stroke="none" stroke-width="1" fill="none" fill-rule="evenodd">
        <g id="SOV-AUTOTRANSPORTE" transform="translate(-437.000000, -766.000000)">
            <g id="slider" transform="translate(0.000000, 382.000000)">
                <g id="slider-4" transform="translate(170.000000, 104.000000)">
                    <g id="aparatos" transform="translate(267.000000, 280.000000)">
                        <mask id="mask-2" fill="white">
                            <use xlink:href="#path-1"></use>
                        </mask>
                        <g id="Clip-2"></g>
                        <path d="M46.8527312,99.7463399 L64.1486811,99.7463399 L64.1486811,86.9029021 L46.8527312,86.9029021 L46.8527312,99.7463399 Z M71.4181777,86.9029021 C72.5847998,86.9029021 73.5310913,85.950378 73.5310913,84.7760721 C73.5310913,83.6003445 72.5847998,82.649242 71.4181777,82.649242 L4.53937474,82.649242 C4.37130206,82.649242 4.22582738,82.4999658 4.22582738,82.3322078 L4.22582738,4.56927262 C4.22582738,4.40151463 4.37271443,4.25366014 4.53937474,4.25366014 L106.460625,4.25366014 C106.627286,4.25366014 106.774173,4.40151463 106.774173,4.56927262 L106.774173,42.0020505 C106.774173,43.1763564 107.720464,44.1288806 108.887086,44.1288806 C110.053708,44.1288806 111,43.1763564 111,42.0020505 L111,4.56927262 C111,2.04863779 108.964767,0 106.460625,0 L4.53937474,0 C2.03664542,0 0,2.04863779 0,4.56927262 L0,82.3322078 C0,84.8528427 2.03664542,86.9029021 4.53937474,86.9029021 L42.6269038,86.9029021 L42.6269038,99.7463399 L26.3803489,99.7463399 C25.2123144,99.7463399 24.2674352,100.698864 24.2674352,101.87317 C24.2674352,103.047476 25.2123144,104 26.3803489,104 L71.4181777,104 C72.5847998,104 73.5310913,103.047476 73.5310913,101.87317 C73.5310913,100.698864 72.5847998,99.7463399 71.4181777,99.7463399 L68.3745085,99.7463399 L68.3745085,86.9029021 L71.4181777,86.9029021 Z" id="Fill-1" fill="#FFFFFF" mask="url(#mask-2)"></path>
                        <path d="M70.8896654,68 L10.1103346,68 C8.94513651,68 8,68.8957219 8,70 C8,71.1042781 8.94513651,72 10.1103346,72 L70.8896654,72 C72.0548635,72 73,71.1042781 73,70 C73,68.8957219 72.0548635,68 70.8896654,68" id="Fill-3" fill="#FFFFFF" mask="url(#mask-2)"></path>
                        <path d="M128.431946,127.79149 L82.5680544,127.79149 C82.3989198,127.79149 82.252526,127.645205 82.252526,127.479228 L82.252526,115.165961 L128.747474,115.165961 L128.747474,127.479228 C128.747474,127.645205 128.599659,127.79149 128.431946,127.79149 Z M82.5680544,52.2099164 L128.431946,52.2099164 C128.599659,52.2099164 128.747474,52.354795 128.747474,52.5221789 L128.747474,56.4184263 L82.252526,56.4184263 L82.252526,52.5221789 C82.252526,52.354795 82.4003411,52.2099164 82.5680544,52.2099164 Z M82.252526,110.957451 L128.747474,110.957451 L128.747474,60.6269362 L82.252526,60.6269362 L82.252526,110.957451 Z M128.431946,48 L82.5680544,48 C80.0480916,48 78,50.0282992 78,52.5221789 L78,127.479228 C78,129.973107 80.0480916,132 82.5680544,132 L128.431946,132 C130.950487,132 133,129.973107 133,127.479228 L133,52.5221789 C133,50.0282992 130.950487,48 128.431946,48 Z" id="Fill-4" fill="#FFFFFF" mask="url(#mask-2)"></path>
                        <path d="M109.833333,120 L101.166667,120 C99.9703654,120 99,120.897059 99,122 C99,123.104278 99.9703654,124 101.166667,124 L109.833333,124 C111.031083,124 112,123.104278 112,122 C112,120.897059 111.031083,120 109.833333,120" id="Fill-5" fill="#FFFFFF" mask="url(#mask-2)"></path>
                    </g>
                </g>
            </g>
        </g>
    </g>
</svg>