<?xml version="1.0" encoding="UTF-8"?>
<svg width="91px" height="148px" viewBox="0 0 91 148" version="1.1" xmlns="http://www.w3.org/2000/svg" xmlns:xlink="http://www.w3.org/1999/xlink">
    <!-- Generator: Sketch 49.3 (51167) - http://www.bohemiancoding.com/sketch -->
    <title>celular icon</title>
    <desc>Created with Sketch.</desc>
    <defs>
        <polygon id="path-1" points="0 0 90.6252131 0 90.6252131 113.414438 0 113.414438"></polygon>
    </defs>
    <g id="AUTOTRANSPORTE" stroke="none" stroke-width="1" fill="none" fill-rule="evenodd" opacity="0.21">
        <g id="SOV-AUTOTRANSPORTE" transform="translate(-1003.000000, -5693.000000)">
            <g id="Parte-3" transform="translate(1.000000, 5494.000000)">
                <g id="ICONOS" transform="translate(342.000000, 199.000000)">
                    <g id="celular-icon" transform="translate(660.000000, 0.000000)">
                        <path d="M54.6481134,21.2694611 C53.4038093,21.2694611 52.3939394,22.2942783 52.3939394,23.5569994 C52.3939394,24.8197206 53.4038093,25.8445378 54.6481134,25.8445378 C60.5505812,25.8445378 65.3502377,30.7166425 65.3502377,36.7050659 C65.3502377,37.9677871 66.3587205,38.994012 67.6044117,38.994012 C68.8501029,38.994012 69.8585856,37.9677871 69.8585856,36.7050659 C69.8599728,28.1940156 63.0364149,21.2694611 54.6481134,21.2694611" id="Fill-1" fill="#FFFFFF"></path>
                        <path d="M54.5931408,0 C53.3791816,0 52.3939394,1.01801439 52.3939394,2.27547921 C52.3939394,3.53154373 53.3791816,4.55095841 54.5931408,4.55095841 C71.7360849,4.55095841 85.6837586,18.9809973 85.6837586,36.7185328 C85.6837586,37.9759976 86.6676475,38.994012 87.8816067,38.994012 C89.0969192,38.994012 90.0808081,37.9759976 90.0808081,36.7185328 C90.0808081,16.4716689 74.1599432,0 54.5931408,0" id="Fill-3" fill="#FFFFFF"></path>
                        <path d="M54.6520245,9.74850299 C53.4055615,9.74850299 52.3939394,10.7853957 52.3939394,12.0661793 C52.3939394,13.3455366 53.4055615,14.3838556 54.6520245,14.3838556 C66.6289078,14.3838556 76.3727187,24.384807 76.3727187,36.6763357 C76.3727187,37.9571193 77.3829512,38.994012 78.6308038,38.994012 C79.8786564,38.994012 80.8888889,37.9571193 80.8888889,36.6763357 C80.8888889,21.8275186 69.1190546,9.74850299 54.6520245,9.74850299" id="Fill-5" fill="#FFFFFF"></path>
                        <path d="M29.7510512,42.5389222 L20.8045044,42.5389222 C19.4677604,42.5389222 18.3838384,43.5317117 18.3838384,44.754491 C18.3838384,45.9772704 19.4677604,46.9700599 20.8045044,46.9700599 L29.7510512,46.9700599 C31.089192,46.9700599 32.1717172,45.9772704 32.1717172,44.754491 C32.1717172,43.5317117 31.089192,42.5389222 29.7510512,42.5389222" id="Fill-7" fill="#FFFFFF"></path>
                        <path d="M38.6060606,45.1976048 C38.6060606,46.1743757 37.7833073,46.9700599 36.766965,46.9700599 C35.7520462,46.9700599 34.9292929,46.1743757 34.9292929,45.1976048 C34.9292929,44.219462 35.7520462,43.4251497 36.766965,43.4251497 C37.7833073,43.4251497 38.6060606,44.219462 38.6060606,45.1976048" id="Fill-9" fill="#FFFFFF"></path>
                        <path d="M37.2897558,134.706587 L24.2933531,134.706587 C23.0601178,134.706587 22.0606061,135.697798 22.0606061,136.922156 C22.0606061,138.14515 23.0601178,139.137725 24.2933531,139.137725 L37.2897558,139.137725 C38.5229911,139.137725 39.5252525,138.14515 39.5252525,136.922156 C39.5252525,135.697798 38.5229911,134.706587 37.2897558,134.706587" id="Fill-11" fill="#FFFFFF"></path>
                        <path d="M56.0743838,107.23885 C56.0725455,107.237078 56.0707071,107.235305 56.0707071,107.233533 C56.0743838,107.240623 56.0780606,107.249485 56.0817374,107.26012 C56.079899,107.254802 56.0762222,107.24594 56.0743838,107.23885" id="Fill-13" fill="#FFFFFF"></path>
                        <path d="M52.3939394,111.664671 C52.3939394,111.664671 52.3957778,111.666443 52.3957778,111.668216 L52.3957778,111.669988 C52.3957778,111.668216 52.3939394,111.666443 52.3939394,111.664671" id="Fill-15" fill="#FFFFFF"></path>
                        <g id="Group-19" transform="translate(0.000000, 34.562874)">
                            <mask id="mask-2" fill="white">
                                <use xlink:href="#path-1"></use>
                            </mask>
                            <g id="Clip-18"></g>
                            <path d="M85.720378,99.7098156 L66.3251541,108.475669 C66.189724,108.536642 66.0310383,108.472834 65.9722152,108.332455 L63.6138172,102.722989 C63.5071148,102.470592 63.563202,102.242299 63.6056094,102.128862 C63.6493847,102.015425 63.7588232,101.808402 64.0023236,101.697801 C83.780582,92.7589557 82.5548717,93.2708407 82.8011081,93.2708407 C83.088384,93.2708407 83.3756598,93.4424144 83.4987781,93.7373509 L85.858544,99.3439808 C85.9173671,99.4857772 85.855808,99.6502611 85.720378,99.7098156 Z M60.3361366,95.9167617 C60.3238248,95.8855665 59.5016686,93.928776 59.5536519,94.0535569 L58.9613164,92.6469365 C58.8792376,92.5207377 58.4154923,90.7397749 56.4839042,90.1697533 L55.5413658,89.8918323 L44.3006722,86.5723784 C43.690553,86.390879 43.1597767,85.9484743 42.8451412,85.3586012 C41.8287319,83.433006 43.7001289,81.418079 45.4730312,82.0320575 L48.4442843,82.8615665 C51.3991217,83.6882395 54.1241383,80.5446132 52.5208655,77.3187449 C52.5030817,77.2818778 52.482562,77.2450108 52.4675142,77.2081437 C52.4565704,77.1797844 52.4497305,77.1627689 52.4428906,77.1500072 C52.4415226,77.1471713 52.4401546,77.1443353 52.4387866,77.1400814 C52.4401546,77.1429174 52.4401546,77.1443353 52.4415226,77.1471713 C52.4401546,77.1414994 52.4374187,77.1372455 52.4360507,77.1344096 L52.4360507,77.1329916 C52.2363256,76.6593916 50.9353764,73.565394 43.9805648,57.030515 C43.9217417,56.7951329 43.2856308,55.886218 43.8068313,54.6681868 C44.0968431,54.0074156 44.5838441,53.5721006 45.1707076,53.3650778 C46.3006593,52.963794 47.5742489,53.5806084 48.0721937,54.7674443 C54.0311156,68.9300695 55.2828176,71.9106299 55.5030624,72.4296048 C55.5044304,72.4310228 55.5044304,72.4324407 55.5057983,72.4352766 C55.5057983,72.4352766 55.5057983,72.4338587 55.5044304,72.4324407 C55.5057983,72.4366946 55.5071663,72.4395305 55.5085343,72.4437844 C55.5099023,72.4452024 55.5112703,72.4480383 55.5126382,72.4508743 C55.5126382,72.4551281 55.5140062,72.4579641 55.5153742,72.4608 C55.5167422,72.4636359 55.5181102,72.4650539 55.5194781,72.4678898 C55.5181102,72.4664719 55.5181102,72.4650539 55.5167422,72.4636359 C55.5194781,72.4693078 55.5208461,72.4735617 55.5235821,72.4792335 C55.5263181,72.4863234 55.530422,72.4919952 55.53179,72.499085 L55.53179,72.4962491 C55.5345259,72.501921 55.5358939,72.5075928 55.5386299,72.5146826 C55.5399979,72.5175186 55.5399979,72.5189365 55.5413658,72.5217725 C56.152853,73.7043545 56.2335638,75.0344048 57.5906002,75.5874108 C58.784847,76.0737725 59.6671942,75.381806 59.9886696,75.2882204 L72.422242,69.6716647 C73.3511006,69.2533653 74.431805,69.6929341 74.8367272,70.6543138 L81.4481757,86.3766994 C81.8544658,87.338079 81.4290239,88.4596886 80.5001654,88.877988 C77.5986793,90.1896048 85.1567701,86.7723114 62.7506217,96.9008287 C61.8231311,97.3191281 60.7396908,96.8781413 60.3361366,95.9167617 Z M55.5413658,102.433725 C55.5413658,105.877959 52.8341329,108.682692 49.5126769,108.682692 L10.4773607,108.682692 C7.15316869,108.682692 4.44730377,105.877959 4.44730377,102.433725 L4.44730377,96.5208144 L55.4155117,96.5208144 L55.5413658,96.8185868 L55.5413658,102.433725 Z M4.44730377,21.3786443 L8.72634597,21.3786443 C9.95205627,21.3786443 10.9493139,20.3477844 10.9493139,19.0744527 C10.9493139,17.801121 9.95205627,16.7702611 8.72634597,16.7702611 L4.44730377,16.7702611 L4.44730377,10.8587689 C4.44730377,7.41311617 7.15316869,4.6098012 10.4773607,4.6098012 L49.5126769,4.6098012 C52.8341329,4.6098012 55.5413658,7.41311617 55.5413658,10.8587689 L55.5413658,16.7702611 L17.6182175,16.7702611 C16.3911393,16.7702611 15.3938817,17.801121 15.3938817,19.0744527 C15.3938817,20.3477844 16.3911393,21.3786443 17.6182175,21.3786443 L55.5413658,21.3786443 L55.5413658,60.2237701 L52.4196349,52.8035641 C51.3676581,50.2966036 49.1063868,48.6659449 46.6467583,48.3752623 C44.8437603,44.438994 41.7671728,41.1691689 37.8410695,39.2534994 C36.7316375,38.7090012 35.4046967,39.2052886 34.8821282,40.3566754 C34.3622957,41.5052263 34.8369849,42.8778156 35.9477848,43.4237317 C38.6180823,44.7254228 40.7740191,46.8580407 42.1761989,49.4344814 C40.99016,50.2101078 40.0353098,51.3416431 39.463494,52.6901269 C38.6714335,54.5575856 38.6659616,56.6972934 39.4470783,58.5590802 L41.8519875,64.2763114 C37.5428498,71.4115066 30.0983013,71.0258204 29.9915988,71.0612695 C22.2775583,71.0612695 15.9985289,64.5528144 15.9985289,56.554079 C15.9985289,51.4536623 18.5101407,46.8240096 22.711208,44.163909 C23.7618168,43.4988838 24.0915001,42.0795018 23.4526533,40.9961772 C22.8124385,39.9071808 21.4444583,39.5668695 20.3979534,40.2318946 C14.8603694,43.7328479 11.5525931,49.8357653 11.5525931,56.554079 C11.5525931,67.095224 19.8261377,75.6682347 29.9915988,75.6682347 C30.2952905,75.5845749 38.079098,76.0567569 43.897118,69.1342563 L47.4073553,77.4818108 L46.7219972,77.2889677 C43.0626501,76.2198228 39.1967379,78.4162491 38.1064576,82.1979593 C37.5715774,84.0413126 37.7795104,86.0023569 38.6878492,87.7223473 C40.5948137,91.3282299 44.0503318,91.4544287 45.072213,91.9124311 L4.44730377,91.9124311 L4.44730377,21.3786443 Z M90.2059852,97.3801006 L87.8462193,91.7706347 C87.4385612,90.8007473 86.7874026,89.9896719 85.9679824,89.3983808 C86.5014947,87.8272766 86.4878149,86.0534036 85.7969849,84.4099832 L79.1841684,68.6890156 C78.104832,66.1281725 75.6835069,64.5953533 73.1472716,64.5953533 C72.2690282,64.5953533 71.3784731,64.7796886 70.5248534,65.1639569 L59.9886696,69.9268982 L59.9886696,10.8573509 C59.9886696,4.87212455 55.2896575,0 49.5126769,0 L10.4773607,0 C4.69901213,0 0,4.87212455 0,10.8573509 L0,102.433725 C0,108.418951 4.69901213,113.292493 10.4773607,113.292493 L49.5126769,113.292493 C54.28556,113.292493 58.3197337,109.963114 59.5782755,105.431301 L61.624774,110.296335 C62.4455621,112.247454 64.2909675,113.414438 66.2266595,113.414438 C68.0761688,113.414438 67.367555,113.20458 87.6150306,104.216105 C88.8421089,103.661681 89.7873832,102.645001 90.2771202,101.354654 C90.7654891,100.064307 90.7394975,98.6520144 90.2059852,97.3801006 Z" id="Fill-17" fill="#FFFFFF" mask="url(#mask-2)"></path>
                        </g>
                        <path d="M29.8737374,66.4670659 C28.6052525,66.4670659 27.5757576,67.506991 27.5757576,68.7915203 L27.5757576,89.8432102 C27.5757576,91.1277395 28.6052525,92.1676647 29.8737374,92.1676647 C31.1422222,92.1676647 32.1717172,91.1277395 32.1717172,89.8432102 L32.1717172,68.7915203 C32.1717172,67.506991 31.1422222,66.4670659 29.8737374,66.4670659" id="Fill-20" fill="#FFFFFF"></path>
                    </g>
                </g>
            </g>
        </g>
    </g>
</svg>