<?xml version="1.0" encoding="UTF-8"?>
<svg width="167px" height="166px" viewBox="0 0 167 166" version="1.1" xmlns="http://www.w3.org/2000/svg" xmlns:xlink="http://www.w3.org/1999/xlink">
    <!-- Generator: Sketch 49.3 (51167) - http://www.bohemiancoding.com/sketch -->
    <title>icono funcionamiento</title>
    <desc>Created with Sketch.</desc>
    <defs>
        <polygon id="path-1" points="0.000183516484 0.242360656 166.757758 0.242360656 166.757758 111.468643 0.000183516484 111.468643"></polygon>
        <polygon id="path-3" points="0.000680206888 0.346764286 166.757758 0.346764286 166.757758 50 0.000680206888 50"></polygon>
        <polygon id="path-5" points="0 167 167 167 167 0 0 0"></polygon>
    </defs>
    <g id="Sistemas" stroke="none" stroke-width="1" fill="none" fill-rule="evenodd">
        <g id="SOV-AUTOTRANSPORTE" transform="translate(-637.000000, -777.000000)">
            <g id="slider" transform="translate(0.000000, 382.000000)">
                <g id="slider-2" transform="translate(382.000000, 182.000000)">
                    <g id="icono-funcionamiento" transform="translate(255.000000, 213.000000)">
                        <path d="M17,16.5 C17,19.5323539 19.4640145,22 22.4981842,22 C25.5323539,22 28,19.5341697 28,16.5 C28,13.4658303 25.5323539,11 22.4981842,11 C19.4640145,11 17,13.4658303 17,16.5" id="Fill-1" fill="#FFFFFF"></path>
                        <g id="Group-5">
                            <mask id="mask-2" fill="white">
                                <use xlink:href="#path-1"></use>
                            </mask>
                            <g id="Clip-4"></g>
                            <path d="M2.78045824,33.610282 L152.860238,33.610282 C154.394436,33.610282 155.640513,32.3654295 155.640513,30.8286426 C155.640513,29.2936918 154.394436,28.0488393 152.860238,28.0488393 L5.5588978,28.0488393 L5.5588978,14.1443148 C5.5588978,9.54680656 9.3007989,5.80306885 13.8978868,5.80306885 L152.862074,5.80306885 C157.457326,5.80306885 161.199227,9.54680656 161.199227,14.1443148 L161.199227,108.687003 C161.199227,110.22379 162.443469,111.468643 163.977667,111.468643 C165.5137,111.468643 166.759777,110.22379 166.759777,108.687003 L166.759777,14.1443148 C166.759777,6.48057705 160.523887,0.24162623 152.860238,0.24162623 L13.8978868,0.24162623 C6.23423846,0.24162623 0.000183516484,6.48057705 0.000183516484,14.1443148 L0.000183516484,30.8286426 C0.000183516484,32.3654295 1.24626044,33.610282 2.78045824,33.610282" id="Fill-3" fill="#FFFFFF" mask="url(#mask-2)"></path>
                        </g>
                        <path d="M50,16.5 C50,19.5323539 52.4654233,22 55.4990923,22 C58.5309457,22 61,19.5341697 61,16.5 C61,13.4658303 58.5309457,11 55.4990923,11 C52.4654233,11 50,13.4658303 50,16.5" id="Fill-6" fill="#FFFFFF"></path>
                        <path d="M33,16.5 C33,19.5323539 35.4640145,22 38.4981842,22 C41.5323539,22 44,19.5341697 44,16.5 C44,13.4658303 41.5323539,11 38.4981842,11 C35.4640145,11 33,13.4658303 33,16.5" id="Fill-8" fill="#FFFFFF"></path>
                        <path d="M3.00099043,111 C4.65500165,111 6,109.758432 6,108.227956 L6,41.7683868 C6,40.2397399 4.65500165,39 3.00099043,39 C1.34499835,39 0,40.2397399 0,41.7683868 L0,108.227956 C0,109.758432 1.34499835,111 3.00099043,111" id="Fill-10" fill="#FFFFFF"></path>
                        <path d="M125.165731,50 C126.729724,50 128,48.656539 128,47 C128,45.343461 126.729724,44 125.165731,44 L113.832398,44 C112.268405,44 111,45.343461 111,47 C111,48.656539 112.268405,50 113.832398,50 L125.165731,50 Z" id="Fill-12" fill="#FFFFFF"></path>
                        <path d="M103.165731,50 C104.729724,50 106,48.656539 106,47 C106,45.343461 104.729724,44 103.165731,44 L91.8323979,44 C90.2665346,44 89,45.343461 89,47 C89,48.656539 90.2665346,50 91.8323979,50 L103.165731,50 Z" id="Fill-14" fill="#FFFFFF"></path>
                        <path d="M150,47.0009904 C150,45.3449983 148.729724,44 147.16386,44 L135.834269,44 C134.268405,44 133,45.3449983 133,47.0009904 C133,48.6569825 134.268405,50 135.834269,50 L147.16386,50 C148.729724,50 150,48.6569825 150,47.0009904" id="Fill-16" fill="#FFFFFF"></path>
                        <path d="M45,47.0009904 C45,45.3449983 43.7446682,44 42.1972268,44 L19.7990756,44 C18.2553318,44 17,45.3449983 17,47.0009904 C17,48.6569825 18.2553318,50 19.7990756,50 L42.1972268,50 C43.7446682,50 45,48.6569825 45,47.0009904" id="Fill-18" fill="#FFFFFF"></path>
                        <path d="M111.988586,145.155147 C111.705322,145.062168 111.409348,145.014767 111.113374,145.014767 C110.828294,145.014767 110.543215,145.056699 110.270846,145.146031 C110.379794,144.513411 110.267215,143.866206 109.962162,143.319273 C110.267215,143.071329 110.525057,142.7614 110.712084,142.391308 L110.998979,141.809735 L111.28769,142.391308 C111.523743,142.865318 111.881454,143.246348 112.311797,143.512523 C112.039428,144.010232 111.923217,144.586336 111.988586,145.155147 M121.84289,140.236389 C121.452494,139.135229 120.415677,138.396869 119.249938,138.396869 L115.449485,138.396869 L113.461193,134.404252 C112.529692,132.531916 109.470082,132.531916 108.53858,134.404252 L106.550288,138.396869 L102.749835,138.396869 C101.558675,138.396869 100.501884,139.168045 100.135094,140.305668 C99.7664886,141.44329 100.169594,142.690299 101.131964,143.392197 L104.278732,145.687496 L102.985888,149.306374 C102.613651,150.347371 102.896914,151.506871 103.703126,152.259816 C104.220627,152.744764 104.894286,153 105.573392,153 C105.952892,153 106.330577,152.921606 106.690104,152.759349 L111.104295,150.79768 L115.429512,152.755703 C116.430013,153.209658 117.599383,153.016408 118.411042,152.279871 C119.21907,151.537864 119.51686,150.385657 119.160965,149.346483 L117.9462,145.773182 L120.978573,143.302865 C121.882837,142.569973 122.231469,141.339372 121.84289,140.236389" id="Fill-20" fill="#FFFFFF"></path>
                        <path d="M128,124.99802 C128,123.344554 126.753049,122 125.217774,122 L41.7803892,122 C40.2469513,122 39,123.344554 39,124.99802 C39,126.655446 40.2469513,128 41.7803892,128 L125.217774,128 C126.753049,128 128,126.655446 128,124.99802" id="Fill-22" fill="#FFFFFF"></path>
                        <path d="M83.9885856,145.155147 C83.7071378,145.062168 83.4093479,145.014767 83.1133738,145.014767 C82.8282944,145.014767 82.543215,145.056699 82.2708462,145.146031 C82.3816095,144.513411 82.2672146,143.866206 81.9639773,143.319273 C82.2672146,143.071329 82.5250571,142.7614 82.7102679,142.391308 L82.9989789,141.809735 L83.2876898,142.391308 C83.5237428,142.865318 83.8814539,143.246348 84.3099808,143.512523 C84.0394278,144.010232 83.9232171,144.586336 83.9885856,145.155147 M93.8428896,140.236389 C93.4524943,139.135229 92.415677,138.396869 91.2499384,138.396869 L87.4494854,138.396869 L85.461193,134.404252 C84.5278759,132.531916 81.4700819,132.531916 80.5385805,134.404252 L78.5502881,138.396869 L74.7498351,138.396869 C73.5586754,138.396869 72.5018844,139.168045 72.1350944,140.305668 C71.7664886,141.44329 72.1695944,142.690299 73.1319643,143.392197 L76.2787321,145.687496 L74.9858881,149.306374 C74.6136507,150.347371 74.8969142,151.506871 75.7049418,152.259816 C76.2206267,152.744764 76.8942856,153 77.5752077,153 C77.9528925,153 78.3305772,152.921606 78.6901041,152.759349 L83.1042948,150.79768 L87.4295117,152.755703 C88.4281974,153.209658 89.5993834,153.016408 90.4110425,152.279871 C91.21907,151.537864 91.5168599,150.385657 91.1609646,149.346483 L89.9461997,145.773182 L92.9785726,143.302865 C93.8828371,142.569973 94.2314692,141.339372 93.8428896,140.236389" id="Fill-24" fill="#FFFFFF"></path>
                        <path d="M55.9886998,145.155147 C55.7072552,145.062168 55.4094687,145.014767 55.1116822,145.014767 C54.8284219,145.014767 54.5433457,145.056699 54.2727958,145.146031 C54.3799263,144.513411 54.2691642,143.866206 53.9641146,143.319273 C54.2691642,143.071329 54.525188,142.7614 54.7103967,142.391308 L54.9991044,141.809735 L55.287812,142.391308 C55.5238623,142.865318 55.8815693,143.246348 56.3119071,143.512523 C56.0377256,144.010232 55.923332,144.586336 55.9886998,145.155147 M65.8428914,140.236389 C65.4506848,139.135229 64.4156951,138.396869 63.2499698,138.396869 L59.4477444,138.396869 L57.4612904,134.404252 C56.5279839,132.531916 53.4702248,132.531916 52.5387341,134.404252 L50.5504643,138.396869 L46.7500547,138.396869 C45.5589086,138.396869 44.5039454,139.168045 44.1353438,140.305668 C43.7667422,141.44329 44.1680277,142.690299 45.1322023,143.392197 L48.2789343,145.687496 L46.986105,149.306374 C46.6156876,150.347371 46.8971322,151.506871 47.7051505,152.259816 C48.2208296,152.744764 48.8944808,153 49.5735793,153 C49.9548913,153 50.3289402,152.921606 50.6902787,152.759349 L55.1044191,150.79768 L59.4295867,152.755703 C60.428261,153.209658 61.595802,153.016408 62.4092676,152.279871 C63.2172859,151.537864 63.5168882,150.385657 63.160997,149.346483 L61.9444301,145.773182 L64.9785842,143.302865 C65.8828384,142.569973 66.2314665,141.339372 65.8428914,140.236389" id="Fill-26" fill="#FFFFFF"></path>
                        <g id="Group-30" transform="translate(0.000000, 116.000000)">
                            <mask id="mask-4" fill="white">
                                <use xlink:href="#path-3"></use>
                            </mask>
                            <g id="Clip-29"></g>
                            <path d="M156.063335,22.4133714 L166.391643,4.4723 C166.883467,3.62169286 166.881632,2.56890714 166.382467,1.72194286 C165.886973,0.871335714 164.967555,0.346764286 163.976566,0.346764286 L136.186665,0.346764286 C134.650632,0.346764286 133.40639,1.58169286 133.40639,3.10440714 L133.40639,44.4818 L33.3532033,44.4818 L33.3532033,3.10440714 C33.3532033,1.58169286 32.1071264,0.346764286 30.5729286,0.346764286 L2.78119231,0.346764286 C1.7902033,0.346764286 0.874456044,0.869514286 0.375291209,1.72194286 C-0.122038462,2.56890714 -0.123873626,3.62169286 0.367950549,4.4723 L10.6944231,22.4133714 L0.367950549,40.3562643 C-0.123873626,41.2068714 -0.122038462,42.2596571 0.375291209,43.1084429 C0.874456044,43.9572286 1.79203846,44.4818 2.78119231,44.4818 L19.4555,44.4818 C20.9878626,44.4818 22.2339396,43.2468714 22.2339396,41.7259786 C22.2339396,40.2014429 20.9878626,38.9646929 19.4555,38.9646929 L7.56913736,38.9646929 L16.3100275,23.7849071 C16.7981813,22.9324786 16.7981813,21.8960857 16.3100275,21.0473 L7.56913736,5.86387143 L27.7926538,5.86387143 L27.7926538,47.2412643 C27.7926538,48.7639786 29.0368956,50.0007286 30.5729286,50.0007286 L136.186665,50.0007286 C137.719027,50.0007286 138.965104,48.7639786 138.965104,47.2412643 L138.965104,5.86387143 L159.190456,5.86387143 L150.449566,21.0473 C149.959577,21.8960857 149.959577,22.9324786 150.449566,23.7849071 L159.190456,38.9646929 L147.302258,38.9646929 C145.769896,38.9646929 144.523819,40.2014429 144.523819,41.7259786 C144.523819,43.2468714 145.769896,44.4818 147.302258,44.4818 L163.976566,44.4818 C164.967555,44.4818 165.886973,43.95905 166.382467,43.1084429 C166.879797,42.2596571 166.883467,41.2068714 166.391643,40.3562643 L156.063335,22.4133714 Z" id="Fill-28" fill="#FFFFFF" mask="url(#mask-4)"></path>
                        </g>
                        <mask id="mask-6" fill="white">
                            <use xlink:href="#path-5"></use>
                        </mask>
                        <g id="Clip-32"></g>
                        <path d="M111.500303,83.5004539 L133.501513,83.5004539 L133.501513,72.4995461 L111.500303,72.4995461 L111.500303,83.5004539 Z M139,86.2493191 L139,69.7524965 C139,68.2328134 137.768833,67 136.250757,67 L108.749243,67 C107.232983,67 106,68.2328134 106,69.7524965 L106,86.2493191 C106,87.7671866 107.232983,89 108.749243,89 L136.250757,89 C137.768833,89 139,87.7671866 139,86.2493191 Z" id="Fill-31" fill="#FFFFFF" mask="url(#mask-6)"></path>
                        <path d="M136,97.0009898 C136,95.3441109 134.744751,94 133.199261,94 L110.800739,94 C109.255249,94 108,95.3441109 108,97.0009898 C108,98.6558891 109.255249,100 110.800739,100 L133.199261,100 C134.744751,100 136,98.6558891 136,97.0009898" id="Fill-33" fill="#FFFFFF" mask="url(#mask-6)"></path>
                        <path d="M72.4984868,83.5022695 L94.5015132,83.5022695 L94.5015132,72.5013617 L72.4984868,72.5013617 L72.4984868,83.5022695 Z M67,69.7524965 L67,86.2493191 C67,87.7671866 68.232983,89 69.7510593,89 L97.2507566,89 C98.7688329,89 100,87.7671866 100,86.2493191 L100,69.7524965 C100,68.2328134 98.7688329,67 97.2507566,67 L69.7510593,67 C68.232983,67 67,68.2328134 67,69.7524965 Z" id="Fill-34" fill="#FFFFFF" mask="url(#mask-6)"></path>
                        <path d="M71.7990756,94 C70.2553318,94 69,95.3449983 69,97.0029713 C69,98.6569825 70.2553318,100 71.7990756,100 L94.2009244,100 C95.7446682,100 97,98.6569825 97,97.0029713 C97,95.3449983 95.7446682,94 94.2009244,94 L71.7990756,94 Z" id="Fill-35" fill="#FFFFFF" mask="url(#mask-6)"></path>
                        <path d="M33.5,83.5022695 L55.4981842,83.5022695 L55.4981842,72.5013617 L33.5,72.5013617 L33.5,83.5022695 Z M30.7509079,89 L58.2490921,89 C59.7670848,89 61,87.7671866 61,86.2511348 L61,69.7524965 C61,68.2328134 59.7670848,67 58.2490921,67 L30.7509079,67 C29.2310994,67 28,68.2328134 28,69.7524965 L28,86.2511348 C28,87.7671866 29.2310994,89 30.7509079,89 Z" id="Fill-36" fill="#FFFFFF" mask="url(#mask-6)"></path>
                        <path d="M33.8009244,100 L56.1990756,100 C57.7446682,100 59,98.6554455 59,97 C59,95.3425743 57.7446682,94 56.1990756,94 L33.8009244,94 C32.253483,94 31,95.3425743 31,97 C31,98.6554455 32.253483,100 33.8009244,100" id="Fill-37" fill="#FFFFFF" mask="url(#mask-6)"></path>
                    </g>
                </g>
            </g>
        </g>
    </g>
</svg>