<?xml version="1.0" encoding="UTF-8"?>
<svg width="127px" height="130px" viewBox="0 0 127 130" version="1.1" xmlns="http://www.w3.org/2000/svg" xmlns:xlink="http://www.w3.org/1999/xlink">
    <!-- Generator: Sketch 49.3 (51167) - http://www.bohemiancoding.com/sketch -->
    <title>google icon</title>
    <desc>Created with Sketch.</desc>
    <defs>
        <polygon id="path-1" points="0 0.193035045 126.876015 0.193035045 126.876015 129.999706 0 129.999706"></polygon>
    </defs>
    <g id="AUTOTRANSPORTE" stroke="none" stroke-width="1" fill="none" fill-rule="evenodd" opacity="0.3">
        <g id="SOV-AUTOTRANSPORTE" transform="translate(-985.000000, -6096.000000)">
            <g id="Parte-3" transform="translate(1.000000, 5494.000000)">
                <g id="ICONOS" transform="translate(342.000000, 199.000000)">
                    <g id="google-icon" transform="translate(642.000000, 403.000000)">
                        <path d="M41.276647,41.8639311 L29.7714103,41.8639311 C28.3539128,41.8639311 27.2028193,43.04227 27.2028193,44.4933184 C27.2028193,45.9458253 28.3539128,47.1227058 29.7714103,47.1227058 L38.3860916,47.1227058 C37.2406966,51.7033523 33.1748292,55.0983682 28.3482143,55.0983682 C22.63691,55.0983682 17.9883727,50.3412625 17.9883727,44.4933184 C17.9883727,38.6468327 22.63691,33.889727 28.3482143,33.889727 C30.8085342,33.889727 33.1933492,34.7866063 35.0624516,36.4170306 C36.1423141,37.3591183 37.7635324,37.2264094 38.6824127,36.1209875 C39.6027177,35.0155657 39.4730772,33.3559745 38.3932147,32.4138868 C35.5952597,29.9740837 32.0280095,28.6309524 28.3482143,28.6309524 C19.8033394,28.6309524 12.8511905,35.7476524 12.8511905,44.4947768 C12.8511905,53.2404428 19.8033394,60.3571429 28.3482143,60.3571429 C36.8930892,60.3571429 43.8452381,53.2419012 43.8452381,44.4947768 C43.8452381,43.04227 42.6955692,41.8639311 41.276647,41.8639311" id="Fill-1" fill="#FFFFFF"></path>
                        <g id="Group-5">
                            <mask id="mask-2" fill="white">
                                <use xlink:href="#path-1"></use>
                            </mask>
                            <g id="Clip-4"></g>
                            <path d="M97.1140461,68.0658177 C88.8974722,59.9034749 72.5289203,41.4114704 72.5289203,30.6174884 C72.5289203,16.7628114 83.5575605,5.49128451 97.1140461,5.49128451 C110.670532,5.49128451 121.700607,16.7628114 121.700607,30.6174884 C121.700607,41.4026542 105.33062,59.8990667 97.1140461,68.0658177 Z M106.625405,110.211719 L70.2982152,73.0249369 L82.8369595,60.1914711 C89.1888706,67.7954539 95.0914827,73.4113808 95.3556074,73.6626429 C95.8522766,74.1328408 96.4838791,74.3679398 97.1140461,74.3679398 C97.7456485,74.3679398 98.3758155,74.1328408 98.8724847,73.6626429 C99.0691428,73.4775024 102.354911,70.3492166 106.625405,65.6531144 L106.625405,110.211719 Z M106.625405,122.051891 C106.625405,123.512444 105.465553,124.701163 104.038706,124.701163 L98.8222436,124.701163 L59.3183806,84.2641376 L66.6392273,76.7718269 L106.625405,117.704029 L106.625405,122.051891 Z M19.815953,124.701163 L55.6593927,88.0124971 L91.5013969,124.701163 L19.815953,124.701163 Z M7.76382971,124.701163 C6.33698233,124.701163 5.17569508,123.512444 5.17569508,122.051891 L5.17569508,117.208852 L73.4217765,47.3506585 C75.1084421,50.0954391 77.1467955,53.0091972 79.5296594,56.0831164 L12.4951063,124.701163 L7.76382971,124.701163 Z M5.17569508,23.5042747 C5.17569508,22.0437223 6.33698233,20.8550031 7.76382971,20.8550031 L68.9244799,20.8550031 C67.9053032,23.9201061 67.352651,27.204145 67.352651,30.6174884 C67.352651,34.0367092 68.4952773,38.0363307 70.7604334,42.5825572 L5.17569508,109.716541 L5.17569508,23.5042747 Z M97.1140461,0.192741172 C86.0595675,0.192741172 76.3946144,6.38613002 71.2628444,15.5564597 L7.76382971,15.5564597 C3.48328757,15.5564597 -0.000574184056,19.1211481 -0.000574184056,23.5042747 L-0.000574184056,122.05336 C-0.000574184056,126.435018 3.48328757,129.999706 7.76382971,129.999706 L104.038706,129.999706 C108.319248,129.999706 111.801674,126.435018 111.801674,122.05336 L111.801674,59.6962939 C112.097379,59.3392373 112.394519,58.979242 112.691659,58.6148386 C122.103972,47.0347442 126.876877,37.6146219 126.876877,30.6174884 C126.876877,13.8417065 113.525662,0.192741172 97.1140461,0.192741172 Z" id="Fill-3" fill="#FFFFFF" mask="url(#mask-2)"></path>
                        </g>
                        <path d="M96.7619048,39.5866858 C91.6883665,39.5866858 87.5611061,35.3656607 87.5611061,30.1785714 C87.5611061,24.990014 91.6883665,20.7704571 96.7619048,20.7704571 C101.835443,20.7704571 105.964135,24.990014 105.964135,30.1785714 C105.964135,35.3656607 101.835443,39.5866858 96.7619048,39.5866858 M96.7619048,15.4761905 C88.8423749,15.4761905 82.3988095,22.0712669 82.3988095,30.1785714 C82.3988095,38.285876 88.8423749,44.8809524 96.7619048,44.8809524 C104.681435,44.8809524 111.125,38.285876 111.125,30.1785714 C111.125,22.0712669 104.681435,15.4761905 96.7619048,15.4761905" id="Fill-6" fill="#FFFFFF"></path>
                        <path d="M72.3684366,113.75 L71.2611454,113.75 C69.8975875,113.75 68.7916667,114.962216 68.7916667,116.458333 C68.7916667,117.954451 69.8975875,119.166667 71.2611454,119.166667 L72.3684366,119.166667 C73.7333649,119.166667 74.8392857,117.954451 74.8392857,116.458333 C74.8392857,114.962216 73.7333649,113.75 72.3684366,113.75" id="Fill-8" fill="#FFFFFF"></path>
                        <path d="M63.1860848,113.75 L38.1101023,113.75 C36.6853305,113.75 35.5297619,114.962216 35.5297619,116.458333 C35.5297619,117.954451 36.6853305,119.166667 38.1101023,119.166667 L63.1860848,119.166667 C64.6122885,119.166667 65.7678571,117.954451 65.7678571,116.458333 C65.7678571,114.962216 64.6122885,113.75 63.1860848,113.75" id="Fill-10" fill="#FFFFFF"></path>
                    </g>
                </g>
            </g>
        </g>
    </g>
</svg>