<?xml version="1.0" encoding="UTF-8"?>
<svg width="120px" height="120px" viewBox="0 0 120 120" version="1.1" xmlns="http://www.w3.org/2000/svg" xmlns:xlink="http://www.w3.org/1999/xlink">
    <!-- Generator: Sketch 49.3 (51167) - http://www.bohemiancoding.com/sketch -->
    <title>nube icono</title>
    <desc>Created with Sketch.</desc>
    <defs>
        <polygon id="path-1" points="0.700933333 0.307631579 23.8516 0.307631579 23.8516 49 0.700933333 49"></polygon>
        <polygon id="path-3" points="0 0.435029268 119.564835 0.435029268 119.564835 107.149566 0 107.149566"></polygon>
        <polygon id="path-5" points="0.262236842 0.307631579 23.1082895 0.307631579 23.1082895 49 0.262236842 49"></polygon>
    </defs>
    <g id="AUTOTRANSPORTE" stroke="none" stroke-width="1" fill="none" fill-rule="evenodd" opacity="0.21">
        <g id="SOV-AUTOTRANSPORTE" transform="translate(-346.000000, -6138.000000)">
            <g id="nube-icono" transform="translate(346.000000, 6138.000000)">
                <g id="Group-3" transform="translate(34.000000, 71.000000)">
                    <mask id="mask-2" fill="white">
                        <use xlink:href="#path-1"></use>
                    </mask>
                    <g id="Clip-2"></g>
                    <path d="M15.4916,45.1918421 C13.0102667,45.1918421 10.9902667,43.1997368 10.9902667,40.7497368 C10.9902667,38.3010526 13.0102667,36.3076316 15.4916,36.3076316 C17.9729333,36.3076316 19.9929333,38.3010526 19.9929333,40.7497368 C19.9929333,43.1997368 17.9729333,45.1918421 15.4916,45.1918421 M17.4196,32.7247368 L17.4196,2.21157895 C17.4196,1.16026316 16.5569333,0.307631579 15.4916,0.307631579 L2.63026667,0.307631579 C1.56626667,0.307631579 0.700933333,1.16026316 0.700933333,2.21157895 C0.700933333,3.26421053 1.56626667,4.11552632 2.63026667,4.11552632 L13.5622667,4.11552632 L13.5622667,32.7247368 C9.8796,33.5865789 7.1316,36.8576316 7.1316,40.7497368 C7.1316,45.2984211 10.8822667,49.0010526 15.4916,49.0010526 C20.1009333,49.0010526 23.8516,45.2984211 23.8516,40.7497368 C23.8516,36.8576316 21.1022667,33.5865789 17.4196,32.7247368" id="Fill-1" fill="#FFFFFF" mask="url(#mask-2)"></path>
                </g>
                <path d="M104.706646,103.192244 C102.245093,103.192244 100.241197,101.198896 100.241197,98.7503015 C100.241197,96.3017068 102.245093,94.3083586 104.706646,94.3083586 C107.168198,94.3083586 109.172095,96.3017068 109.172095,98.7503015 C109.172095,101.198896 107.168198,103.192244 104.706646,103.192244 M104.706646,90.500603 C100.792764,90.500603 97.5058449,93.2136618 96.6381511,96.8477395 L92.5867086,96.8477395 L92.5867086,72.9038778 C92.5867086,71.8539162 91.7282737,71 90.6727559,71 L77.9139527,71 C76.8571122,71 76,71.8539162 76,72.9038778 C76,73.9564709 76.8571122,74.8090713 77.9139527,74.8090713 L88.7574804,74.8090713 L88.7574804,98.7503015 C88.7574804,99.8015789 89.6159153,100.654179 90.6727559,100.654179 L96.6381511,100.654179 C97.5058449,104.288257 100.792764,107 104.706646,107 C109.279234,107 113,103.298819 113,98.7503015 C113,94.2017836 109.279234,90.500603 104.706646,90.500603" id="Fill-4" fill="#FFFFFF"></path>
                <g id="Group-8">
                    <mask id="mask-4" fill="white">
                        <use xlink:href="#path-3"></use>
                    </mask>
                    <g id="Clip-7"></g>
                    <path d="M15.2633407,103.337956 C12.8092747,103.337956 10.8114725,101.34259 10.8114725,98.8915171 C10.8114725,96.4404439 12.8092747,94.445078 15.2633407,94.445078 C17.7174066,94.445078 19.7152088,96.4404439 19.7152088,98.8915171 C19.7152088,101.34259 17.7174066,103.337956 15.2633407,103.337956 M115.020264,41.4829317 C112.450154,38.2942976 108.958286,35.9314683 105.070813,34.7263463 C104.633011,25.7070293 100.886637,17.2896146 94.4264176,10.8925902 C87.6193846,4.14785854 78.5877363,0.435029268 68.9982857,0.435029268 C56.4048791,0.435029268 44.7516923,6.99273659 38.2004835,17.6583951 C36.6061978,17.1552732 34.9499341,16.9023951 33.2567473,16.9023951 C25.4607033,16.9023951 18.7591648,22.3972244 17.1437802,29.8861024 C7.13367033,32.4807366 -0.000395604396,41.5922488 -0.000395604396,52.0392732 C-0.000395604396,64.6594683 10.2787253,74.9260537 22.9143297,74.9260537 L27.3477363,74.9260537 L27.3477363,96.9870293 L23.3072967,96.9870293 C22.4422418,93.3492732 19.1653187,90.6334683 15.2633407,90.6334683 C10.7046593,90.6334683 6.99520879,94.3383951 6.99520879,98.8915171 C6.99520879,103.444639 10.7046593,107.149566 15.2633407,107.149566 C19.1653187,107.149566 22.4422418,104.435078 23.3072967,100.797322 L29.2545495,100.797322 C30.3081758,100.797322 31.164,99.9438585 31.164,98.8915171 L31.164,73.0189317 C31.164,71.9679073 30.3081758,71.1131268 29.2545495,71.1131268 L22.9143297,71.1131268 C12.382022,71.1131268 3.81586813,62.5574195 3.81586813,52.0392732 C3.81586813,42.9620049 10.2760879,35.0951268 19.1771868,33.3315659 C19.9802637,33.1735171 20.5908132,32.5189317 20.6976264,31.7102488 C21.5191648,25.4396634 26.9178462,20.715322 33.2567473,20.715322 C34.9987253,20.715322 36.6905934,21.0630293 38.2822418,21.7518585 C39.1842198,22.1417122 40.2352088,21.7834683 40.7099341,20.9247366 C46.4026813,10.635761 57.2435604,4.24663902 68.9982857,4.24663902 C86.6488352,4.24663902 101.138505,18.5856146 101.298066,36.2120049 C101.304659,37.0931268 101.916527,37.853078 102.77367,38.0519561 C110.41411,39.8168341 115.748176,46.5246878 115.748176,54.3652244 C115.748176,63.6005415 108.226418,71.1131268 98.9798242,71.1131268 L97.9407033,71.1131268 C96.8870769,71.1131268 96.0338901,71.9679073 96.0338901,73.0189317 C96.0338901,74.0725902 96.8870769,74.9260537 97.9407033,74.9260537 L98.9798242,74.9260537 C110.331033,74.9260537 119.565758,65.7025902 119.565758,54.3652244 C119.565758,49.6909317 117.951692,45.1167366 115.020264,41.4829317" id="Fill-6" fill="#FFFFFF" mask="url(#mask-4)"></path>
                </g>
                <g id="Group-11" transform="translate(55.000000, 71.000000)">
                    <mask id="mask-6" fill="white">
                        <use xlink:href="#path-5"></use>
                    </mask>
                    <g id="Clip-10"></g>
                    <path d="M14.8569737,45.1918421 C12.4082895,45.1918421 10.4148684,43.1997368 10.4148684,40.7497368 C10.4148684,38.3010526 12.4082895,36.3076316 14.8569737,36.3076316 C17.3056579,36.3076316 19.2990789,38.3010526 19.2990789,40.7497368 C19.2990789,43.1997368 17.3056579,45.1918421 14.8569737,45.1918421 M16.7609211,32.7247368 L16.7609211,2.21157895 C16.7609211,1.16026316 15.9082895,0.307631579 14.8569737,0.307631579 L2.16486842,0.307631579 C1.11486842,0.307631579 0.262236842,1.16026316 0.262236842,2.21157895 C0.262236842,3.26421053 1.11486842,4.11552632 2.16486842,4.11552632 L12.9543421,4.11552632 L12.9543421,32.7247368 C9.32013158,33.5865789 6.60697368,36.8576316 6.60697368,40.7497368 C6.60697368,45.2984211 10.3082895,49.0010526 14.8569737,49.0010526 C19.4056579,49.0010526 23.1082895,45.2984211 23.1082895,40.7497368 C23.1082895,36.8576316 20.3951316,33.5865789 16.7609211,32.7247368" id="Fill-9" fill="#FFFFFF" mask="url(#mask-6)"></path>
                </g>
                <path d="M92.2488298,38 L92.2657719,38 C93.2314681,37.9922678 94.0095918,37.1494535 93.9999106,36.118488 C93.9744976,33.0474996 93.429932,30.0422353 92.3807357,27.1864609 C92.0297935,26.2276631 91.0144812,25.7534189 90.1141328,26.1284326 C89.2137844,26.5021576 88.7684508,27.5833826 89.1206032,28.5421805 C90.0124806,30.975259 90.4759664,33.5359195 90.4989592,36.1519944 C90.5086403,37.1765163 91.2891843,38 92.2488298,38" id="Fill-12" fill="#FFFFFF"></path>
                <path d="M85.6725801,22.2850409 C86.0452007,22.756233 86.581411,23 87.1215162,23 C87.5434734,23 87.9693256,22.8515609 88.3185763,22.5492353 C89.1183475,21.8560654 89.2300039,20.6127174 88.569154,19.773832 C83.6783454,13.5639011 76.5011779,10 68.8786833,10 C67.8426161,10 67,10.8838257 67,11.9719254 C67,13.0600251 67.8426161,13.9411272 68.8786833,13.9411272 C75.3755259,13.9411272 81.4971512,16.9820867 85.6725801,22.2850409" id="Fill-14" fill="#FFFFFF"></path>
            </g>
        </g>
    </g>
</svg>