<?xml version="1.0" encoding="UTF-8"?>
<svg width="126px" height="129px" viewBox="0 0 126 129" version="1.1" xmlns="http://www.w3.org/2000/svg" xmlns:xlink="http://www.w3.org/1999/xlink">
    <!-- Generator: Sketch 49.3 (51167) - http://www.bohemiancoding.com/sketch -->
    <title>icono funcionamiento</title>
    <desc>Created with Sketch.</desc>
    <defs>
        <polygon id="path-1" points="0.000138461538 0.187212722 125.817231 0.187212722 125.817231 86.1045203 0.000138461538 86.1045203"></polygon>
        <polygon id="path-3" points="0.000513209987 0.267859837 125.817231 0.267859837 125.817231 38.6227545 0.000513209987 38.6227545"></polygon>
        <polygon id="path-5" points="0 129 126 129 126 0 0 0"></polygon>
    </defs>
    <g id="AUTOTRANSPORTE" stroke="none" stroke-width="1" fill="none" fill-rule="evenodd" opacity="0.209999993">
        <g id="SOV-AUTOTRANSPORTE" transform="translate(-343.000000, -5713.000000)">
            <g id="Parte-3" transform="translate(1.000000, 5494.000000)">
                <g id="ICONOS" transform="translate(342.000000, 199.000000)">
                    <g id="icono-funcionamiento" transform="translate(0.000000, 20.000000)">
                        <path d="M12.8263473,12.745509 C12.8263473,15.0878662 14.6854241,16.994012 16.9746779,16.994012 C19.2639317,16.994012 21.1257485,15.0892688 21.1257485,12.745509 C21.1257485,10.4017492 19.2639317,8.49700599 16.9746779,8.49700599 C14.6854241,8.49700599 12.8263473,10.4017492 12.8263473,12.745509" id="Fill-1" fill="#FFFFFF"></path>
                        <g id="Group-5">
                            <mask id="mask-2" fill="white">
                                <use xlink:href="#path-1"></use>
                            </mask>
                            <g id="Clip-4"></g>
                            <path d="M2.09783077,25.9624334 L115.331677,25.9624334 C116.489215,25.9624334 117.429369,25.0008408 117.429369,23.8137419 C117.429369,22.6280613 116.489215,21.6664687 115.331677,21.6664687 L4.19413846,21.6664687 L4.19413846,10.9258479 C4.19413846,7.37447932 7.01736923,4.48261007 10.4858308,4.48261007 L115.333062,4.48261007 C118.800138,4.48261007 121.623369,7.37447932 121.623369,10.9258479 L121.623369,83.9558289 C121.623369,85.1429277 122.562138,86.1045203 123.719677,86.1045203 C124.8786,86.1045203 125.818754,85.1429277 125.818754,83.9558289 L125.818754,10.9258479 C125.818754,5.00595473 121.113831,0.186645411 115.331677,0.186645411 L10.4858308,0.186645411 C4.70367692,0.186645411 0.000138461538,5.00595473 0.000138461538,10.9258479 L0.000138461538,23.8137419 C0.000138461538,25.0008408 0.940292308,25.9624334 2.09783077,25.9624334" id="Fill-3" fill="#FFFFFF" mask="url(#mask-2)"></path>
                        </g>
                        <path d="M37.7245509,12.745509 C37.7245509,15.0878662 39.5846907,16.994012 41.8735666,16.994012 C44.1610728,16.994012 46.0239521,15.0892688 46.0239521,12.745509 C46.0239521,10.4017492 44.1610728,8.49700599 41.8735666,8.49700599 C39.5846907,8.49700599 37.7245509,10.4017492 37.7245509,12.745509" id="Fill-6" fill="#FFFFFF"></path>
                        <path d="M24.8982036,12.745509 C24.8982036,15.0878662 26.7572804,16.994012 29.0465342,16.994012 C31.335788,16.994012 33.1976048,15.0892688 33.1976048,12.745509 C33.1976048,10.4017492 31.335788,8.49700599 29.0465342,8.49700599 C26.7572804,8.49700599 24.8982036,10.4017492 24.8982036,12.745509" id="Fill-8" fill="#FFFFFF"></path>
                        <path d="M2.26422032,85.742515 C3.51215693,85.742515 4.52694611,84.7834591 4.52694611,83.6012356 L4.52694611,32.264203 C4.52694611,31.0833919 3.51215693,30.1257485 2.26422032,30.1257485 C1.01478917,30.1257485 0,31.0833919 0,32.264203 L0,83.6012356 C0,84.7834591 1.01478917,85.742515 2.26422032,85.742515" id="Fill-10" fill="#FFFFFF"></path>
                        <path d="M94.43642,38.6227545 C95.6164383,38.6227545 96.5748503,37.5849912 96.5748503,36.3053892 C96.5748503,35.0257873 95.6164383,33.988024 94.43642,33.988024 L85.8855218,33.988024 C84.7055035,33.988024 83.748503,35.0257873 83.748503,36.3053892 C83.748503,37.5849912 84.7055035,38.6227545 85.8855218,38.6227545 L94.43642,38.6227545 Z" id="Fill-12" fill="#FFFFFF"></path>
                        <path d="M77.8376176,38.6227545 C79.0176359,38.6227545 79.9760479,37.5849912 79.9760479,36.3053892 C79.9760479,35.0257873 79.0176359,33.988024 77.8376176,33.988024 L69.2867194,33.988024 C68.1052896,33.988024 67.1497006,35.0257873 67.1497006,36.3053892 C67.1497006,37.5849912 68.1052896,38.6227545 69.2867194,38.6227545 L77.8376176,38.6227545 Z" id="Fill-14" fill="#FFFFFF"></path>
                        <path d="M113.173653,36.3061543 C113.173653,35.0269748 112.215241,33.988024 111.033811,33.988024 L102.485736,33.988024 C101.304306,33.988024 100.347305,35.0269748 100.347305,36.3061543 C100.347305,37.5853338 101.304306,38.6227545 102.485736,38.6227545 L111.033811,38.6227545 C112.215241,38.6227545 113.173653,37.5853338 113.173653,36.3061543" id="Fill-16" fill="#FFFFFF"></path>
                        <path d="M33.9520958,36.3061543 C33.9520958,35.0269748 33.0049592,33.988024 31.8374286,33.988024 L14.9382247,33.988024 C13.7734839,33.988024 12.8263473,35.0269748 12.8263473,36.3061543 C12.8263473,37.5853338 13.7734839,38.6227545 14.9382247,38.6227545 L31.8374286,38.6227545 C33.0049592,38.6227545 33.9520958,37.5853338 33.9520958,36.3061543" id="Fill-18" fill="#FFFFFF"></path>
                        <path d="M84.4943819,112.125832 C84.2806621,112.05401 84.0573523,112.017395 83.8340425,112.017395 C83.6189527,112.017395 83.4038628,112.049785 83.198363,112.118791 C83.2805629,111.63012 83.195623,111.130183 82.9654632,110.707702 C83.195623,110.516177 83.3901629,110.27677 83.5312727,109.990891 L83.7477326,109.541652 L83.9655624,109.990891 C84.1436622,110.357042 84.413552,110.651371 84.7382417,110.856978 C84.5327419,111.241437 84.445062,111.686451 84.4943819,112.125832 M91.9293658,108.326313 C91.6348161,107.475716 90.8525467,106.905366 89.9730074,106.905366 L87.1055998,106.905366 L85.605451,103.821249 C84.9026416,102.374953 82.5941935,102.374953 81.8913841,103.821249 L80.3912353,106.905366 L77.5238277,106.905366 C76.6251084,106.905366 75.8277691,107.501065 75.5510293,108.379827 C75.2729195,109.258589 75.5770593,110.221848 76.3031587,110.764032 L78.6773667,112.537048 L77.7019275,115.332469 C77.4210778,116.136592 77.6347976,117.032254 78.2430771,117.61387 C78.6335268,117.988471 79.1417963,118.185629 79.6541759,118.185629 C79.9405057,118.185629 80.2254654,118.125073 80.4967252,117.999737 L83.8271925,116.484436 L87.0905298,117.99692 C87.8453992,118.34758 88.7276785,118.198303 89.340068,117.629361 C89.9497175,117.056194 90.1743973,116.166166 89.9058775,115.363451 L88.9893483,112.603236 L91.2772464,110.695027 C91.9595058,110.128902 92.2225456,109.178318 91.9293658,108.326313" id="Fill-20" fill="#FFFFFF"></path>
                        <path d="M96.5748503,96.5553566 C96.5748503,95.2781289 95.6340368,94.239521 94.4756861,94.239521 L31.5229284,94.239521 C30.3659632,94.239521 29.4251497,95.2781289 29.4251497,96.5553566 C29.4251497,97.8356436 30.3659632,98.8742515 31.5229284,98.8742515 L94.4756861,98.8742515 C95.6340368,98.8742515 96.5748503,97.8356436 96.5748503,96.5553566" id="Fill-22" fill="#FFFFFF"></path>
                        <path d="M63.3686334,112.125832 C63.1562836,112.05401 62.9316038,112.017395 62.708294,112.017395 C62.4932042,112.017395 62.2781143,112.049785 62.0726145,112.118791 C62.1561844,111.63012 62.0698745,111.130183 61.8410847,110.707702 C62.0698745,110.516177 62.2644143,110.27677 62.4041542,109.990891 L62.6219841,109.541652 L62.8398139,109.990891 C63.0179137,110.357042 63.2878035,110.651371 63.6111232,110.856978 C63.4069934,111.241437 63.3193135,111.686451 63.3686334,112.125832 M70.8036173,108.326313 C70.5090676,107.475716 69.7267982,106.905366 68.8472589,106.905366 L65.9798513,106.905366 L64.4797025,103.821249 C63.7755231,102.374953 61.468445,102.374953 60.7656356,103.821249 L59.2654868,106.905366 L56.3980792,106.905366 C55.4993599,106.905366 54.7020206,107.501065 54.4252808,108.379827 C54.147171,109.258589 54.4513108,110.221848 55.1774102,110.764032 L57.5516182,112.537048 L56.576179,115.332469 C56.2953293,116.136592 56.5090491,117.032254 57.1186986,117.61387 C57.5077783,117.988471 58.0160478,118.185629 58.5297974,118.185629 C58.8147572,118.185629 59.0997169,118.125073 59.3709767,117.999737 L62.701444,116.484436 L65.9647813,117.99692 C66.7182807,118.34758 67.60193,118.198303 68.2143195,117.629361 C68.823969,117.056194 69.0486488,116.166166 68.780129,115.363451 L67.8635997,112.603236 L70.1514979,110.695027 C70.8337573,110.128902 71.0967971,109.178318 70.8036173,108.326313" id="Fill-24" fill="#FFFFFF"></path>
                        <path d="M42.2429711,112.125832 C42.0306237,112.05401 41.8059465,112.017395 41.5812692,112.017395 C41.3675518,112.017395 41.1524644,112.049785 40.9483369,112.118791 C41.029166,111.63012 40.945597,111.130183 40.7154398,110.707702 C40.945597,110.516177 41.1387646,110.27677 41.2785029,109.990891 L41.4963302,109.541652 L41.7141576,109.990891 C41.8922554,110.357042 42.1621421,110.651371 42.4868281,110.856978 C42.2799607,111.241437 42.1936517,111.686451 42.2429711,112.125832 M49.6778702,108.326313 C49.3819538,107.475716 48.6010634,106.905366 47.7215341,106.905366 L44.8527892,106.905366 L43.3540275,103.821249 C42.6498561,102.374953 40.3428043,102.374953 39.6400029,103.821249 L38.1398713,106.905366 L35.2724964,106.905366 C34.3737873,106.905366 33.5778271,107.501065 33.2997205,108.379827 C33.0216139,109.258589 33.3243802,110.221848 34.0518413,110.764032 L36.4260223,112.537048 L35.4505942,115.332469 C35.1711176,116.136592 35.383465,117.032254 35.9931075,117.61387 C36.3821828,117.988471 36.8904466,118.185629 37.4028203,118.185629 C37.6905168,118.185629 37.9727333,118.125073 38.24536,117.999737 L41.5757893,116.484436 L44.8390894,117.99692 C45.5925801,118.34758 46.4734794,118.198303 47.0872319,117.629361 C47.6968744,117.056194 47.9229216,116.166166 47.6544049,115.363451 L46.7365162,112.603236 L49.0257582,110.695027 C49.7080098,110.128902 49.9710466,109.178318 49.6778702,108.326313" id="Fill-26" fill="#FFFFFF"></path>
                        <g id="Group-30" transform="translate(0.000000, 89.604790)">
                            <mask id="mask-4" fill="white">
                                <use xlink:href="#path-3"></use>
                            </mask>
                            <g id="Clip-29"></g>
                            <path d="M117.748385,17.3133228 L125.541,3.4546509 C125.912077,2.79759508 125.910692,1.9843654 125.534077,1.33012352 C125.160231,0.673067707 124.466538,0.267859837 123.718846,0.267859837 L102.751615,0.267859837 C101.592692,0.267859837 100.653923,1.2217867 100.653923,2.3980151 L100.653923,34.3601928 L25.1646923,34.3601928 L25.1646923,2.3980151 C25.1646923,1.2217867 24.2245385,0.267859837 23.067,0.267859837 L2.09838462,0.267859837 C1.35069231,0.267859837 0.659769231,0.671660736 0.283153846,1.33012352 C-0.0920769231,1.9843654 -0.0934615385,2.79759508 0.277615385,3.4546509 L8.06884615,17.3133228 L0.277615385,31.1734018 C-0.0934615385,31.8304576 -0.0920769231,32.6436873 0.283153846,33.2993361 C0.659769231,33.9549849 1.35207692,34.3601928 2.09838462,34.3601928 L14.679,34.3601928 C15.8351538,34.3601928 16.7753077,33.406266 16.7753077,32.2314445 C16.7753077,31.0538092 15.8351538,30.0984753 14.679,30.0984753 L5.71084615,30.0984753 L12.3057692,18.3727726 C12.6740769,17.7143098 12.6740769,16.9137429 12.3057692,16.258094 L5.71084615,4.52957733 L20.9693077,4.52957733 L20.9693077,36.491755 C20.9693077,37.6679834 21.9080769,38.6233173 23.067,38.6233173 L102.751615,38.6233173 C103.907769,38.6233173 104.847923,37.6679834 104.847923,36.491755 L104.847923,4.52957733 L120.107769,4.52957733 L113.512846,16.258094 C113.143154,16.9137429 113.143154,17.7143098 113.512846,18.3727726 L120.107769,30.0984753 L111.138231,30.0984753 C109.982077,30.0984753 109.041923,31.0538092 109.041923,32.2314445 C109.041923,33.406266 109.982077,34.3601928 111.138231,34.3601928 L123.718846,34.3601928 C124.466538,34.3601928 125.160231,33.9563919 125.534077,33.2993361 C125.909308,32.6436873 125.912077,31.8304576 125.541,31.1734018 L117.748385,17.3133228 Z" id="Fill-28" fill="#FFFFFF" mask="url(#mask-4)"></path>
                        </g>
                        <mask id="mask-6" fill="white">
                            <use xlink:href="#path-5"></use>
                        </mask>
                        <g id="Clip-32"></g>
                        <path d="M84.1259768,64.5003506 L100.725693,64.5003506 L100.725693,56.0026434 L84.1259768,56.0026434 L84.1259768,64.5003506 Z M104.874251,66.6237256 L104.874251,53.8806709 C104.874251,52.706784 103.945347,51.754491 102.799972,51.754491 L82.0503273,51.754491 C80.9063225,51.754491 79.9760479,52.706784 79.9760479,53.8806709 L79.9760479,66.6237256 C79.9760479,67.79621 80.9063225,68.748503 82.0503273,68.748503 L102.799972,68.748503 C103.945347,68.748503 104.874251,67.79621 104.874251,66.6237256 Z" id="Fill-31" fill="#FFFFFF" mask="url(#mask-6)"></path>
                        <path d="M102.610778,74.9289083 C102.610778,73.6490437 101.663704,72.6107784 100.497646,72.6107784 L83.5981627,72.6107784 C82.432104,72.6107784 81.4850299,73.6490437 81.4850299,74.9289083 C81.4850299,76.2072437 82.432104,77.245509 83.5981627,77.245509 L100.497646,77.245509 C101.663704,77.245509 102.610778,76.2072437 102.610778,74.9289083" id="Fill-33" fill="#FFFFFF" mask="url(#mask-6)"></path>
                        <path d="M54.6994571,64.5017531 L71.3005429,64.5017531 L71.3005429,56.0040459 L54.6994571,56.0040459 L54.6994571,64.5017531 Z M50.5508982,53.8806709 L50.5508982,66.6237256 C50.5508982,67.79621 51.4811728,68.748503 52.6265477,68.748503 L73.3748224,68.748503 C74.5201973,68.748503 75.4491018,67.79621 75.4491018,66.6237256 L75.4491018,53.8806709 C75.4491018,52.706784 74.5201973,51.754491 73.3748224,51.754491 L52.6265477,51.754491 C51.4811728,51.754491 50.5508982,52.706784 50.5508982,53.8806709 Z" id="Fill-34" fill="#FFFFFF" mask="url(#mask-6)"></path>
                        <path d="M54.1717576,72.6107784 C53.0070168,72.6107784 52.0598802,73.6497293 52.0598802,74.9304389 C52.0598802,76.2080883 53.0070168,77.245509 54.1717576,77.245509 L71.0737513,77.245509 C72.2384922,77.245509 73.1856287,76.2080883 73.1856287,74.9304389 C73.1856287,73.6497293 72.2384922,72.6107784 71.0737513,72.6107784 L54.1717576,72.6107784 Z" id="Fill-35" fill="#FFFFFF" mask="url(#mask-6)"></path>
                        <path d="M25.2754491,64.5017531 L41.8728815,64.5017531 L41.8728815,56.0040459 L25.2754491,56.0040459 L25.2754491,64.5017531 Z M23.2012838,68.748503 L43.9484168,68.748503 C45.0937287,68.748503 46.0239521,67.79621 46.0239521,66.6251281 L46.0239521,53.8806709 C46.0239521,52.706784 45.0937287,51.754491 43.9484168,51.754491 L23.2012838,51.754491 C22.0546019,51.754491 21.1257485,52.706784 21.1257485,53.8806709 L21.1257485,66.6251281 C21.1257485,67.79621 22.0546019,68.748503 23.2012838,68.748503 Z" id="Fill-36" fill="#FFFFFF" mask="url(#mask-6)"></path>
                        <path d="M25.5024939,77.245509 L42.4016978,77.245509 C43.5678335,77.245509 44.5149701,76.206901 44.5149701,74.9281437 C44.5149701,73.6478568 43.5678335,72.6107784 42.4016978,72.6107784 L25.5024939,72.6107784 C24.3349632,72.6107784 23.3892216,73.6478568 23.3892216,74.9281437 C23.3892216,76.206901 24.3349632,77.245509 25.5024939,77.245509" id="Fill-37" fill="#FFFFFF" mask="url(#mask-6)"></path>
                    </g>
                </g>
            </g>
        </g>
    </g>
</svg>