<?xml version="1.0" encoding="UTF-8"?>
<svg width="155px" height="158px" viewBox="0 0 155 158" version="1.1" xmlns="http://www.w3.org/2000/svg" xmlns:xlink="http://www.w3.org/1999/xlink">
    <!-- Generator: Sketch 49.3 (51167) - http://www.bohemiancoding.com/sketch -->
    <title>mundo</title>
    <desc>Created with Sketch.</desc>
    <defs>
        <polygon id="path-1" points="0.000833333333 0.0532210526 154.266116 0.0532210526 154.266116 158 0.000833333333 158"></polygon>
    </defs>
    <g id="Sistemas" stroke="none" stroke-width="1" fill="none" fill-rule="evenodd">
        <g id="SOV-EVALUACION" transform="translate(-305.000000, -765.000000)">
            <g id="slider" transform="translate(0.000000, 416.000000)">
                <g id="slider-2" transform="translate(254.000000, 134.000000)">
                    <g id="mundo" transform="translate(51.000000, 215.000000)">
                        <g id="Group-3">
                            <mask id="mask-2" fill="white">
                                <use xlink:href="#path-1"></use>
                            </mask>
                            <g id="Clip-2"></g>
                            <path d="M144.1425,27.8023453 C143.429167,28.3927663 130.2175,39.3696084 127.835833,41.3504295 C124.279167,18.27744 124.5525,20.0570189 124.534167,19.9771874 C123.9725,17.3776716 124.249167,14.7033137 125.3225,12.2435032 C127.924167,6.31101895 134.780833,3.27242947 140.9375,5.32642947 C146.4275,7.15756632 149.619167,12.2185558 149.619167,17.3211242 C149.619167,24.1766611 144.4075,27.5029768 144.1425,27.8023453 M145.140833,77.7419874 C135.170833,80.9685137 127.220833,74.0697347 122.734167,64.6579242 C122.180833,63.5020295 120.7925,63.0097347 119.6325,63.5619032 C118.474167,64.1107453 117.980833,65.4944926 118.5325,66.6503874 C123.829167,77.7619453 133.475833,85.6187032 145.3375,82.5152505 C145.540833,105.372029 134.739167,125.759019 117.915833,138.724998 C113.8325,132.045756 107.1975,125.936977 99.3258333,126.678745 C95.0041667,127.084556 91.0191667,129.546029 87.4791667,133.99664 C83.9458333,138.435608 80.8508333,144.913608 78.2691667,153.267651 C38.0558333,155.112093 4.64916667,122.979882 4.64916667,83.1422611 C4.64916667,74.7732505 6.12916667,66.7401979 8.83416667,59.2892505 C21.9391667,61.5411663 37.3875,43.1349979 57.0358333,98.69944 C57.3741667,99.6507663 58.2741667,100.249503 59.2308333,100.249503 C60.8275,100.249503 61.9575,98.6661768 61.4225,97.1543663 C41.2991667,40.2544084 22.5791667,55.6020295 10.6325,54.8319874 C20.2908333,33.0496084 40.5158333,17.1431663 65.1241667,13.6372295 C59.9391667,16.6741558 56.1875,19.8724084 53.6808333,22.3937558 C52.7775,23.3035032 52.7808333,24.7720716 53.6925,25.6768295 C54.6041667,26.5765979 56.0758333,26.5749347 56.9825,25.6651874 C60.4741667,22.1509347 66.6241667,17.1847453 76.0758333,13.4875453 C76.4291667,13.3511663 76.8441667,13.1765347 77.2891667,12.9819453 C91.8858333,13.4526189 105.3675,18.3772295 116.4225,26.4402189 C113.0475,36.5488926 112.8175,47.6122189 115.275833,57.4847242 C115.539167,58.5375032 116.4875,59.2426821 117.5325,59.2426821 C119.044167,59.2426821 120.154167,57.8223453 119.789167,56.3604295 C117.6525,47.7901768 117.7425,38.2652716 120.330833,29.5070821 C120.705833,29.8247453 121.074167,30.1424084 121.439167,30.4650611 L123.2725,42.2684926 C123.5225,43.8751032 124.624167,45.2305768 126.149167,45.8060295 C129.4125,47.0351032 131.3125,44.3108505 132.840833,43.2248084 C140.015833,53.5513558 144.2075,65.5028084 145.140833,77.7419874 M83.2791667,152.855187 C86.0425,144.489503 91.7775,131.257419 100.600833,131.257419 C106.115833,131.257419 111.075833,136.340029 114.1325,141.449251 C104.915833,147.629545 94.4125,151.542956 83.2791667,152.855187 M153.140833,23.4432084 C156.610833,14.2725558 151.7825,4.05245053 142.4125,0.92904 C133.9975,-1.88169684 124.6175,2.27287158 121.065833,10.3874189 C118.3925,16.4828926 120.184167,21.0915032 120.360833,23.5330189 C107.804167,13.9765137 92.6291667,8.66106105 76.6258333,8.32011368 C35.3725,7.31057684 0.000833333333,40.5188505 0.000833333333,83.1422611 C0.000833333333,103.133419 7.8025,121.928766 21.9675,136.063945 C51.2741667,165.31224 98.7175,165.313903 128.030833,136.063945 C154.2675,109.880851 156.9125,69.3380505 136.450833,40.2261347 C147.830833,30.6496716 150.969167,29.1628084 153.140833,23.4432084" id="Fill-1" fill="#FFFFFF" mask="url(#mask-2)"></path>
                        </g>
                        <path d="M142.061867,18.2217923 C141.10757,20.7382225 138.296217,22.0039023 135.774146,21.0533983 C130.731666,19.1523904 132.104923,11.6312999 137.496536,11.6312999 C138.078424,11.6312999 138.663638,11.7374643 139.222251,11.9497933 C141.744322,12.8986384 143.014502,15.7053621 142.061867,18.2217923 M140.863177,7.61861391 C138.485746,6.72119221 135.898836,6.80247439 133.58292,7.84753109 C125.926929,11.2962182 126.177973,22.3821133 134.13322,25.3812601 C135.228833,25.7943063 136.36601,26 137.503186,26 C138.83488,26 140.163248,25.7180006 141.413477,25.1556605 C149.179195,21.6572088 148.712022,10.5796079 140.863177,7.61861391" id="Fill-4" fill="#FFFFFF"></path>
                        <path d="M100,58.7509786 C100,52.9391523 97.0333192,47.1223474 91.8599202,42.7908607 C83.6633005,35.9268649 69.993953,32.8466965 53.4776562,38.8659695 C52.1922054,39.3323096 51.347433,39.4302244 50.8651811,39.4302244 C50.0120941,39.4302244 49.6379331,39.3024373 49.6379331,38.0843104 C49.6379331,36.6670346 50.3513334,34.6207806 51.5935478,32.4699734 C52.2321159,31.3630379 51.8513031,29.9490813 50.7421237,29.3101455 C49.6312814,28.6712097 48.2127955,29.0512521 47.5742275,30.1581875 C45.8896716,33.0740581 45,35.8156734 45,38.0843104 C45,42.5983501 48.575316,45.5789441 55.0674246,43.2140519 C78.6129588,34.6357167 95.3604039,46.6261349 95.3604039,58.7509786 C95.3604039,68.1740366 87.6643285,64.8548897 88.342807,84.1839417 C88.6936869,94.2276802 87.8721957,107.016353 83.1112052,115.832007 C80.5635847,120.550175 77.1445849,123.36979 73.9650481,123.36979 C71.3675395,123.36979 69.1940799,121.511068 67.9984278,118.266602 C66.7861462,113.920179 65.5505835,109.746352 64.3216726,105.86129 C63.9358711,104.643163 62.6337909,103.966057 61.4115317,104.352738 C60.1909355,104.736099 59.5124569,106.035545 59.8982585,107.255332 C61.1188547,111.11384 62.3477656,115.266093 63.5517325,119.59426 C63.5666989,119.649026 63.5849912,119.705452 63.6049465,119.760218 C65.4707625,124.919832 69.3420814,128 73.9650481,128 C78.9521981,128 83.7747173,124.363875 87.197043,118.027623 C91.0284514,110.926308 93.0555724,100.64691 93.0555724,88.2963647 C93.0555724,81.6713475 91.94473,74.452203 96.1436476,69.3622912 C98.666324,66.3020378 100,62.6343804 100,58.7509786" id="Fill-6" fill="#FFFFFF"></path>
                    </g>
                </g>
            </g>
        </g>
    </g>
</svg>