<?xml version="1.0" encoding="UTF-8"?>
<svg width="117px" height="122px" viewBox="0 0 117 122" version="1.1" xmlns="http://www.w3.org/2000/svg" xmlns:xlink="http://www.w3.org/1999/xlink">
    <!-- Generator: Sketch 49.3 (51167) - http://www.bohemiancoding.com/sketch -->
    <title>mundo</title>
    <desc>Created with Sketch.</desc>
    <defs>
        <polygon id="path-1" points="0.000629032258 0.0410947368 116.446036 0.0410947368 116.446036 122 0.000629032258 122"></polygon>
    </defs>
    <g id="AUTOTRANSPORTE" stroke="none" stroke-width="1" fill="none" fill-rule="evenodd" opacity="0.9">
        <g id="SOV-AUTOTRANSPORTE" transform="translate(-546.000000, -5212.000000)">
            <g id="parte-nube" transform="translate(258.000000, 5059.000000)">
                <g id="mundo" style="mix-blend-mode: overlay;" transform="translate(288.000000, 153.000000)">
                    <g id="Group-3">
                        <mask id="mask-2" fill="white">
                            <use xlink:href="#path-1"></use>
                        </mask>
                        <g id="Clip-2"></g>
                        <path d="M108.804339,21.4676337 C108.265887,21.9235284 98.2932097,30.3993179 96.4954355,31.9288126 C93.8107258,14.11296 94.0170484,15.4870653 94.0032097,15.4254232 C93.5792419,13.4182021 93.7880806,11.3531916 94.5982742,9.45384421 C96.5621129,4.87306526 101.73779,2.52681263 106.385081,4.11281263 C110.529145,5.52672842 112.938339,9.43458105 112.938339,13.3745389 C112.938339,18.6680547 109.004371,21.2364758 108.804339,21.4676337 M109.557919,60.0286232 C102.032177,62.5199916 96.0312097,57.1930863 92.6445,49.9257389 C92.2268226,49.0332126 91.1788548,48.6530863 90.3032419,49.0794442 C89.4288871,49.5032337 89.0565,50.5716968 89.4729194,51.4642232 C93.4710484,60.0440337 100.752726,66.1106442 109.706371,63.7143074 C109.859855,81.3632126 101.706339,97.1050653 89.0074355,107.116771 C85.9251774,101.959381 80.9168226,97.2424758 74.9749839,97.8152337 C71.7128226,98.1285811 68.7047903,100.029213 66.0326613,103.46576 C63.3655645,106.893318 61.0293387,111.895318 59.0805968,118.345907 C28.7260161,119.770097 3.50937097,94.9591495 3.50937097,64.1984547 C3.50937097,57.7363074 4.62653226,51.5335705 6.66837097,45.7803074 C16.5605323,47.5191284 28.2215323,33.3067705 43.0528548,76.21096 C43.3082419,76.9455284 43.9875968,77.4078442 44.7097258,77.4078442 C45.9149516,77.4078442 46.7679194,76.1852758 46.3640806,75.0179284 C31.1742097,31.0825179 17.043629,42.9332126 8.02582258,42.3386232 C15.3163065,25.5193179 30.5829194,13.2371284 49.1582419,10.5300126 C45.2444032,12.8749811 42.4125,15.3445179 40.520371,17.2913811 C39.8385,17.9938442 39.8410161,19.1278021 40.5291774,19.8264126 C41.2173387,20.5211705 42.3282097,20.5198863 43.0125968,19.8174232 C45.6482419,17.1038863 50.2905,13.2692337 57.4249839,10.4144337 C57.6916935,10.3091284 58.0049516,10.1742863 58.3408548,10.0240337 C69.3589839,10.3874653 79.5354677,14.1900126 87.8802097,20.4158653 C85.332629,28.2212968 85.1590161,36.7638653 87.0146613,44.3869389 C87.2134355,45.1998442 87.9292742,45.7443495 88.7180806,45.7443495 C89.8591452,45.7443495 90.6970161,44.6476337 90.4215,43.5188126 C88.8086613,36.9012758 88.8765968,29.5466021 90.830371,22.7839495 C91.1134355,23.0292337 91.3914677,23.2745179 91.6669839,23.5236547 L93.0508548,32.6376968 C93.2395645,33.8782442 94.0711452,34.9248758 95.2222742,35.3692126 C97.6855645,36.3182442 99.1197581,34.2147074 100.273403,33.3761179 C105.689371,41.3497811 108.853403,50.5781179 109.557919,60.0286232 M62.8623387,118.027423 C64.9482097,111.567844 69.2772097,101.350665 75.9374032,101.350665 C80.1003387,101.350665 83.8443387,105.275213 86.151629,109.220307 C79.1945323,113.992434 71.2662097,117.014181 62.8623387,118.027423 M115.596629,18.1017179 C118.215919,11.0205811 114.571306,3.12910737 107.498468,0.71736 C101.1465,-1.45295579 94.0661129,1.75500211 91.3851774,8.02066526 C89.3672419,12.7272968 90.7196613,16.2858442 90.8530161,18.1710653 C81.3747581,10.7919916 69.9200806,6.68765474 57.8401452,6.42439158 C26.7005323,5.64487579 0.000629032258,31.2867074 0.000629032258,64.1984547 C0.000629032258,79.6346653 5.88962903,94.1475284 16.5819194,105.062034 C38.7037258,127.64616 74.5157903,127.647444 96.642629,105.062034 C116.447081,84.8447074 118.443629,53.5395074 102.998371,31.0606863 C111.588435,23.6662021 113.957371,22.5181179 115.596629,18.1017179" id="Fill-1" fill="#FFFFFF" mask="url(#mask-2)"></path>
                    </g>
                    <path d="M107.233796,14.0699915 C106.513456,16.0130579 104.391338,16.9903549 102.487581,16.2564215 C98.6813222,14.7885546 99.7179097,8.98113027 103.787708,8.98113027 C104.22694,8.98113027 104.668682,9.06310538 105.090344,9.2270556 C106.994101,9.95970817 107.952882,12.1269252 107.233796,14.0699915 M106.328979,5.8827272 C104.534402,5.18978132 102.581702,5.25254352 100.833559,6.05948603 C95.054521,8.72239632 95.2440182,17.2823912 101.248947,19.5981882 C102.075958,19.9171226 102.934343,20.0759494 103.792728,20.0759494 C104.797941,20.0759494 105.800645,19.858203 106.744367,19.4239911 C112.606231,16.7226549 112.253591,8.16906431 106.328979,5.8827272" id="Fill-4" fill="#FFFFFF"></path>
                    <path d="M75.483871,45.3646796 C75.483871,40.877067 73.2445055,36.38561 69.3394236,33.0410443 C63.1522978,27.7409969 52.8341451,25.3626391 40.367005,30.0104321 C39.3966969,30.3705175 38.7590301,30.4461227 38.3950077,30.4461227 C37.7510646,30.4461227 37.4686334,30.3474516 37.4686334,29.4068726 C37.4686334,28.3125204 38.0071355,26.7325014 38.9448071,25.0717516 C39.4268229,24.2170292 39.1393708,23.12524 38.3021192,22.6318845 C37.4636124,22.138529 36.3928844,22.4319794 35.9108685,23.2867018 C34.6393005,25.5381968 33.9677419,27.6551403 33.9677419,29.4068726 C33.9677419,32.8923969 36.6665288,35.1938682 41.5670237,33.3678122 C59.3401044,26.7440344 71.9817243,36.0024586 71.9817243,45.3646796 C71.9817243,52.6407118 66.1724286,50.0778262 66.6845705,65.0027904 C66.9494282,72.7580822 66.3293348,82.6328804 62.7355549,89.4399045 C60.8125123,93.0830463 58.2317189,95.2602176 55.8316814,95.2602176 C53.8709814,95.2602176 52.23037,93.8250017 51.3278455,91.3197811 C50.4127684,87.9636824 49.4801179,84.7408538 48.5524884,81.7409962 C48.2612704,80.8004172 47.2784099,80.2775885 46.3558014,80.5761647 C45.4344481,80.872178 44.9223062,81.8755477 45.2135241,82.8174081 C46.1348774,85.7967626 47.0625069,89.0029325 47.9713077,92.3449353 C47.982605,92.3872229 47.9964127,92.430792 48.0114757,92.4730796 C49.4198659,96.4570852 52.3420872,98.835443 55.8316814,98.835443 C59.5961753,98.835443 63.2363995,96.0278019 65.8197034,91.1352533 C68.7117988,85.6519596 70.2419482,77.7147029 70.2419482,68.1782057 C70.2419482,63.062686 69.4034414,57.4884099 72.5729469,53.5582249 C74.4771607,51.1952443 75.483871,48.3632558 75.483871,45.3646796" id="Fill-6" fill="#FFFFFF"></path>
                </g>
            </g>
        </g>
    </g>
</svg>