<?xml version="1.0" encoding="UTF-8"?>
<svg width="292px" height="91px" viewBox="0 0 292 91" version="1.1" xmlns="http://www.w3.org/2000/svg" xmlns:xlink="http://www.w3.org/1999/xlink">
    <!-- Generator: Sketch 49.3 (51167) - http://www.bohemiancoding.com/sketch -->
    <title>DESEMPEÑO</title>
    <desc>Created with Sketch.</desc>
    <defs>
        <polygon id="path-1" points="0 0.7 291.491 0.7 291.491 91 0 91"></polygon>
        <polygon id="path-3" points="0 91.8576 291.491 91.8576 291.491 0.9996 0 0.9996"></polygon>
    </defs>
    <g id="RUTAS" stroke="none" stroke-width="1" fill="none" fill-rule="evenodd">
        <g id="SOV-RUTAS-Copy-3" transform="translate(-575.000000, -9441.000000)">
            <g id="parte-nube" transform="translate(0.000000, 5644.000000)">
                <g id="reporte-de-pedidos-contra-entrega" transform="translate(130.000000, 594.000000)">
                    <g id="explicacion-1" transform="translate(7.000000, 98.000000)">
                        <g id="DESEMPEÑO" transform="translate(438.000000, 3104.000000)">
                            <g id="Group-3" transform="translate(0.000000, 0.857600)">
                                <mask id="mask-2" fill="white">
                                    <use xlink:href="#path-1"></use>
                                </mask>
                                <g id="Clip-2"></g>
                                <path d="M291.1002,91 L0.3912,91 C0.1752,91 -0.0008,90.825 -0.0008,90.609 L-0.0008,1.091 C-0.0008,0.875 0.1752,0.7 0.3912,0.7 L291.1002,0.7 C291.3162,0.7 291.4912,0.875 291.4912,1.091 L291.4912,90.609 C291.4912,90.825 291.3162,91 291.1002,91" id="Fill-1" fill="#D9D9D9" mask="url(#mask-2)"></path>
                            </g>
                            <path d="M289.1177,42.9479 L2.5137,42.9479 C1.6667,42.9479 0.9787,42.2609 0.9787,41.4129 L0.9787,5.5969 C0.9787,4.7499 1.6667,4.0629 2.5137,4.0629 L289.1177,4.0629 C289.9657,4.0629 290.6527,4.7499 290.6527,5.5969 L290.6527,41.4129 C290.6527,42.2609 289.9657,42.9479 289.1177,42.9479" id="Fill-4" fill="#FFFFFF"></path>
                            <path d="M207.6832,26.1769 C208.1872,26.1239 208.5722,25.9599 208.8362,25.6829 C209.1022,25.4079 209.2362,25.0539 209.2362,24.6239 C209.2362,24.4349 209.2012,24.2709 209.1302,24.1339 C209.0602,23.9969 208.9632,23.8779 208.8422,23.7749 C208.7222,23.6729 208.5802,23.5839 208.4162,23.5119 C208.2532,23.4389 208.0792,23.3729 207.8942,23.3129 L207.6832,26.1769 Z M207.4412,19.3549 C207.1872,19.3799 206.9692,19.4289 206.7852,19.5059 C206.6032,19.5819 206.4522,19.6769 206.3312,19.7899 C206.2132,19.9039 206.1262,20.0319 206.0702,20.1769 C206.0132,20.3209 205.9852,20.4719 205.9852,20.6299 C205.9852,20.8109 206.0182,20.9699 206.0812,21.1069 C206.1462,21.2439 206.2362,21.3649 206.3502,21.4669 C206.4662,21.5699 206.6012,21.6589 206.7552,21.7359 C206.9102,21.8119 207.0782,21.8829 207.2542,21.9479 L207.4412,19.3549 Z M207.9732,22.1819 C208.2622,22.2719 208.5502,22.3679 208.8332,22.4759 C209.1182,22.5819 209.3722,22.7179 209.5982,22.8829 C209.8242,23.0489 210.0062,23.2549 210.1462,23.5029 C210.2842,23.7509 210.3532,24.0619 210.3532,24.4359 C210.3532,24.7989 210.2912,25.1419 210.1692,25.4639 C210.0462,25.7859 209.8672,26.0699 209.6342,26.3159 C209.4012,26.5609 209.1142,26.7609 208.7732,26.9129 C208.4322,27.0669 208.0452,27.1569 207.6112,27.1859 L207.5372,28.1949 C207.5332,28.2749 207.5022,28.3479 207.4412,28.4119 C207.3802,28.4769 207.3042,28.5089 207.2112,28.5089 L206.7772,28.5089 L206.8732,27.1669 C206.3932,27.1149 205.9522,26.9909 205.5432,26.7959 C205.1372,26.5999 204.7872,26.3539 204.4982,26.0549 L204.8552,25.5119 C204.8922,25.4639 204.9352,25.4239 204.9892,25.3909 C205.0402,25.3589 205.0992,25.3429 205.1632,25.3429 C205.2442,25.3429 205.3332,25.3789 205.4322,25.4509 C205.5322,25.5239 205.6502,25.6079 205.7872,25.7019 C205.9232,25.7969 206.0842,25.8899 206.2732,25.9799 C206.4582,26.0709 206.6832,26.1349 206.9452,26.1709 L207.1692,23.0949 C206.8872,23.0099 206.6102,22.9149 206.3362,22.8069 C206.0612,22.7009 205.8162,22.5599 205.5972,22.3849 C205.3802,22.2089 205.2052,21.9909 205.0732,21.7289 C204.9392,21.4679 204.8722,21.1389 204.8722,20.7449 C204.8722,20.4459 204.9322,20.1569 205.0472,19.8749 C205.1652,19.5929 205.3352,19.3409 205.5602,19.1199 C205.7832,18.8979 206.0582,18.7159 206.3872,18.5759 C206.7152,18.4339 207.0912,18.3559 207.5142,18.3399 L207.5742,17.4929 C207.5782,17.4129 207.6112,17.3419 207.6712,17.2769 C207.7312,17.2119 207.8082,17.1799 207.9012,17.1799 L208.3352,17.1799 L208.2502,18.3699 C208.6722,18.4269 209.0382,18.5379 209.3482,18.7059 C209.6552,18.8729 209.9262,19.0729 210.1602,19.3059 L209.8762,19.7419 C209.7912,19.8749 209.6932,19.9409 209.5792,19.9409 C209.5242,19.9409 209.4542,19.9159 209.3712,19.8679 C209.2882,19.8209 209.1902,19.7649 209.0762,19.7029 C208.9602,19.6399 208.8292,19.5759 208.6802,19.5109 C208.5312,19.4479 208.3642,19.3999 208.1782,19.3669 L207.9732,22.1819 Z" id="Fill-6" fill="#050302"></path>
                            <path d="M217.1392,26.1945 L217.1392,27.0945 L212.4492,27.0945 L212.4492,26.1945 L214.2862,26.1945 L214.2862,20.5085 C214.2862,20.3285 214.2922,20.1405 214.3042,19.9465 L212.8302,21.1975 C212.7742,21.2415 212.7182,21.2695 212.6612,21.2825 C212.6052,21.2945 212.5502,21.2975 212.5012,21.2885 C212.4522,21.2805 212.4072,21.2625 212.3682,21.2365 C212.3292,21.2115 212.2982,21.1835 212.2752,21.1555 L211.9072,20.6425 L214.5042,18.4005 L215.4652,18.4005 L215.4652,26.1945 L217.1392,26.1945 Z" id="Fill-8" fill="#050302"></path>
                            <path d="M220.2262,21.6569 C220.6682,21.5649 221.0702,21.5179 221.4272,21.5179 C221.8792,21.5179 222.2782,21.5849 222.6232,21.7209 C222.9712,21.8549 223.2612,22.0409 223.4972,22.2769 C223.7332,22.5109 223.9112,22.7899 224.0302,23.1099 C224.1492,23.4309 224.2072,23.7779 224.2072,24.1529 C224.2072,24.6119 224.1272,25.0289 223.9652,25.4029 C223.8042,25.7779 223.5822,26.0979 223.3012,26.3629 C223.0192,26.6299 222.6852,26.8339 222.3002,26.9769 C221.9152,27.1199 221.5022,27.1919 221.0592,27.1919 C220.7972,27.1919 220.5492,27.1659 220.3132,27.1129 C220.0782,27.0609 219.8582,26.9909 219.6532,26.9049 C219.4472,26.8179 219.2562,26.7189 219.0812,26.6049 C218.9062,26.4929 218.7482,26.3739 218.6122,26.2489 L218.9752,25.7409 C219.0502,25.6289 219.1552,25.5729 219.2832,25.5729 C219.3672,25.5729 219.4612,25.6029 219.5642,25.6659 C219.6662,25.7279 219.7892,25.7979 219.9302,25.8749 C220.0702,25.9509 220.2382,26.0209 220.4312,26.0819 C220.6242,26.1449 220.8542,26.1769 221.1212,26.1769 C221.4132,26.1769 221.6782,26.1299 221.9142,26.0339 C222.1502,25.9399 222.3502,25.8059 222.5132,25.6329 C222.6762,25.4589 222.8012,25.2519 222.8872,25.0109 C222.9732,24.7689 223.0172,24.5009 223.0172,24.2069 C223.0172,23.9449 222.9782,23.7089 222.9032,23.4999 C222.8262,23.2899 222.7112,23.1109 222.5582,22.9619 C222.4052,22.8139 222.2132,22.6989 221.9842,22.6209 C221.7542,22.5419 221.4872,22.5029 221.1792,22.5029 C220.7532,22.5029 220.2982,22.5799 219.8152,22.7319 L219.0722,22.5149 L219.7792,18.4189 L223.9362,18.4189 L223.9362,18.9319 C223.9362,19.1009 223.8822,19.2389 223.7762,19.3459 C223.6692,19.4519 223.4902,19.5059 223.2402,19.5059 L220.6002,19.5059 L220.2262,21.6569 Z" id="Fill-10" fill="#050302"></path>
                            <path d="M226.3404,27.0949 C226.2324,27.0949 226.1314,27.0749 226.0414,27.0349 C225.9504,26.9939 225.8714,26.9389 225.8054,26.8679 C225.7394,26.7979 225.6874,26.7139 225.6524,26.6179 C225.6144,26.5209 225.5964,26.4159 225.5964,26.3029 C225.5964,26.2059 225.6144,26.1159 225.6524,26.0279 C225.6874,25.9419 225.7394,25.8659 225.8054,25.8019 C225.8714,25.7379 225.9514,25.6859 226.0434,25.6479 C226.1364,25.6089 226.2394,25.5899 226.3524,25.5899 C226.4814,25.5899 226.5954,25.6139 226.6934,25.6599 C226.7924,25.7059 226.8744,25.7709 226.9414,25.8529 C227.0084,25.9359 227.0564,26.0319 227.0894,26.1399 C227.1214,26.2489 227.1384,26.3659 227.1384,26.4909 C227.1384,26.6729 227.1114,26.8639 227.0594,27.0639 C227.0064,27.2659 226.9304,27.4659 226.8294,27.6619 C226.7284,27.8599 226.6034,28.0519 226.4544,28.2369 C226.3064,28.4229 226.1364,28.5939 225.9464,28.7509 L225.7474,28.5629 C225.6874,28.5059 225.6564,28.4439 225.6564,28.3749 C225.6564,28.3479 225.6664,28.3189 225.6854,28.2879 C225.7024,28.2589 225.7254,28.2289 225.7534,28.1999 C225.7934,28.1559 225.8474,28.0979 225.9114,28.0249 C225.9754,27.9529 226.0394,27.8689 226.1024,27.7749 C226.1644,27.6799 226.2224,27.5749 226.2764,27.4609 C226.3314,27.3449 226.3694,27.2229 226.3944,27.0949 L226.3404,27.0949 Z" id="Fill-12" fill="#050302"></path>
                            <path d="M230.0015,21.6569 C230.4445,21.5649 230.8455,21.5179 231.2035,21.5179 C231.6545,21.5179 232.0545,21.5849 232.3995,21.7209 C232.7465,21.8549 233.0375,22.0409 233.2725,22.2769 C233.5095,22.5109 233.6865,22.7899 233.8055,23.1099 C233.9245,23.4309 233.9835,23.7779 233.9835,24.1529 C233.9835,24.6119 233.9035,25.0289 233.7415,25.4029 C233.5795,25.7779 233.3575,26.0979 233.0775,26.3629 C232.7955,26.6299 232.4615,26.8339 232.0765,26.9769 C231.6915,27.1199 231.2785,27.1919 230.8355,27.1919 C230.5725,27.1919 230.3255,27.1659 230.0895,27.1129 C229.8535,27.0609 229.6335,26.9909 229.4285,26.9049 C229.2235,26.8179 229.0315,26.7189 228.8565,26.6049 C228.6815,26.4929 228.5245,26.3739 228.3875,26.2489 L228.7515,25.7409 C228.8265,25.6289 228.9305,25.5729 229.0595,25.5729 C229.1435,25.5729 229.2365,25.6029 229.3405,25.6659 C229.4425,25.7279 229.5645,25.7979 229.7055,25.8749 C229.8465,25.9509 230.0145,26.0209 230.2075,26.0819 C230.4005,26.1449 230.6295,26.1769 230.8965,26.1769 C231.1885,26.1769 231.4545,26.1299 231.6905,26.0339 C231.9255,25.9399 232.1265,25.8059 232.2885,25.6329 C232.4515,25.4589 232.5765,25.2519 232.6625,25.0109 C232.7495,24.7689 232.7925,24.5009 232.7925,24.2069 C232.7925,23.9449 232.7545,23.7089 232.6785,23.4999 C232.6025,23.2899 232.4865,23.1109 232.3335,22.9619 C232.1805,22.8139 231.9885,22.6989 231.7605,22.6209 C231.5295,22.5419 231.2625,22.5029 230.9555,22.5029 C230.5295,22.5029 230.0735,22.5799 229.5915,22.7319 L228.8485,22.5149 L229.5545,18.4189 L233.7125,18.4189 L233.7125,18.9319 C233.7125,19.1009 233.6575,19.2389 233.5515,19.3459 C233.4455,19.4519 233.2665,19.5059 233.0165,19.5059 L230.3765,19.5059 L230.0015,21.6569 Z" id="Fill-14" fill="#050302"></path>
                            <path d="M241.3062,18.4186 L241.3062,18.9436 C241.3062,19.0976 241.2882,19.2216 241.2552,19.3156 C241.2202,19.4096 241.1872,19.4916 241.1552,19.5596 L237.6382,26.6786 C237.5822,26.7946 237.5032,26.8936 237.4042,26.9746 C237.3022,27.0546 237.1672,27.0946 236.9972,27.0946 L236.1532,27.0946 L239.7232,20.0806 C239.7842,19.9666 239.8442,19.8626 239.9042,19.7686 C239.9642,19.6746 240.0322,19.5866 240.1042,19.5056 L235.6682,19.5056 C235.5922,19.5056 235.5262,19.4776 235.4692,19.4216 C235.4132,19.3656 235.3852,19.2986 235.3852,19.2226 L235.3852,18.4186 L241.3062,18.4186 Z" id="Fill-16" fill="#050302"></path>
                            <path d="M242.5142,20.7814 C242.5752,20.3774 242.6882,20.0234 242.8532,19.7174 C243.0182,19.4114 243.2262,19.1554 243.4752,18.9474 C243.7242,18.7394 244.0122,18.5844 244.3352,18.4794 C244.6602,18.3734 245.0102,18.3224 245.3842,18.3224 C245.7582,18.3224 246.1032,18.3754 246.4172,18.4814 C246.7312,18.5884 247.0002,18.7394 247.2242,18.9344 C247.4492,19.1304 247.6212,19.3654 247.7462,19.6384 C247.8702,19.9124 247.9352,20.2154 247.9352,20.5454 C247.9352,20.8224 247.8992,21.0694 247.8302,21.2824 C247.7622,21.4964 247.6652,21.6824 247.5382,21.8444 C247.4102,22.0054 247.2572,22.1404 247.0762,22.2514 C246.8952,22.3624 246.6912,22.4544 246.4662,22.5264 C247.0182,22.6794 247.4322,22.9284 247.7102,23.2734 C247.9892,23.6164 248.1282,24.0534 248.1282,24.5814 C248.1282,24.9884 248.0502,25.3544 247.8982,25.6774 C247.7442,26.0024 247.5352,26.2764 247.2692,26.5004 C247.0032,26.7234 246.6952,26.8944 246.3412,27.0134 C245.9902,27.1324 245.6152,27.1914 245.2152,27.1914 C244.7602,27.1914 244.3682,27.1354 244.0422,27.0254 C243.7172,26.9144 243.4392,26.7594 243.2092,26.5604 C242.9792,26.3614 242.7892,26.1214 242.6382,25.8414 C242.4882,25.5604 242.3602,25.2544 242.2532,24.9204 L242.7682,24.7014 C242.9002,24.6464 243.0302,24.6294 243.1562,24.6544 C243.2812,24.6774 243.3692,24.7484 243.4262,24.8654 C243.4872,24.9864 243.5562,25.1214 243.6342,25.2724 C243.7132,25.4244 243.8202,25.5674 243.9522,25.7024 C244.0852,25.8374 244.2512,25.9514 244.4512,26.0434 C244.6512,26.1364 244.9022,26.1824 245.2032,26.1824 C245.4932,26.1824 245.7462,26.1354 245.9642,26.0414 C246.1812,25.9454 246.3632,25.8234 246.5082,25.6714 C246.6532,25.5204 246.7612,25.3534 246.8342,25.1674 C246.9072,24.9824 246.9442,24.7984 246.9442,24.6174 C246.9442,24.3924 246.9152,24.1844 246.8592,23.9944 C246.8022,23.8054 246.6952,23.6444 246.5352,23.5084 C246.3772,23.3744 246.1552,23.2674 245.8742,23.1914 C245.5912,23.1154 245.2252,23.0764 244.7742,23.0764 L244.7742,22.2184 C245.1452,22.2154 245.4572,22.1764 245.7132,22.1044 C245.9682,22.0314 246.1762,21.9304 246.3322,21.8024 C246.4912,21.6734 246.6042,21.5204 246.6742,21.3434 C246.7452,21.1664 246.7812,20.9684 246.7812,20.7504 C246.7812,20.5134 246.7432,20.3054 246.6722,20.1284 C246.5992,19.9504 246.4972,19.8024 246.3672,19.6834 C246.2352,19.5654 246.0792,19.4774 245.9002,19.4184 C245.7212,19.3604 245.5272,19.3304 245.3172,19.3304 C245.1082,19.3304 244.9142,19.3604 244.7382,19.4224 C244.5612,19.4824 244.4042,19.5654 244.2672,19.6754 C244.1302,19.7844 244.0142,19.9124 243.9222,20.0614 C243.8302,20.2114 243.7632,20.3714 243.7232,20.5454 C243.6662,20.6984 243.5942,20.8014 243.5082,20.8534 C243.4222,20.9054 243.2972,20.9184 243.1362,20.8894 L242.5142,20.7814 Z" id="Fill-18" fill="#050302"></path>
                            <path d="M249.4078,26.3878 C249.4078,26.2798 249.4288,26.1768 249.4698,26.0798 C249.5098,25.9828 249.5638,25.8978 249.6348,25.8258 C249.7048,25.7528 249.7888,25.6968 249.8858,25.6538 C249.9818,25.6118 250.0878,25.5898 250.2008,25.5898 C250.3088,25.5898 250.4108,25.6118 250.5078,25.6538 C250.6038,25.6968 250.6888,25.7528 250.7618,25.8258 C250.8348,25.8978 250.8918,25.9828 250.9338,26.0798 C250.9758,26.1768 250.9968,26.2798 250.9968,26.3878 C250.9968,26.5008 250.9758,26.6048 250.9338,26.7018 C250.8918,26.7988 250.8348,26.8838 250.7618,26.9558 C250.6888,27.0288 250.6038,27.0858 250.5078,27.1258 C250.4108,27.1658 250.3088,27.1858 250.2008,27.1858 C250.0878,27.1858 249.9818,27.1658 249.8858,27.1258 C249.7888,27.0858 249.7048,27.0288 249.6348,26.9558 C249.5638,26.8838 249.5098,26.7988 249.4698,26.7018 C249.4288,26.6048 249.4078,26.5008 249.4078,26.3878" id="Fill-20" fill="#050302"></path>
                            <path d="M253.8804,21.6569 C254.3214,21.5649 254.7224,21.5179 255.0814,21.5179 C255.5314,21.5179 255.9314,21.5849 256.2774,21.7209 C256.6244,21.8549 256.9154,22.0409 257.1504,22.2769 C257.3874,22.5109 257.5644,22.7899 257.6824,23.1099 C257.8014,23.4309 257.8614,23.7779 257.8614,24.1529 C257.8614,24.6119 257.7794,25.0289 257.6184,25.4029 C257.4584,25.7779 257.2354,26.0979 256.9554,26.3629 C256.6724,26.6299 256.3394,26.8339 255.9544,26.9769 C255.5694,27.1199 255.1564,27.1919 254.7134,27.1919 C254.4514,27.1919 254.2024,27.1659 253.9674,27.1129 C253.7314,27.0609 253.5104,26.9909 253.3054,26.9049 C253.1004,26.8179 252.9094,26.7189 252.7344,26.6049 C252.5584,26.4929 252.4024,26.3739 252.2664,26.2489 L252.6294,25.7409 C252.7044,25.6289 252.8084,25.5729 252.9364,25.5729 C253.0214,25.5729 253.1154,25.6029 253.2174,25.6659 C253.3204,25.7279 253.4424,25.7979 253.5824,25.8749 C253.7244,25.9509 253.8924,26.0209 254.0854,26.0819 C254.2774,26.1449 254.5084,26.1769 254.7734,26.1769 C255.0674,26.1769 255.3314,26.1299 255.5674,26.0339 C255.8034,25.9399 256.0034,25.8059 256.1654,25.6329 C256.3294,25.4589 256.4534,25.2519 256.5394,25.0109 C256.6274,24.7689 256.6694,24.5009 256.6694,24.2069 C256.6694,23.9449 256.6324,23.7089 256.5564,23.4999 C256.4794,23.2899 256.3654,23.1109 256.2114,22.9619 C256.0584,22.8139 255.8674,22.6989 255.6374,22.6209 C255.4064,22.5419 255.1404,22.5029 254.8334,22.5029 C254.4064,22.5029 253.9504,22.5799 253.4684,22.7319 L252.7264,22.5149 L253.4314,18.4189 L257.5894,18.4189 L257.5894,18.9319 C257.5894,19.1009 257.5354,19.2389 257.4304,19.3459 C257.3224,19.4519 257.1444,19.5059 256.8944,19.5059 L254.2524,19.5059 L253.8804,21.6569 Z" id="Fill-22" fill="#050302"></path>
                            <path d="M264.0718,22.757 C264.0718,22.104 264.0178,21.558 263.9118,21.119 C263.8038,20.68 263.6618,20.327 263.4838,20.059 C263.3038,19.791 263.0958,19.601 262.8628,19.488 C262.6298,19.375 262.3858,19.319 262.1328,19.319 C261.8788,19.319 261.6348,19.375 261.4018,19.488 C261.1688,19.601 260.9608,19.791 260.7808,20.059 C260.6018,20.327 260.4608,20.68 260.3558,21.119 C260.2518,21.558 260.1988,22.104 260.1988,22.757 C260.1988,23.409 260.2518,23.955 260.3558,24.394 C260.4608,24.833 260.6018,25.185 260.7808,25.451 C260.9608,25.717 261.1688,25.906 261.4018,26.02 C261.6348,26.132 261.8788,26.189 262.1328,26.189 C262.3858,26.189 262.6298,26.132 262.8628,26.02 C263.0958,25.906 263.3038,25.717 263.4838,25.451 C263.6618,25.185 263.8038,24.833 263.9118,24.394 C264.0178,23.955 264.0718,23.409 264.0718,22.757 M265.2918,22.757 C265.2918,23.514 265.2118,24.171 265.0488,24.726 C264.8838,25.282 264.6618,25.742 264.3778,26.107 C264.0928,26.472 263.7588,26.742 263.3738,26.92 C262.9888,27.097 262.5748,27.186 262.1328,27.186 C261.6898,27.186 261.2748,27.097 260.8908,26.92 C260.5068,26.742 260.1728,26.472 259.8908,26.107 C259.6078,25.742 259.3858,25.282 259.2258,24.726 C259.0648,24.171 258.9848,23.514 258.9848,22.757 C258.9848,21.999 259.0648,21.342 259.2258,20.784 C259.3858,20.225 259.6078,19.765 259.8908,19.401 C260.1728,19.036 260.5068,18.764 260.8908,18.588 C261.2748,18.41 261.6898,18.322 262.1328,18.322 C262.5748,18.322 262.9888,18.41 263.3738,18.588 C263.7588,18.764 264.0928,19.036 264.3778,19.401 C264.6618,19.765 264.8838,20.225 265.0488,20.784 C265.2118,21.342 265.2918,21.999 265.2918,22.757" id="Fill-24" fill="#050302"></path>
                            <mask id="mask-4" fill="white">
                                <use xlink:href="#path-3"></use>
                            </mask>
                            <g id="Clip-27"></g>
                            <polygon id="Fill-26" fill="#050302" mask="url(#mask-4)" points="22.617 27.2166 23.91 27.2166 23.91 18.5406 22.617 18.5406"></polygon>
                            <path d="M26.8219,21.9293 C26.9549,21.7893 27.0929,21.6593 27.2379,21.5423 C27.3839,21.4253 27.5379,21.3263 27.6999,21.2433 C27.8629,21.1613 28.0389,21.0963 28.2259,21.0503 C28.4129,21.0043 28.6139,20.9803 28.8269,20.9803 C29.1659,20.9803 29.4639,21.0373 29.7179,21.1503 C29.9739,21.2623 30.1889,21.4213 30.3629,21.6233 C30.5349,21.8283 30.6669,22.0723 30.7549,22.3593 C30.8439,22.6443 30.8869,22.9613 30.8869,23.3063 L30.8869,27.2163 L29.7039,27.2163 L29.7039,23.3063 C29.7039,22.8673 29.6019,22.5263 29.4019,22.2833 C29.1999,22.0393 28.8919,21.9173 28.4769,21.9173 C28.1749,21.9173 27.8909,21.9883 27.6289,22.1323 C27.3649,22.2753 27.1199,22.4693 26.8939,22.7153 L26.8939,27.2163 L25.7159,27.2163 L25.7159,21.0773 L26.4239,21.0773 C26.5889,21.0773 26.6899,21.1563 26.7299,21.3133 L26.8219,21.9293 Z" id="Fill-28" fill="#050302" mask="url(#mask-4)"></path>
                            <path d="M34.6344,24.153 C34.8424,24.153 35.0284,24.125 35.1874,24.068 C35.3454,24.012 35.4784,23.932 35.5854,23.829 C35.6924,23.727 35.7724,23.603 35.8264,23.458 C35.8804,23.313 35.9084,23.154 35.9084,22.981 C35.9084,22.627 35.8004,22.344 35.5854,22.132 C35.3694,21.92 35.0524,21.815 34.6344,21.815 C34.2194,21.815 33.9034,21.92 33.6884,22.132 C33.4734,22.344 33.3644,22.627 33.3644,22.981 C33.3644,23.154 33.3924,23.313 33.4464,23.455 C33.5014,23.598 33.5814,23.721 33.6884,23.823 C33.7944,23.926 33.9274,24.007 34.0864,24.066 C34.2444,24.123 34.4284,24.153 34.6344,24.153 Z M36.5134,27.536 C36.5134,27.391 36.4734,27.276 36.3914,27.189 C36.3114,27.103 36.2014,27.035 36.0624,26.984 C35.9234,26.933 35.7614,26.898 35.5754,26.875 C35.3914,26.853 35.1964,26.835 34.9924,26.823 C34.7904,26.812 34.5814,26.801 34.3674,26.79 C34.1544,26.781 33.9484,26.761 33.7514,26.733 C33.5414,26.838 33.3694,26.965 33.2354,27.114 C33.1004,27.262 33.0314,27.438 33.0314,27.639 C33.0314,27.769 33.0654,27.889 33.1324,28.002 C33.1994,28.114 33.3014,28.213 33.4404,28.295 C33.5794,28.378 33.7544,28.441 33.9664,28.488 C34.1764,28.534 34.4304,28.558 34.7244,28.558 C35.0144,28.558 35.2694,28.532 35.4904,28.483 C35.7134,28.432 35.9004,28.361 36.0504,28.27 C36.2014,28.18 36.3164,28.072 36.3954,27.948 C36.4734,27.823 36.5134,27.686 36.5134,27.536 Z M37.7094,21.308 L37.7094,21.748 C37.7094,21.893 37.6174,21.984 37.4374,22.02 L36.7794,22.117 C36.8344,22.242 36.8794,22.373 36.9114,22.512 C36.9444,22.652 36.9594,22.798 36.9594,22.95 C36.9594,23.253 36.9024,23.526 36.7844,23.769 C36.6674,24.013 36.5064,24.221 36.3004,24.395 C36.0954,24.568 35.8514,24.7 35.5674,24.794 C35.2834,24.886 34.9724,24.933 34.6344,24.933 C34.3564,24.933 34.0964,24.902 33.8544,24.842 C33.7334,24.914 33.6414,24.994 33.5794,25.08 C33.5174,25.168 33.4854,25.253 33.4854,25.338 C33.4854,25.478 33.5454,25.583 33.6644,25.652 C33.7824,25.72 33.9384,25.77 34.1294,25.799 C34.3214,25.83 34.5394,25.849 34.7874,25.857 C35.0354,25.865 35.2864,25.878 35.5434,25.896 C35.7984,25.915 36.0504,25.946 36.2984,25.993 C36.5464,26.039 36.7664,26.114 36.9564,26.217 C37.1484,26.32 37.3044,26.46 37.4214,26.639 C37.5404,26.819 37.6004,27.051 37.6004,27.337 C37.6004,27.604 37.5344,27.861 37.4044,28.111 C37.2734,28.36 37.0814,28.582 36.8324,28.775 C36.5834,28.969 36.2804,29.123 35.9204,29.24 C35.5624,29.357 35.1554,29.416 34.7004,29.416 C34.2444,29.416 33.8484,29.371 33.5134,29.283 C33.1764,29.194 32.8974,29.075 32.6734,28.926 C32.4484,28.778 32.2814,28.604 32.1714,28.407 C32.0614,28.209 32.0054,28.004 32.0054,27.79 C32.0054,27.492 32.0974,27.24 32.2834,27.032 C32.4674,26.824 32.7254,26.663 33.0504,26.546 C32.8734,26.465 32.7324,26.355 32.6284,26.217 C32.5224,26.078 32.4704,25.894 32.4704,25.663 C32.4704,25.575 32.4874,25.483 32.5204,25.388 C32.5504,25.294 32.6004,25.199 32.6654,25.105 C32.7334,25.009 32.8164,24.92 32.9134,24.836 C33.0134,24.751 33.1264,24.674 33.2564,24.606 C32.9534,24.437 32.7154,24.213 32.5434,23.932 C32.3694,23.653 32.2834,23.325 32.2834,22.95 C32.2834,22.648 32.3414,22.377 32.4584,22.135 C32.5744,21.893 32.7374,21.686 32.9454,21.513 C33.1524,21.34 33.4004,21.206 33.6884,21.114 C33.9764,21.021 34.2904,20.975 34.6344,20.975 C35.1654,20.975 35.6224,21.086 36.0054,21.308 L37.7094,21.308 Z" id="Fill-29" fill="#050302" mask="url(#mask-4)"></path>
                            <path d="M39.8951,22.255 C40.0931,21.853 40.3311,21.537 40.6081,21.308 C40.8861,21.077 41.2221,20.963 41.6111,20.963 C41.7451,20.963 41.8711,20.978 41.9891,21.008 C42.1081,21.039 42.2111,21.083 42.3001,21.144 L42.2221,22.032 C42.1941,22.141 42.1281,22.195 42.0231,22.195 C41.9661,22.195 41.8811,22.184 41.7691,22.162 C41.6561,22.14 41.5361,22.129 41.4061,22.129 C41.2171,22.129 41.0491,22.156 40.9061,22.211 C40.7591,22.265 40.6291,22.345 40.5161,22.452 C40.4001,22.559 40.2991,22.69 40.2101,22.845 C40.1221,23 40.0401,23.176 39.9621,23.374 L39.9621,27.216 L38.7841,27.216 L38.7841,21.077 L39.4611,21.077 C39.5891,21.077 39.6781,21.101 39.7231,21.147 C39.7701,21.193 39.8031,21.275 39.8241,21.391 L39.8951,22.255 Z" id="Fill-30" fill="#050302" mask="url(#mask-4)"></path>
                            <path d="M47.0494,23.4635 C47.0494,23.2315 47.0164,23.0155 46.9494,22.8175 C46.8844,22.6195 46.7844,22.4485 46.6574,22.3035 C46.5284,22.1595 46.3704,22.0465 46.1854,21.9655 C45.9994,21.8845 45.7864,21.8445 45.5454,21.8445 C45.0504,21.8445 44.6594,21.9885 44.3744,22.2745 C44.0914,22.5595 43.9114,22.9565 43.8344,23.4635 L47.0494,23.4635 Z M48.0214,26.3405 C47.8774,26.5095 47.7094,26.6555 47.5214,26.7785 C47.3314,26.9015 47.1294,27.0005 46.9164,27.0775 C46.7014,27.1535 46.4834,27.2105 46.2544,27.2475 C46.0274,27.2825 45.8034,27.3015 45.5804,27.3015 C45.1584,27.3015 44.7674,27.2295 44.4054,27.0865 C44.0444,26.9435 43.7334,26.7335 43.4684,26.4575 C43.2054,26.1825 43.0004,25.8405 42.8534,25.4305 C42.7064,25.0225 42.6334,24.5515 42.6334,24.0205 C42.6334,23.5935 42.6984,23.1955 42.8314,22.8265 C42.9644,22.4585 43.1544,22.1375 43.4034,21.8635 C43.6504,21.5895 43.9534,21.3735 44.3124,21.2165 C44.6704,21.0595 45.0734,20.9805 45.5214,20.9805 C45.8954,20.9805 46.2404,21.0425 46.5574,21.1645 C46.8734,21.2875 47.1464,21.4665 47.3744,21.6995 C47.6054,21.9335 47.7854,22.2225 47.9164,22.5645 C48.0474,22.9065 48.1134,23.2965 48.1134,23.7365 C48.1134,23.9165 48.0924,24.0395 48.0524,24.1025 C48.0124,24.1645 47.9384,24.1955 47.8274,24.1955 L43.8054,24.1955 C43.8174,24.5625 43.8694,24.8805 43.9614,25.1535 C44.0544,25.4245 44.1824,25.6515 44.3454,25.8335 C44.5084,26.0135 44.7024,26.1495 44.9284,26.2375 C45.1534,26.3265 45.4064,26.3705 45.6844,26.3705 C45.9454,26.3705 46.1724,26.3405 46.3634,26.2795 C46.5544,26.2195 46.7204,26.1545 46.8594,26.0835 C46.9974,26.0125 47.1144,25.9475 47.2094,25.8875 C47.3044,25.8265 47.3884,25.7965 47.4594,25.7965 C47.5564,25.7965 47.6324,25.8335 47.6844,25.9055 L48.0214,26.3405 Z" id="Fill-31" fill="#050302" mask="url(#mask-4)"></path>
                            <path d="M53.0015,22.1349 C52.9685,22.1869 52.9345,22.2249 52.8975,22.2469 C52.8615,22.2689 52.8145,22.2799 52.7585,22.2799 C52.6945,22.2799 52.6235,22.2579 52.5445,22.2139 C52.4655,22.1689 52.3715,22.1209 52.2605,22.0689 C52.1485,22.0159 52.0205,21.9679 51.8705,21.9239 C51.7225,21.8789 51.5455,21.8579 51.3405,21.8579 C51.1705,21.8579 51.0165,21.8779 50.8775,21.9199 C50.7375,21.9629 50.6195,22.0219 50.5225,22.0959 C50.4265,22.1699 50.3525,22.2589 50.2995,22.3619 C50.2475,22.4639 50.2215,22.5739 50.2215,22.6909 C50.2215,22.8439 50.2665,22.9699 50.3575,23.0719 C50.4475,23.1719 50.5665,23.2589 50.7145,23.3319 C50.8605,23.4039 51.0275,23.4689 51.2145,23.5279 C51.4025,23.5869 51.5935,23.6479 51.7895,23.7119 C51.9835,23.7769 52.1755,23.8499 52.3625,23.9319 C52.5505,24.0149 52.7185,24.1169 52.8645,24.2399 C53.0115,24.3639 53.1315,24.5109 53.2215,24.6849 C53.3125,24.8589 53.3575,25.0699 53.3575,25.3189 C53.3575,25.6059 53.3065,25.8699 53.2035,26.1139 C53.1005,26.3569 52.9495,26.5679 52.7505,26.7449 C52.5505,26.9229 52.3045,27.0619 52.0105,27.1619 C51.7155,27.2619 51.3805,27.3129 50.9995,27.3129 C50.5775,27.3129 50.1875,27.2419 49.8295,27.1019 C49.4705,26.9599 49.1695,26.7809 48.9285,26.5639 L49.2065,26.1109 C49.2375,26.0539 49.2795,26.0109 49.3265,25.9809 C49.3765,25.9499 49.4395,25.9359 49.5205,25.9359 C49.5975,25.9359 49.6765,25.9629 49.7565,26.0199 C49.8365,26.0759 49.9335,26.1379 50.0465,26.2039 C50.1585,26.2709 50.2955,26.3309 50.4575,26.3849 C50.6175,26.4399 50.8195,26.4669 51.0615,26.4669 C51.2625,26.4669 51.4385,26.4419 51.5865,26.3909 C51.7365,26.3409 51.8585,26.2719 51.9585,26.1859 C52.0575,26.0999 52.1305,25.9999 52.1795,25.8869 C52.2275,25.7739 52.2505,25.6549 52.2505,25.5309 C52.2505,25.3689 52.2065,25.2359 52.1145,25.1289 C52.0235,25.0229 51.9065,24.9299 51.7595,24.8539 C51.6105,24.7769 51.4435,24.7109 51.2555,24.6549 C51.0645,24.5979 50.8725,24.5379 50.6745,24.4739 C50.4775,24.4089 50.2835,24.3349 50.0935,24.2499 C49.9045,24.1649 49.7365,24.0579 49.5895,23.9299 C49.4415,23.8009 49.3245,23.6429 49.2325,23.4579 C49.1425,23.2729 49.0985,23.0469 49.0985,22.7809 C49.0985,22.5449 49.1475,22.3169 49.2455,22.0979 C49.3445,21.8809 49.4865,21.6899 49.6745,21.5249 C49.8625,21.3599 50.0935,21.2269 50.3695,21.1299 C50.6465,21.0309 50.9595,20.9809 51.3145,20.9809 C51.7225,20.9809 52.0895,21.0459 52.4175,21.1749 C52.7465,21.3029 53.0275,21.4799 53.2615,21.7069 L53.0015,22.1349 Z" id="Fill-32" fill="#050302" mask="url(#mask-4)"></path>
                            <path d="M57.2476,26.382 C57.8276,26.382 58.2616,26.187 58.5466,25.797 C58.8336,25.406 58.9756,24.856 58.9756,24.147 C58.9756,23.438 58.8336,22.888 58.5466,22.495 C58.2616,22.102 57.8276,21.906 57.2476,21.906 C56.6596,21.906 56.2226,22.102 55.9346,22.495 C55.6446,22.888 55.5006,23.438 55.5006,24.147 C55.5006,24.856 55.6446,25.406 55.9346,25.797 C56.2226,26.187 56.6596,26.382 57.2476,26.382 M57.2476,20.981 C57.6976,20.981 58.1066,21.054 58.4716,21.201 C58.8356,21.349 59.1456,21.56 59.4016,21.836 C59.6566,22.111 59.8536,22.444 59.9906,22.832 C60.1286,23.222 60.1966,23.657 60.1966,24.141 C60.1966,24.625 60.1286,25.062 59.9906,25.452 C59.8536,25.843 59.6566,26.175 59.4016,26.449 C59.1456,26.723 58.8356,26.933 58.4716,27.081 C58.1066,27.227 57.6976,27.301 57.2476,27.301 C56.7916,27.301 56.3836,27.227 56.0186,27.081 C55.6546,26.933 55.3426,26.723 55.0856,26.449 C54.8266,26.175 54.6286,25.843 54.4896,25.452 C54.3516,25.062 54.2806,24.625 54.2806,24.141 C54.2806,23.657 54.3516,23.222 54.4896,22.832 C54.6286,22.444 54.8266,22.111 55.0856,21.836 C55.3426,21.56 55.6546,21.349 56.0186,21.201 C56.3836,21.054 56.7916,20.981 57.2476,20.981" id="Fill-33" fill="#050302" mask="url(#mask-4)"></path>
                            <path d="M65.1285,22.1349 C65.0955,22.1869 65.0615,22.2249 65.0245,22.2469 C64.9885,22.2689 64.9415,22.2799 64.8855,22.2799 C64.8215,22.2799 64.7505,22.2579 64.6715,22.2139 C64.5925,22.1689 64.4975,22.1209 64.3875,22.0689 C64.2755,22.0159 64.1465,21.9679 63.9975,21.9239 C63.8495,21.8789 63.6725,21.8579 63.4665,21.8579 C63.2965,21.8579 63.1435,21.8779 63.0045,21.9199 C62.8645,21.9629 62.7465,22.0219 62.6495,22.0959 C62.5535,22.1699 62.4795,22.2589 62.4255,22.3619 C62.3735,22.4639 62.3485,22.5739 62.3485,22.6909 C62.3485,22.8439 62.3935,22.9699 62.4845,23.0719 C62.5745,23.1719 62.6935,23.2589 62.8415,23.3319 C62.9875,23.4039 63.1545,23.4689 63.3415,23.5279 C63.5285,23.5869 63.7205,23.6479 63.9165,23.7119 C64.1105,23.7769 64.3025,23.8499 64.4895,23.9319 C64.6775,24.0149 64.8455,24.1169 64.9915,24.2399 C65.1375,24.3639 65.2585,24.5109 65.3475,24.6849 C65.4395,24.8589 65.4845,25.0699 65.4845,25.3189 C65.4845,25.6059 65.4325,25.8699 65.3295,26.1139 C65.2275,26.3569 65.0765,26.5679 64.8765,26.7449 C64.6775,26.9229 64.4315,27.0619 64.1375,27.1619 C63.8425,27.2619 63.5065,27.3129 63.1265,27.3129 C62.7045,27.3129 62.3145,27.2419 61.9555,27.1019 C61.5975,26.9599 61.2965,26.7809 61.0545,26.5639 L61.3325,26.1109 C61.3645,26.0539 61.4055,26.0109 61.4535,25.9809 C61.5025,25.9499 61.5665,25.9359 61.6475,25.9359 C61.7235,25.9359 61.8025,25.9629 61.8835,26.0199 C61.9635,26.0759 62.0605,26.1379 62.1735,26.2039 C62.2855,26.2709 62.4225,26.3309 62.5835,26.3849 C62.7445,26.4399 62.9455,26.4669 63.1885,26.4669 C63.3885,26.4669 63.5655,26.4419 63.7135,26.3909 C63.8625,26.3409 63.9855,26.2719 64.0845,26.1859 C64.1845,26.0999 64.2575,25.9999 64.3055,25.8869 C64.3545,25.7739 64.3775,25.6549 64.3775,25.5309 C64.3775,25.3689 64.3325,25.2359 64.2415,25.1289 C64.1505,25.0229 64.0325,24.9299 63.8855,24.8539 C63.7375,24.7769 63.5705,24.7109 63.3815,24.6549 C63.1915,24.5979 62.9995,24.5379 62.8015,24.4739 C62.6045,24.4089 62.4105,24.3349 62.2205,24.2499 C62.0315,24.1649 61.8635,24.0579 61.7165,23.9299 C61.5685,23.8009 61.4505,23.6429 61.3595,23.4579 C61.2695,23.2729 61.2245,23.0469 61.2245,22.7809 C61.2245,22.5449 61.2745,22.3169 61.3715,22.0979 C61.4715,21.8809 61.6135,21.6899 61.8015,21.5249 C61.9885,21.3599 62.2205,21.2269 62.4965,21.1299 C62.7735,21.0309 63.0865,20.9809 63.4415,20.9809 C63.8495,20.9809 64.2165,21.0459 64.5445,21.1749 C64.8735,21.3029 65.1535,21.4799 65.3885,21.7069 L65.1285,22.1349 Z" id="Fill-34" fill="#050302" mask="url(#mask-4)"></path>
                            <path d="M70.9879,25.7057 C71.1789,25.9597 71.3899,26.1367 71.6129,26.2377 C71.8359,26.3387 72.0869,26.3897 72.3649,26.3897 C72.9049,26.3897 73.3229,26.1947 73.6179,25.8047 C73.9159,25.4167 74.0629,24.8507 74.0629,24.1047 C74.0629,23.7137 74.0299,23.3807 73.9629,23.1047 C73.8959,22.8287 73.7999,22.6027 73.6729,22.4277 C73.5459,22.2527 73.3899,22.1237 73.2049,22.0417 C73.0189,21.9587 72.8109,21.9177 72.5769,21.9177 C72.2339,21.9177 71.9369,21.9947 71.6849,22.1467 C71.4329,22.2997 71.2009,22.5177 70.9879,22.7997 L70.9879,25.7057 Z M70.9269,21.9957 C71.0559,21.8437 71.1939,21.7027 71.3409,21.5757 C71.4879,21.4497 71.6459,21.3407 71.8149,21.2497 C71.9849,21.1587 72.1639,21.0897 72.3549,21.0387 C72.5469,20.9877 72.7519,20.9627 72.9679,20.9627 C73.3189,20.9627 73.6359,21.0317 73.9199,21.1677 C74.2049,21.3057 74.4479,21.5067 74.6489,21.7727 C74.8499,22.0387 75.0059,22.3667 75.1169,22.7567 C75.2269,23.1487 75.2829,23.5967 75.2829,24.1047 C75.2829,24.5597 75.2209,24.9807 75.0989,25.3707 C74.9759,25.7587 74.8009,26.0967 74.5739,26.3817 C74.3439,26.6687 74.0669,26.8927 73.7399,27.0557 C73.4119,27.2197 73.0419,27.3017 72.6319,27.3017 C72.2639,27.3017 71.9489,27.2397 71.6879,27.1197 C71.4259,26.9987 71.1929,26.8297 70.9879,26.6117 L70.9879,29.2767 L69.8079,29.2767 L69.8079,21.0777 L70.5159,21.0777 C70.6819,21.0777 70.7829,21.1567 70.8239,21.3137 L70.9269,21.9957 Z" id="Fill-35" fill="#050302" mask="url(#mask-4)"></path>
                            <path d="M79.2232,26.382 C79.8022,26.382 80.2362,26.187 80.5212,25.797 C80.8072,25.406 80.9512,24.856 80.9512,24.147 C80.9512,23.438 80.8072,22.888 80.5212,22.495 C80.2362,22.102 79.8022,21.906 79.2232,21.906 C78.6342,21.906 78.1972,22.102 77.9092,22.495 C77.6202,22.888 77.4772,23.438 77.4772,24.147 C77.4772,24.856 77.6202,25.406 77.9092,25.797 C78.1972,26.187 78.6342,26.382 79.2232,26.382 M79.2232,20.981 C79.6742,20.981 80.0812,21.054 80.4462,21.201 C80.8102,21.349 81.1202,21.56 81.3752,21.836 C81.6332,22.111 81.8282,22.444 81.9652,22.832 C82.1032,23.222 82.1712,23.657 82.1712,24.141 C82.1712,24.625 82.1032,25.062 81.9652,25.452 C81.8282,25.843 81.6332,26.175 81.3752,26.449 C81.1202,26.723 80.8102,26.933 80.4462,27.081 C80.0812,27.227 79.6742,27.301 79.2232,27.301 C78.7682,27.301 78.3572,27.227 77.9942,27.081 C77.6272,26.933 77.3172,26.723 77.0592,26.449 C76.8012,26.175 76.6032,25.843 76.4642,25.452 C76.3252,25.062 76.2562,24.625 76.2562,24.141 C76.2562,23.657 76.3252,23.222 76.4642,22.832 C76.6032,22.444 76.8012,22.111 77.0592,21.836 C77.3172,21.56 77.6272,21.349 77.9942,21.201 C78.3572,21.054 78.7682,20.981 79.2232,20.981" id="Fill-36" fill="#050302" mask="url(#mask-4)"></path>
                            <path d="M84.5953,22.255 C84.7903,21.853 85.0293,21.537 85.3083,21.308 C85.5853,21.077 85.9193,20.963 86.3113,20.963 C86.4433,20.963 86.5693,20.978 86.6893,21.008 C86.8063,21.039 86.9103,21.083 87.0003,21.144 L86.9193,22.032 C86.8933,22.141 86.8253,22.195 86.7213,22.195 C86.6643,22.195 86.5793,22.184 86.4663,22.162 C86.3553,22.14 86.2333,22.129 86.1063,22.129 C85.9153,22.129 85.7493,22.156 85.6033,22.211 C85.4583,22.265 85.3283,22.345 85.2133,22.452 C85.0993,22.559 84.9973,22.69 84.9083,22.845 C84.8193,23 84.7373,23.176 84.6603,23.374 L84.6603,27.216 L83.4833,27.216 L83.4833,21.077 L84.1593,21.077 C84.2883,21.077 84.3753,21.101 84.4223,21.147 C84.4683,21.193 84.5013,21.275 84.5223,21.391 L84.5953,22.255 Z" id="Fill-37" fill="#050302" mask="url(#mask-4)"></path>
                            <path d="M95.7486,21.0773 L93.2596,27.2163 L92.1946,27.2163 L89.7056,21.0773 L90.6786,21.0773 C90.7716,21.0773 90.8476,21.0993 90.9086,21.1433 C90.9686,21.1883 91.0096,21.2453 91.0286,21.3133 L92.4966,25.0843 C92.5496,25.2413 92.5956,25.3963 92.6346,25.5513 C92.6716,25.7073 92.7066,25.8603 92.7386,26.0143 C92.7706,25.8603 92.8076,25.7083 92.8476,25.5553 C92.8896,25.4013 92.9356,25.2443 92.9926,25.0843 L94.4796,21.3133 C94.5036,21.2453 94.5456,21.1883 94.6056,21.1433 C94.6656,21.0993 94.7386,21.0773 94.8236,21.0773 L95.7486,21.0773 Z" id="Fill-38" fill="#050302" mask="url(#mask-4)"></path>
                            <path d="M100.5806,23.4635 C100.5806,23.2315 100.5476,23.0155 100.4816,22.8175 C100.4156,22.6195 100.3176,22.4485 100.1886,22.3035 C100.0596,22.1595 99.9026,22.0465 99.7166,21.9655 C99.5326,21.8845 99.3176,21.8445 99.0776,21.8445 C98.5816,21.8445 98.1916,21.9885 97.9076,22.2745 C97.6236,22.5595 97.4436,22.9565 97.3676,23.4635 L100.5806,23.4635 Z M101.5546,26.3405 C101.4086,26.5095 101.2416,26.6555 101.0526,26.7785 C100.8636,26.9015 100.6616,27.0005 100.4486,27.0775 C100.2346,27.1535 100.0146,27.2105 99.7876,27.2475 C99.5596,27.2825 99.3346,27.3015 99.1126,27.3015 C98.6896,27.3015 98.2986,27.2295 97.9366,27.0865 C97.5776,26.9435 97.2646,26.7335 97.0016,26.4575 C96.7376,26.1825 96.5326,25.8405 96.3856,25.4305 C96.2376,25.0225 96.1646,24.5515 96.1646,24.0205 C96.1646,23.5935 96.2306,23.1955 96.3636,22.8265 C96.4976,22.4585 96.6866,22.1375 96.9346,21.8635 C97.1826,21.5895 97.4866,21.3735 97.8456,21.2165 C98.2026,21.0595 98.6046,20.9805 99.0536,20.9805 C99.4276,20.9805 99.7726,21.0425 100.0896,21.1645 C100.4056,21.2875 100.6776,21.4665 100.9076,21.6995 C101.1376,21.9335 101.3166,22.2225 101.4486,22.5645 C101.5786,22.9065 101.6446,23.2965 101.6446,23.7365 C101.6446,23.9165 101.6236,24.0395 101.5836,24.1025 C101.5436,24.1645 101.4706,24.1955 101.3606,24.1955 L97.3376,24.1955 C97.3496,24.5625 97.4016,24.8805 97.4936,25.1535 C97.5866,25.4245 97.7156,25.6515 97.8786,25.8335 C98.0416,26.0135 98.2346,26.1495 98.4616,26.2375 C98.6846,26.3265 98.9376,26.3705 99.2166,26.3705 C99.4776,26.3705 99.7046,26.3405 99.8956,26.2795 C100.0876,26.2195 100.2526,26.1545 100.3926,26.0835 C100.5296,26.0125 100.6466,25.9475 100.7406,25.8875 C100.8356,25.8265 100.9206,25.7965 100.9926,25.7965 C101.0896,25.7965 101.1636,25.8335 101.2156,25.9055 L101.5546,26.3405 Z" id="Fill-39" fill="#050302" mask="url(#mask-4)"></path>
                            <path d="M104.0191,21.9293 C104.1521,21.7893 104.2901,21.6593 104.4361,21.5423 C104.5811,21.4253 104.7351,21.3263 104.8991,21.2433 C105.0611,21.1613 105.2371,21.0963 105.4231,21.0503 C105.6121,21.0043 105.8121,20.9803 106.0261,20.9803 C106.3631,20.9803 106.6611,21.0373 106.9161,21.1503 C107.1721,21.2623 107.3871,21.4213 107.5601,21.6233 C107.7331,21.8283 107.8641,22.0723 107.9531,22.3593 C108.0411,22.6443 108.0861,22.9613 108.0861,23.3063 L108.0861,27.2163 L106.9011,27.2163 L106.9011,23.3063 C106.9011,22.8673 106.8011,22.5263 106.5991,22.2833 C106.3991,22.0393 106.0891,21.9173 105.6751,21.9173 C105.3731,21.9173 105.0891,21.9883 104.8271,22.1323 C104.5621,22.2753 104.3171,22.4693 104.0921,22.7153 L104.0921,27.2163 L102.9141,27.2163 L102.9141,21.0773 L103.6211,21.0773 C103.7861,21.0773 103.8881,21.1563 103.9281,21.3133 L104.0191,21.9293 Z" id="Fill-40" fill="#050302" mask="url(#mask-4)"></path>
                            <path d="M111.5103,27.3131 C111.0163,27.3131 110.6353,27.1741 110.3653,26.8961 C110.0993,26.6181 109.9643,26.2211 109.9643,25.7061 L109.9643,22.0321 L109.2523,22.0321 C109.1833,22.0321 109.1253,22.0111 109.0793,21.9681 C109.0323,21.9261 109.0103,21.8631 109.0103,21.7781 L109.0103,21.3021 L110.0073,21.1621 L110.2733,19.3311 C110.2883,19.2621 110.3203,19.2091 110.3653,19.1711 C110.4133,19.1321 110.4723,19.1141 110.5453,19.1141 L111.1423,19.1141 L111.1423,21.1741 L112.8833,21.1741 L112.8833,22.0321 L111.1423,22.0321 L111.1423,25.6261 C111.1423,25.8691 111.2013,26.0491 111.3223,26.1681 C111.4403,26.2861 111.5923,26.3471 111.7783,26.3471 C111.8863,26.3471 111.9803,26.3331 112.0583,26.3041 C112.1363,26.2761 112.2043,26.2451 112.2613,26.2111 C112.3173,26.1771 112.3643,26.1451 112.4053,26.1161 C112.4463,26.0881 112.4823,26.0741 112.5143,26.0741 C112.5543,26.0741 112.5853,26.0841 112.6083,26.1011 C112.6293,26.1201 112.6533,26.1491 112.6783,26.1891 L113.0283,26.7571 C112.8343,26.9341 112.6063,27.0711 112.3393,27.1681 C112.0733,27.2651 111.7973,27.3131 111.5103,27.3131" id="Fill-41" fill="#050302" mask="url(#mask-4)"></path>
                            <path d="M117.2633,24.4914 C116.7843,24.5084 116.3773,24.5444 116.0423,24.6034 C115.7093,24.6614 115.4373,24.7394 115.2283,24.8364 C115.0183,24.9324 114.8673,25.0464 114.7753,25.1774 C114.6813,25.3084 114.6353,25.4544 114.6353,25.6154 C114.6353,25.7684 114.6603,25.9004 114.7113,26.0114 C114.7603,26.1214 114.8293,26.2124 114.9163,26.2834 C115.0023,26.3534 115.1053,26.4044 115.2213,26.4374 C115.3393,26.4694 115.4653,26.4844 115.6023,26.4844 C115.7833,26.4844 115.9513,26.4674 116.1013,26.4304 C116.2523,26.3954 116.3943,26.3434 116.5263,26.2774 C116.6593,26.2114 116.7853,26.1284 116.9083,26.0314 C117.0293,25.9364 117.1473,25.8244 117.2633,25.6994 L117.2633,24.4914 Z M113.8073,21.9354 C114.1493,21.6094 114.5223,21.3654 114.9223,21.2044 C115.3233,21.0434 115.7643,20.9634 116.2423,20.9634 C116.5923,20.9634 116.9043,21.0194 117.1723,21.1354 C117.4433,21.2494 117.6703,21.4104 117.8553,21.6154 C118.0413,21.8214 118.1803,22.0664 118.2753,22.3524 C118.3693,22.6384 118.4173,22.9554 118.4173,23.3014 L118.4173,27.2164 L117.8933,27.2164 C117.7753,27.2164 117.6873,27.1974 117.6253,27.1584 C117.5663,27.1204 117.5173,27.0494 117.4823,26.9454 L117.3553,26.4074 C117.1973,26.5524 117.0413,26.6794 116.8893,26.7904 C116.7363,26.9014 116.5763,26.9954 116.4083,27.0744 C116.2423,27.1524 116.0643,27.2134 115.8743,27.2534 C115.6853,27.2934 115.4763,27.3134 115.2453,27.3134 C115.0033,27.3134 114.7773,27.2804 114.5663,27.2134 C114.3553,27.1464 114.1703,27.0454 114.0123,26.9084 C113.8573,26.7714 113.7323,26.6004 113.6423,26.3954 C113.5503,26.1894 113.5053,25.9504 113.5053,25.6754 C113.5053,25.4344 113.5713,25.2004 113.7003,24.9774 C113.8333,24.7544 114.0453,24.5534 114.3433,24.3774 C114.6383,24.1994 115.0253,24.0544 115.5013,23.9414 C115.9803,23.8284 116.5663,23.7644 117.2633,23.7484 L117.2633,23.3014 C117.2633,22.8384 117.1653,22.4914 116.9673,22.2624 C116.7703,22.0324 116.4803,21.9174 116.0983,21.9174 C115.8393,21.9174 115.6233,21.9494 115.4483,22.0144 C115.2733,22.0784 115.1213,22.1504 114.9943,22.2284 C114.8673,22.3074 114.7573,22.3794 114.6623,22.4434 C114.5673,22.5084 114.4703,22.5394 114.3683,22.5394 C114.2883,22.5394 114.2203,22.5174 114.1613,22.4734 C114.1023,22.4284 114.0553,22.3764 114.0203,22.3164 L113.8073,21.9354 Z" id="Fill-42" fill="#050302" mask="url(#mask-4)"></path>
                            <path d="M123.6207,22.1349 C123.5877,22.1869 123.5537,22.2249 123.5167,22.2469 C123.4817,22.2689 123.4337,22.2799 123.3777,22.2799 C123.3137,22.2799 123.2437,22.2579 123.1647,22.2139 C123.0857,22.1689 122.9907,22.1209 122.8797,22.0689 C122.7687,22.0159 122.6397,21.9679 122.4907,21.9239 C122.3417,21.8789 122.1647,21.8579 121.9597,21.8579 C121.7897,21.8579 121.6367,21.8779 121.4967,21.9199 C121.3567,21.9629 121.2397,22.0219 121.1427,22.0959 C121.0457,22.1699 120.9717,22.2589 120.9187,22.3619 C120.8667,22.4639 120.8407,22.5739 120.8407,22.6909 C120.8407,22.8439 120.8857,22.9699 120.9767,23.0719 C121.0667,23.1719 121.1857,23.2589 121.3337,23.3319 C121.4797,23.4039 121.6477,23.4689 121.8347,23.5279 C122.0217,23.5869 122.2137,23.6479 122.4087,23.7119 C122.6037,23.7769 122.7947,23.8499 122.9817,23.9319 C123.1707,24.0149 123.3377,24.1169 123.4837,24.2399 C123.6307,24.3639 123.7507,24.5109 123.8407,24.6849 C123.9317,24.8589 123.9767,25.0699 123.9767,25.3189 C123.9767,25.6059 123.9257,25.8699 123.8227,26.1139 C123.7207,26.3569 123.5687,26.5679 123.3697,26.7449 C123.1707,26.9229 122.9237,27.0619 122.6297,27.1619 C122.3347,27.2619 121.9997,27.3129 121.6197,27.3129 C121.1967,27.3129 120.8067,27.2419 120.4487,27.1019 C120.0907,26.9599 119.7897,26.7809 119.5477,26.5639 L119.8257,26.1109 C119.8577,26.0539 119.8987,26.0109 119.9457,25.9809 C119.9957,25.9499 120.0587,25.9359 120.1397,25.9359 C120.2167,25.9359 120.2957,25.9629 120.3757,26.0199 C120.4557,26.0759 120.5527,26.1379 120.6657,26.2039 C120.7777,26.2709 120.9147,26.3309 121.0767,26.3849 C121.2367,26.4399 121.4387,26.4669 121.6817,26.4669 C121.8817,26.4669 122.0577,26.4419 122.2057,26.3909 C122.3557,26.3409 122.4777,26.2719 122.5777,26.1859 C122.6777,26.0999 122.7497,25.9999 122.7987,25.8869 C122.8477,25.7739 122.8707,25.6549 122.8707,25.5309 C122.8707,25.3689 122.8257,25.2359 122.7347,25.1289 C122.6437,25.0229 122.5257,24.9299 122.3787,24.8539 C122.2307,24.7769 122.0627,24.7109 121.8747,24.6549 C121.6837,24.5979 121.4917,24.5379 121.2937,24.4739 C121.0967,24.4089 120.9027,24.3349 120.7137,24.2499 C120.5237,24.1649 120.3567,24.0579 120.2097,23.9299 C120.0617,23.8009 119.9437,23.6429 119.8527,23.4579 C119.7627,23.2729 119.7177,23.0469 119.7177,22.7809 C119.7177,22.5449 119.7667,22.3169 119.8647,22.0979 C119.9637,21.8809 120.1067,21.6899 120.2947,21.5249 C120.4817,21.3599 120.7137,21.2269 120.9887,21.1299 C121.2657,21.0309 121.5797,20.9809 121.9337,20.9809 C122.3417,20.9809 122.7087,21.0459 123.0367,21.1749 C123.3657,21.3029 123.6467,21.4799 123.8807,21.7069 L123.6207,22.1349 Z" id="Fill-43" fill="#050302" mask="url(#mask-4)"></path>
                            <path d="M289.1177,88.3166 L2.5137,88.3166 C1.6667,88.3166 0.9787,87.6296 0.9787,86.7816 L0.9787,50.9656 C0.9787,50.1186 1.6667,49.4316 2.5137,49.4316 L289.1177,49.4316 C289.9657,49.4316 290.6527,50.1186 290.6527,50.9656 L290.6527,86.7816 C290.6527,87.6296 289.9657,88.3166 289.1177,88.3166" id="Fill-44" fill="#FFFFFF" mask="url(#mask-4)"></path>
                            <path d="M29.7701,63.9079 L26.2421,72.5839 L25.0871,72.5839 L21.5591,63.9079 L22.5851,63.9079 C22.6991,63.9079 22.7911,63.9359 22.8611,63.9919 C22.9311,64.0489 22.9851,64.1219 23.0211,64.2099 L25.3661,70.1069 C25.4211,70.2519 25.4771,70.4109 25.5311,70.5839 C25.5851,70.7579 25.6351,70.9389 25.6801,71.1279 C25.7201,70.9389 25.7651,70.7579 25.8121,70.5839 C25.8611,70.4109 25.9141,70.2519 25.9701,70.1069 L28.3081,64.2099 C28.3351,64.1289 28.3871,64.0589 28.4621,63.9979 C28.5361,63.9379 28.6271,63.9079 28.7361,63.9079 L29.7701,63.9079 Z" id="Fill-45" fill="#050302" mask="url(#mask-4)"></path>
                            <path d="M30.664,72.5846 L31.842,72.5846 L31.842,66.4456 L30.664,66.4456 L30.664,72.5846 Z M32.067,64.5476 C32.067,64.6576 32.043,64.7596 32,64.8586 C31.956,64.9586 31.895,65.0446 31.821,65.1186 C31.747,65.1926 31.658,65.2526 31.559,65.2946 C31.458,65.3366 31.353,65.3566 31.244,65.3566 C31.135,65.3566 31.033,65.3366 30.936,65.2946 C30.839,65.2526 30.754,65.1926 30.679,65.1186 C30.604,65.0446 30.546,64.9586 30.504,64.8586 C30.462,64.7596 30.44,64.6576 30.44,64.5476 C30.44,64.4356 30.462,64.3296 30.504,64.2316 C30.546,64.1316 30.604,64.0456 30.679,63.9706 C30.754,63.8966 30.839,63.8386 30.936,63.7956 C31.033,63.7536 31.135,63.7316 31.244,63.7316 C31.353,63.7316 31.458,63.7536 31.559,63.7956 C31.658,63.8386 31.747,63.8966 31.821,63.9706 C31.895,64.0456 31.956,64.1316 32,64.2316 C32.043,64.3296 32.067,64.4356 32.067,64.5476 Z" id="Fill-46" fill="#050302" mask="url(#mask-4)"></path>
                            <path d="M37.1715,67.5026 C37.1385,67.5546 37.1065,67.5926 37.0685,67.6146 C37.0325,67.6366 36.9865,67.6476 36.9305,67.6476 C36.8645,67.6476 36.7945,67.6256 36.7165,67.5816 C36.6365,67.5366 36.5415,67.4886 36.4305,67.4366 C36.3195,67.3836 36.1905,67.3356 36.0415,67.2916 C35.8925,67.2466 35.7155,67.2256 35.5105,67.2256 C35.3405,67.2256 35.1875,67.2456 35.0475,67.2876 C34.9075,67.3306 34.7905,67.3896 34.6935,67.4636 C34.5965,67.5376 34.5245,67.6266 34.4705,67.7296 C34.4185,67.8316 34.3915,67.9416 34.3915,68.0586 C34.3915,68.2116 34.4375,68.3376 34.5275,68.4396 C34.6175,68.5396 34.7375,68.6266 34.8845,68.6996 C35.0305,68.7716 35.1985,68.8366 35.3865,68.8956 C35.5735,68.9546 35.7655,69.0156 35.9605,69.0796 C36.1555,69.1446 36.3475,69.2176 36.5345,69.2996 C36.7215,69.3826 36.8885,69.4846 37.0345,69.6076 C37.1825,69.7316 37.3015,69.8786 37.3915,70.0526 C37.4835,70.2266 37.5275,70.4376 37.5275,70.6866 C37.5275,70.9736 37.4765,71.2376 37.3745,71.4816 C37.2715,71.7246 37.1195,71.9356 36.9215,72.1126 C36.7215,72.2906 36.4755,72.4296 36.1805,72.5296 C35.8865,72.6296 35.5505,72.6806 35.1715,72.6806 C34.7475,72.6806 34.3585,72.6096 33.9995,72.4696 C33.6415,72.3276 33.3415,72.1486 33.0995,71.9316 L33.3765,71.4786 C33.4095,71.4216 33.4495,71.3786 33.4975,71.3486 C33.5465,71.3176 33.6095,71.3036 33.6905,71.3036 C33.7685,71.3036 33.8465,71.3306 33.9265,71.3876 C34.0065,71.4436 34.1035,71.5056 34.2165,71.5716 C34.3295,71.6386 34.4675,71.6986 34.6275,71.7526 C34.7885,71.8076 34.9905,71.8346 35.2325,71.8346 C35.4335,71.8346 35.6095,71.8096 35.7585,71.7586 C35.9065,71.7086 36.0305,71.6396 36.1285,71.5536 C36.2275,71.4676 36.3005,71.3676 36.3505,71.2546 C36.3985,71.1416 36.4225,71.0226 36.4225,70.8986 C36.4225,70.7366 36.3765,70.6036 36.2865,70.4966 C36.1955,70.3906 36.0765,70.2976 35.9305,70.2216 C35.7825,70.1446 35.6135,70.0786 35.4255,70.0226 C35.2355,69.9656 35.0425,69.9056 34.8445,69.8416 C34.6495,69.7766 34.4545,69.7026 34.2655,69.6176 C34.0745,69.5326 33.9075,69.4256 33.7615,69.2976 C33.6135,69.1686 33.4945,69.0106 33.4045,68.8256 C33.3135,68.6406 33.2685,68.4146 33.2685,68.1486 C33.2685,67.9126 33.3175,67.6846 33.4165,67.4656 C33.5165,67.2486 33.6575,67.0576 33.8465,66.8926 C34.0325,66.7276 34.2645,66.5946 34.5395,66.4976 C34.8165,66.3986 35.1315,66.3486 35.4865,66.3486 C35.8925,66.3486 36.2605,66.4136 36.5885,66.5426 C36.9165,66.6706 37.1975,66.8476 37.4315,67.0746 L37.1715,67.5026 Z" id="Fill-47" fill="#050302" mask="url(#mask-4)"></path>
                            <path d="M38.857,72.5846 L40.035,72.5846 L40.035,66.4456 L38.857,66.4456 L38.857,72.5846 Z M40.258,64.5476 C40.258,64.6576 40.236,64.7596 40.193,64.8586 C40.148,64.9586 40.088,65.0446 40.013,65.1186 C39.94,65.1926 39.852,65.2526 39.752,65.2946 C39.65,65.3366 39.546,65.3566 39.437,65.3566 C39.329,65.3566 39.225,65.3366 39.128,65.2946 C39.032,65.2526 38.947,65.1926 38.873,65.1186 C38.797,65.0446 38.739,64.9586 38.697,64.8586 C38.654,64.7596 38.632,64.6576 38.632,64.5476 C38.632,64.4356 38.654,64.3296 38.697,64.2316 C38.739,64.1316 38.797,64.0456 38.873,63.9706 C38.947,63.8966 39.032,63.8386 39.128,63.7956 C39.225,63.7536 39.329,63.7316 39.437,63.7316 C39.546,63.7316 39.65,63.7536 39.752,63.7956 C39.852,63.8386 39.94,63.8966 40.013,63.9706 C40.088,64.0456 40.148,64.1316 40.193,64.2316 C40.236,64.3296 40.258,64.4356 40.258,64.5476 Z" id="Fill-48" fill="#050302" mask="url(#mask-4)"></path>
                            <path d="M43.6666,72.6808 C43.1716,72.6808 42.7886,72.5418 42.5216,72.2638 C42.2536,71.9858 42.1196,71.5888 42.1196,71.0738 L42.1196,67.3998 L41.4056,67.3998 C41.3376,67.3998 41.2806,67.3788 41.2346,67.3358 C41.1886,67.2938 41.1656,67.2308 41.1656,67.1458 L41.1656,66.6698 L42.1606,66.5298 L42.4286,64.6988 C42.4436,64.6298 42.4756,64.5768 42.5216,64.5388 C42.5666,64.4998 42.6276,64.4818 42.6986,64.4818 L43.2986,64.4818 L43.2986,66.5418 L45.0386,66.5418 L45.0386,67.3998 L43.2986,67.3998 L43.2986,70.9938 C43.2986,71.2368 43.3576,71.4168 43.4766,71.5358 C43.5956,71.6538 43.7476,71.7148 43.9326,71.7148 C44.0406,71.7148 44.1346,71.7008 44.2136,71.6718 C44.2926,71.6438 44.3586,71.6128 44.4156,71.5788 C44.4726,71.5448 44.5206,71.5128 44.5616,71.4838 C44.6016,71.4558 44.6376,71.4418 44.6706,71.4418 C44.7106,71.4418 44.7406,71.4518 44.7636,71.4688 C44.7856,71.4878 44.8096,71.5168 44.8326,71.5568 L45.1826,72.1248 C44.9896,72.3018 44.7596,72.4388 44.4936,72.5358 C44.2286,72.6328 43.9526,72.6808 43.6666,72.6808" id="Fill-49" fill="#050302" mask="url(#mask-4)"></path>
                            <path d="M49.4185,69.859 C48.9395,69.876 48.5325,69.912 48.1985,69.971 C47.8635,70.029 47.5925,70.107 47.3815,70.204 C47.1735,70.3 47.0225,70.414 46.9285,70.545 C46.8365,70.676 46.7905,70.822 46.7905,70.983 C46.7905,71.136 46.8145,71.268 46.8655,71.379 C46.9165,71.489 46.9845,71.58 47.0715,71.651 C47.1575,71.721 47.2595,71.772 47.3775,71.805 C47.4925,71.837 47.6205,71.852 47.7575,71.852 C47.9395,71.852 48.1045,71.835 48.2555,71.798 C48.4055,71.763 48.5475,71.711 48.6825,71.645 C48.8145,71.579 48.9415,71.496 49.0625,71.399 C49.1835,71.304 49.3025,71.192 49.4185,71.067 L49.4185,69.859 Z M45.9635,67.303 C46.3055,66.977 46.6765,66.733 47.0775,66.572 C47.4795,66.411 47.9175,66.331 48.3975,66.331 C48.7485,66.331 49.0575,66.387 49.3275,66.503 C49.5985,66.617 49.8245,66.778 50.0115,66.983 C50.1945,67.189 50.3365,67.434 50.4315,67.72 C50.5255,68.006 50.5725,68.323 50.5725,68.669 L50.5725,72.584 L50.0465,72.584 C49.9315,72.584 49.8415,72.565 49.7805,72.526 C49.7215,72.488 49.6725,72.417 49.6365,72.313 L49.5095,71.775 C49.3535,71.92 49.1965,72.047 49.0435,72.158 C48.8915,72.269 48.7315,72.363 48.5645,72.442 C48.3975,72.52 48.2185,72.581 48.0285,72.621 C47.8395,72.661 47.6295,72.681 47.4005,72.681 C47.1585,72.681 46.9325,72.648 46.7215,72.581 C46.5085,72.514 46.3245,72.413 46.1685,72.276 C46.0105,72.139 45.8885,71.968 45.7955,71.763 C45.7065,71.557 45.6615,71.318 45.6615,71.043 C45.6615,70.802 45.7265,70.568 45.8565,70.345 C45.9865,70.122 46.2015,69.921 46.4965,69.745 C46.7945,69.567 47.1805,69.422 47.6575,69.309 C48.1345,69.196 48.7225,69.132 49.4185,69.116 L49.4185,68.669 C49.4185,68.206 49.3195,67.859 49.1225,67.63 C48.9255,67.4 48.6355,67.285 48.2525,67.285 C47.9955,67.285 47.7785,67.317 47.6045,67.382 C47.4285,67.446 47.2765,67.518 47.1505,67.596 C47.0225,67.675 46.9125,67.747 46.8175,67.811 C46.7235,67.876 46.6255,67.907 46.5245,67.907 C46.4435,67.907 46.3735,67.885 46.3155,67.841 C46.2585,67.796 46.2105,67.744 46.1735,67.684 L45.9635,67.303 Z" id="Fill-50" fill="#050302" mask="url(#mask-4)"></path>
                            <path d="M56.1138,67.9323 C55.9198,67.6783 55.7118,67.5003 55.4878,67.4003 C55.2648,67.2993 55.0128,67.2483 54.7358,67.2483 C54.1958,67.2483 53.7778,67.4433 53.4828,67.8313 C53.1848,68.2213 53.0378,68.7873 53.0378,69.5323 C53.0378,69.9243 53.0708,70.2573 53.1378,70.5333 C53.2048,70.8093 53.3008,71.0343 53.4268,71.2093 C53.5538,71.3853 53.7108,71.5143 53.8958,71.5963 C54.0818,71.6793 54.2908,71.7203 54.5238,71.7203 C54.8658,71.7203 55.1638,71.6433 55.4128,71.4903 C55.6618,71.3383 55.8948,71.1213 56.1138,70.8433 L56.1138,67.9323 Z M57.2978,63.6663 L57.2978,72.5843 L56.5848,72.5843 C56.4198,72.5843 56.3178,72.5053 56.2778,72.3483 L56.1738,71.6413 C55.9118,71.9513 55.6138,72.2003 55.2828,72.3883 C54.9508,72.5743 54.5658,72.6693 54.1328,72.6693 C53.7808,72.6693 53.4648,72.6003 53.1808,72.4633 C52.8948,72.3273 52.6528,72.1263 52.4518,71.8623 C52.2508,71.5993 52.0948,71.2703 51.9868,70.8803 C51.8788,70.4893 51.8238,70.0393 51.8238,69.5323 C51.8238,69.0783 51.8848,68.6543 52.0058,68.2643 C52.1258,67.8733 52.3008,67.5343 52.5308,67.2483 C52.7598,66.9633 53.0378,66.7383 53.3648,66.5753 C53.6908,66.4123 54.0588,66.3303 54.4688,66.3303 C54.8408,66.3303 55.1568,66.3903 55.4158,66.5113 C55.6758,66.6333 55.9078,66.8043 56.1138,67.0253 L56.1138,63.6663 L57.2978,63.6663 Z" id="Fill-51" fill="#050302" mask="url(#mask-4)"></path>
                            <path d="M61.564,71.7497 C62.144,71.7497 62.577,71.5547 62.863,71.1647 C63.148,70.7737 63.292,70.2237 63.292,69.5147 C63.292,68.8057 63.148,68.2557 62.863,67.8627 C62.577,67.4697 62.144,67.2737 61.564,67.2737 C60.975,67.2737 60.538,67.4697 60.25,67.8627 C59.961,68.2557 59.818,68.8057 59.818,69.5147 C59.818,70.2237 59.961,70.7737 60.25,71.1647 C60.538,71.5547 60.975,71.7497 61.564,71.7497 M61.564,66.3487 C62.015,66.3487 62.422,66.4217 62.787,66.5687 C63.152,66.7167 63.461,66.9277 63.716,67.2037 C63.974,67.4787 64.169,67.8117 64.307,68.1997 C64.444,68.5897 64.512,69.0247 64.512,69.5087 C64.512,69.9927 64.444,70.4297 64.307,70.8197 C64.169,71.2107 63.974,71.5427 63.716,71.8167 C63.461,72.0907 63.152,72.3007 62.787,72.4487 C62.422,72.5947 62.015,72.6687 61.564,72.6687 C61.109,72.6687 60.698,72.5947 60.335,72.4487 C59.968,72.3007 59.659,72.0907 59.4,71.8167 C59.143,71.5427 58.945,71.2107 58.805,70.8197 C58.666,70.4297 58.597,69.9927 58.597,69.5087 C58.597,69.0247 58.666,68.5897 58.805,68.1997 C58.945,67.8117 59.143,67.4787 59.4,67.2037 C59.659,66.9277 59.968,66.7167 60.335,66.5687 C60.698,66.4217 61.109,66.3487 61.564,66.3487" id="Fill-52" fill="#050302" mask="url(#mask-4)"></path>
                            <path d="M69.4429,67.5026 C69.4099,67.5546 69.3769,67.5926 69.3399,67.6146 C69.3029,67.6366 69.2569,67.6476 69.2009,67.6476 C69.1349,67.6476 69.0649,67.6256 68.9869,67.5816 C68.9069,67.5366 68.8119,67.4886 68.7019,67.4366 C68.5899,67.3836 68.4609,67.3356 68.3119,67.2916 C68.1639,67.2466 67.9859,67.2256 67.7809,67.2256 C67.6109,67.2256 67.4579,67.2456 67.3189,67.2876 C67.1789,67.3306 67.0609,67.3896 66.9639,67.4636 C66.8679,67.5376 66.7949,67.6266 66.7419,67.7296 C66.6889,67.8316 66.6629,67.9416 66.6629,68.0586 C66.6629,68.2116 66.7089,68.3376 66.7989,68.4396 C66.8889,68.5396 67.0089,68.6266 67.1559,68.6996 C67.3019,68.7716 67.4689,68.8366 67.6569,68.8956 C67.8439,68.9546 68.0359,69.0156 68.2319,69.0796 C68.4259,69.1446 68.6179,69.2176 68.8049,69.2996 C68.9919,69.3826 69.1599,69.4846 69.3059,69.6076 C69.4539,69.7316 69.5729,69.8786 69.6619,70.0526 C69.7549,70.2266 69.7989,70.4376 69.7989,70.6866 C69.7989,70.9736 69.7469,71.2376 69.6459,71.4816 C69.5419,71.7246 69.3909,71.9356 69.1919,72.1126 C68.9919,72.2906 68.7469,72.4296 68.4519,72.5296 C68.1579,72.6296 67.8209,72.6806 67.4419,72.6806 C67.0189,72.6806 66.6299,72.6096 66.2699,72.4696 C65.9119,72.3276 65.6119,72.1486 65.3699,71.9316 L65.6469,71.4786 C65.6799,71.4216 65.7199,71.3786 65.7689,71.3486 C65.8169,71.3176 65.8809,71.3036 65.9619,71.3036 C66.0399,71.3036 66.1169,71.3306 66.1979,71.3876 C66.2779,71.4436 66.3749,71.5056 66.4879,71.5716 C66.6009,71.6386 66.7379,71.6986 66.8979,71.7526 C67.0599,71.8076 67.2619,71.8346 67.5029,71.8346 C67.7049,71.8346 67.8809,71.8096 68.0289,71.7586 C68.1769,71.7086 68.3009,71.6396 68.3989,71.5536 C68.4989,71.4676 68.5719,71.3676 68.6219,71.2546 C68.6689,71.1416 68.6929,71.0226 68.6929,70.8986 C68.6929,70.7366 68.6469,70.6036 68.5569,70.4966 C68.4659,70.3906 68.3469,70.2976 68.2009,70.2216 C68.0529,70.1446 67.8849,70.0786 67.6959,70.0226 C67.5069,69.9656 67.3139,69.9056 67.1159,69.8416 C66.9199,69.7766 66.7259,69.7026 66.5359,69.6176 C66.3459,69.5326 66.1779,69.4256 66.0319,69.2976 C65.8839,69.1686 65.7649,69.0106 65.6749,68.8256 C65.5839,68.6406 65.5389,68.4146 65.5389,68.1486 C65.5389,67.9126 65.5889,67.6846 65.6869,67.4656 C65.7869,67.2486 65.9279,67.0576 66.1169,66.8926 C66.3029,66.7276 66.5349,66.5946 66.8109,66.4976 C67.0879,66.3986 67.4019,66.3486 67.7569,66.3486 C68.1639,66.3486 68.5319,66.4136 68.8599,66.5426 C69.1879,66.6706 69.4679,66.8476 69.7029,67.0746 L69.4429,67.5026 Z" id="Fill-53" fill="#050302" mask="url(#mask-4)"></path>
                            <path d="M75.2301,67.297 C75.3631,67.157 75.5021,67.027 75.6481,66.91 C75.7921,66.793 75.9461,66.694 76.1101,66.611 C76.2731,66.529 76.4481,66.464 76.6351,66.418 C76.8231,66.372 77.0241,66.348 77.2361,66.348 C77.5751,66.348 77.8711,66.405 78.1281,66.518 C78.3831,66.63 78.5981,66.789 78.7701,66.991 C78.9451,67.196 79.0751,67.44 79.1651,67.727 C79.2511,68.012 79.2961,68.329 79.2961,68.674 L79.2961,72.584 L78.1121,72.584 L78.1121,68.674 C78.1121,68.235 78.0121,67.894 77.8091,67.651 C77.6091,67.407 77.3011,67.285 76.8861,67.285 C76.5841,67.285 76.3011,67.356 76.0371,67.5 C75.7731,67.643 75.5291,67.837 75.3031,68.083 L75.3031,72.584 L74.1261,72.584 L74.1261,66.445 L74.8311,66.445 C74.9971,66.445 75.1001,66.524 75.1401,66.681 L75.2301,67.297 Z" id="Fill-54" fill="#050302" mask="url(#mask-4)"></path>
                            <path d="M83.5025,71.7497 C84.0815,71.7497 84.5155,71.5547 84.8005,71.1647 C85.0855,70.7737 85.2305,70.2237 85.2305,69.5147 C85.2305,68.8057 85.0855,68.2557 84.8005,67.8627 C84.5155,67.4697 84.0815,67.2737 83.5025,67.2737 C82.9135,67.2737 82.4755,67.4697 82.1885,67.8627 C81.8995,68.2557 81.7555,68.8057 81.7555,69.5147 C81.7555,70.2237 81.8995,70.7737 82.1885,71.1647 C82.4755,71.5547 82.9135,71.7497 83.5025,71.7497 M83.5025,66.3487 C83.9525,66.3487 84.3595,66.4217 84.7255,66.5687 C85.0895,66.7167 85.3995,66.9277 85.6545,67.2037 C85.9115,67.4787 86.1075,67.8117 86.2445,68.1997 C86.3815,68.5897 86.4495,69.0247 86.4495,69.5087 C86.4495,69.9927 86.3815,70.4297 86.2445,70.8197 C86.1075,71.2107 85.9115,71.5427 85.6545,71.8167 C85.3995,72.0907 85.0895,72.3007 84.7255,72.4487 C84.3595,72.5947 83.9525,72.6687 83.5025,72.6687 C83.0465,72.6687 82.6365,72.5947 82.2735,72.4487 C81.9065,72.3007 81.5965,72.0907 81.3385,71.8167 C81.0805,71.5427 80.8825,71.2107 80.7435,70.8197 C80.6045,70.4297 80.5355,69.9927 80.5355,69.5087 C80.5355,69.0247 80.6045,68.5897 80.7435,68.1997 C80.8825,67.8117 81.0805,67.4787 81.3385,67.2037 C81.5965,66.9277 81.9065,66.7167 82.2735,66.5687 C82.6365,66.4217 83.0465,66.3487 83.5025,66.3487" id="Fill-55" fill="#050302" mask="url(#mask-4)"></path>
                            <path d="M91.9908,71.0734 C92.1828,71.3274 92.3928,71.5044 92.6158,71.6054 C92.8398,71.7064 93.0898,71.7574 93.3678,71.7574 C93.9088,71.7574 94.3258,71.5624 94.6218,71.1724 C94.9188,70.7844 95.0658,70.2184 95.0658,69.4724 C95.0658,69.0814 95.0328,68.7484 94.9658,68.4724 C94.8998,68.1964 94.8038,67.9704 94.6758,67.7954 C94.5498,67.6204 94.3928,67.4914 94.2088,67.4094 C94.0228,67.3264 93.8138,67.2854 93.5808,67.2854 C93.2368,67.2854 92.9408,67.3624 92.6878,67.5144 C92.4368,67.6674 92.2048,67.8854 91.9908,68.1674 L91.9908,71.0734 Z M91.9298,67.3634 C92.0588,67.2114 92.1968,67.0704 92.3438,66.9434 C92.4908,66.8174 92.6488,66.7084 92.8178,66.6174 C92.9878,66.5264 93.1678,66.4574 93.3588,66.4064 C93.5498,66.3554 93.7558,66.3304 93.9718,66.3304 C94.3228,66.3304 94.6398,66.3994 94.9238,66.5354 C95.2078,66.6734 95.4508,66.8744 95.6528,67.1404 C95.8528,67.4064 96.0098,67.7344 96.1198,68.1244 C96.2308,68.5164 96.2868,68.9644 96.2868,69.4724 C96.2868,69.9274 96.2248,70.3484 96.1018,70.7384 C95.9788,71.1264 95.8038,71.4644 95.5768,71.7494 C95.3478,72.0364 95.0708,72.2604 94.7428,72.4234 C94.4148,72.5874 94.0458,72.6694 93.6348,72.6694 C93.2668,72.6694 92.9528,72.6074 92.6918,72.4874 C92.4288,72.3664 92.1958,72.1974 91.9908,71.9794 L91.9908,74.6444 L90.8118,74.6444 L90.8118,66.4454 L91.5198,66.4454 C91.6848,66.4454 91.7868,66.5244 91.8268,66.6814 L91.9298,67.3634 Z" id="Fill-56" fill="#050302" mask="url(#mask-4)"></path>
                            <path d="M98.7213,67.6227 C98.9193,67.2207 99.1563,66.9047 99.4333,66.6757 C99.7123,66.4447 100.0473,66.3307 100.4373,66.3307 C100.5703,66.3307 100.6963,66.3457 100.8143,66.3757 C100.9333,66.4067 101.0373,66.4507 101.1253,66.5117 L101.0483,67.3997 C101.0203,67.5087 100.9533,67.5627 100.8483,67.5627 C100.7913,67.5627 100.7063,67.5517 100.5953,67.5297 C100.4823,67.5077 100.3613,67.4967 100.2313,67.4967 C100.0423,67.4967 99.8743,67.5237 99.7313,67.5787 C99.5843,67.6327 99.4543,67.7127 99.3413,67.8197 C99.2263,67.9267 99.1243,68.0577 99.0353,68.2127 C98.9483,68.3677 98.8653,68.5437 98.7873,68.7417 L98.7873,72.5837 L97.6093,72.5837 L97.6093,66.4447 L98.2863,66.4447 C98.4153,66.4447 98.5033,66.4687 98.5483,66.5147 C98.5953,66.5607 98.6283,66.6427 98.6493,66.7587 L98.7213,67.6227 Z" id="Fill-57" fill="#050302" mask="url(#mask-4)"></path>
                            <path d="M104.4254,71.7497 C105.0064,71.7497 105.4384,71.5547 105.7234,71.1647 C106.0104,70.7737 106.1534,70.2237 106.1534,69.5147 C106.1534,68.8057 106.0104,68.2557 105.7234,67.8627 C105.4384,67.4697 105.0064,67.2737 104.4254,67.2737 C103.8374,67.2737 103.3994,67.4697 103.1114,67.8627 C102.8224,68.2557 102.6794,68.8057 102.6794,69.5147 C102.6794,70.2237 102.8224,70.7737 103.1114,71.1647 C103.3994,71.5547 103.8374,71.7497 104.4254,71.7497 M104.4254,66.3487 C104.8764,66.3487 105.2844,66.4217 105.6484,66.5687 C106.0144,66.7167 106.3224,66.9277 106.5784,67.2037 C106.8354,67.4787 107.0304,67.8117 107.1674,68.1997 C107.3054,68.5897 107.3734,69.0247 107.3734,69.5087 C107.3734,69.9927 107.3054,70.4297 107.1674,70.8197 C107.0304,71.2107 106.8354,71.5427 106.5784,71.8167 C106.3224,72.0907 106.0144,72.3007 105.6484,72.4487 C105.2844,72.5947 104.8764,72.6687 104.4254,72.6687 C103.9704,72.6687 103.5604,72.5947 103.1964,72.4487 C102.8314,72.3007 102.5214,72.0907 102.2624,71.8167 C102.0034,71.5427 101.8054,71.2107 101.6664,70.8197 C101.5284,70.4297 101.4584,69.9927 101.4584,69.5087 C101.4584,69.0247 101.5284,68.5897 101.6664,68.1997 C101.8054,67.8117 102.0034,67.4787 102.2624,67.2037 C102.5214,66.9277 102.8314,66.7167 103.1964,66.5687 C103.5604,66.4217 103.9704,66.3487 104.4254,66.3487" id="Fill-58" fill="#050302" mask="url(#mask-4)"></path>
                            <path d="M110.8062,69.5207 C111.0152,69.5207 111.1992,69.4927 111.3602,69.4357 C111.5182,69.3797 111.6502,69.2997 111.7572,69.1967 C111.8652,69.0947 111.9452,68.9707 111.9992,68.8257 C112.0532,68.6807 112.0802,68.5217 112.0802,68.3487 C112.0802,67.9947 111.9732,67.7117 111.7572,67.4997 C111.5412,67.2877 111.2252,67.1827 110.8062,67.1827 C110.3912,67.1827 110.0762,67.2877 109.8612,67.4997 C109.6452,67.7117 109.5372,67.9947 109.5372,68.3487 C109.5372,68.5217 109.5642,68.6807 109.6182,68.8227 C109.6732,68.9657 109.7532,69.0887 109.8612,69.1907 C109.9672,69.2937 110.0992,69.3747 110.2602,69.4337 C110.4172,69.4907 110.6002,69.5207 110.8062,69.5207 Z M112.6852,72.9037 C112.6852,72.7587 112.6452,72.6437 112.5632,72.5567 C112.4832,72.4707 112.3742,72.4027 112.2352,72.3517 C112.0962,72.3007 111.9332,72.2657 111.7492,72.2427 C111.5632,72.2207 111.3682,72.2027 111.1662,72.1907 C110.9622,72.1797 110.7532,72.1687 110.5402,72.1577 C110.3262,72.1487 110.1202,72.1287 109.9242,72.1007 C109.7142,72.2057 109.5422,72.3327 109.4082,72.4817 C109.2722,72.6297 109.2042,72.8057 109.2042,73.0067 C109.2042,73.1367 109.2382,73.2567 109.3042,73.3697 C109.3712,73.4817 109.4742,73.5807 109.6132,73.6627 C109.7522,73.7457 109.9272,73.8087 110.1382,73.8557 C110.3492,73.9017 110.6022,73.9257 110.8972,73.9257 C111.1872,73.9257 111.4422,73.8997 111.6642,73.8507 C111.8862,73.7997 112.0732,73.7287 112.2232,73.6377 C112.3742,73.5477 112.4882,73.4397 112.5682,73.3157 C112.6462,73.1907 112.6852,73.0537 112.6852,72.9037 Z M113.8812,66.6757 L113.8812,67.1157 C113.8812,67.2607 113.7902,67.3517 113.6092,67.3877 L112.9512,67.4847 C113.0072,67.6097 113.0522,67.7407 113.0832,67.8797 C113.1162,68.0197 113.1322,68.1657 113.1322,68.3177 C113.1322,68.6207 113.0732,68.8937 112.9572,69.1367 C112.8392,69.3807 112.6792,69.5887 112.4742,69.7627 C112.2682,69.9357 112.0232,70.0677 111.7402,70.1617 C111.4552,70.2537 111.1452,70.3007 110.8062,70.3007 C110.5292,70.3007 110.2682,70.2697 110.0262,70.2097 C109.9062,70.2817 109.8142,70.3617 109.7522,70.4477 C109.6892,70.5357 109.6582,70.6207 109.6582,70.7057 C109.6582,70.8457 109.7172,70.9507 109.8362,71.0197 C109.9552,71.0877 110.1102,71.1377 110.3022,71.1667 C110.4942,71.1977 110.7132,71.2167 110.9602,71.2247 C111.2082,71.2327 111.4582,71.2457 111.7162,71.2637 C111.9712,71.2827 112.2232,71.3137 112.4712,71.3607 C112.7192,71.4067 112.9392,71.4817 113.1292,71.5847 C113.3212,71.6877 113.4752,71.8277 113.5952,72.0067 C113.7122,72.1867 113.7722,72.4187 113.7722,72.7047 C113.7722,72.9717 113.7062,73.2287 113.5762,73.4787 C113.4462,73.7277 113.2542,73.9497 113.0042,74.1427 C112.7552,74.3367 112.4522,74.4907 112.0932,74.6077 C111.7352,74.7247 111.3272,74.7837 110.8722,74.7837 C110.4172,74.7837 110.0212,74.7387 109.6852,74.6507 C109.3492,74.5617 109.0692,74.4427 108.8462,74.2937 C108.6212,74.1457 108.4542,73.9717 108.3432,73.7747 C108.2322,73.5767 108.1782,73.3717 108.1782,73.1577 C108.1782,72.8597 108.2702,72.6077 108.4552,72.3997 C108.6412,72.1917 108.8972,72.0307 109.2242,71.9137 C109.0452,71.8327 108.9052,71.7227 108.8002,71.5847 C108.6952,71.4457 108.6432,71.2617 108.6432,71.0307 C108.6432,70.9427 108.6602,70.8507 108.6922,70.7557 C108.7232,70.6617 108.7732,70.5667 108.8392,70.4727 C108.9052,70.3767 108.9882,70.2877 109.0862,70.2037 C109.1862,70.1187 109.2992,70.0417 109.4292,69.9737 C109.1262,69.8047 108.8882,69.5807 108.7162,69.2997 C108.5412,69.0207 108.4552,68.6927 108.4552,68.3177 C108.4552,68.0157 108.5132,67.7447 108.6312,67.5027 C108.7462,67.2607 108.9102,67.0537 109.1182,66.8807 C109.3252,66.7077 109.5732,66.5737 109.8612,66.4817 C110.1492,66.3887 110.4622,66.3427 110.8062,66.3427 C111.3382,66.3427 111.7932,66.4537 112.1772,66.6757 L113.8812,66.6757 Z" id="Fill-59" fill="#050302" mask="url(#mask-4)"></path>
                            <path d="M116.0679,67.6227 C116.2649,67.2207 116.5029,66.9047 116.7809,66.6757 C117.0589,66.4447 117.3929,66.3307 117.7839,66.3307 C117.9169,66.3307 118.0439,66.3457 118.1619,66.3757 C118.2799,66.4067 118.3829,66.4507 118.4729,66.5117 L118.3939,67.3997 C118.3669,67.5087 118.2989,67.5627 118.1949,67.5627 C118.1379,67.5627 118.0529,67.5517 117.9409,67.5297 C117.8289,67.5077 117.7079,67.4967 117.5789,67.4967 C117.3899,67.4967 117.2219,67.5237 117.0779,67.5787 C116.9319,67.6327 116.8019,67.7127 116.6879,67.8197 C116.5739,67.9267 116.4719,68.0577 116.3819,68.2127 C116.2939,68.3677 116.2119,68.5437 116.1339,68.7417 L116.1339,72.5837 L114.9569,72.5837 L114.9569,66.4447 L115.6339,66.4447 C115.7609,66.4447 115.8499,66.4687 115.8959,66.5147 C115.9429,66.5607 115.9759,66.6427 115.9949,66.7587 L116.0679,67.6227 Z" id="Fill-60" fill="#050302" mask="url(#mask-4)"></path>
                            <path d="M122.5875,69.859 C122.1085,69.876 121.7015,69.912 121.3665,69.971 C121.0325,70.029 120.7605,70.107 120.5515,70.204 C120.3425,70.3 120.1915,70.414 120.0985,70.545 C120.0055,70.676 119.9605,70.822 119.9605,70.983 C119.9605,71.136 119.9835,71.268 120.0355,71.379 C120.0855,71.489 120.1535,71.58 120.2405,71.651 C120.3255,71.721 120.4285,71.772 120.5455,71.805 C120.6625,71.837 120.7885,71.852 120.9255,71.852 C121.1075,71.852 121.2745,71.835 121.4245,71.798 C121.5755,71.763 121.7175,71.711 121.8515,71.645 C121.9835,71.579 122.1095,71.496 122.2315,71.399 C122.3525,71.304 122.4715,71.192 122.5875,71.067 L122.5875,69.859 Z M119.1315,67.303 C119.4745,66.977 119.8465,66.733 120.2455,66.572 C120.6475,66.411 121.0875,66.331 121.5665,66.331 C121.9165,66.331 122.2275,66.387 122.4975,66.503 C122.7665,66.617 122.9945,66.778 123.1795,66.983 C123.3645,67.189 123.5055,67.434 123.5995,67.72 C123.6935,68.006 123.7415,68.323 123.7415,68.669 L123.7415,72.584 L123.2165,72.584 C123.0995,72.584 123.0105,72.565 122.9505,72.526 C122.8895,72.488 122.8425,72.417 122.8055,72.313 L122.6795,71.775 C122.5215,71.92 122.3645,72.047 122.2135,72.158 C122.0615,72.269 121.9005,72.363 121.7335,72.442 C121.5655,72.52 121.3885,72.581 121.1975,72.621 C121.0085,72.661 120.7995,72.681 120.5685,72.681 C120.3285,72.681 120.1025,72.648 119.8895,72.581 C119.6785,72.514 119.4935,72.413 119.3375,72.276 C119.1805,72.139 119.0565,71.968 118.9655,71.763 C118.8745,71.557 118.8295,71.318 118.8295,71.043 C118.8295,70.802 118.8965,70.568 119.0255,70.345 C119.1565,70.122 119.3705,69.921 119.6665,69.745 C119.9625,69.567 120.3505,69.422 120.8265,69.309 C121.3035,69.196 121.8915,69.132 122.5875,69.116 L122.5875,68.669 C122.5875,68.206 122.4885,67.859 122.2925,67.63 C122.0945,67.4 121.8035,67.285 121.4215,67.285 C121.1635,67.285 120.9465,67.317 120.7725,67.382 C120.5975,67.446 120.4465,67.518 120.3185,67.596 C120.1915,67.675 120.0805,67.747 119.9855,67.811 C119.8925,67.876 119.7955,67.907 119.6935,67.907 C119.6125,67.907 119.5435,67.885 119.4855,67.841 C119.4275,67.796 119.3795,67.744 119.3435,67.684 L119.1315,67.303 Z" id="Fill-61" fill="#050302" mask="url(#mask-4)"></path>
                            <path d="M125.3248,72.5841 L125.3248,66.4451 L126.0318,66.4451 C126.1968,66.4451 126.2998,66.5241 126.3398,66.6811 L126.4248,67.2671 C126.6498,66.9971 126.9018,66.7771 127.1768,66.6051 C127.4528,66.4351 127.7758,66.3481 128.1468,66.3481 C128.5538,66.3481 128.8848,66.4601 129.1368,66.6841 C129.3908,66.9081 129.5758,67.2111 129.6938,67.5931 C129.7808,67.3761 129.8968,67.1881 130.0388,67.0321 C130.1788,66.8751 130.3358,66.7451 130.5098,66.6451 C130.6818,66.5441 130.8668,66.4701 131.0628,66.4211 C131.2578,66.3731 131.4558,66.3481 131.6578,66.3481 C131.9828,66.3481 132.2728,66.4001 132.5308,66.5031 C132.7858,66.6051 133.0028,66.7551 133.1788,66.9531 C133.3568,67.1491 133.4908,67.3941 133.5848,67.6841 C133.6778,67.9731 133.7218,68.3041 133.7218,68.6741 L133.7218,72.5841 L132.5388,72.5841 L132.5388,68.6741 C132.5388,68.2151 132.4388,67.8701 132.2408,67.6361 C132.0408,67.4021 131.7498,67.2851 131.3668,67.2851 C131.1968,67.2851 131.0368,67.3151 130.8838,67.3731 C130.7298,67.4321 130.5958,67.5191 130.4818,67.6361 C130.3668,67.7521 130.2768,67.8981 130.2108,68.0701 C130.1428,68.2441 130.1098,68.4451 130.1098,68.6741 L130.1098,72.5841 L128.9268,72.5841 L128.9268,68.6741 C128.9268,68.2001 128.8308,67.8491 128.6418,67.6231 C128.4528,67.3971 128.1758,67.2851 127.8078,67.2851 C127.5538,67.2851 127.3188,67.3521 127.1008,67.4851 C126.8848,67.6171 126.6838,67.7991 126.5028,68.0291 L126.5028,72.5841 L125.3248,72.5841 Z" id="Fill-62" fill="#050302" mask="url(#mask-4)"></path>
                            <path d="M138.6119,69.859 C138.1319,69.876 137.7249,69.912 137.3899,69.971 C137.0569,70.029 136.7849,70.107 136.5759,70.204 C136.3659,70.3 136.2159,70.414 136.1229,70.545 C136.0299,70.676 135.9839,70.822 135.9839,70.983 C135.9839,71.136 136.0079,71.268 136.0589,71.379 C136.1089,71.489 136.1769,71.58 136.2639,71.651 C136.3499,71.721 136.4539,71.772 136.5689,71.805 C136.6869,71.837 136.8129,71.852 136.9499,71.852 C137.1309,71.852 137.2989,71.835 137.4499,71.798 C137.5999,71.763 137.7419,71.711 137.8749,71.645 C138.0079,71.579 138.1329,71.496 138.2559,71.399 C138.3769,71.304 138.4949,71.192 138.6119,71.067 L138.6119,69.859 Z M135.1549,67.303 C135.4979,66.977 135.8709,66.733 136.2699,66.572 C136.6709,66.411 137.1119,66.331 137.5909,66.331 C137.9399,66.331 138.2519,66.387 138.5209,66.503 C138.7909,66.617 139.0189,66.778 139.2029,66.983 C139.3889,67.189 139.5289,67.434 139.6229,67.72 C139.7169,68.006 139.7659,68.323 139.7659,68.669 L139.7659,72.584 L139.2409,72.584 C139.1229,72.584 139.0359,72.565 138.9739,72.526 C138.9139,72.488 138.8659,72.417 138.8299,72.313 L138.7029,71.775 C138.5449,71.92 138.3899,72.047 138.2379,72.158 C138.0849,72.269 137.9239,72.363 137.7569,72.442 C137.5899,72.52 137.4119,72.581 137.2219,72.621 C137.0329,72.661 136.8239,72.681 136.5929,72.681 C136.3519,72.681 136.1259,72.648 135.9139,72.581 C135.7029,72.514 135.5189,72.413 135.3609,72.276 C135.2049,72.139 135.0799,71.968 134.9899,71.763 C134.8979,71.557 134.8529,71.318 134.8529,71.043 C134.8529,70.802 134.9199,70.568 135.0489,70.345 C135.1809,70.122 135.3929,69.921 135.6909,69.745 C135.9859,69.567 136.3729,69.422 136.8499,69.309 C137.3279,69.196 137.9149,69.132 138.6119,69.116 L138.6119,68.669 C138.6119,68.206 138.5139,67.859 138.3149,67.63 C138.1189,67.4 137.8279,67.285 137.4459,67.285 C137.1869,67.285 136.9709,67.317 136.7959,67.382 C136.6209,67.446 136.4699,67.518 136.3419,67.596 C136.2159,67.675 136.1049,67.747 136.0099,67.811 C135.9159,67.876 135.8179,67.907 135.7169,67.907 C135.6359,67.907 135.5679,67.885 135.5089,67.841 C135.4499,67.796 135.4029,67.744 135.3679,67.684 L135.1549,67.303 Z" id="Fill-63" fill="#050302" mask="url(#mask-4)"></path>
                            <path d="M145.3062,67.9323 C145.1132,67.6783 144.9052,67.5003 144.6812,67.4003 C144.4562,67.2993 144.2062,67.2483 143.9282,67.2483 C143.3882,67.2483 142.9712,67.4433 142.6742,67.8313 C142.3792,68.2213 142.2312,68.7873 142.2312,69.5323 C142.2312,69.9243 142.2642,70.2573 142.3302,70.5333 C142.3972,70.8093 142.4932,71.0343 142.6202,71.2093 C142.7472,71.3853 142.9042,71.5143 143.0892,71.5963 C143.2742,71.6793 143.4842,71.7203 143.7182,71.7203 C144.0602,71.7203 144.3552,71.6433 144.6052,71.4903 C144.8562,71.3383 145.0892,71.1213 145.3062,70.8433 L145.3062,67.9323 Z M146.4912,63.6663 L146.4912,72.5843 L145.7792,72.5843 C145.6132,72.5843 145.5092,72.5053 145.4692,72.3483 L145.3672,71.6413 C145.1062,71.9513 144.8082,72.2003 144.4752,72.3883 C144.1432,72.5743 143.7602,72.6693 143.3242,72.6693 C142.9742,72.6693 142.6572,72.6003 142.3722,72.4633 C142.0892,72.3273 141.8462,72.1263 141.6462,71.8623 C141.4432,71.5993 141.2872,71.2703 141.1792,70.8803 C141.0712,70.4893 141.0172,70.0393 141.0172,69.5323 C141.0172,69.0783 141.0772,68.6543 141.1972,68.2643 C141.3192,67.8733 141.4942,67.5343 141.7232,67.2483 C141.9522,66.9633 142.2312,66.7383 142.5572,66.5753 C142.8832,66.4123 143.2512,66.3303 143.6632,66.3303 C144.0342,66.3303 144.3482,66.3903 144.6082,66.5113 C144.8692,66.6333 145.1012,66.8043 145.3062,67.0253 L145.3062,63.6663 L146.4912,63.6663 Z" id="Fill-64" fill="#050302" mask="url(#mask-4)"></path>
                            <path d="M150.7564,71.7497 C151.3364,71.7497 151.7704,71.5547 152.0554,71.1647 C152.3424,70.7737 152.4844,70.2237 152.4844,69.5147 C152.4844,68.8057 152.3424,68.2557 152.0554,67.8627 C151.7704,67.4697 151.3364,67.2737 150.7564,67.2737 C150.1684,67.2737 149.7314,67.4697 149.4434,67.8627 C149.1534,68.2557 149.0094,68.8057 149.0094,69.5147 C149.0094,70.2237 149.1534,70.7737 149.4434,71.1647 C149.7314,71.5547 150.1684,71.7497 150.7564,71.7497 M150.7564,66.3487 C151.2064,66.3487 151.6144,66.4217 151.9804,66.5687 C152.3444,66.7167 152.6544,66.9277 152.9104,67.2037 C153.1654,67.4787 153.3624,67.8117 153.4994,68.1997 C153.6364,68.5897 153.7044,69.0247 153.7044,69.5087 C153.7044,69.9927 153.6364,70.4297 153.4994,70.8197 C153.3624,71.2107 153.1654,71.5427 152.9104,71.8167 C152.6544,72.0907 152.3444,72.3007 151.9804,72.4487 C151.6144,72.5947 151.2064,72.6687 150.7564,72.6687 C150.3004,72.6687 149.8924,72.5947 149.5264,72.4487 C149.1624,72.3007 148.8514,72.0907 148.5944,71.8167 C148.3354,71.5427 148.1374,71.2107 147.9984,70.8197 C147.8604,70.4297 147.7894,69.9927 147.7894,69.5087 C147.7894,69.0247 147.8604,68.5897 147.9984,68.1997 C148.1374,67.8117 148.3354,67.4787 148.5944,67.2037 C148.8514,66.9277 149.1624,66.7167 149.5264,66.5687 C149.8924,66.4217 150.3004,66.3487 150.7564,66.3487" id="Fill-65" fill="#050302" mask="url(#mask-4)"></path>
                            <path d="M158.6353,67.5026 C158.6043,67.5546 158.5683,67.5926 158.5323,67.6146 C158.4963,67.6366 158.4503,67.6476 158.3943,67.6476 C158.3293,67.6476 158.2583,67.6256 158.1793,67.5816 C158.1013,67.5366 158.0063,67.4886 157.8963,67.4366 C157.7843,67.3836 157.6553,67.3356 157.5063,67.2916 C157.3563,67.2466 157.1793,67.2256 156.9743,67.2256 C156.8053,67.2256 156.6513,67.2456 156.5113,67.2876 C156.3733,67.3306 156.2553,67.3896 156.1583,67.4636 C156.0623,67.5376 155.9863,67.6266 155.9343,67.7296 C155.8823,67.8316 155.8563,67.9416 155.8563,68.0586 C155.8563,68.2116 155.9013,68.3376 155.9913,68.4396 C156.0823,68.5396 156.2003,68.6266 156.3483,68.6996 C156.4953,68.7716 156.6623,68.8366 156.8503,68.8956 C157.0363,68.9546 157.2283,69.0156 157.4233,69.0796 C157.6193,69.1446 157.8113,69.2176 157.9973,69.2996 C158.1863,69.3826 158.3523,69.4846 158.4993,69.6076 C158.6463,69.7316 158.7653,69.8786 158.8563,70.0526 C158.9463,70.2266 158.9913,70.4376 158.9913,70.6866 C158.9913,70.9736 158.9413,71.2376 158.8373,71.4816 C158.7363,71.7246 158.5843,71.9356 158.3843,72.1126 C158.1863,72.2906 157.9383,72.4296 157.6443,72.5296 C157.3503,72.6296 157.0143,72.6806 156.6353,72.6806 C156.2123,72.6806 155.8213,72.6096 155.4633,72.4696 C155.1053,72.3276 154.8043,72.1486 154.5633,71.9316 L154.8413,71.4786 C154.8723,71.4216 154.9133,71.3786 154.9613,71.3486 C155.0103,71.3176 155.0743,71.3036 155.1563,71.3036 C155.2313,71.3036 155.3103,71.3306 155.3913,71.3876 C155.4713,71.4436 155.5693,71.5056 155.6803,71.5716 C155.7923,71.6386 155.9293,71.6986 156.0923,71.7526 C156.2523,71.8076 156.4533,71.8346 156.6973,71.8346 C156.8973,71.8346 157.0723,71.8096 157.2203,71.7586 C157.3703,71.7086 157.4943,71.6396 157.5933,71.5536 C157.6923,71.4676 157.7663,71.3676 157.8133,71.2546 C157.8633,71.1416 157.8863,71.0226 157.8863,70.8986 C157.8863,70.7366 157.8413,70.6036 157.7493,70.4966 C157.6593,70.3906 157.5403,70.2976 157.3933,70.2216 C157.2463,70.1446 157.0783,70.0786 156.8893,70.0226 C156.6983,69.9656 156.5063,69.9056 156.3093,69.8416 C156.1113,69.7766 155.9173,69.7026 155.7293,69.6176 C155.5403,69.5326 155.3713,69.4256 155.2243,69.2976 C155.0773,69.1686 154.9593,69.0106 154.8673,68.8256 C154.7783,68.6406 154.7333,68.4146 154.7333,68.1486 C154.7333,67.9126 154.7813,67.6846 154.8793,67.4656 C154.9783,67.2486 155.1223,67.0576 155.3093,66.8926 C155.4963,66.7276 155.7283,66.5946 156.0033,66.4976 C156.2803,66.3986 156.5953,66.3486 156.9483,66.3486 C157.3563,66.3486 157.7233,66.4136 158.0513,66.5426 C158.3803,66.6706 158.6613,66.8476 158.8953,67.0746 L158.6353,67.5026 Z" id="Fill-66" fill="#050302" mask="url(#mask-4)"></path>
                            <path d="M196.4537,1.2394 L196.4537,91.3774" id="Stroke-67" stroke="#C2C3C8" stroke-width="0.479" stroke-linecap="square" mask="url(#mask-4)"></path>
                            <path d="M224.4674,72.0919 C224.9704,72.0389 225.3554,71.8749 225.6214,71.5989 C225.8874,71.3239 226.0204,70.9699 226.0204,70.5389 C226.0204,70.3499 225.9854,70.1859 225.9144,70.0489 C225.8434,69.9119 225.7484,69.7929 225.6274,69.6909 C225.5054,69.5879 225.3634,69.4989 225.2014,69.4269 C225.0384,69.3539 224.8634,69.2879 224.6784,69.2279 L224.4674,72.0919 Z M224.2254,65.2699 C223.9714,65.2949 223.7534,65.3439 223.5714,65.4209 C223.3864,65.4979 223.2354,65.5919 223.1174,65.7049 C222.9974,65.8189 222.9104,65.9469 222.8544,66.0919 C222.7974,66.2369 222.7704,66.3869 222.7704,66.5459 C222.7704,66.7259 222.8014,66.8849 222.8654,67.0219 C222.9314,67.1589 223.0204,67.2799 223.1354,67.3819 C223.2494,67.4849 223.3844,67.5739 223.5394,67.6509 C223.6964,67.7269 223.8614,67.7979 224.0374,67.8629 L224.2254,65.2699 Z M224.7574,68.0969 C225.0484,68.1869 225.3344,68.2839 225.6184,68.3909 C225.9024,68.4969 226.1564,68.6329 226.3824,68.7989 C226.6084,68.9639 226.7894,69.1699 226.9294,69.4179 C227.0684,69.6659 227.1384,69.9769 227.1384,70.3509 C227.1384,70.7139 227.0764,71.0569 226.9534,71.3789 C226.8304,71.7009 226.6534,71.9849 226.4194,72.2309 C226.1854,72.4769 225.8984,72.6759 225.5584,72.8279 C225.2184,72.9819 224.8294,73.0719 224.3944,73.1009 L224.3214,74.1099 C224.3194,74.1899 224.2854,74.2629 224.2254,74.3269 C224.1654,74.3919 224.0884,74.4239 223.9954,74.4239 L223.5614,74.4239 L223.6574,73.0819 C223.1784,73.0299 222.7354,72.9059 222.3284,72.7119 C221.9214,72.5159 221.5734,72.2689 221.2834,71.9699 L221.6404,71.4269 C221.6754,71.3789 221.7204,71.3389 221.7724,71.3059 C221.8244,71.2739 221.8834,71.2579 221.9474,71.2579 C222.0284,71.2579 222.1174,71.2939 222.2174,71.3659 C222.3154,71.4389 222.4334,71.5229 222.5704,71.6169 C222.7064,71.7119 222.8694,71.8049 223.0564,71.8949 C223.2434,71.9859 223.4694,72.0499 223.7314,72.0859 L223.9534,69.0109 C223.6724,68.9259 223.3934,68.8299 223.1194,68.7229 C222.8464,68.6159 222.6004,68.4749 222.3834,68.2999 C222.1664,68.1249 221.9904,67.9059 221.8574,67.6439 C221.7254,67.3839 221.6574,67.0539 221.6574,66.6599 C221.6574,66.3619 221.7154,66.0719 221.8334,65.7899 C221.9484,65.5079 222.1194,65.2559 222.3434,65.0349 C222.5674,64.8129 222.8434,64.6319 223.1714,64.4909 C223.4994,64.3489 223.8744,64.2719 224.2974,64.2549 L224.3594,63.4089 C224.3624,63.3289 224.3944,63.2569 224.4554,63.1919 C224.5164,63.1269 224.5924,63.0949 224.6844,63.0949 L225.1194,63.0949 L225.0354,64.2859 C225.4584,64.3419 225.8244,64.4529 226.1314,64.6209 C226.4404,64.7879 226.7104,64.9879 226.9444,65.2209 L226.6594,65.6569 C226.5754,65.7899 226.4774,65.8559 226.3644,65.8559 C226.3084,65.8559 226.2384,65.8319 226.1554,65.7829 C226.0734,65.7359 225.9754,65.6799 225.8604,65.6179 C225.7454,65.5549 225.6134,65.4919 225.4644,65.4269 C225.3154,65.3629 225.1484,65.3149 224.9634,65.2829 L224.7574,68.0969 Z" id="Fill-68" fill="#050302" mask="url(#mask-4)"></path>
                            <path d="M228.4976,66.6964 C228.5576,66.2934 228.6706,65.9394 228.8366,65.6324 C229.0016,65.3264 229.2086,65.0704 229.4576,64.8624 C229.7066,64.6544 229.9946,64.4994 230.3176,64.3944 C230.6436,64.2894 230.9936,64.2374 231.3676,64.2374 C231.7416,64.2374 232.0866,64.2904 232.3996,64.3964 C232.7136,64.5044 232.9826,64.6544 233.2076,64.8494 C233.4316,65.0454 233.6046,65.2804 233.7296,65.5544 C233.8536,65.8274 233.9176,66.1304 233.9176,66.4604 C233.9176,66.7384 233.8826,66.9844 233.8136,67.1974 C233.7456,67.4114 233.6476,67.5984 233.5206,67.7594 C233.3936,67.9204 233.2396,68.0554 233.0586,68.1674 C232.8776,68.2784 232.6736,68.3694 232.4496,68.4424 C233.0006,68.5954 233.4146,68.8444 233.6926,69.1894 C233.9726,69.5324 234.1106,69.9684 234.1106,70.4964 C234.1106,70.9034 234.0326,71.2694 233.8816,71.5924 C233.7266,71.9174 233.5186,72.1914 233.2516,72.4154 C232.9866,72.6384 232.6776,72.8094 232.3246,72.9284 C231.9736,73.0484 231.5976,73.1064 231.1986,73.1064 C230.7426,73.1064 230.3516,73.0514 230.0256,72.9404 C229.6996,72.8294 229.4216,72.6754 229.1916,72.4754 C228.9626,72.2764 228.7716,72.0364 228.6216,71.7574 C228.4706,71.4754 228.3426,71.1694 228.2366,70.8354 L228.7516,70.6164 C228.8836,70.5614 229.0136,70.5444 229.1386,70.5694 C229.2636,70.5934 229.3526,70.6644 229.4096,70.7804 C229.4696,70.9014 229.5396,71.0364 229.6176,71.1884 C229.6956,71.3394 229.8026,71.4834 229.9356,71.6174 C230.0676,71.7524 230.2346,71.8664 230.4346,71.9584 C230.6336,72.0514 230.8846,72.0974 231.1866,72.0974 C231.4766,72.0974 231.7296,72.0504 231.9466,71.9564 C232.1636,71.8604 232.3456,71.7384 232.4906,71.5874 C232.6366,71.4354 232.7446,71.2684 232.8176,71.0834 C232.8896,70.8974 232.9266,70.7134 232.9266,70.5324 C232.9266,70.3074 232.8976,70.0994 232.8416,69.9094 C232.7846,69.7214 232.6776,69.5594 232.5186,69.4234 C232.3596,69.2894 232.1386,69.1824 231.8566,69.1064 C231.5736,69.0304 231.2076,68.9914 230.7576,68.9914 L230.7576,68.1334 C231.1276,68.1304 231.4406,68.0914 231.6966,68.0194 C231.9516,67.9464 232.1586,67.8454 232.3146,67.7174 C232.4736,67.5884 232.5866,67.4354 232.6566,67.2584 C232.7276,67.0814 232.7636,66.8834 232.7636,66.6654 C232.7636,66.4284 232.7266,66.2204 232.6546,66.0444 C232.5816,65.8654 232.4796,65.7184 232.3496,65.5994 C232.2186,65.4814 232.0616,65.3924 231.8836,65.3334 C231.7036,65.2754 231.5106,65.2464 231.3006,65.2464 C231.0916,65.2464 230.8976,65.2754 230.7206,65.3374 C230.5436,65.3974 230.3866,65.4814 230.2496,65.5914 C230.1126,65.6994 229.9976,65.8274 229.9046,65.9764 C229.8126,66.1264 229.7456,66.2874 229.7056,66.4604 C229.6486,66.6134 229.5766,66.7164 229.4906,66.7684 C229.4046,66.8204 229.2796,66.8334 229.1196,66.8054 L228.4976,66.6964 Z" id="Fill-69" fill="#050302" mask="url(#mask-4)"></path>
                            <path d="M236.5396,66.8961 C236.5396,67.4321 236.6846,67.8431 236.9746,68.1341 C237.2646,68.4241 237.6666,68.5691 238.1826,68.5691 C238.4606,68.5691 238.7066,68.5231 238.9186,68.4341 C239.1336,68.3431 239.3126,68.2211 239.4606,68.0701 C239.6076,67.9191 239.7196,67.7441 239.7956,67.5451 C239.8726,67.3451 239.9096,67.1371 239.9096,66.9191 C239.9096,66.6571 239.8696,66.4211 239.7876,66.2091 C239.7046,65.9981 239.5876,65.8181 239.4386,65.6721 C239.2896,65.5241 239.1146,65.4131 238.9106,65.3341 C238.7066,65.2541 238.4816,65.2151 238.2366,65.2151 C237.9826,65.2151 237.7516,65.2571 237.5426,65.3391 C237.3326,65.4221 237.1526,65.5381 237.0046,65.6881 C236.8556,65.8361 236.7406,66.0131 236.6596,66.2181 C236.5796,66.4241 236.5396,66.6491 236.5396,66.8961 Z M238.9186,69.5781 C239.0766,69.3731 239.2236,69.1711 239.3596,68.9741 C239.1436,69.1391 238.8996,69.2641 238.6336,69.3481 C238.3636,69.4331 238.0796,69.4761 237.7776,69.4761 C237.4606,69.4761 237.1546,69.4211 236.8626,69.3131 C236.5706,69.2031 236.3126,69.0431 236.0886,68.8331 C235.8646,68.6201 235.6876,68.3591 235.5546,68.0491 C235.4216,67.7401 235.3546,67.3831 235.3546,66.9791 C235.3546,66.6011 235.4256,66.2451 235.5656,65.9111 C235.7066,65.5771 235.9046,65.2851 236.1616,65.0371 C236.4166,64.7901 236.7246,64.5951 237.0806,64.4521 C237.4366,64.3081 237.8286,64.2371 238.2556,64.2371 C238.6786,64.2371 239.0616,64.3061 239.4056,64.4421 C239.7496,64.5791 240.0436,64.7711 240.2856,65.0201 C240.5256,65.2671 240.7156,65.5631 240.8476,65.9111 C240.9786,66.2571 241.0466,66.6371 241.0466,67.0531 C241.0466,67.3071 241.0226,67.5481 240.9766,67.7771 C240.9316,68.0071 240.8636,68.2301 240.7776,68.4481 C240.6906,68.6661 240.5866,68.8791 240.4636,69.0921 C240.3396,69.3031 240.2006,69.5191 240.0436,69.7411 L237.9586,72.7311 C237.9026,72.8131 237.8206,72.8791 237.7136,72.9311 C237.6076,72.9841 237.4856,73.0101 237.3496,73.0101 L236.2676,73.0101 L238.9186,69.5781 Z" id="Fill-70" fill="#050302" mask="url(#mask-4)"></path>
                            <path d="M243.5474,66.8961 C243.5474,67.4321 243.6934,67.8431 243.9834,68.1341 C244.2734,68.4241 244.6754,68.5691 245.1914,68.5691 C245.4684,68.5691 245.7134,68.5231 245.9284,68.4341 C246.1414,68.3431 246.3224,68.2211 246.4694,68.0701 C246.6154,67.9191 246.7274,67.7441 246.8044,67.5451 C246.8804,67.3451 246.9194,67.1371 246.9194,66.9191 C246.9194,66.6571 246.8774,66.4211 246.7944,66.2091 C246.7124,65.9981 246.5964,65.8181 246.4474,65.6721 C246.2994,65.5241 246.1214,65.4131 245.9194,65.3341 C245.7164,65.2541 245.4914,65.2151 245.2454,65.2151 C244.9914,65.2151 244.7604,65.2571 244.5504,65.3391 C244.3414,65.4221 244.1614,65.5381 244.0124,65.6881 C243.8634,65.8361 243.7484,66.0131 243.6684,66.2181 C243.5874,66.4241 243.5474,66.6491 243.5474,66.8961 Z M245.9284,69.5781 C246.0854,69.3731 246.2334,69.1711 246.3694,68.9741 C246.1514,69.1391 245.9094,69.2641 245.6404,69.3481 C245.3734,69.4331 245.0884,69.4761 244.7864,69.4761 C244.4674,69.4761 244.1634,69.4211 243.8704,69.3131 C243.5784,69.2031 243.3204,69.0431 243.0974,68.8331 C242.8744,68.6201 242.6944,68.3591 242.5634,68.0491 C242.4294,67.7401 242.3634,67.3831 242.3634,66.9791 C242.3634,66.6011 242.4334,66.2451 242.5744,65.9111 C242.7164,65.5771 242.9144,65.2851 243.1694,65.0371 C243.4254,64.7901 243.7314,64.5951 244.0874,64.4521 C244.4434,64.3081 244.8354,64.2371 245.2634,64.2371 C245.6874,64.2371 246.0694,64.3061 246.4144,64.4421 C246.7594,64.5791 247.0524,64.7711 247.2934,65.0201 C247.5354,65.2671 247.7224,65.5631 247.8564,65.9111 C247.9884,66.2571 248.0554,66.6371 248.0554,67.0531 C248.0554,67.3071 248.0314,67.5481 247.9854,67.7771 C247.9394,68.0071 247.8734,68.2301 247.7854,68.4481 C247.6984,68.6661 247.5954,68.8791 247.4724,69.0921 C247.3494,69.3031 247.2084,69.5191 247.0524,69.7411 L244.9684,72.7311 C244.9114,72.8131 244.8284,72.8791 244.7224,72.9311 C244.6164,72.9841 244.4934,73.0101 244.3574,73.0101 L243.2764,73.0101 L245.9284,69.5781 Z" id="Fill-71" fill="#050302" mask="url(#mask-4)"></path>
                            <path d="M249.4078,72.3034 C249.4078,72.1944 249.4288,72.0924 249.4698,71.9954 C249.5098,71.8984 249.5638,71.8134 249.6348,71.7414 C249.7048,71.6684 249.7888,71.6114 249.8858,71.5694 C249.9818,71.5264 250.0878,71.5054 250.2008,71.5054 C250.3088,71.5054 250.4108,71.5264 250.5078,71.5694 C250.6038,71.6114 250.6888,71.6684 250.7618,71.7414 C250.8348,71.8134 250.8918,71.8984 250.9338,71.9954 C250.9758,72.0924 250.9968,72.1944 250.9968,72.3034 C250.9968,72.4164 250.9758,72.5204 250.9338,72.6164 C250.8918,72.7144 250.8348,72.7994 250.7618,72.8704 C250.6888,72.9444 250.6038,73.0004 250.5078,73.0404 C250.4108,73.0804 250.3088,73.1004 250.2008,73.1004 C250.0878,73.1004 249.9818,73.0804 249.8858,73.0404 C249.7888,73.0004 249.7048,72.9444 249.6348,72.8704 C249.5638,72.7994 249.5098,72.7144 249.4698,72.6164 C249.4288,72.5204 249.4078,72.4164 249.4078,72.3034" id="Fill-72" fill="#050302" mask="url(#mask-4)"></path>
                            <path d="M252.3746,66.6964 C252.4366,66.2934 252.5476,65.9394 252.7136,65.6324 C252.8786,65.3264 253.0856,65.0704 253.3346,64.8624 C253.5856,64.6544 253.8726,64.4994 254.1956,64.3944 C254.5206,64.2894 254.8706,64.2374 255.2446,64.2374 C255.6196,64.2374 255.9646,64.2904 256.2776,64.3964 C256.5926,64.5044 256.8606,64.6544 257.0856,64.8494 C257.3086,65.0454 257.4816,65.2804 257.6066,65.5544 C257.7316,65.8274 257.7946,66.1304 257.7946,66.4604 C257.7946,66.7384 257.7606,66.9844 257.6916,67.1974 C257.6236,67.4114 257.5246,67.5984 257.3986,67.7594 C257.2716,67.9204 257.1186,68.0554 256.9366,68.1674 C256.7546,68.2784 256.5526,68.3694 256.3266,68.4424 C256.8776,68.5954 257.2926,68.8444 257.5716,69.1894 C257.8496,69.5324 257.9876,69.9684 257.9876,70.4964 C257.9876,70.9034 257.9116,71.2694 257.7586,71.5924 C257.6036,71.9174 257.3956,72.1914 257.1306,72.4154 C256.8636,72.6384 256.5546,72.8094 256.2026,72.9284 C255.8496,73.0484 255.4746,73.1064 255.0756,73.1064 C254.6216,73.1064 254.2286,73.0514 253.9036,72.9404 C253.5776,72.8294 253.2996,72.6754 253.0686,72.4754 C252.8396,72.2764 252.6496,72.0364 252.4996,71.7574 C252.3486,71.4754 252.2196,71.1694 252.1146,70.8354 L252.6296,70.6164 C252.7616,70.5614 252.8916,70.5444 253.0156,70.5694 C253.1406,70.5934 253.2306,70.6644 253.2876,70.7804 C253.3466,70.9014 253.4176,71.0364 253.4956,71.1884 C253.5726,71.3394 253.6796,71.4834 253.8126,71.6174 C253.9456,71.7524 254.1106,71.8664 254.3116,71.9584 C254.5106,72.0514 254.7616,72.0974 255.0636,72.0974 C255.3536,72.0974 255.6076,72.0504 255.8246,71.9564 C256.0416,71.8604 256.2246,71.7384 256.3676,71.5874 C256.5146,71.4354 256.6226,71.2684 256.6946,71.0834 C256.7666,70.8974 256.8046,70.7134 256.8046,70.5324 C256.8046,70.3074 256.7756,70.0994 256.7196,69.9094 C256.6626,69.7214 256.5546,69.5594 256.3956,69.4234 C256.2366,69.2894 256.0166,69.1824 255.7336,69.1064 C255.4516,69.0304 255.0866,68.9914 254.6356,68.9914 L254.6356,68.1334 C255.0056,68.1304 255.3166,68.0914 255.5746,68.0194 C255.8296,67.9464 256.0356,67.8454 256.1926,67.7174 C256.3516,67.5884 256.4646,67.4354 256.5356,67.2584 C256.6046,67.0814 256.6406,66.8834 256.6406,66.6654 C256.6406,66.4284 256.6036,66.2204 256.5316,66.0444 C256.4596,65.8654 256.3576,65.7184 256.2266,65.5994 C256.0966,65.4814 255.9406,65.3924 255.7616,65.3334 C255.5816,65.2754 255.3886,65.2464 255.1786,65.2464 C254.9686,65.2464 254.7746,65.2754 254.5976,65.3374 C254.4206,65.3974 254.2636,65.4814 254.1266,65.5914 C253.9896,65.6994 253.8756,65.8274 253.7836,65.9764 C253.6896,66.1264 253.6226,66.2874 253.5826,66.4604 C253.5256,66.6134 253.4556,66.7164 253.3676,66.7684 C253.2816,66.8204 253.1576,66.8334 252.9976,66.8054 L252.3746,66.6964 Z" id="Fill-73" fill="#050302" mask="url(#mask-4)"></path>
                            <path d="M264.5914,71.8927 C264.7204,71.8927 264.8214,71.9287 264.8944,72.0047 C264.9664,72.0787 265.0024,72.1757 265.0024,72.2977 L265.0024,73.0097 L259.1784,73.0097 L259.1784,72.6047 C259.1784,72.5247 259.1944,72.4387 259.2264,72.3477 C259.2594,72.2587 259.3134,72.1757 259.3894,72.1037 L262.1324,69.3537 C262.3624,69.1247 262.5704,68.9037 262.7544,68.6897 C262.9414,68.4757 263.0964,68.2637 263.2264,68.0527 C263.3554,67.8417 263.4554,67.6237 263.5254,67.4037 C263.5964,67.1817 263.6304,66.9477 263.6304,66.7027 C263.6304,66.4607 263.5924,66.2477 263.5174,66.0647 C263.4394,65.8807 263.3344,65.7287 263.2014,65.6087 C263.0684,65.4877 262.9124,65.3967 262.7314,65.3367 C262.5494,65.2757 262.3534,65.2467 262.1444,65.2467 C261.9354,65.2467 261.7414,65.2757 261.5674,65.3367 C261.3924,65.3967 261.2374,65.4807 261.1004,65.5907 C260.9634,65.6997 260.8474,65.8277 260.7554,65.9767 C260.6614,66.1267 260.5954,66.2877 260.5544,66.4607 C260.4994,66.6137 260.4274,66.7167 260.3414,66.7687 C260.2554,66.8207 260.1284,66.8337 259.9634,66.8057 L259.3464,66.6967 C259.4034,66.2927 259.5144,65.9387 259.6794,65.6317 C259.8444,65.3267 260.0524,65.0707 260.3024,64.8627 C260.5514,64.6547 260.8374,64.4987 261.1624,64.3937 C261.4874,64.2887 261.8364,64.2367 262.2114,64.2367 C262.5894,64.2367 262.9384,64.2927 263.2594,64.4037 C263.5794,64.5137 263.8574,64.6737 264.0904,64.8837 C264.3234,65.0927 264.5064,65.3477 264.6404,65.6477 C264.7724,65.9487 264.8384,66.2877 264.8384,66.6657 C264.8384,66.9877 264.7914,67.2877 264.6964,67.5627 C264.6024,67.8387 264.4744,68.1017 264.3104,68.3507 C264.1474,68.6007 263.9584,68.8447 263.7434,69.0797 C263.5274,69.3147 263.2984,69.5537 263.0564,69.7957 L260.8574,72.0437 C261.0274,71.9987 261.1964,71.9637 261.3684,71.9347 C261.5384,71.9067 261.7014,71.8927 261.8554,71.8927 L264.5914,71.8927 Z" id="Fill-74" fill="#050302" mask="url(#mask-4)"></path>
                        </g>
                    </g>
                </g>
            </g>
        </g>
    </g>
</svg>