<?xml version="1.0" encoding="UTF-8"?>
<svg width="292px" height="137px" viewBox="0 0 292 137" version="1.1" xmlns="http://www.w3.org/2000/svg" xmlns:xlink="http://www.w3.org/1999/xlink">
    <!-- Generator: Sketch 49.3 (51167) - http://www.bohemiancoding.com/sketch -->
    <title>DISTRIBUCION</title>
    <desc>Created with Sketch.</desc>
    <defs>
        <polygon id="path-1" points="0 0.315 291.4903 0.315 291.4903 137 0 137"></polygon>
        <polygon id="path-3" points="0 137.685 291.491 137.685 291.491 1 0 1"></polygon>
    </defs>
    <g id="RUTAS" stroke="none" stroke-width="1" fill="none" fill-rule="evenodd">
        <g id="SOV-RUTAS-Copy-3" transform="translate(-576.000000, -9237.000000)">
            <g id="parte-nube" transform="translate(0.000000, 5644.000000)">
                <g id="reporte-de-pedidos-contra-entrega" transform="translate(130.000000, 594.000000)">
                    <g id="explicacion-1" transform="translate(7.000000, 98.000000)">
                        <g id="DISTRIBUCION" transform="translate(439.000000, 2900.000000)">
                            <g id="Group-3" transform="translate(0.000000, 0.685000)">
                                <mask id="mask-2" fill="white">
                                    <use xlink:href="#path-1"></use>
                                </mask>
                                <g id="Clip-2"></g>
                                <path d="M291.0093,137 L0.4813,137 C0.2153,137 -0.0007,136.785 -0.0007,136.519 L-0.0007,0.796 C-0.0007,0.531 0.2153,0.315 0.4813,0.315 L291.0093,0.315 C291.2763,0.315 291.4903,0.531 291.4903,0.796 L291.4903,136.519 C291.4903,136.785 291.2763,137 291.0093,137" id="Fill-1" fill="#D9D9D9" mask="url(#mask-2)"></path>
                            </g>
                            <path d="M289.1177,43.6132 L2.5137,43.6132 C1.6667,43.6132 0.9787,42.9262 0.9787,42.0782 L0.9787,6.2622 C0.9787,5.4152 1.6667,4.7282 2.5137,4.7282 L289.1177,4.7282 C289.9657,4.7282 290.6527,5.4152 290.6527,6.2622 L290.6527,42.0782 C290.6527,42.9262 289.9657,43.6132 289.1177,43.6132" id="Fill-4" fill="#FFFFFF"></path>
                            <path d="M28.6763,25.8988 C28.7483,25.8988 28.8123,25.9268 28.8633,25.9838 L29.3713,26.5398 C29.0173,26.9588 28.5853,27.2828 28.0753,27.5118 C27.5663,27.7418 26.9513,27.8568 26.2353,27.8568 C25.6073,27.8568 25.0373,27.7488 24.5283,27.5298 C24.0183,27.3128 23.5833,27.0078 23.2233,26.6178 C22.8633,26.2268 22.5833,25.7598 22.3863,25.2158 C22.1893,24.6728 22.0903,24.0748 22.0903,23.4218 C22.0903,22.7698 22.1943,22.1708 22.4023,21.6268 C22.6093,21.0828 22.9003,20.6158 23.2753,20.2248 C23.6503,19.8348 24.0973,19.5308 24.6183,19.3128 C25.1403,19.0958 25.7173,18.9868 26.3503,18.9868 C26.9663,18.9868 27.5143,19.0868 27.9923,19.2898 C28.4723,19.4898 28.8903,19.7578 29.2433,20.0928 L28.8213,20.6908 C28.7923,20.7348 28.7573,20.7718 28.7153,20.7998 C28.6723,20.8278 28.6183,20.8418 28.5503,20.8418 C28.4723,20.8418 28.3833,20.8028 28.2803,20.7268 C28.1773,20.6508 28.0423,20.5648 27.8743,20.4708 C27.7083,20.3768 27.5013,20.2898 27.2563,20.2128 C27.0113,20.1368 26.7043,20.0988 26.3383,20.0988 C25.9063,20.0988 25.5123,20.1738 25.1543,20.3258 C24.7943,20.4768 24.4863,20.6938 24.2263,20.9778 C23.9663,21.2608 23.7663,21.6108 23.6213,22.0238 C23.4793,22.4358 23.4063,22.9028 23.4063,23.4218 C23.4063,23.9498 23.4833,24.4198 23.6313,24.8298 C23.7803,25.2408 23.9853,25.5888 24.2473,25.8758 C24.5093,26.1608 24.8173,26.3778 25.1723,26.5278 C25.5273,26.6768 25.9083,26.7508 26.3203,26.7508 C26.5703,26.7508 26.7933,26.7358 26.9933,26.7058 C27.1933,26.6758 27.3763,26.6308 27.5433,26.5688 C27.7093,26.5088 27.8673,26.4308 28.0183,26.3368 C28.1673,26.2428 28.3143,26.1288 28.4583,25.9958 C28.4903,25.9678 28.5253,25.9438 28.5623,25.9258 C28.5973,25.9088 28.6363,25.8988 28.6763,25.8988" id="Fill-6" fill="#050302"></path>
                            <mask id="mask-4" fill="white">
                                <use xlink:href="#path-3"></use>
                            </mask>
                            <g id="Clip-9"></g>
                            <polygon id="Fill-8" fill="#050302" mask="url(#mask-4)" points="30.451 27.76 31.637 27.76 31.637 18.842 30.451 18.842"></polygon>
                            <path d="M33.371,27.76 L34.549,27.76 L34.549,21.621 L33.371,21.621 L33.371,27.76 Z M34.774,19.724 C34.774,19.833 34.751,19.936 34.707,20.035 C34.663,20.134 34.603,20.221 34.528,20.295 C34.454,20.369 34.366,20.428 34.266,20.471 C34.165,20.513 34.06,20.533 33.951,20.533 C33.842,20.533 33.74,20.513 33.643,20.471 C33.546,20.428 33.462,20.369 33.386,20.295 C33.311,20.221 33.253,20.134 33.212,20.035 C33.169,19.936 33.148,19.833 33.148,19.724 C33.148,19.611 33.169,19.505 33.212,19.407 C33.253,19.308 33.311,19.222 33.386,19.146 C33.462,19.072 33.546,19.014 33.643,18.972 C33.74,18.929 33.842,18.908 33.951,18.908 C34.06,18.908 34.165,18.929 34.266,18.972 C34.366,19.014 34.454,19.072 34.528,19.146 C34.603,19.222 34.663,19.308 34.707,19.407 C34.751,19.505 34.774,19.611 34.774,19.724 Z" id="Fill-10" fill="#050302" mask="url(#mask-4)"></path>
                            <path d="M40.3248,24.0072 C40.3248,23.7752 40.2918,23.5592 40.2258,23.3612 C40.1598,23.1632 40.0618,22.9922 39.9328,22.8472 C39.8038,22.7032 39.6468,22.5902 39.4618,22.5092 C39.2768,22.4282 39.0618,22.3882 38.8218,22.3882 C38.3258,22.3882 37.9358,22.5322 37.6518,22.8182 C37.3678,23.1032 37.1878,23.5002 37.1118,24.0072 L40.3248,24.0072 Z M41.2988,26.8842 C41.1528,27.0532 40.9858,27.1992 40.7968,27.3222 C40.6078,27.4452 40.4068,27.5442 40.1928,27.6212 C39.9788,27.6972 39.7588,27.7542 39.5318,27.7912 C39.3038,27.8262 39.0788,27.8452 38.8568,27.8452 C38.4338,27.8452 38.0428,27.7732 37.6808,27.6302 C37.3218,27.4872 37.0088,27.2772 36.7458,27.0012 C36.4828,26.7262 36.2768,26.3842 36.1298,25.9742 C35.9818,25.5662 35.9088,25.0952 35.9088,24.5642 C35.9088,24.1372 35.9748,23.7392 36.1078,23.3702 C36.2418,23.0022 36.4318,22.6812 36.6788,22.4072 C36.9268,22.1332 37.2308,21.9172 37.5898,21.7602 C37.9468,21.6032 38.3488,21.5242 38.7978,21.5242 C39.1728,21.5242 39.5178,21.5862 39.8338,21.7082 C40.1498,21.8312 40.4218,22.0102 40.6518,22.2432 C40.8828,22.4772 41.0608,22.7662 41.1938,23.1082 C41.3228,23.4502 41.3888,23.8402 41.3888,24.2792 C41.3888,24.4602 41.3678,24.5832 41.3278,24.6462 C41.2878,24.7082 41.2148,24.7392 41.1048,24.7392 L37.0818,24.7392 C37.0938,25.1062 37.1458,25.4242 37.2378,25.6972 C37.3308,25.9682 37.4598,26.1952 37.6228,26.3772 C37.7858,26.5572 37.9788,26.6932 38.2058,26.7812 C38.4288,26.8702 38.6818,26.9142 38.9608,26.9142 C39.2218,26.9142 39.4488,26.8842 39.6398,26.8232 C39.8318,26.7622 39.9968,26.6982 40.1368,26.6272 C40.2738,26.5562 40.3908,26.4912 40.4848,26.4312 C40.5798,26.3702 40.6648,26.3402 40.7368,26.3402 C40.8338,26.3402 40.9078,26.3772 40.9598,26.4492 L41.2988,26.8842 Z" id="Fill-11" fill="#050302" mask="url(#mask-4)"></path>
                            <path d="M43.7633,22.4731 C43.8963,22.3331 44.0343,22.2031 44.1803,22.0861 C44.3253,21.9691 44.4793,21.8701 44.6433,21.7871 C44.8063,21.7051 44.9823,21.6401 45.1673,21.5941 C45.3563,21.5481 45.5563,21.5241 45.7703,21.5241 C46.1073,21.5241 46.4053,21.5811 46.6603,21.6941 C46.9163,21.8061 47.1313,21.9651 47.3043,22.1671 C47.4773,22.3711 47.6083,22.6161 47.6973,22.9031 C47.7853,23.1881 47.8303,23.5051 47.8303,23.8501 L47.8303,27.7601 L46.6453,27.7601 L46.6453,23.8501 C46.6453,23.4111 46.5453,23.0701 46.3433,22.8271 C46.1433,22.5831 45.8333,22.4611 45.4193,22.4611 C45.1173,22.4611 44.8343,22.5321 44.5713,22.6761 C44.3063,22.8191 44.0613,23.0131 43.8363,23.2591 L43.8363,27.7601 L42.6583,27.7601 L42.6583,21.6211 L43.3653,21.6211 C43.5303,21.6211 43.6323,21.7001 43.6723,21.8571 L43.7633,22.4731 Z" id="Fill-12" fill="#050302" mask="url(#mask-4)"></path>
                            <path d="M51.2554,27.8568 C50.7604,27.8568 50.3794,27.7178 50.1094,27.4398 C49.8434,27.1618 49.7084,26.7648 49.7084,26.2498 L49.7084,22.5758 L48.9964,22.5758 C48.9284,22.5758 48.8694,22.5548 48.8234,22.5118 C48.7764,22.4698 48.7544,22.4068 48.7544,22.3218 L48.7544,21.8448 L49.7514,21.7058 L50.0174,19.8748 C50.0324,19.8058 50.0644,19.7528 50.1094,19.7148 C50.1574,19.6758 50.2164,19.6578 50.2894,19.6578 L50.8864,19.6578 L50.8864,21.7178 L52.6274,21.7178 L52.6274,22.5758 L50.8864,22.5758 L50.8864,26.1698 C50.8864,26.4128 50.9454,26.5928 51.0664,26.7118 C51.1844,26.8298 51.3364,26.8898 51.5224,26.8898 C51.6304,26.8898 51.7244,26.8758 51.8024,26.8478 C51.8804,26.8188 51.9484,26.7888 52.0054,26.7548 C52.0614,26.7198 52.1094,26.6888 52.1494,26.6598 C52.1904,26.6318 52.2264,26.6178 52.2584,26.6178 C52.2984,26.6178 52.3294,26.6278 52.3524,26.6448 C52.3734,26.6638 52.3974,26.6928 52.4224,26.7328 L52.7734,27.3008 C52.5784,27.4778 52.3504,27.6148 52.0834,27.7118 C51.8174,27.8088 51.5414,27.8568 51.2554,27.8568" id="Fill-13" fill="#050302" mask="url(#mask-4)"></path>
                            <path d="M57.7388,24.0072 C57.7388,23.7752 57.7058,23.5592 57.6388,23.3612 C57.5728,23.1632 57.4748,22.9922 57.3458,22.8472 C57.2168,22.7032 57.0608,22.5902 56.8748,22.5092 C56.6898,22.4282 56.4758,22.3882 56.2348,22.3882 C55.7398,22.3882 55.3498,22.5322 55.0658,22.8182 C54.7808,23.1032 54.6018,23.5002 54.5248,24.0072 L57.7388,24.0072 Z M58.7128,26.8842 C58.5668,27.0532 58.3988,27.1992 58.2108,27.3222 C58.0218,27.4452 57.8198,27.5442 57.6058,27.6212 C57.3928,27.6972 57.1728,27.7542 56.9458,27.7912 C56.7168,27.8262 56.4918,27.8452 56.2698,27.8452 C55.8478,27.8452 55.4558,27.7732 55.0948,27.6302 C54.7348,27.4872 54.4228,27.2772 54.1588,27.0012 C53.8958,26.7262 53.6908,26.3842 53.5438,25.9742 C53.3958,25.5662 53.3228,25.0952 53.3228,24.5642 C53.3228,24.1372 53.3878,23.7392 53.5218,23.3702 C53.6548,23.0022 53.8448,22.6812 54.0928,22.4072 C54.3398,22.1332 54.6438,21.9172 55.0028,21.7602 C55.3608,21.6032 55.7628,21.5242 56.2118,21.5242 C56.5858,21.5242 56.9308,21.5862 57.2478,21.7082 C57.5638,21.8312 57.8358,22.0102 58.0648,22.2432 C58.2958,22.4772 58.4748,22.7662 58.6068,23.1082 C58.7368,23.4502 58.8028,23.8402 58.8028,24.2792 C58.8028,24.4602 58.7818,24.5832 58.7418,24.6462 C58.7018,24.7082 58.6288,24.7392 58.5178,24.7392 L54.4958,24.7392 C54.5078,25.1062 54.5588,25.4242 54.6508,25.6972 C54.7448,25.9682 54.8738,26.1952 55.0358,26.3772 C55.1988,26.5572 55.3918,26.6932 55.6188,26.7812 C55.8428,26.8702 56.0948,26.9142 56.3748,26.9142 C56.6358,26.9142 56.8628,26.8842 57.0538,26.8232 C57.2448,26.7622 57.4108,26.6982 57.5498,26.6272 C57.6878,26.5562 57.8038,26.4912 57.8988,26.4312 C57.9938,26.3702 58.0788,26.3402 58.1498,26.3402 C58.2468,26.3402 58.3218,26.3772 58.3738,26.4492 L58.7128,26.8842 Z" id="Fill-14" fill="#050302" mask="url(#mask-4)"></path>
                            <path d="M63.691,22.6786 C63.658,22.7306 63.625,22.7676 63.588,22.7906 C63.551,22.8126 63.505,22.8236 63.449,22.8236 C63.384,22.8236 63.313,22.8016 63.235,22.7576 C63.155,22.7126 63.061,22.6646 62.95,22.6126 C62.838,22.5596 62.709,22.5116 62.56,22.4676 C62.412,22.4226 62.235,22.4016 62.029,22.4016 C61.859,22.4016 61.706,22.4216 61.567,22.4636 C61.427,22.5066 61.309,22.5656 61.212,22.6396 C61.116,22.7136 61.043,22.8026 60.99,22.9056 C60.938,23.0076 60.911,23.1176 60.911,23.2346 C60.911,23.3876 60.957,23.5136 61.047,23.6156 C61.137,23.7156 61.257,23.8026 61.404,23.8746 C61.55,23.9476 61.717,24.0126 61.906,24.0716 C62.093,24.1296 62.284,24.1916 62.48,24.2556 C62.674,24.3206 62.866,24.3926 63.053,24.4756 C63.24,24.5586 63.408,24.6606 63.554,24.7836 C63.702,24.9076 63.821,25.0546 63.911,25.2286 C64.003,25.4026 64.047,25.6136 64.047,25.8626 C64.047,26.1496 63.996,26.4136 63.894,26.6576 C63.79,26.9006 63.639,27.1106 63.441,27.2886 C63.24,27.4666 62.995,27.6056 62.7,27.7056 C62.406,27.8056 62.069,27.8566 61.691,27.8566 C61.267,27.8566 60.878,27.7856 60.519,27.6456 C60.16,27.5036 59.86,27.3246 59.619,27.1076 L59.896,26.6546 C59.928,26.5976 59.968,26.5546 60.017,26.5246 C60.066,26.4936 60.129,26.4796 60.21,26.4796 C60.288,26.4796 60.366,26.5066 60.446,26.5636 C60.526,26.6196 60.623,26.6816 60.736,26.7476 C60.849,26.8146 60.986,26.8746 61.146,26.9286 C61.308,26.9836 61.51,27.0106 61.751,27.0106 C61.953,27.0106 62.129,26.9856 62.277,26.9346 C62.425,26.8846 62.549,26.8156 62.648,26.7296 C62.747,26.6436 62.82,26.5436 62.87,26.4306 C62.917,26.3176 62.941,26.1986 62.941,26.0746 C62.941,25.9126 62.895,25.7796 62.806,25.6726 C62.714,25.5666 62.595,25.4736 62.45,25.3976 C62.302,25.3206 62.133,25.2546 61.944,25.1986 C61.755,25.1416 61.562,25.0806 61.364,25.0176 C61.168,24.9526 60.974,24.8786 60.785,24.7936 C60.594,24.7086 60.426,24.6016 60.281,24.4736 C60.132,24.3446 60.013,24.1866 59.924,24.0016 C59.832,23.8166 59.787,23.5906 59.787,23.3246 C59.787,23.0876 59.837,22.8606 59.936,22.6416 C60.035,22.4246 60.176,22.2336 60.366,22.0686 C60.551,21.9036 60.783,21.7706 61.059,21.6736 C61.336,21.5746 61.65,21.5246 62.005,21.5246 C62.412,21.5246 62.78,21.5896 63.108,21.7176 C63.436,21.8466 63.716,22.0236 63.951,22.2496 L63.691,22.6786 Z" id="Fill-15" fill="#050302" mask="url(#mask-4)"></path>
                            <path d="M73.4127,21.621 L70.9227,27.76 L69.8577,27.76 L67.3707,21.621 L68.3427,21.621 C68.4347,21.621 68.5117,21.643 68.5717,21.687 C68.6337,21.732 68.6737,21.788 68.6917,21.857 L70.1597,25.627 C70.2137,25.785 70.2597,25.94 70.2977,26.095 C70.3347,26.251 70.3707,26.404 70.4027,26.558 C70.4347,26.404 70.4717,26.252 70.5127,26.099 C70.5527,25.945 70.5997,25.788 70.6557,25.627 L72.1427,21.857 C72.1667,21.788 72.2087,21.732 72.2697,21.687 C72.3307,21.643 72.4017,21.621 72.4867,21.621 L73.4127,21.621 Z" id="Fill-16" fill="#050302" mask="url(#mask-4)"></path>
                            <path d="M74.409,27.76 L75.587,27.76 L75.587,21.621 L74.409,21.621 L74.409,27.76 Z M75.81,19.724 C75.81,19.833 75.788,19.936 75.745,20.035 C75.7,20.134 75.64,20.221 75.565,20.295 C75.492,20.369 75.403,20.428 75.303,20.471 C75.202,20.513 75.097,20.533 74.989,20.533 C74.88,20.533 74.777,20.513 74.68,20.471 C74.584,20.428 74.499,20.369 74.423,20.295 C74.349,20.221 74.291,20.134 74.248,20.035 C74.206,19.936 74.184,19.833 74.184,19.724 C74.184,19.611 74.206,19.505 74.248,19.407 C74.291,19.308 74.349,19.222 74.423,19.146 C74.499,19.072 74.584,19.014 74.68,18.972 C74.777,18.929 74.88,18.908 74.989,18.908 C75.097,18.908 75.202,18.929 75.303,18.972 C75.403,19.014 75.492,19.072 75.565,19.146 C75.64,19.222 75.7,19.308 75.745,19.407 C75.788,19.505 75.81,19.611 75.81,19.724 Z" id="Fill-17" fill="#050302" mask="url(#mask-4)"></path>
                            <path d="M80.9156,22.6786 C80.8836,22.7306 80.8496,22.7676 80.8136,22.7906 C80.7756,22.8126 80.7306,22.8236 80.6746,22.8236 C80.6096,22.8236 80.5376,22.8016 80.4596,22.7576 C80.3816,22.7126 80.2866,22.6646 80.1756,22.6126 C80.0646,22.5596 79.9356,22.5116 79.7856,22.4676 C79.6366,22.4226 79.4596,22.4016 79.2536,22.4016 C79.0856,22.4016 78.9306,22.4216 78.7916,22.4636 C78.6526,22.5066 78.5356,22.5656 78.4376,22.6396 C78.3416,22.7136 78.2676,22.8026 78.2156,22.9056 C78.1636,23.0076 78.1366,23.1176 78.1366,23.2346 C78.1366,23.3876 78.1826,23.5136 78.2716,23.6156 C78.3626,23.7156 78.4816,23.8026 78.6286,23.8746 C78.7756,23.9476 78.9416,24.0126 79.1316,24.0716 C79.3176,24.1296 79.5096,24.1916 79.7046,24.2556 C79.9006,24.3206 80.0916,24.3926 80.2776,24.4756 C80.4666,24.5586 80.6326,24.6606 80.7796,24.7836 C80.9276,24.9076 81.0456,25.0546 81.1366,25.2286 C81.2276,25.4026 81.2716,25.6136 81.2716,25.8626 C81.2716,26.1496 81.2216,26.4136 81.1186,26.6576 C81.0166,26.9006 80.8646,27.1106 80.6656,27.2886 C80.4666,27.4666 80.2196,27.6056 79.9246,27.7056 C79.6316,27.8056 79.2946,27.8566 78.9166,27.8566 C78.4926,27.8566 78.1026,27.7856 77.7436,27.6456 C77.3846,27.5036 77.0846,27.3246 76.8446,27.1076 L77.1216,26.6546 C77.1526,26.5976 77.1936,26.5546 77.2426,26.5246 C77.2906,26.4936 77.3546,26.4796 77.4356,26.4796 C77.5126,26.4796 77.5906,26.5066 77.6716,26.5636 C77.7516,26.6196 77.8486,26.6816 77.9606,26.7476 C78.0736,26.8146 78.2106,26.8746 78.3726,26.9286 C78.5336,26.9836 78.7346,27.0106 78.9776,27.0106 C79.1786,27.0106 79.3536,26.9856 79.5016,26.9346 C79.6506,26.8846 79.7756,26.8156 79.8736,26.7296 C79.9716,26.6436 80.0456,26.5436 80.0946,26.4306 C80.1426,26.3176 80.1676,26.1986 80.1676,26.0746 C80.1676,25.9126 80.1216,25.7796 80.0306,25.6726 C79.9406,25.5666 79.8206,25.4736 79.6746,25.3976 C79.5276,25.3206 79.3586,25.2546 79.1686,25.1986 C78.9796,25.1416 78.7866,25.0806 78.5896,25.0176 C78.3926,24.9526 78.1986,24.8786 78.0106,24.7936 C77.8196,24.7086 77.6506,24.6016 77.5056,24.4736 C77.3586,24.3446 77.2396,24.1866 77.1486,24.0016 C77.0586,23.8166 77.0136,23.5906 77.0136,23.3246 C77.0136,23.0876 77.0616,22.8606 77.1606,22.6416 C77.2596,22.4246 77.4016,22.2336 77.5906,22.0686 C77.7766,21.9036 78.0076,21.7706 78.2836,21.6736 C78.5606,21.5746 78.8766,21.5246 79.2296,21.5246 C79.6366,21.5246 80.0046,21.5896 80.3326,21.7176 C80.6606,21.8466 80.9416,22.0236 81.1756,22.2496 L80.9156,22.6786 Z" id="Fill-18" fill="#050302" mask="url(#mask-4)"></path>
                            <path d="M82.601,27.76 L83.78,27.76 L83.78,21.621 L82.601,21.621 L82.601,27.76 Z M84.003,19.724 C84.003,19.833 83.981,19.936 83.936,20.035 C83.892,20.134 83.833,20.221 83.758,20.295 C83.684,20.369 83.596,20.428 83.496,20.471 C83.395,20.513 83.29,20.533 83.181,20.533 C83.073,20.533 82.97,20.513 82.874,20.471 C82.777,20.428 82.69,20.369 82.617,20.295 C82.542,20.221 82.483,20.134 82.441,20.035 C82.399,19.936 82.378,19.833 82.378,19.724 C82.378,19.611 82.399,19.505 82.441,19.407 C82.483,19.308 82.542,19.222 82.617,19.146 C82.69,19.072 82.777,19.014 82.874,18.972 C82.97,18.929 83.073,18.908 83.181,18.908 C83.29,18.908 83.395,18.929 83.496,18.972 C83.596,19.014 83.684,19.072 83.758,19.146 C83.833,19.222 83.892,19.308 83.936,19.407 C83.981,19.505 84.003,19.611 84.003,19.724 Z" id="Fill-19" fill="#050302" mask="url(#mask-4)"></path>
                            <path d="M87.4107,27.8568 C86.9157,27.8568 86.5337,27.7178 86.2657,27.4398 C85.9987,27.1618 85.8647,26.7648 85.8647,26.2498 L85.8647,22.5758 L85.1507,22.5758 C85.0827,22.5758 85.0247,22.5548 84.9797,22.5118 C84.9317,22.4698 84.9087,22.4068 84.9087,22.3218 L84.9087,21.8448 L85.9057,21.7058 L86.1717,19.8748 C86.1877,19.8058 86.2197,19.7528 86.2657,19.7148 C86.3117,19.6758 86.3727,19.6578 86.4437,19.6578 L87.0427,19.6578 L87.0427,21.7178 L88.7817,21.7178 L88.7817,22.5758 L87.0427,22.5758 L87.0427,26.1698 C87.0427,26.4128 87.1007,26.5928 87.2217,26.7118 C87.3407,26.8298 87.4907,26.8898 87.6777,26.8898 C87.7857,26.8898 87.8797,26.8758 87.9587,26.8478 C88.0367,26.8188 88.1027,26.7888 88.1597,26.7548 C88.2157,26.7198 88.2647,26.6888 88.3057,26.6598 C88.3457,26.6318 88.3807,26.6178 88.4137,26.6178 C88.4537,26.6178 88.4847,26.6278 88.5087,26.6448 C88.5297,26.6638 88.5537,26.6928 88.5767,26.7328 L88.9277,27.3008 C88.7347,27.4778 88.5047,27.6148 88.2387,27.7118 C87.9727,27.8088 87.6967,27.8568 87.4107,27.8568" id="Fill-20" fill="#050302" mask="url(#mask-4)"></path>
                            <path d="M93.1627,25.0351 C92.6837,25.0521 92.2777,25.0881 91.9417,25.1471 C91.6077,25.2051 91.3357,25.2831 91.1267,25.3801 C90.9187,25.4761 90.7667,25.5901 90.6737,25.7211 C90.5807,25.8521 90.5357,25.9981 90.5357,26.1591 C90.5357,26.3121 90.5587,26.4441 90.6107,26.5551 C90.6607,26.6651 90.7287,26.7561 90.8167,26.8271 C90.9017,26.8971 91.0047,26.9481 91.1207,26.9811 C91.2377,27.0131 91.3637,27.0281 91.5007,27.0281 C91.6837,27.0281 91.8497,27.0111 92.0007,26.9741 C92.1507,26.9391 92.2927,26.8871 92.4267,26.8211 C92.5587,26.7551 92.6857,26.6721 92.8067,26.5751 C92.9277,26.4791 93.0467,26.3681 93.1627,26.2431 L93.1627,25.0351 Z M89.7077,22.4791 C90.0497,22.1531 90.4217,21.9091 90.8207,21.7481 C91.2227,21.5871 91.6627,21.5071 92.1417,21.5071 C92.4927,21.5071 92.8027,21.5631 93.0727,21.6791 C93.3427,21.7931 93.5697,21.9541 93.7557,22.1591 C93.9397,22.3651 94.0807,22.6101 94.1757,22.8951 C94.2687,23.1821 94.3167,23.4981 94.3167,23.8451 L94.3167,27.7601 L93.7917,27.7601 C93.6747,27.7601 93.5867,27.7411 93.5257,27.7021 C93.4647,27.6641 93.4177,27.5931 93.3807,27.4891 L93.2547,26.9511 C93.0967,27.0961 92.9407,27.2231 92.7887,27.3341 C92.6367,27.4451 92.4757,27.5391 92.3087,27.6181 C92.1407,27.6961 91.9637,27.7561 91.7737,27.7971 C91.5837,27.8371 91.3747,27.8571 91.1447,27.8571 C90.9037,27.8571 90.6777,27.8241 90.4647,27.7561 C90.2537,27.6901 90.0697,27.5891 89.9127,27.4521 C89.7557,27.3151 89.6317,27.1441 89.5407,26.9391 C89.4497,26.7331 89.4047,26.4931 89.4047,26.2191 C89.4047,25.9781 89.4717,25.7441 89.6007,25.5211 C89.7317,25.2981 89.9457,25.0971 90.2417,24.9211 C90.5377,24.7431 90.9257,24.5981 91.4017,24.4851 C91.8787,24.3721 92.4667,24.3081 93.1627,24.2921 L93.1627,23.8451 C93.1627,23.3821 93.0647,23.0351 92.8677,22.8061 C92.6697,22.5761 92.3797,22.4611 91.9967,22.4611 C91.7397,22.4611 91.5217,22.4931 91.3477,22.5581 C91.1737,22.6221 91.0217,22.6941 90.8937,22.7721 C90.7667,22.8511 90.6557,22.9231 90.5617,22.9871 C90.4677,23.0521 90.3707,23.0831 90.2687,23.0831 C90.1887,23.0831 90.1187,23.0611 90.0607,23.0171 C90.0027,22.9721 89.9547,22.9201 89.9187,22.8601 L89.7077,22.4791 Z" id="Fill-21" fill="#050302" mask="url(#mask-4)"></path>
                            <path d="M99.858,23.1083 C99.665,22.8543 99.456,22.6763 99.233,22.5763 C99.008,22.4753 98.758,22.4243 98.48,22.4243 C97.94,22.4243 97.522,22.6193 97.227,23.0073 C96.93,23.3973 96.783,23.9633 96.783,24.7083 C96.783,25.1003 96.816,25.4333 96.882,25.7093 C96.949,25.9853 97.045,26.2103 97.172,26.3853 C97.298,26.5613 97.456,26.6903 97.64,26.7723 C97.827,26.8553 98.035,26.8963 98.269,26.8963 C98.611,26.8963 98.908,26.8193 99.158,26.6663 C99.407,26.5143 99.64,26.2973 99.858,26.0193 L99.858,23.1083 Z M101.043,18.8423 L101.043,27.7603 L100.33,27.7603 C100.164,27.7603 100.061,27.6813 100.021,27.5243 L99.918,26.8173 C99.657,27.1273 99.359,27.3763 99.028,27.5643 C98.695,27.7503 98.311,27.8453 97.876,27.8453 C97.525,27.8453 97.208,27.7763 96.924,27.6393 C96.64,27.5033 96.398,27.3023 96.197,27.0383 C95.995,26.7753 95.839,26.4463 95.73,26.0563 C95.622,25.6653 95.568,25.2153 95.568,24.7083 C95.568,24.2543 95.629,23.8303 95.75,23.4403 C95.87,23.0493 96.045,22.7103 96.276,22.4243 C96.504,22.1393 96.783,21.9143 97.109,21.7513 C97.434,21.5883 97.802,21.5063 98.214,21.5063 C98.586,21.5063 98.9,21.5663 99.16,21.6873 C99.42,21.8093 99.653,21.9803 99.858,22.2013 L99.858,18.8423 L101.043,18.8423 Z" id="Fill-22" fill="#050302" mask="url(#mask-4)"></path>
                            <path d="M105.3082,26.9257 C105.8892,26.9257 106.3212,26.7307 106.6062,26.3407 C106.8932,25.9497 107.0362,25.3997 107.0362,24.6907 C107.0362,23.9817 106.8932,23.4317 106.6062,23.0387 C106.3212,22.6457 105.8892,22.4497 105.3082,22.4497 C104.7202,22.4497 104.2822,22.6457 103.9942,23.0387 C103.7052,23.4317 103.5622,23.9817 103.5622,24.6907 C103.5622,25.3997 103.7052,25.9497 103.9942,26.3407 C104.2822,26.7307 104.7202,26.9257 105.3082,26.9257 M105.3082,21.5247 C105.7592,21.5247 106.1672,21.5977 106.5312,21.7447 C106.8972,21.8927 107.2052,22.1037 107.4612,22.3797 C107.7182,22.6547 107.9132,22.9877 108.0502,23.3757 C108.1882,23.7657 108.2562,24.2007 108.2562,24.6847 C108.2562,25.1687 108.1882,25.6057 108.0502,25.9957 C107.9132,26.3857 107.7182,26.7187 107.4612,26.9927 C107.2052,27.2667 106.8972,27.4767 106.5312,27.6247 C106.1672,27.7707 105.7592,27.8447 105.3082,27.8447 C104.8532,27.8447 104.4432,27.7707 104.0792,27.6247 C103.7132,27.4767 103.4042,27.2667 103.1452,26.9927 C102.8862,26.7187 102.6882,26.3857 102.5492,25.9957 C102.4112,25.6057 102.3412,25.1687 102.3412,24.6847 C102.3412,24.2007 102.4112,23.7657 102.5492,23.3757 C102.6882,22.9877 102.8862,22.6547 103.1452,22.3797 C103.4042,22.1037 103.7132,21.8927 104.0792,21.7447 C104.4432,21.5977 104.8532,21.5247 105.3082,21.5247" id="Fill-23" fill="#050302" mask="url(#mask-4)"></path>
                            <path d="M113.1861,22.6786 C113.1551,22.7306 113.1211,22.7676 113.0841,22.7906 C113.0471,22.8126 113.0021,22.8236 112.9461,22.8236 C112.8801,22.8236 112.8091,22.8016 112.7311,22.7576 C112.6521,22.7126 112.5571,22.6646 112.4471,22.6126 C112.3351,22.5596 112.2061,22.5116 112.0571,22.4676 C111.9071,22.4226 111.7301,22.4016 111.5251,22.4016 C111.3561,22.4016 111.2021,22.4216 111.0621,22.4636 C110.9241,22.5066 110.8061,22.5656 110.7091,22.6396 C110.6131,22.7136 110.5391,22.8026 110.4871,22.9056 C110.4341,23.0076 110.4081,23.1176 110.4081,23.2346 C110.4081,23.3876 110.4541,23.5136 110.5431,23.6156 C110.6341,23.7156 110.7531,23.8026 110.8991,23.8746 C111.0471,23.9476 111.2131,24.0126 111.4021,24.0716 C111.5881,24.1296 111.7801,24.1916 111.9761,24.2556 C112.1711,24.3206 112.3631,24.3926 112.5491,24.4756 C112.7371,24.5586 112.9031,24.6606 113.0501,24.7836 C113.1981,24.9076 113.3161,25.0546 113.4071,25.2286 C113.4981,25.4026 113.5421,25.6136 113.5421,25.8626 C113.5421,26.1496 113.4921,26.4136 113.3891,26.6576 C113.2871,26.9006 113.1351,27.1106 112.9361,27.2886 C112.7371,27.4666 112.4901,27.6056 112.1951,27.7056 C111.9031,27.8056 111.5651,27.8566 111.1871,27.8566 C110.7641,27.8566 110.3731,27.7856 110.0141,27.6456 C109.6561,27.5036 109.3561,27.3246 109.1151,27.1076 L109.3921,26.6546 C109.4241,26.5976 109.4641,26.5546 109.5141,26.5246 C109.5611,26.4936 109.6261,26.4796 109.7071,26.4796 C109.7831,26.4796 109.8611,26.5066 109.9421,26.5636 C110.0231,26.6196 110.1201,26.6816 110.2321,26.7476 C110.3451,26.8146 110.4821,26.8746 110.6431,26.9286 C110.8051,26.9836 111.0051,27.0106 111.2481,27.0106 C111.4501,27.0106 111.6241,26.9856 111.7731,26.9346 C111.9211,26.8846 112.0461,26.8156 112.1441,26.7296 C112.2431,26.6436 112.3171,26.5436 112.3651,26.4306 C112.4141,26.3176 112.4381,26.1986 112.4381,26.0746 C112.4381,25.9126 112.3921,25.7796 112.3011,25.6726 C112.2111,25.5666 112.0911,25.4736 111.9451,25.3976 C111.7981,25.3206 111.6291,25.2546 111.4401,25.1986 C111.2511,25.1416 111.0571,25.0806 110.8611,25.0176 C110.6641,24.9526 110.4701,24.8786 110.2811,24.7936 C110.0911,24.7086 109.9221,24.6016 109.7761,24.4736 C109.6291,24.3446 109.5101,24.1866 109.4191,24.0016 C109.3291,23.8166 109.2841,23.5906 109.2841,23.3246 C109.2841,23.0876 109.3321,22.8606 109.4311,22.6416 C109.5311,22.4246 109.6731,22.2336 109.8611,22.0686 C110.0471,21.9036 110.2791,21.7706 110.5551,21.6736 C110.8311,21.5746 111.1471,21.5246 111.5011,21.5246 C111.9071,21.5246 112.2751,21.5896 112.6031,21.7176 C112.9311,21.8466 113.2121,22.0236 113.4461,22.2496 L113.1861,22.6786 Z" id="Fill-24" fill="#050302" mask="url(#mask-4)"></path>
                            <path d="M289.1177,88.7919 L2.5137,88.7919 C1.6667,88.7919 0.9787,88.1049 0.9787,87.2569 L0.9787,51.4419 C0.9787,50.5939 1.6667,49.9069 2.5137,49.9069 L289.1177,49.9069 C289.9657,49.9069 290.6527,50.5939 290.6527,51.4419 L290.6527,87.2569 C290.6527,88.1049 289.9657,88.7919 289.1177,88.7919" id="Fill-25" fill="#FFFFFF" mask="url(#mask-4)"></path>
                            <path d="M28.6754,71.078 C28.7484,71.078 28.8114,71.106 28.8634,71.163 L29.3714,71.719 C29.0164,72.138 28.5844,72.462 28.0744,72.691 C27.5664,72.921 26.9514,73.036 26.2354,73.036 C25.6074,73.036 25.0374,72.927 24.5284,72.709 C24.0184,72.492 23.5824,72.187 23.2234,71.796 C22.8624,71.406 22.5834,70.938 22.3854,70.394 C22.1894,69.852 22.0904,69.253 22.0904,68.601 C22.0904,67.948 22.1944,67.35 22.4024,66.806 C22.6084,66.262 22.9004,65.794 23.2754,65.404 C23.6494,65.013 24.0964,64.71 24.6174,64.492 C25.1394,64.275 25.7174,64.166 26.3504,64.166 C26.9664,64.166 27.5144,64.266 27.9924,64.468 C28.4724,64.669 28.8904,64.936 29.2434,65.272 L28.8214,65.87 C28.7924,65.914 28.7574,65.95 28.7154,65.978 C28.6724,66.007 28.6164,66.021 28.5484,66.021 C28.4724,66.021 28.3824,65.982 28.2794,65.906 C28.1774,65.83 28.0424,65.744 27.8744,65.649 C27.7074,65.555 27.5014,65.469 27.2564,65.392 C27.0104,65.315 26.7044,65.278 26.3374,65.278 C25.9064,65.278 25.5124,65.353 25.1544,65.504 C24.7944,65.655 24.4864,65.872 24.2264,66.157 C23.9664,66.44 23.7644,66.789 23.6214,67.203 C23.4784,67.614 23.4064,68.081 23.4064,68.601 C23.4064,69.128 23.4814,69.598 23.6314,70.009 C23.7794,70.419 23.9854,70.767 24.2474,71.054 C24.5094,71.34 24.8164,71.557 25.1714,71.707 C25.5274,71.855 25.9084,71.93 26.3204,71.93 C26.5704,71.93 26.7934,71.914 26.9914,71.885 C27.1934,71.854 27.3754,71.809 27.5424,71.748 C27.7094,71.688 27.8674,71.61 28.0164,71.515 C28.1664,71.421 28.3144,71.308 28.4574,71.175 C28.4904,71.146 28.5244,71.122 28.5624,71.105 C28.5974,71.087 28.6354,71.078 28.6754,71.078" id="Fill-26" fill="#050302" mask="url(#mask-4)"></path>
                            <polygon id="Fill-27" fill="#050302" mask="url(#mask-4)" points="30.451 72.939 31.637 72.939 31.637 64.021 30.451 64.021"></polygon>
                            <path d="M33.37,72.939 L34.549,72.939 L34.549,66.8 L33.37,66.8 L33.37,72.939 Z M34.773,64.902 C34.773,65.012 34.751,65.115 34.706,65.214 C34.662,65.313 34.601,65.399 34.528,65.474 C34.453,65.548 34.366,65.607 34.265,65.649 C34.165,65.692 34.058,65.712 33.95,65.712 C33.841,65.712 33.74,65.692 33.643,65.649 C33.546,65.607 33.461,65.548 33.386,65.474 C33.31,65.399 33.253,65.313 33.212,65.214 C33.169,65.115 33.148,65.012 33.148,64.902 C33.148,64.79 33.169,64.684 33.212,64.586 C33.253,64.487 33.31,64.401 33.386,64.325 C33.461,64.251 33.546,64.193 33.643,64.151 C33.74,64.108 33.841,64.087 33.95,64.087 C34.058,64.087 34.165,64.108 34.265,64.151 C34.366,64.193 34.453,64.251 34.528,64.325 C34.601,64.401 34.662,64.487 34.706,64.586 C34.751,64.684 34.773,64.79 34.773,64.902 Z" id="Fill-28" fill="#050302" mask="url(#mask-4)"></path>
                            <path d="M40.3248,69.1859 C40.3248,68.9539 40.2918,68.7379 40.2258,68.5399 C40.1598,68.3419 40.0598,68.1709 39.9328,68.0259 C39.8038,67.8819 39.6458,67.7689 39.4618,67.6879 C39.2758,67.6069 39.0618,67.5669 38.8218,67.5669 C38.3258,67.5669 37.9348,67.7109 37.6508,67.9969 C37.3678,68.2819 37.1868,68.6789 37.1098,69.1859 L40.3248,69.1859 Z M41.2978,72.0629 C41.1528,72.2319 40.9858,72.3779 40.7968,72.5009 C40.6068,72.6239 40.4048,72.7229 40.1928,72.7999 C39.9778,72.8759 39.7588,72.9329 39.5308,72.9699 C39.3038,73.0049 39.0788,73.0239 38.8568,73.0239 C38.4338,73.0239 38.0428,72.9519 37.6808,72.8089 C37.3198,72.6659 37.0088,72.4569 36.7448,72.1799 C36.4808,71.9049 36.2758,71.5629 36.1288,71.1529 C35.9818,70.7449 35.9088,70.2739 35.9088,69.7429 C35.9088,69.3159 35.9748,68.9179 36.1068,68.5489 C36.2408,68.1809 36.4298,67.8599 36.6788,67.5859 C36.9268,67.3119 37.2288,67.0959 37.5888,66.9389 C37.9458,66.7819 38.3488,66.7029 38.7968,66.7029 C39.1708,66.7029 39.5158,66.7649 39.8328,66.8869 C40.1488,67.0099 40.4218,67.1889 40.6508,67.4219 C40.8808,67.6559 41.0608,67.9449 41.1918,68.2869 C41.3228,68.6289 41.3888,69.0199 41.3888,69.4589 C41.3888,69.6399 41.3678,69.7619 41.3278,69.8249 C41.2878,69.8869 41.2138,69.9179 41.1038,69.9179 L37.0808,69.9179 C37.0928,70.2849 37.1458,70.6029 37.2378,70.8759 C37.3298,71.1469 37.4588,71.3739 37.6218,71.5559 C37.7838,71.7359 37.9788,71.8719 38.2048,71.9599 C38.4288,72.0489 38.6818,72.0929 38.9598,72.0929 C39.2208,72.0929 39.4478,72.0629 39.6388,72.0019 C39.8308,71.9419 39.9958,71.8769 40.1358,71.8059 C40.2728,71.7349 40.3908,71.6699 40.4848,71.6099 C40.5798,71.5489 40.6638,71.5189 40.7358,71.5189 C40.8328,71.5189 40.9078,71.5559 40.9598,71.6279 L41.2978,72.0629 Z" id="Fill-29" fill="#050302" mask="url(#mask-4)"></path>
                            <path d="M43.7633,67.6523 C43.8963,67.5113 44.0343,67.3813 44.1793,67.2653 C44.3253,67.1483 44.4793,67.0493 44.6423,66.9663 C44.8043,66.8833 44.9803,66.8193 45.1673,66.7733 C45.3543,66.7273 45.5553,66.7033 45.7693,66.7033 C46.1073,66.7033 46.4053,66.7593 46.6593,66.8733 C46.9153,66.9853 47.1303,67.1433 47.3043,67.3463 C47.4763,67.5503 47.6083,67.7953 47.6963,68.0813 C47.7853,68.3673 47.8283,68.6833 47.8283,69.0293 L47.8283,72.9393 L46.6453,72.9393 L46.6453,69.0293 C46.6453,68.5903 46.5443,68.2493 46.3433,68.0063 C46.1413,67.7613 45.8333,67.6403 45.4183,67.6403 C45.1163,67.6403 44.8323,67.7113 44.5703,67.8553 C44.3063,67.9983 44.0613,68.1913 43.8353,68.4383 L43.8353,72.9393 L42.6573,72.9393 L42.6573,66.8003 L43.3653,66.8003 C43.5303,66.8003 43.6313,66.8793 43.6713,67.0363 L43.7633,67.6523 Z" id="Fill-30" fill="#050302" mask="url(#mask-4)"></path>
                            <path d="M51.2554,73.0356 C50.7594,73.0356 50.3784,72.8966 50.1094,72.6186 C49.8424,72.3406 49.7084,71.9446 49.7084,71.4286 L49.7084,67.7546 L48.9944,67.7546 C48.9264,67.7546 48.8684,67.7336 48.8234,67.6906 C48.7764,67.6486 48.7534,67.5856 48.7534,67.5006 L48.7534,67.0246 L49.7504,66.8856 L50.0164,65.0536 C50.0324,64.9846 50.0634,64.9316 50.1094,64.8936 C50.1554,64.8556 50.2164,64.8366 50.2884,64.8366 L50.8864,64.8366 L50.8864,66.8966 L52.6264,66.8966 L52.6264,67.7546 L50.8864,67.7546 L50.8864,71.3496 C50.8864,71.5916 50.9454,71.7716 51.0654,71.8906 C51.1844,72.0096 51.3354,72.0696 51.5224,72.0696 C51.6304,72.0696 51.7234,72.0556 51.8024,72.0266 C51.8804,71.9986 51.9474,71.9676 52.0044,71.9336 C52.0604,71.8996 52.1094,71.8676 52.1494,71.8396 C52.1904,71.8106 52.2254,71.7966 52.2584,71.7966 C52.2984,71.7966 52.3284,71.8066 52.3524,71.8236 C52.3734,71.8426 52.3974,71.8716 52.4204,71.9116 L52.7714,72.4796 C52.5784,72.6566 52.3494,72.7936 52.0834,72.8906 C51.8174,72.9876 51.5404,73.0356 51.2554,73.0356" id="Fill-31" fill="#050302" mask="url(#mask-4)"></path>
                            <path d="M57.7388,69.1859 C57.7388,68.9539 57.7058,68.7379 57.6388,68.5399 C57.5728,68.3419 57.4738,68.1709 57.3458,68.0259 C57.2168,67.8819 57.0598,67.7689 56.8748,67.6879 C56.6888,67.6069 56.4758,67.5669 56.2348,67.5669 C55.7398,67.5669 55.3488,67.7109 55.0638,67.9969 C54.7808,68.2819 54.5998,68.6789 54.5238,69.1859 L57.7388,69.1859 Z M58.7108,72.0629 C58.5668,72.2319 58.3988,72.3779 58.2108,72.5009 C58.0198,72.6239 57.8188,72.7229 57.6058,72.7999 C57.3908,72.8759 57.1728,72.9329 56.9438,72.9699 C56.7168,73.0049 56.4918,73.0239 56.2698,73.0239 C55.8478,73.0239 55.4558,72.9519 55.0948,72.8089 C54.7338,72.6659 54.4228,72.4569 54.1578,72.1799 C53.8948,71.9049 53.6888,71.5629 53.5418,71.1529 C53.3958,70.7449 53.3228,70.2739 53.3228,69.7429 C53.3228,69.3159 53.3878,68.9179 53.5208,68.5489 C53.6538,68.1809 53.8438,67.8599 54.0928,67.5859 C54.3398,67.3119 54.6428,67.0959 55.0018,66.9389 C55.3588,66.7819 55.7628,66.7029 56.2108,66.7029 C56.5848,66.7029 56.9298,66.7649 57.2468,66.8869 C57.5628,67.0099 57.8358,67.1889 58.0638,67.4219 C58.2948,67.6559 58.4748,67.9449 58.6058,68.2869 C58.7368,68.6289 58.8028,69.0199 58.8028,69.4589 C58.8028,69.6399 58.7818,69.7619 58.7418,69.8249 C58.7018,69.8869 58.6278,69.9179 58.5168,69.9179 L54.4948,69.9179 C54.5068,70.2849 54.5588,70.6029 54.6508,70.8759 C54.7438,71.1469 54.8718,71.3739 55.0348,71.5559 C55.1978,71.7359 55.3918,71.8719 55.6178,71.9599 C55.8428,72.0489 56.0948,72.0929 56.3728,72.0929 C56.6348,72.0929 56.8618,72.0629 57.0518,72.0019 C57.2438,71.9419 57.4088,71.8769 57.5488,71.8059 C57.6858,71.7349 57.8038,71.6699 57.8988,71.6099 C57.9938,71.5489 58.0768,71.5189 58.1488,71.5189 C58.2458,71.5189 58.3218,71.5559 58.3738,71.6279 L58.7108,72.0629 Z" id="Fill-32" fill="#050302" mask="url(#mask-4)"></path>
                            <path d="M63.691,67.8573 C63.658,67.9093 63.624,67.9473 63.587,67.9693 C63.551,67.9923 63.504,68.0023 63.448,68.0023 C63.384,68.0023 63.313,67.9803 63.234,67.9363 C63.155,67.8913 63.061,67.8433 62.95,67.7913 C62.838,67.7383 62.709,67.6903 62.56,67.6463 C62.412,67.6013 62.235,67.5803 62.029,67.5803 C61.859,67.5803 61.706,67.6003 61.567,67.6423 C61.427,67.6853 61.309,67.7443 61.212,67.8183 C61.116,67.8933 61.042,67.9813 60.989,68.0843 C60.936,68.1863 60.911,68.2963 60.911,68.4133 C60.911,68.5663 60.956,68.6923 61.047,68.7943 C61.137,68.8943 61.256,68.9813 61.404,69.0543 C61.55,69.1263 61.717,69.1923 61.904,69.2503 C62.091,69.3093 62.283,69.3703 62.479,69.4343 C62.673,69.4993 62.865,69.5723 63.052,69.6543 C63.24,69.7373 63.408,69.8393 63.554,69.9623 C63.701,70.0863 63.821,70.2343 63.911,70.4073 C64.002,70.5813 64.047,70.7923 64.047,71.0413 C64.047,71.3283 63.996,71.5923 63.892,71.8363 C63.79,72.0803 63.639,72.2903 63.439,72.4683 C63.24,72.6453 62.994,72.7843 62.7,72.8843 C62.405,72.9843 62.069,73.0353 61.689,73.0353 C61.267,73.0353 60.877,72.9643 60.519,72.8243 C60.16,72.6833 59.859,72.5033 59.617,72.2863 L59.896,71.8333 C59.927,71.7763 59.968,71.7333 60.016,71.7033 C60.066,71.6723 60.129,71.6583 60.21,71.6583 C60.287,71.6583 60.366,71.6853 60.446,71.7423 C60.526,71.7983 60.623,71.8603 60.736,71.9263 C60.848,71.9933 60.985,72.0533 61.146,72.1083 C61.307,72.1623 61.508,72.1893 61.751,72.1893 C61.952,72.1893 62.128,72.1653 62.276,72.1143 C62.425,72.0633 62.548,71.9953 62.648,71.9083 C62.747,71.8223 62.82,71.7223 62.869,71.6103 C62.917,71.4973 62.94,71.3783 62.94,71.2533 C62.94,71.0923 62.895,70.9593 62.804,70.8513 C62.713,70.7453 62.595,70.6533 62.448,70.5763 C62.3,70.4993 62.133,70.4333 61.944,70.3773 C61.754,70.3203 61.562,70.2603 61.364,70.1963 C61.167,70.1313 60.973,70.0573 60.783,69.9723 C60.594,69.8873 60.426,69.7813 60.279,69.6523 C60.131,69.5243 60.013,69.3653 59.922,69.1803 C59.832,68.9953 59.787,68.7693 59.787,68.5043 C59.787,68.2673 59.837,68.0393 59.934,67.8203 C60.034,67.6033 60.176,67.4123 60.364,67.2473 C60.551,67.0823 60.783,66.9503 61.059,66.8523 C61.336,66.7533 61.649,66.7033 62.004,66.7033 C62.412,66.7033 62.779,66.7683 63.107,66.8973 C63.436,67.0253 63.716,67.2023 63.951,67.4293 L63.691,67.8573 Z" id="Fill-33" fill="#050302" mask="url(#mask-4)"></path>
                            <path d="M72.6734,67.9482 C72.6384,67.9922 72.6034,68.0272 72.5694,68.0532 C72.5344,68.0802 72.4854,68.0932 72.4214,68.0932 C72.3554,68.0932 72.2884,68.0672 72.2184,68.0182 C72.1474,67.9672 72.0594,67.9132 71.9514,67.8552 C71.8454,67.7962 71.7164,67.7412 71.5664,67.6912 C71.4144,67.6412 71.2284,67.6152 71.0074,67.6152 C70.7174,67.6152 70.4594,67.6682 70.2384,67.7722 C70.0184,67.8772 69.8334,68.0262 69.6864,68.2192 C69.5394,68.4132 69.4274,68.6492 69.3504,68.9272 C69.2754,69.2052 69.2354,69.5162 69.2354,69.8642 C69.2354,70.2222 69.2764,70.5412 69.3584,70.8212 C69.4384,71.1012 69.5524,71.3362 69.7024,71.5272 C69.8514,71.7192 70.0314,71.8652 70.2444,71.9632 C70.4584,72.0622 70.6954,72.1122 70.9574,72.1122 C71.2124,72.1122 71.4214,72.0802 71.5864,72.0172 C71.7504,71.9542 71.8894,71.8872 71.9974,71.8152 C72.1064,71.7422 72.1964,71.6752 72.2704,71.6122 C72.3424,71.5502 72.4164,71.5192 72.4924,71.5192 C72.5884,71.5192 72.6644,71.5552 72.7164,71.6282 L73.0554,72.0632 C72.9144,72.2362 72.7564,72.3832 72.5804,72.5032 C72.4044,72.6252 72.2184,72.7232 72.0224,72.8002 C71.8234,72.8762 71.6174,72.9332 71.4024,72.9692 C71.1874,73.0052 70.9684,73.0242 70.7464,73.0242 C70.3634,73.0242 70.0064,72.9532 69.6744,72.8112 C69.3414,72.6712 69.0534,72.4662 68.8104,72.1952 C68.5674,71.9262 68.3734,71.5942 68.2334,71.2012 C68.0924,70.8092 68.0224,70.3632 68.0224,69.8642 C68.0224,69.4082 68.0854,68.9882 68.2134,68.6012 C68.3394,68.2142 68.5274,67.8812 68.7754,67.6002 C69.0224,67.3202 69.3264,67.1012 69.6894,66.9422 C70.0514,66.7832 70.4674,66.7032 70.9344,66.7032 C71.3734,66.7032 71.7604,66.7742 72.0944,66.9142 C72.4284,67.0562 72.7264,67.2552 72.9874,67.5122 L72.6734,67.9482 Z" id="Fill-34" fill="#050302" mask="url(#mask-4)"></path>
                            <path d="M76.6627,72.1044 C77.2417,72.1044 77.6757,71.9104 77.9607,71.5194 C78.2457,71.1284 78.3907,70.5784 78.3907,69.8694 C78.3907,69.1604 78.2457,68.6104 77.9607,68.2174 C77.6757,67.8244 77.2417,67.6284 76.6627,67.6284 C76.0737,67.6284 75.6357,67.8244 75.3487,68.2174 C75.0597,68.6104 74.9157,69.1604 74.9157,69.8694 C74.9157,70.5784 75.0597,71.1284 75.3487,71.5194 C75.6357,71.9104 76.0737,72.1044 76.6627,72.1044 M76.6627,66.7034 C77.1127,66.7034 77.5197,66.7764 77.8857,66.9234 C78.2497,67.0714 78.5597,67.2824 78.8147,67.5594 C79.0717,67.8334 79.2677,68.1664 79.4047,68.5544 C79.5417,68.9444 79.6097,69.3794 79.6097,69.8634 C79.6097,70.3474 79.5417,70.7844 79.4047,71.1744 C79.2677,71.5654 79.0717,71.8974 78.8147,72.1714 C78.5597,72.4454 78.2497,72.6554 77.8857,72.8034 C77.5197,72.9494 77.1127,73.0234 76.6627,73.0234 C76.2067,73.0234 75.7967,72.9494 75.4337,72.8034 C75.0667,72.6554 74.7567,72.4454 74.4987,72.1714 C74.2407,71.8974 74.0427,71.5654 73.9037,71.1744 C73.7647,70.7844 73.6957,70.3474 73.6957,69.8634 C73.6957,69.3794 73.7647,68.9444 73.9037,68.5544 C74.0427,68.1664 74.2407,67.8334 74.4987,67.5594 C74.7567,67.2824 75.0667,67.0714 75.4337,66.9234 C75.7967,66.7764 76.2067,66.7034 76.6627,66.7034" id="Fill-35" fill="#050302" mask="url(#mask-4)"></path>
                            <path d="M82.0269,67.6523 C82.1599,67.5113 82.2979,67.3813 82.4439,67.2653 C82.5889,67.1483 82.7429,67.0493 82.9069,66.9663 C83.0689,66.8833 83.2449,66.8193 83.4309,66.7733 C83.6189,66.7273 83.8199,66.7033 84.0339,66.7033 C84.3709,66.7033 84.6689,66.7593 84.9239,66.8733 C85.1799,66.9853 85.3949,67.1433 85.5679,67.3463 C85.7409,67.5503 85.8719,67.7953 85.9609,68.0813 C86.0489,68.3673 86.0929,68.6833 86.0929,69.0293 L86.0929,72.9393 L84.9089,72.9393 L84.9089,69.0293 C84.9089,68.5903 84.8089,68.2493 84.6069,68.0063 C84.4059,67.7613 84.0969,67.6403 83.6829,67.6403 C83.3809,67.6403 83.0969,67.7113 82.8349,67.8553 C82.5699,67.9983 82.3249,68.1913 82.0999,68.4383 L82.0999,72.9393 L80.9219,72.9393 L80.9219,66.8003 L81.6289,66.8003 C81.7939,66.8003 81.8959,66.8793 81.9359,67.0363 L82.0269,67.6523 Z" id="Fill-36" fill="#050302" mask="url(#mask-4)"></path>
                            <path d="M95.0357,67.9482 C94.9987,67.9922 94.9637,68.0272 94.9307,68.0532 C94.8947,68.0802 94.8457,68.0932 94.7817,68.0932 C94.7167,68.0932 94.6497,68.0672 94.5787,68.0182 C94.5087,67.9672 94.4207,67.9132 94.3127,67.8552 C94.2057,67.7962 94.0787,67.7412 93.9277,67.6912 C93.7757,67.6412 93.5897,67.6152 93.3677,67.6152 C93.0777,67.6152 92.8217,67.6682 92.6007,67.7722 C92.3797,67.8772 92.1947,68.0262 92.0477,68.2192 C91.8997,68.4132 91.7887,68.6492 91.7127,68.9272 C91.6357,69.2052 91.5977,69.5162 91.5977,69.8642 C91.5977,70.2222 91.6387,70.5412 91.7187,70.8212 C91.7987,71.1012 91.9137,71.3362 92.0627,71.5272 C92.2117,71.7192 92.3927,71.8652 92.6057,71.9632 C92.8197,72.0622 93.0567,72.1122 93.3197,72.1122 C93.5727,72.1122 93.7837,72.0802 93.9487,72.0172 C94.1127,71.9542 94.2507,71.8872 94.3587,71.8152 C94.4677,71.7422 94.5567,71.6752 94.6307,71.6122 C94.7037,71.5502 94.7767,71.5192 94.8547,71.5192 C94.9507,71.5192 95.0247,71.5552 95.0767,71.6282 L95.4167,72.0632 C95.2747,72.2362 95.1167,72.3832 94.9417,72.5032 C94.7657,72.6252 94.5797,72.7232 94.3827,72.8002 C94.1837,72.8762 93.9787,72.9332 93.7637,72.9692 C93.5477,73.0052 93.3307,73.0242 93.1077,73.0242 C92.7257,73.0242 92.3667,72.9532 92.0357,72.8112 C91.7027,72.6712 91.4147,72.4662 91.1707,72.1952 C90.9277,71.9262 90.7347,71.5942 90.5947,71.2012 C90.4527,70.8092 90.3827,70.3632 90.3827,69.8642 C90.3827,69.4082 90.4457,68.9882 90.5737,68.6012 C90.7007,68.2142 90.8877,67.8812 91.1357,67.6002 C91.3837,67.3202 91.6867,67.1012 92.0517,66.9422 C92.4137,66.7832 92.8277,66.7032 93.2947,66.7032 C93.7337,66.7032 94.1207,66.7742 94.4557,66.9142 C94.7887,67.0562 95.0877,67.2552 95.3487,67.5122 L95.0357,67.9482 Z" id="Fill-37" fill="#050302" mask="url(#mask-4)"></path>
                            <path d="M99.023,72.1044 C99.602,72.1044 100.036,71.9104 100.321,71.5194 C100.607,71.1284 100.751,70.5784 100.751,69.8694 C100.751,69.1604 100.607,68.6104 100.321,68.2174 C100.036,67.8244 99.602,67.6284 99.023,67.6284 C98.434,67.6284 97.997,67.8244 97.709,68.2174 C97.42,68.6104 97.276,69.1604 97.276,69.8694 C97.276,70.5784 97.42,71.1284 97.709,71.5194 C97.997,71.9104 98.434,72.1044 99.023,72.1044 M99.023,66.7034 C99.474,66.7034 99.88,66.7764 100.246,66.9234 C100.61,67.0714 100.92,67.2824 101.175,67.5594 C101.433,67.8334 101.628,68.1664 101.765,68.5544 C101.902,68.9444 101.971,69.3794 101.971,69.8634 C101.971,70.3474 101.902,70.7844 101.765,71.1744 C101.628,71.5654 101.433,71.8974 101.175,72.1714 C100.92,72.4454 100.61,72.6554 100.246,72.8034 C99.88,72.9494 99.474,73.0234 99.023,73.0234 C98.567,73.0234 98.157,72.9494 97.794,72.8034 C97.427,72.6554 97.117,72.4454 96.859,72.1714 C96.601,71.8974 96.403,71.5654 96.264,71.1744 C96.125,70.7844 96.056,70.3474 96.056,69.8634 C96.056,69.3794 96.125,68.9444 96.264,68.5544 C96.403,68.1664 96.601,67.8334 96.859,67.5594 C97.117,67.2824 97.427,67.0714 97.794,66.9234 C98.157,66.7764 98.567,66.7034 99.023,66.7034" id="Fill-38" fill="#050302" mask="url(#mask-4)"></path>
                            <path d="M103.2828,72.9389 L103.2828,66.7999 L103.9888,66.7999 C104.1538,66.7999 104.2578,66.8789 104.2988,67.0359 L104.3838,67.6219 C104.6068,67.3529 104.8588,67.1319 105.1338,66.9599 C105.4098,66.7899 105.7328,66.7029 106.1028,66.7029 C106.5108,66.7029 106.8418,66.8149 107.0958,67.0389 C107.3478,67.2629 107.5338,67.5659 107.6508,67.9479 C107.7388,67.7309 107.8548,67.5429 107.9958,67.3869 C108.1358,67.2299 108.2938,67.0999 108.4668,66.9999 C108.6388,66.8989 108.8248,66.8249 109.0188,66.7759 C109.2148,66.7279 109.4128,66.7029 109.6148,66.7029 C109.9408,66.7029 110.2318,66.7549 110.4878,66.8579 C110.7438,66.9599 110.9598,67.1099 111.1378,67.3079 C111.3148,67.5039 111.4498,67.7489 111.5418,68.0389 C111.6348,68.3279 111.6798,68.6589 111.6798,69.0289 L111.6798,72.9389 L110.4958,72.9389 L110.4958,69.0289 C110.4958,68.5699 110.3968,68.2249 110.1988,67.9909 C109.9978,67.7569 109.7078,67.6399 109.3248,67.6399 C109.1548,67.6399 108.9948,67.6699 108.8418,67.7279 C108.6878,67.7869 108.5538,67.8739 108.4398,67.9909 C108.3248,68.1069 108.2348,68.2529 108.1678,68.4249 C108.0998,68.5989 108.0668,68.7999 108.0668,69.0289 L108.0668,72.9389 L106.8838,72.9389 L106.8838,69.0289 C106.8838,68.5549 106.7878,68.2049 106.5988,67.9779 C106.4108,67.7519 106.1318,67.6399 105.7658,67.6399 C105.5118,67.6399 105.2758,67.7069 105.0578,67.8399 C104.8408,67.9719 104.6418,68.1539 104.4608,68.3839 L104.4608,72.9389 L103.2828,72.9389 Z" id="Fill-39" fill="#050302" mask="url(#mask-4)"></path>
                            <path d="M114.4478,71.4281 C114.6398,71.6821 114.8498,71.8591 115.0738,71.9601 C115.2968,72.0611 115.5468,72.1121 115.8248,72.1121 C116.3658,72.1121 116.7838,71.9171 117.0788,71.5271 C117.3758,71.1391 117.5228,70.5731 117.5228,69.8271 C117.5228,69.4361 117.4908,69.1031 117.4238,68.8271 C117.3568,68.5511 117.2608,68.3261 117.1328,68.1501 C117.0068,67.9751 116.8508,67.8461 116.6658,67.7641 C116.4798,67.6811 116.2708,67.6401 116.0378,67.6401 C115.6938,67.6401 115.3978,67.7171 115.1448,67.8691 C114.8938,68.0221 114.6618,68.2401 114.4478,68.5221 L114.4478,71.4281 Z M114.3878,67.7181 C114.5158,67.5661 114.6548,67.4261 114.8018,67.2981 C114.9488,67.1721 115.1058,67.0631 115.2748,66.9721 C115.4448,66.8811 115.6248,66.8121 115.8158,66.7611 C116.0078,66.7101 116.2128,66.6851 116.4288,66.6851 C116.7798,66.6851 117.0968,66.7541 117.3808,66.8911 C117.6648,67.0281 117.9078,67.2291 118.1098,67.4951 C118.3098,67.7611 118.4668,68.0891 118.5768,68.4791 C118.6878,68.8711 118.7438,69.3201 118.7438,69.8271 C118.7438,70.2821 118.6818,70.7041 118.5588,71.0931 C118.4368,71.4811 118.2608,71.8191 118.0348,72.1041 C117.8048,72.3911 117.5278,72.6151 117.1998,72.7781 C116.8718,72.9421 116.5028,73.0241 116.0928,73.0241 C115.7248,73.0241 115.4098,72.9621 115.1488,72.8421 C114.8868,72.7211 114.6528,72.5521 114.4478,72.3351 L114.4478,74.9991 L113.2688,74.9991 L113.2688,66.8001 L113.9768,66.8001 C114.1418,66.8001 114.2438,66.8791 114.2838,67.0361 L114.3878,67.7181 Z" id="Fill-40" fill="#050302" mask="url(#mask-4)"></path>
                            <path d="M121.1783,67.9779 C121.3763,67.5749 121.6143,67.2589 121.8913,67.0299 C122.1693,66.7999 122.5043,66.6859 122.8943,66.6859 C123.0273,66.6859 123.1543,66.7009 123.2723,66.7299 C123.3913,66.7609 123.4943,66.8059 123.5833,66.8659 L123.5053,67.7549 C123.4773,67.8629 123.4103,67.9169 123.3063,67.9169 C123.2493,67.9169 123.1643,67.9069 123.0523,67.8849 C122.9393,67.8619 122.8193,67.8519 122.6893,67.8519 C122.4993,67.8519 122.3323,67.8789 122.1883,67.9329 C122.0413,67.9869 121.9113,68.0669 121.7983,68.1749 C121.6833,68.2809 121.5813,68.4119 121.4923,68.5679 C121.4053,68.7229 121.3223,68.8979 121.2453,69.0969 L121.2453,72.9389 L120.0663,72.9389 L120.0663,66.7999 L120.7433,66.7999 C120.8723,66.7999 120.9603,66.8239 121.0053,66.8699 C121.0533,66.9159 121.0863,66.9969 121.1063,67.1139 L121.1783,67.9779 Z" id="Fill-41" fill="#050302" mask="url(#mask-4)"></path>
                            <path d="M127.6998,70.2143 C127.2198,70.2303 126.8118,70.2673 126.4778,70.3263 C126.1438,70.3843 125.8728,70.4623 125.6628,70.5583 C125.4528,70.6553 125.3018,70.7683 125.2098,70.9003 C125.1178,71.0303 125.0698,71.1773 125.0698,71.3373 C125.0698,71.4913 125.0958,71.6233 125.1458,71.7343 C125.1958,71.8433 125.2648,71.9343 125.3508,72.0053 C125.4378,72.0763 125.5398,72.1273 125.6568,72.1603 C125.7728,72.1923 125.9008,72.2073 126.0378,72.2073 C126.2188,72.2073 126.3848,72.1893 126.5358,72.1523 C126.6868,72.1173 126.8288,72.0663 126.9618,71.9993 C127.0958,71.9333 127.2208,71.8513 127.3438,71.7543 C127.4638,71.6583 127.5818,71.5473 127.6998,71.4223 L127.6998,70.2143 Z M124.2428,67.6583 C124.5858,67.3323 124.9568,67.0883 125.3578,66.9273 C125.7588,66.7663 126.1978,66.6853 126.6778,66.6853 C127.0278,66.6853 127.3388,66.7423 127.6068,66.8583 C127.8788,66.9723 128.1048,67.1323 128.2908,67.3383 C128.4758,67.5433 128.6158,67.7893 128.7108,68.0743 C128.8048,68.3613 128.8528,68.6773 128.8528,69.0233 L128.8528,72.9393 L128.3268,72.9393 C128.2108,72.9393 128.1218,72.9203 128.0598,72.8813 C128.0018,72.8433 127.9518,72.7713 127.9168,72.6673 L127.7888,72.1293 C127.6328,72.2743 127.4768,72.4023 127.3238,72.5133 C127.1708,72.6243 127.0108,72.7183 126.8438,72.7973 C126.6778,72.8753 126.4978,72.9353 126.3088,72.9753 C126.1208,73.0153 125.9108,73.0353 125.6808,73.0353 C125.4378,73.0353 125.2118,73.0033 125.0018,72.9353 C124.7898,72.8693 124.6048,72.7683 124.4478,72.6313 C124.2918,72.4943 124.1678,72.3223 124.0768,72.1173 C123.9858,71.9123 123.9408,71.6723 123.9408,71.3983 C123.9408,71.1573 124.0058,70.9233 124.1368,70.7003 C124.2668,70.4773 124.4808,70.2763 124.7768,70.0993 C125.0738,69.9213 125.4598,69.7773 125.9368,69.6643 C126.4158,69.5503 127.0018,69.4873 127.6998,69.4703 L127.6998,69.0233 C127.6998,68.5613 127.5998,68.2143 127.4018,67.9853 C127.2058,67.7553 126.9158,67.6403 126.5338,67.6403 C126.2748,67.6403 126.0588,67.6723 125.8838,67.7373 C125.7078,67.8003 125.5558,67.8733 125.4298,67.9503 C125.3038,68.0293 125.1928,68.1013 125.0978,68.1653 C125.0028,68.2303 124.9048,68.2623 124.8038,68.2623 C124.7228,68.2623 124.6548,68.2393 124.5958,68.1963 C124.5378,68.1513 124.4898,68.0993 124.4538,68.0393 L124.2428,67.6583 Z" id="Fill-42" fill="#050302" mask="url(#mask-4)"></path>
                            <path d="M224.4508,21.4467 C224.5128,21.0427 224.6248,20.6887 224.7898,20.3827 C224.9548,20.0767 225.1628,19.8207 225.4118,19.6127 C225.6618,19.4047 225.9498,19.2487 226.2728,19.1437 C226.5968,19.0387 226.9468,18.9877 227.3208,18.9877 C227.6958,18.9877 228.0408,19.0407 228.3548,19.1467 C228.6688,19.2537 228.9368,19.4047 229.1618,19.5997 C229.3848,19.7957 229.5578,20.0297 229.6828,20.3037 C229.8078,20.5777 229.8708,20.8807 229.8708,21.2107 C229.8708,21.4877 229.8368,21.7347 229.7678,21.9477 C229.6998,22.1617 229.6018,22.3477 229.4758,22.5097 C229.3478,22.6707 229.1948,22.8057 229.0128,22.9167 C228.8318,23.0277 228.6288,23.1197 228.4028,23.1917 C228.9538,23.3447 229.3698,23.5937 229.6478,23.9387 C229.9258,24.2817 230.0648,24.7187 230.0648,25.2467 C230.0648,25.6537 229.9878,26.0197 229.8348,26.3427 C229.6808,26.6677 229.4718,26.9407 229.2068,27.1657 C228.9398,27.3877 228.6308,27.5597 228.2788,27.6787 C227.9268,27.7977 227.5518,27.8567 227.1518,27.8567 C226.6978,27.8567 226.3058,27.8007 225.9798,27.6907 C225.6548,27.5797 225.3758,27.4247 225.1458,27.2257 C224.9158,27.0257 224.7268,26.7867 224.5758,26.5067 C224.4248,26.2257 224.2968,25.9187 224.1908,25.5847 L224.7058,25.3667 C224.8378,25.3117 224.9678,25.2947 225.0918,25.3197 C225.2168,25.3427 225.3068,25.4137 225.3638,25.5307 C225.4238,25.6517 225.4938,25.7867 225.5718,25.9377 C225.6498,26.0887 225.7568,26.2327 225.8888,26.3677 C226.0228,26.5017 226.1878,26.6167 226.3878,26.7087 C226.5868,26.8017 226.8388,26.8477 227.1398,26.8477 C227.4298,26.8477 227.6838,26.8007 227.9008,26.7057 C228.1188,26.6107 228.3008,26.4877 228.4438,26.3367 C228.5908,26.1857 228.6988,26.0177 228.7708,25.8327 C228.8438,25.6477 228.8808,25.4637 228.8808,25.2827 C228.8808,25.0577 228.8518,24.8497 228.7958,24.6597 C228.7388,24.4707 228.6308,24.3097 228.4718,24.1737 C228.3128,24.0387 228.0928,23.9327 227.8098,23.8567 C227.5288,23.7807 227.1628,23.7417 226.7118,23.7417 L226.7118,22.8837 C227.0828,22.8807 227.3938,22.8417 227.6508,22.7697 C227.9058,22.6967 228.1128,22.5957 228.2698,22.4677 C228.4278,22.3387 228.5408,22.1857 228.6118,22.0087 C228.6808,21.8307 228.7168,21.6327 228.7168,21.4157 C228.7168,21.1787 228.6798,20.9707 228.6078,20.7937 C228.5368,20.6157 228.4348,20.4677 228.3028,20.3487 C228.1728,20.2307 228.0168,20.1427 227.8378,20.0837 C227.6588,20.0257 227.4648,19.9957 227.2548,19.9957 C227.0448,19.9957 226.8508,20.0257 226.6748,20.0867 C226.4968,20.1477 226.3408,20.2307 226.2038,20.3407 C226.0658,20.4487 225.9518,20.5777 225.8598,20.7267 C225.7658,20.8767 225.6998,21.0367 225.6588,21.2107 C225.6018,21.3637 225.5318,21.4667 225.4448,21.5187 C225.3578,21.5707 225.2338,21.5837 225.0738,21.5547 L224.4508,21.4467 Z" id="Fill-43" fill="#050302" mask="url(#mask-4)"></path>
                            <path d="M232.4928,21.6459 C232.4928,22.1819 232.6388,22.5939 232.9288,22.8839 C233.2198,23.1739 233.6198,23.3189 234.1378,23.3189 C234.4148,23.3189 234.6598,23.2729 234.8738,23.1839 C235.0878,23.0929 235.2668,22.9709 235.4138,22.8199 C235.5608,22.6689 235.6738,22.4949 235.7488,22.2949 C235.8268,22.0959 235.8648,21.8869 235.8648,21.6689 C235.8648,21.4079 235.8238,21.1709 235.7408,20.9589 C235.6578,20.7479 235.5418,20.5679 235.3928,20.4219 C235.2438,20.2749 235.0678,20.1629 234.8638,20.0839 C234.6608,20.0039 234.4368,19.9649 234.1908,19.9649 C233.9358,19.9649 233.7048,20.0069 233.4968,20.0889 C233.2878,20.1719 233.1078,20.2879 232.9588,20.4379 C232.8088,20.5859 232.6948,20.7629 232.6148,20.9689 C232.5338,21.1739 232.4928,21.3989 232.4928,21.6459 Z M234.8738,24.3289 C235.0318,24.1229 235.1788,23.9209 235.3148,23.7239 C235.0968,23.8889 234.8538,24.0149 234.5868,24.0979 C234.3188,24.1829 234.0328,24.2259 233.7308,24.2259 C233.4138,24.2259 233.1078,24.1709 232.8168,24.0629 C232.5248,23.9529 232.2658,23.7939 232.0438,23.5829 C231.8188,23.3699 231.6408,23.1089 231.5078,22.7989 C231.3758,22.4899 231.3088,22.1329 231.3088,21.7299 C231.3088,21.3509 231.3798,20.9949 231.5188,20.6609 C231.6618,20.3269 231.8598,20.0349 232.1158,19.7879 C232.3718,19.5399 232.6778,19.3449 233.0338,19.2019 C233.3898,19.0579 233.7818,18.9869 234.2088,18.9869 C234.6328,18.9869 235.0148,19.0559 235.3598,19.1919 C235.7048,19.3299 235.9968,19.5219 236.2398,19.7699 C236.4808,20.0179 236.6688,20.3129 236.8018,20.6609 C236.9338,21.0079 236.9998,21.3879 236.9998,21.8029 C236.9998,22.0569 236.9758,22.2989 236.9308,22.5269 C236.8848,22.7579 236.8178,22.9799 236.7308,23.1979 C236.6448,23.4159 236.5398,23.6299 236.4168,23.8419 C236.2948,24.0529 236.1548,24.2699 235.9968,24.4909 L233.9128,27.4809 C233.8558,27.5629 233.7748,27.6289 233.6678,27.6809 C233.5608,27.7339 233.4398,27.7599 233.3028,27.7599 L232.2208,27.7599 L234.8738,24.3289 Z" id="Fill-44" fill="#050302" mask="url(#mask-4)"></path>
                            <path d="M224.4508,66.6254 C224.5128,66.2214 224.6248,65.8674 224.7898,65.5614 C224.9548,65.2554 225.1628,64.9994 225.4118,64.7914 C225.6618,64.5834 225.9498,64.4284 226.2728,64.3234 C226.5968,64.2184 226.9468,64.1664 227.3208,64.1664 C227.6958,64.1664 228.0408,64.2194 228.3548,64.3254 C228.6688,64.4324 228.9368,64.5834 229.1618,64.7784 C229.3848,64.9744 229.5578,65.2094 229.6828,65.4824 C229.8078,65.7564 229.8708,66.0594 229.8708,66.3894 C229.8708,66.6664 229.8368,66.9134 229.7678,67.1264 C229.6998,67.3404 229.6018,67.5264 229.4758,67.6884 C229.3478,67.8494 229.1948,67.9844 229.0128,68.0954 C228.8318,68.2064 228.6288,68.2984 228.4028,68.3704 C228.9538,68.5244 229.3698,68.7734 229.6478,69.1174 C229.9258,69.4614 230.0648,69.8974 230.0648,70.4254 C230.0648,70.8324 229.9878,71.1984 229.8348,71.5214 C229.6808,71.8464 229.4718,72.1204 229.2068,72.3444 C228.9398,72.5674 228.6308,72.7384 228.2788,72.8574 C227.9268,72.9764 227.5518,73.0354 227.1518,73.0354 C226.6978,73.0354 226.3058,72.9804 225.9798,72.8694 C225.6548,72.7584 225.3758,72.6044 225.1458,72.4044 C224.9158,72.2054 224.7268,71.9654 224.5758,71.6854 C224.4248,71.4044 224.2968,71.0984 224.1908,70.7644 L224.7058,70.5454 C224.8378,70.4904 224.9678,70.4734 225.0918,70.4984 C225.2168,70.5214 225.3068,70.5924 225.3638,70.7094 C225.4238,70.8304 225.4938,70.9654 225.5718,71.1164 C225.6498,71.2684 225.7568,71.4124 225.8888,71.5464 C226.0228,71.6814 226.1878,71.7954 226.3878,71.8874 C226.5868,71.9804 226.8388,72.0264 227.1398,72.0264 C227.4298,72.0264 227.6838,71.9794 227.9008,71.8854 C228.1188,71.7894 228.3008,71.6674 228.4438,71.5154 C228.5908,71.3644 228.6988,71.1974 228.7708,71.0114 C228.8438,70.8264 228.8808,70.6424 228.8808,70.4614 C228.8808,70.2364 228.8518,70.0284 228.7958,69.8384 C228.7388,69.6494 228.6308,69.4884 228.4718,69.3524 C228.3128,69.2184 228.0928,69.1114 227.8098,69.0354 C227.5288,68.9594 227.1628,68.9204 226.7118,68.9204 L226.7118,68.0624 C227.0828,68.0594 227.3938,68.0204 227.6508,67.9484 C227.9058,67.8754 228.1128,67.7744 228.2698,67.6464 C228.4278,67.5174 228.5408,67.3644 228.6118,67.1874 C228.6808,67.0104 228.7168,66.8124 228.7168,66.5944 C228.7168,66.3574 228.6798,66.1494 228.6078,65.9724 C228.5368,65.7944 228.4348,65.6464 228.3028,65.5274 C228.1728,65.4104 228.0168,65.3214 227.8378,65.2624 C227.6588,65.2044 227.4648,65.1754 227.2548,65.1754 C227.0448,65.1754 226.8508,65.2044 226.6748,65.2664 C226.4968,65.3264 226.3408,65.4104 226.2038,65.5194 C226.0658,65.6284 225.9518,65.7564 225.8598,65.9054 C225.7658,66.0554 225.6998,66.2154 225.6588,66.3894 C225.6018,66.5424 225.5318,66.6454 225.4448,66.6974 C225.3578,66.7494 225.2338,66.7624 225.0738,66.7334 L224.4508,66.6254 Z" id="Fill-45" fill="#050302" mask="url(#mask-4)"></path>
                            <path d="M232.4928,66.8246 C232.4928,67.3606 232.6388,67.7726 232.9288,68.0626 C233.2198,68.3526 233.6198,68.4976 234.1378,68.4976 C234.4148,68.4976 234.6598,68.4516 234.8738,68.3626 C235.0878,68.2716 235.2668,68.1496 235.4138,67.9986 C235.5608,67.8476 235.6738,67.6736 235.7488,67.4736 C235.8268,67.2746 235.8648,67.0656 235.8648,66.8486 C235.8648,66.5866 235.8238,66.3506 235.7408,66.1376 C235.6578,65.9266 235.5418,65.7476 235.3928,65.6006 C235.2438,65.4536 235.0678,65.3416 234.8638,65.2626 C234.6608,65.1836 234.4368,65.1446 234.1908,65.1446 C233.9358,65.1446 233.7048,65.1856 233.4968,65.2686 C233.2878,65.3506 233.1078,65.4666 232.9588,65.6166 C232.8088,65.7646 232.6948,65.9426 232.6148,66.1476 C232.5338,66.3526 232.4928,66.5776 232.4928,66.8246 Z M234.8738,69.5076 C235.0318,69.3016 235.1788,69.0996 235.3148,68.9026 C235.0968,69.0686 234.8538,69.1936 234.5868,69.2776 C234.3188,69.3626 234.0328,69.4046 233.7308,69.4046 C233.4138,69.4046 233.1078,69.3496 232.8168,69.2416 C232.5248,69.1316 232.2658,68.9726 232.0438,68.7616 C231.8188,68.5486 231.6408,68.2876 231.5078,67.9776 C231.3758,67.6686 231.3088,67.3126 231.3088,66.9086 C231.3088,66.5296 231.3798,66.1736 231.5188,65.8396 C231.6618,65.5056 231.8598,65.2136 232.1158,64.9666 C232.3718,64.7186 232.6778,64.5236 233.0338,64.3806 C233.3898,64.2366 233.7818,64.1656 234.2088,64.1656 C234.6328,64.1656 235.0148,64.2346 235.3598,64.3716 C235.7048,64.5086 235.9968,64.7006 236.2398,64.9486 C236.4808,65.1966 236.6688,65.4926 236.8018,65.8396 C236.9338,66.1866 236.9998,66.5666 236.9998,66.9816 C236.9998,67.2356 236.9758,67.4776 236.9308,67.7066 C236.8848,67.9366 236.8178,68.1596 236.7308,68.3766 C236.6448,68.5956 236.5398,68.8086 236.4168,69.0206 C236.2948,69.2326 236.1548,69.4486 235.9968,69.6696 L233.9128,72.6606 C233.8558,72.7416 233.7748,72.8076 233.6678,72.8596 C233.5608,72.9126 233.4398,72.9386 233.3028,72.9386 L232.2208,72.9386 L234.8738,69.5076 Z" id="Fill-46" fill="#050302" mask="url(#mask-4)"></path>
                            <path d="M289.1177,133.9506 L2.5137,133.9506 C1.6667,133.9506 0.9787,133.2636 0.9787,132.4156 L0.9787,96.6006 C0.9787,95.7526 1.6667,95.0656 2.5137,95.0656 L289.1177,95.0656 C289.9657,95.0656 290.6527,95.7526 290.6527,96.6006 L290.6527,132.4156 C290.6527,133.2636 289.9657,133.9506 289.1177,133.9506" id="Fill-47" fill="#FFFFFF" mask="url(#mask-4)"></path>
                            <path d="M225.6207,117.1986 L225.6207,118.0986 L220.9327,118.0986 L220.9327,117.1986 L222.7677,117.1986 L222.7677,111.5126 C222.7677,111.3316 222.7747,111.1446 222.7867,110.9506 L221.3117,112.2016 C221.2557,112.2456 221.1997,112.2736 221.1427,112.2866 C221.0877,112.2986 221.0327,112.3016 220.9837,112.2926 C220.9337,112.2846 220.8897,112.2666 220.8497,112.2406 C220.8107,112.2146 220.7807,112.1876 220.7577,112.1596 L220.3877,111.6456 L222.9857,109.4036 L223.9467,109.4036 L223.9467,117.1986 L225.6207,117.1986 Z" id="Fill-48" fill="#050302" mask="url(#mask-4)"></path>
                            <path d="M231.8922,113.7607 C231.8922,113.1087 231.8382,112.5617 231.7322,112.1227 C231.6252,111.6837 231.4822,111.3307 231.3022,111.0627 C231.1222,110.7957 230.9172,110.6057 230.6842,110.4917 C230.4512,110.3787 230.2062,110.3227 229.9532,110.3227 C229.6992,110.3227 229.4542,110.3787 229.2202,110.4917 C228.9872,110.6057 228.7822,110.7957 228.6022,111.0627 C228.4232,111.3307 228.2822,111.6837 228.1752,112.1227 C228.0712,112.5617 228.0192,113.1087 228.0192,113.7607 C228.0192,114.4137 228.0712,114.9587 228.1752,115.3977 C228.2822,115.8367 228.4232,116.1897 228.6022,116.4547 C228.7822,116.7217 228.9872,116.9107 229.2202,117.0237 C229.4542,117.1357 229.6992,117.1927 229.9532,117.1927 C230.2062,117.1927 230.4512,117.1357 230.6842,117.0237 C230.9172,116.9107 231.1222,116.7217 231.3022,116.4547 C231.4822,116.1897 231.6252,115.8367 231.7322,115.3977 C231.8382,114.9587 231.8922,114.4137 231.8922,113.7607 M233.1132,113.7607 C233.1132,114.5187 233.0302,115.1747 232.8682,115.7307 C232.7042,116.2857 232.4802,116.7467 232.1972,117.1117 C231.9132,117.4757 231.5792,117.7457 231.1942,117.9247 C230.8092,118.1007 230.3962,118.1897 229.9532,118.1897 C229.5082,118.1897 229.0952,118.1007 228.7102,117.9247 C228.3272,117.7457 227.9942,117.4757 227.7102,117.1117 C227.4292,116.7467 227.2072,116.2857 227.0472,115.7307 C226.8842,115.1747 226.8042,114.5187 226.8042,113.7607 C226.8042,113.0037 226.8842,112.3457 227.0472,111.7877 C227.2072,111.2297 227.4292,110.7697 227.7102,110.4047 C227.9942,110.0397 228.3272,109.7687 228.7102,109.5917 C229.0952,109.4147 229.5082,109.3257 229.9532,109.3257 C230.3962,109.3257 230.8092,109.4147 231.1942,109.5917 C231.5792,109.7687 231.9132,110.0397 232.1972,110.4047 C232.4802,110.7697 232.7042,111.2297 232.8682,111.7877 C233.0302,112.3457 233.1132,113.0037 233.1132,113.7607" id="Fill-49" fill="#050302" mask="url(#mask-4)"></path>
                            <path d="M238.9,113.7607 C238.9,113.1087 238.847,112.5617 238.741,112.1227 C238.633,111.6837 238.491,111.3307 238.312,111.0627 C238.132,110.7957 237.925,110.6057 237.692,110.4917 C237.458,110.3787 237.214,110.3227 236.962,110.3227 C236.708,110.3227 236.464,110.3787 236.231,110.4917 C235.997,110.6057 235.79,110.7957 235.61,111.0627 C235.43,111.3307 235.289,111.6837 235.185,112.1227 C235.08,112.5617 235.027,113.1087 235.027,113.7607 C235.027,114.4137 235.08,114.9587 235.185,115.3977 C235.289,115.8367 235.43,116.1897 235.61,116.4547 C235.79,116.7217 235.997,116.9107 236.231,117.0237 C236.464,117.1357 236.708,117.1927 236.962,117.1927 C237.214,117.1927 237.458,117.1357 237.692,117.0237 C237.925,116.9107 238.132,116.7217 238.312,116.4547 C238.491,116.1897 238.633,115.8367 238.741,115.3977 C238.847,114.9587 238.9,114.4137 238.9,113.7607 M240.12,113.7607 C240.12,114.5187 240.04,115.1747 239.878,115.7307 C239.713,116.2857 239.49,116.7467 239.206,117.1117 C238.921,117.4757 238.588,117.7457 238.203,117.9247 C237.818,118.1007 237.404,118.1897 236.962,118.1897 C236.518,118.1897 236.103,118.1007 235.719,117.9247 C235.335,117.7457 235.001,117.4757 234.72,117.1117 C234.437,116.7467 234.215,116.2857 234.054,115.7307 C233.894,115.1747 233.814,114.5187 233.814,113.7607 C233.814,113.0037 233.894,112.3457 234.054,111.7877 C234.215,111.2297 234.437,110.7697 234.72,110.4047 C235.001,110.0397 235.335,109.7687 235.719,109.5917 C236.103,109.4147 236.518,109.3257 236.962,109.3257 C237.404,109.3257 237.818,109.4147 238.203,109.5917 C238.588,109.7687 238.921,110.0397 239.206,110.4047 C239.49,110.7697 239.713,111.2297 239.878,111.7877 C240.04,112.3457 240.12,113.0037 240.12,113.7607" id="Fill-50" fill="#050302" mask="url(#mask-4)"></path>
                            <path d="M248.7799,116.0502 C248.7799,115.7932 248.7519,115.5752 248.6969,115.3972 C248.6429,115.2202 248.5699,115.0762 248.4769,114.9662 C248.3839,114.8552 248.2759,114.7742 248.1509,114.7232 C248.0259,114.6742 247.8919,114.6482 247.7519,114.6482 C247.6069,114.6482 247.4719,114.6742 247.3489,114.7232 C247.2269,114.7742 247.1209,114.8552 247.0309,114.9662 C246.9389,115.0762 246.8679,115.2202 246.8159,115.3972 C246.7629,115.5752 246.7369,115.7932 246.7369,116.0502 C246.7369,116.3042 246.7629,116.5172 246.8159,116.6912 C246.8679,116.8642 246.9389,117.0052 247.0309,117.1132 C247.1209,117.2232 247.2269,117.3012 247.3489,117.3492 C247.4719,117.3982 247.6069,117.4232 247.7519,117.4232 C247.8919,117.4232 248.0259,117.3982 248.1509,117.3492 C248.2759,117.3012 248.3839,117.2232 248.4769,117.1132 C248.5699,117.0052 248.6429,116.8642 248.6969,116.6912 C248.7519,116.5172 248.7799,116.3042 248.7799,116.0502 Z M249.6979,116.0502 C249.6979,116.3892 249.6429,116.6912 249.5379,116.9562 C249.4309,117.2232 249.2899,117.4472 249.1109,117.6302 C248.9339,117.8142 248.7279,117.9552 248.4919,118.0542 C248.2559,118.1522 248.0099,118.2012 247.7519,118.2012 C247.4739,118.2012 247.2179,118.1522 246.9809,118.0542 C246.7459,117.9552 246.5429,117.8142 246.3679,117.6302 C246.1949,117.4472 246.0579,117.2232 245.9609,116.9562 C245.8629,116.6912 245.8129,116.3892 245.8129,116.0502 C245.8129,115.7042 245.8629,115.3962 245.9609,115.1262 C246.0579,114.8562 246.1949,114.6282 246.3679,114.4402 C246.5429,114.2532 246.7459,114.1112 246.9809,114.0142 C247.2179,113.9182 247.4739,113.8692 247.7519,113.8692 C248.0289,113.8692 248.2869,113.9182 248.5219,114.0142 C248.7589,114.1112 248.9639,114.2532 249.1379,114.4402 C249.3129,114.6282 249.4499,114.8562 249.5499,115.1262 C249.6479,115.3962 249.6979,115.7042 249.6979,116.0502 Z M243.9509,111.5182 C243.9509,111.2612 243.9249,111.0432 243.8709,110.8632 C243.8159,110.6842 243.7419,110.5392 243.6489,110.4282 C243.5559,110.3172 243.4479,110.2372 243.3229,110.1862 C243.1979,110.1362 243.0659,110.1112 242.9249,110.1112 C242.7829,110.1112 242.6499,110.1362 242.5249,110.1862 C242.3999,110.2372 242.2929,110.3172 242.2019,110.4282 C242.1119,110.5392 242.0409,110.6842 241.9869,110.8632 C241.9349,111.0432 241.9089,111.2612 241.9089,111.5182 C241.9089,111.7692 241.9349,111.9812 241.9869,112.1552 C242.0409,112.3322 242.1119,112.4732 242.2019,112.5822 C242.2929,112.6922 242.3999,112.7692 242.5249,112.8182 C242.6499,112.8662 242.7829,112.8912 242.9249,112.8912 C243.0659,112.8912 243.1979,112.8662 243.3229,112.8182 C243.4479,112.7692 243.5559,112.6922 243.6489,112.5822 C243.7419,112.4732 243.8159,112.3322 243.8709,112.1552 C243.9249,111.9812 243.9509,111.7692 243.9509,111.5182 Z M247.8909,109.6162 C247.9349,109.5632 247.9869,109.5182 248.0459,109.4792 C248.1029,109.4422 248.1849,109.4232 248.2899,109.4232 L249.1409,109.4232 L242.7729,117.9112 C242.7279,117.9672 242.6759,118.0142 242.6159,118.0472 C242.5559,118.0822 242.4829,118.0992 242.3989,118.0992 L241.5219,118.0992 L247.8909,109.6162 Z M244.8699,111.5182 C244.8699,111.8572 244.8169,112.1592 244.7099,112.4252 C244.6019,112.6922 244.4609,112.9162 244.2839,113.0982 C244.1069,113.2832 243.8999,113.4232 243.6659,113.5222 C243.4289,113.6202 243.1809,113.6702 242.9249,113.6702 C242.6449,113.6702 242.3889,113.6202 242.1549,113.5222 C241.9189,113.4232 241.7139,113.2832 241.5409,113.0982 C241.3679,112.9162 241.2319,112.6922 241.1329,112.4252 C241.0339,112.1592 240.9839,111.8572 240.9839,111.5182 C240.9839,111.1732 241.0339,110.8642 241.1329,110.5942 C241.2319,110.3242 241.3679,110.0962 241.5409,109.9092 C241.7139,109.7212 241.9189,109.5782 242.1549,109.4792 C242.3889,109.3812 242.6449,109.3322 242.9249,109.3322 C243.2029,109.3322 243.4599,109.3812 243.6949,109.4792 C243.9289,109.5782 244.1359,109.7212 244.3119,109.9092 C244.4869,110.0962 244.6239,110.3242 244.7219,110.5942 C244.8209,110.8642 244.8699,111.1732 244.8699,111.5182 Z" id="Fill-51" fill="#050302" mask="url(#mask-4)"></path>
                            <path d="M29.8541,116.1708 C29.8541,115.9138 29.8271,115.6958 29.7721,115.5178 C29.7181,115.3408 29.6451,115.1968 29.5511,115.0858 C29.4581,114.9748 29.3501,114.8948 29.2251,114.8438 C29.1001,114.7948 28.9671,114.7688 28.8261,114.7688 C28.6821,114.7688 28.5471,114.7948 28.4241,114.8438 C28.3021,114.8948 28.1961,114.9748 28.1051,115.0858 C28.0141,115.1968 27.9431,115.3408 27.8901,115.5178 C27.8371,115.6958 27.8111,115.9138 27.8111,116.1708 C27.8111,116.4238 27.8371,116.6378 27.8901,116.8118 C27.9431,116.9848 28.0141,117.1258 28.1051,117.2338 C28.1961,117.3438 28.3021,117.4208 28.4241,117.4698 C28.5471,117.5188 28.6821,117.5428 28.8261,117.5428 C28.9671,117.5428 29.1001,117.5188 29.2251,117.4698 C29.3501,117.4208 29.4581,117.3438 29.5511,117.2338 C29.6451,117.1258 29.7181,116.9848 29.7721,116.8118 C29.8271,116.6378 29.8541,116.4238 29.8541,116.1708 Z M30.7721,116.1708 C30.7721,116.5088 30.7191,116.8118 30.6131,117.0768 C30.5051,117.3438 30.3641,117.5678 30.1851,117.7508 C30.0081,117.9348 29.8031,118.0748 29.5671,118.1738 C29.3311,118.2728 29.0841,118.3218 28.8261,118.3218 C28.5481,118.3218 28.2921,118.2728 28.0561,118.1738 C27.8211,118.0748 27.6171,117.9348 27.4431,117.7508 C27.2711,117.5678 27.1331,117.3438 27.0351,117.0768 C26.9371,116.8118 26.8871,116.5088 26.8871,116.1708 C26.8871,115.8248 26.9371,115.5168 27.0351,115.2468 C27.1331,114.9768 27.2711,114.7488 27.4431,114.5608 C27.6171,114.3738 27.8211,114.2318 28.0561,114.1348 C28.2921,114.0378 28.5481,113.9898 28.8261,113.9898 C29.1041,113.9898 29.3621,114.0378 29.5981,114.1348 C29.8331,114.2318 30.0381,114.3738 30.2131,114.5608 C30.3881,114.7488 30.5251,114.9768 30.6251,115.2468 C30.7231,115.5168 30.7721,115.8248 30.7721,116.1708 Z M25.0261,111.6388 C25.0261,111.3818 24.9991,111.1638 24.9451,110.9838 C24.8901,110.8048 24.8161,110.6598 24.7241,110.5488 C24.6321,110.4378 24.5231,110.3578 24.3981,110.3068 C24.2731,110.2568 24.1401,110.2318 24.0001,110.2318 C23.8581,110.2318 23.7251,110.2568 23.6001,110.3068 C23.4751,110.3578 23.3671,110.4378 23.2771,110.5488 C23.1861,110.6598 23.1151,110.8048 23.0621,110.9838 C23.0101,111.1638 22.9851,111.3818 22.9851,111.6388 C22.9851,111.8888 23.0101,112.1018 23.0621,112.2758 C23.1151,112.4518 23.1861,112.5938 23.2771,112.7018 C23.3671,112.8118 23.4751,112.8898 23.6001,112.9388 C23.7251,112.9868 23.8581,113.0118 24.0001,113.0118 C24.1401,113.0118 24.2731,112.9868 24.3981,112.9388 C24.5231,112.8898 24.6321,112.8118 24.7241,112.7018 C24.8161,112.5938 24.8901,112.4518 24.9451,112.2758 C24.9991,112.1018 25.0261,111.8888 25.0261,111.6388 Z M28.9651,109.7368 C29.0101,109.6838 29.0621,109.6388 29.1201,109.5998 C29.1771,109.5618 29.2601,109.5438 29.3641,109.5438 L30.2161,109.5438 L23.8481,118.0318 C23.8031,118.0878 23.7511,118.1338 23.6901,118.1678 C23.6311,118.2028 23.5581,118.2188 23.4731,118.2188 L22.5971,118.2188 L28.9651,109.7368 Z M25.9441,111.6388 C25.9441,111.9778 25.8911,112.2798 25.7841,112.5458 C25.6771,112.8118 25.5361,113.0358 25.3591,113.2188 C25.1821,113.4028 24.9741,113.5438 24.7401,113.6428 C24.5031,113.7408 24.2561,113.7908 24.0001,113.7908 C23.7211,113.7908 23.4631,113.7408 23.2291,113.6428 C22.9931,113.5438 22.7891,113.4028 22.6151,113.2188 C22.4421,113.0358 22.3061,112.8118 22.2081,112.5458 C22.1091,112.2798 22.0591,111.9778 22.0591,111.6388 C22.0591,111.2938 22.1091,110.9848 22.2081,110.7148 C22.3061,110.4448 22.4421,110.2168 22.6151,110.0288 C22.7891,109.8418 22.9931,109.6988 23.2291,109.5998 C23.4631,109.5018 23.7211,109.4518 24.0001,109.4518 C24.2771,109.4518 24.5341,109.5018 24.7691,109.5998 C25.0041,109.6988 25.2101,109.8418 25.3861,110.0288 C25.5611,110.2168 25.6981,110.4448 25.7961,110.7148 C25.8951,110.9848 25.9441,111.2938 25.9441,111.6388 Z" id="Fill-52" fill="#050302" mask="url(#mask-4)"></path>
                            <path d="M39.231,114.4667 C39.231,114.2337 39.198,114.0177 39.13,113.8207 C39.065,113.6227 38.967,113.4517 38.838,113.3067 C38.71,113.1627 38.552,113.0497 38.367,112.9687 C38.182,112.8877 37.968,112.8477 37.726,112.8477 C37.231,112.8477 36.841,112.9917 36.558,113.2767 C36.274,113.5627 36.093,113.9587 36.017,114.4667 L39.231,114.4667 Z M40.205,117.3437 C40.058,117.5117 39.892,117.6587 39.702,117.7807 C39.513,117.9047 39.312,118.0037 39.097,118.0797 C38.885,118.1567 38.664,118.2137 38.437,118.2497 C38.209,118.2847 37.984,118.3037 37.763,118.3037 C37.339,118.3037 36.948,118.2327 36.587,118.0897 C36.227,117.9467 35.915,117.7367 35.652,117.4607 C35.387,117.1857 35.182,116.8427 35.036,116.4337 C34.887,116.0257 34.814,115.5547 34.814,115.0237 C34.814,114.5957 34.881,114.1987 35.014,113.8287 C35.147,113.4607 35.337,113.1397 35.585,112.8657 C35.833,112.5927 36.135,112.3767 36.495,112.2197 C36.853,112.0627 37.255,111.9837 37.703,111.9837 C38.078,111.9837 38.422,112.0447 38.739,112.1677 C39.055,112.2907 39.328,112.4697 39.558,112.7017 C39.787,112.9357 39.967,113.2247 40.098,113.5677 C40.229,113.9097 40.294,114.2997 40.294,114.7387 C40.294,114.9197 40.274,115.0427 40.234,115.1047 C40.194,115.1677 40.12,115.1977 40.011,115.1977 L35.987,115.1977 C35.999,115.5657 36.05,115.8837 36.144,116.1567 C36.237,116.4277 36.365,116.6547 36.527,116.8367 C36.69,117.0167 36.885,117.1527 37.11,117.2407 C37.335,117.3297 37.587,117.3727 37.866,117.3727 C38.127,117.3727 38.354,117.3437 38.545,117.2817 C38.737,117.2217 38.902,117.1567 39.041,117.0867 C39.18,117.0157 39.295,116.9507 39.391,116.8907 C39.486,116.8287 39.57,116.7997 39.643,116.7997 C39.74,116.7997 39.813,116.8367 39.866,116.9077 L40.205,117.3437 Z" id="Fill-53" fill="#050302" mask="url(#mask-4)"></path>
                            <path d="M41.9019,118.2191 L41.9019,113.0471 L41.2619,112.9691 C41.1689,112.9491 41.0929,112.9161 41.0359,112.8681 C40.9759,112.8231 40.9479,112.7551 40.9479,112.6671 L40.9479,112.1771 L41.9019,112.1771 L41.9019,111.6211 C41.9019,111.2711 41.9529,110.9591 42.0519,110.6841 C42.1539,110.4101 42.2979,110.1781 42.4849,109.9871 C42.6729,109.7961 42.8969,109.6501 43.1619,109.5511 C43.4259,109.4531 43.7229,109.4041 44.0529,109.4041 C44.3309,109.4041 44.5879,109.4441 44.8209,109.5241 L44.7969,110.1161 C44.7929,110.1681 44.7759,110.2091 44.7479,110.2351 C44.7189,110.2611 44.6819,110.2801 44.6369,110.2921 C44.5899,110.3041 44.5329,110.3111 44.4669,110.3121 C44.4009,110.3151 44.3289,110.3161 44.2529,110.3161 C44.0709,110.3161 43.9049,110.3381 43.7559,110.3821 C43.6079,110.4271 43.4799,110.5011 43.3769,110.6061 C43.2719,110.7111 43.1899,110.8481 43.1339,111.0201 C43.0779,111.1921 43.0509,111.4041 43.0509,111.6581 L43.0509,112.1771 L44.7709,112.1771 L44.7709,113.0351 L43.0869,113.0351 L43.0869,118.2191 L41.9019,118.2191 Z" id="Fill-54" fill="#050302" mask="url(#mask-4)"></path>
                            <path d="M49.6363,114.4667 C49.6363,114.2337 49.6033,114.0177 49.5353,113.8207 C49.4693,113.6227 49.3713,113.4517 49.2423,113.3067 C49.1143,113.1627 48.9563,113.0497 48.7723,112.9687 C48.5853,112.8877 48.3733,112.8477 48.1313,112.8477 C47.6353,112.8477 47.2443,112.9917 46.9613,113.2767 C46.6783,113.5627 46.4963,113.9587 46.4213,114.4667 L49.6363,114.4667 Z M50.6083,117.3437 C50.4633,117.5117 50.2963,117.6587 50.1073,117.7807 C49.9163,117.9047 49.7163,118.0037 49.5023,118.0797 C49.2883,118.1567 49.0683,118.2137 48.8403,118.2497 C48.6143,118.2847 48.3883,118.3037 48.1673,118.3037 C47.7433,118.3037 47.3523,118.2327 46.9923,118.0897 C46.6313,117.9467 46.3203,117.7367 46.0553,117.4607 C45.7913,117.1857 45.5853,116.8427 45.4393,116.4337 C45.2913,116.0257 45.2183,115.5547 45.2183,115.0237 C45.2183,114.5957 45.2853,114.1987 45.4183,113.8287 C45.5503,113.4607 45.7413,113.1397 45.9903,112.8657 C46.2373,112.5927 46.5393,112.3767 46.8983,112.2197 C47.2563,112.0627 47.6603,111.9837 48.1063,111.9837 C48.4823,111.9837 48.8263,112.0447 49.1423,112.1677 C49.4583,112.2907 49.7333,112.4697 49.9613,112.7017 C50.1913,112.9357 50.3723,113.2247 50.5023,113.5677 C50.6343,113.9097 50.6983,114.2997 50.6983,114.7387 C50.6983,114.9197 50.6793,115.0427 50.6393,115.1047 C50.5993,115.1677 50.5233,115.1977 50.4143,115.1977 L46.3903,115.1977 C46.4023,115.5657 46.4553,115.8837 46.5483,116.1567 C46.6413,116.4277 46.7683,116.6547 46.9313,116.8367 C47.0943,117.0167 47.2893,117.1527 47.5143,117.2407 C47.7403,117.3297 47.9913,117.3727 48.2693,117.3727 C48.5313,117.3727 48.7573,117.3437 48.9493,117.2817 C49.1403,117.2217 49.3053,117.1567 49.4453,117.0867 C49.5833,117.0157 49.7003,116.9507 49.7963,116.8907 C49.8913,116.8287 49.9733,116.7997 50.0463,116.7997 C50.1433,116.7997 50.2173,116.8367 50.2713,116.9077 L50.6083,117.3437 Z" id="Fill-55" fill="#050302" mask="url(#mask-4)"></path>
                            <path d="M56.2701,113.2284 C56.2331,113.2724 56.1971,113.3074 56.1651,113.3334 C56.1281,113.3604 56.0811,113.3744 56.0151,113.3744 C55.9521,113.3744 55.8831,113.3474 55.8141,113.2984 C55.7431,113.2474 55.6551,113.1934 55.5481,113.1354 C55.4411,113.0764 55.3121,113.0214 55.1611,112.9714 C55.0101,112.9214 54.8241,112.8954 54.6021,112.8954 C54.3111,112.8954 54.0561,112.9494 53.8341,113.0524 C53.6131,113.1574 53.4281,113.3064 53.2831,113.4994 C53.1351,113.6934 53.0231,113.9294 52.9471,114.2074 C52.8701,114.4854 52.8321,114.7964 52.8321,115.1444 C52.8321,115.5024 52.8721,115.8214 52.9521,116.1014 C53.0321,116.3814 53.1481,116.6164 53.2961,116.8084 C53.4451,117.0004 53.6261,117.1454 53.8401,117.2434 C54.0541,117.3424 54.2921,117.3924 54.5541,117.3924 C54.8071,117.3924 55.0171,117.3604 55.1821,117.2974 C55.3471,117.2344 55.4841,117.1674 55.5931,117.0954 C55.7021,117.0224 55.7921,116.9554 55.8651,116.8934 C55.9381,116.8304 56.0121,116.7994 56.0881,116.7994 C56.1851,116.7994 56.2591,116.8364 56.3121,116.9084 L56.6501,117.3434 C56.5081,117.5164 56.3501,117.6634 56.1761,117.7834 C56.0011,117.9054 55.8151,118.0034 55.6171,118.0804 C55.4191,118.1564 55.2131,118.2134 54.9991,118.2494 C54.7821,118.2854 54.5641,118.3044 54.3421,118.3044 C53.9591,118.3044 53.6021,118.2334 53.2701,118.0914 C52.9381,117.9514 52.6501,117.7464 52.4061,117.4764 C52.1621,117.2064 51.9701,116.8744 51.8291,116.4824 C51.6871,116.0894 51.6181,115.6434 51.6181,115.1444 C51.6181,114.6884 51.6801,114.2684 51.8071,113.8814 C51.9351,113.4944 52.1211,113.1614 52.3691,112.8804 C52.6171,112.6014 52.9221,112.3814 53.2851,112.2224 C53.6481,112.0634 54.0621,111.9834 54.5301,111.9834 C54.9681,111.9834 55.3551,112.0544 55.6901,112.1944 C56.0241,112.3364 56.3221,112.5364 56.5841,112.7934 L56.2701,113.2284 Z" id="Fill-56" fill="#050302" mask="url(#mask-4)"></path>
                            <path d="M63.8345,110.1474 C63.8345,110.2554 63.8115,110.3594 63.7675,110.4584 C63.7245,110.5574 63.6635,110.6434 63.5895,110.7184 C63.5145,110.7934 63.4265,110.8504 63.3255,110.8934 C63.2265,110.9354 63.1205,110.9574 63.0125,110.9574 C62.9035,110.9574 62.8015,110.9354 62.7045,110.8934 C62.6075,110.8504 62.5225,110.7934 62.4465,110.7184 C62.3725,110.6434 62.3145,110.5574 62.2725,110.4584 C62.2305,110.3594 62.2085,110.2554 62.2085,110.1474 C62.2085,110.0344 62.2305,109.9274 62.2725,109.8264 C62.3145,109.7264 62.3725,109.6384 62.4465,109.5644 C62.5225,109.4884 62.6075,109.4314 62.7045,109.3884 C62.8015,109.3464 62.9035,109.3244 63.0125,109.3244 C63.1205,109.3244 63.2265,109.3464 63.3255,109.3884 C63.4265,109.4314 63.5145,109.4884 63.5895,109.5644 C63.6635,109.6384 63.7245,109.7264 63.7675,109.8264 C63.8115,109.9274 63.8345,110.0344 63.8345,110.1474 Z M63.5675,118.2194 L62.3835,118.2194 L62.3835,113.0354 L59.3035,113.0354 L59.3035,116.6294 C59.3035,116.8714 59.3615,117.0524 59.4805,117.1714 C59.5995,117.2894 59.7515,117.3494 59.9375,117.3494 C60.0455,117.3494 60.1395,117.3354 60.2175,117.3074 C60.2965,117.2784 60.3625,117.2484 60.4195,117.2134 C60.4765,117.1794 60.5245,117.1474 60.5655,117.1194 C60.6055,117.0914 60.6415,117.0774 60.6745,117.0774 C60.7145,117.0774 60.7455,117.0864 60.7685,117.1044 C60.7905,117.1234 60.8135,117.1524 60.8375,117.1924 L61.1875,117.7604 C60.9945,117.9374 60.7645,118.0744 60.4985,118.1704 C60.2325,118.2674 59.9565,118.3154 59.6715,118.3154 C59.1755,118.3154 58.7935,118.1764 58.5265,117.8994 C58.2575,117.6214 58.1245,117.2244 58.1245,116.7094 L58.1245,113.0354 L57.4105,113.0354 C57.3425,113.0354 57.2855,113.0134 57.2385,112.9714 C57.1925,112.9284 57.1695,112.8664 57.1695,112.7814 L57.1695,112.3044 L58.1725,112.1654 L58.4325,110.3344 C58.4485,110.2654 58.4795,110.2124 58.5265,110.1744 C58.5715,110.1354 58.6315,110.1164 58.7035,110.1164 L59.3035,110.1164 L59.3035,112.1774 L63.5675,112.1774 L63.5675,118.2194 Z" id="Fill-57" fill="#050302" mask="url(#mask-4)"></path>
                            <path d="M70.607,112.0805 L68.119,118.2195 L67.054,118.2195 L64.565,112.0805 L65.538,112.0805 C65.63,112.0805 65.707,112.1025 65.768,112.1465 C65.828,112.1915 65.868,112.2475 65.888,112.3165 L67.356,116.0865 C67.408,116.2435 67.454,116.3995 67.493,116.5545 C67.531,116.7095 67.566,116.8635 67.598,117.0165 C67.63,116.8635 67.667,116.7105 67.707,116.5575 C67.748,116.4045 67.795,116.2475 67.852,116.0865 L69.338,112.3165 C69.363,112.2475 69.405,112.1915 69.465,112.1465 C69.525,112.1025 69.598,112.0805 69.683,112.0805 L70.607,112.0805 Z" id="Fill-58" fill="#050302" mask="url(#mask-4)"></path>
                            <path d="M71.605,118.219 L72.783,118.219 L72.783,112.08 L71.605,112.08 L71.605,118.219 Z M73.006,110.183 C73.006,110.292 72.983,110.395 72.939,110.495 C72.896,110.594 72.836,110.68 72.761,110.754 C72.687,110.828 72.598,110.887 72.499,110.93 C72.398,110.972 72.293,110.992 72.184,110.992 C72.076,110.992 71.973,110.972 71.876,110.93 C71.779,110.887 71.694,110.828 71.619,110.754 C71.545,110.68 71.487,110.594 71.444,110.495 C71.402,110.395 71.38,110.292 71.38,110.183 C71.38,110.071 71.402,109.964 71.444,109.867 C71.487,109.767 71.545,109.681 71.619,109.606 C71.694,109.531 71.779,109.474 71.876,109.431 C71.973,109.389 72.076,109.367 72.184,109.367 C72.293,109.367 72.398,109.389 72.499,109.431 C72.598,109.474 72.687,109.531 72.761,109.606 C72.836,109.681 72.896,109.767 72.939,109.867 C72.983,109.964 73.006,110.071 73.006,110.183 Z" id="Fill-59" fill="#050302" mask="url(#mask-4)"></path>
                            <path d="M78.4488,113.5673 C78.2558,113.3133 78.0478,113.1353 77.8238,113.0353 C77.5998,112.9353 77.3488,112.8843 77.0718,112.8843 C76.5328,112.8843 76.1148,113.0783 75.8188,113.4673 C75.5218,113.8563 75.3738,114.4223 75.3738,115.1673 C75.3738,115.5593 75.4068,115.8923 75.4738,116.1683 C75.5418,116.4443 75.6368,116.6703 75.7628,116.8443 C75.8898,117.0203 76.0468,117.1493 76.2328,117.2313 C76.4168,117.3143 76.6278,117.3553 76.8608,117.3553 C77.2028,117.3553 77.4998,117.2783 77.7488,117.1253 C77.9988,116.9733 78.2318,116.7573 78.4488,116.4783 L78.4488,113.5673 Z M79.6348,109.3013 L79.6348,118.2193 L78.9218,118.2193 C78.7568,118.2193 78.6528,118.1403 78.6128,117.9833 L78.5108,117.2763 C78.2488,117.5873 77.9508,117.8363 77.6188,118.0233 C77.2868,118.2103 76.9028,118.3043 76.4678,118.3043 C76.1178,118.3043 75.8018,118.2353 75.5158,118.0993 C75.2318,117.9623 74.9888,117.7613 74.7888,117.4973 C74.5868,117.2343 74.4318,116.9053 74.3238,116.5153 C74.2158,116.1243 74.1608,115.6743 74.1608,115.1673 C74.1608,114.7133 74.2198,114.2893 74.3418,113.8993 C74.4628,113.5083 74.6368,113.1693 74.8668,112.8843 C75.0958,112.5983 75.3738,112.3733 75.7008,112.2103 C76.0278,112.0473 76.3958,111.9653 76.8058,111.9653 C77.1778,111.9653 77.4918,112.0263 77.7518,112.1463 C78.0118,112.2683 78.2438,112.4393 78.4488,112.6613 L78.4488,109.3013 L79.6348,109.3013 Z" id="Fill-60" fill="#050302" mask="url(#mask-4)"></path>
                            <path d="M84.5836,115.4945 C84.1036,115.5105 83.6956,115.5475 83.3616,115.6065 C83.0276,115.6645 82.7566,115.7425 82.5466,115.8385 C82.3366,115.9355 82.1856,116.0495 82.0936,116.1805 C82.0016,116.3105 81.9536,116.4575 81.9536,116.6175 C81.9536,116.7715 81.9796,116.9035 82.0296,117.0145 C82.0806,117.1235 82.1486,117.2145 82.2346,117.2855 C82.3216,117.3565 82.4236,117.4075 82.5406,117.4405 C82.6576,117.4725 82.7846,117.4875 82.9216,117.4875 C83.1026,117.4875 83.2696,117.4695 83.4196,117.4335 C83.5706,117.3975 83.7126,117.3465 83.8456,117.2795 C83.9796,117.2135 84.1046,117.1315 84.2276,117.0345 C84.3476,116.9385 84.4656,116.8275 84.5836,116.7025 L84.5836,115.4945 Z M81.1266,112.9385 C81.4696,112.6125 81.8406,112.3685 82.2416,112.2075 C82.6426,112.0465 83.0826,111.9655 83.5616,111.9655 C83.9116,111.9655 84.2226,112.0225 84.4906,112.1385 C84.7626,112.2525 84.9886,112.4125 85.1746,112.6185 C85.3596,112.8235 85.5006,113.0695 85.5946,113.3545 C85.6886,113.6415 85.7376,113.9575 85.7376,114.3035 L85.7376,118.2195 L85.2116,118.2195 C85.0946,118.2195 85.0056,118.2005 84.9436,118.1615 C84.8856,118.1235 84.8356,118.0515 84.8006,117.9475 L84.6736,117.4095 C84.5166,117.5545 84.3616,117.6825 84.2076,117.7935 C84.0546,117.9045 83.8946,117.9985 83.7286,118.0775 C83.5616,118.1555 83.3826,118.2155 83.1926,118.2555 C83.0046,118.2955 82.7946,118.3155 82.5646,118.3155 C82.3216,118.3155 82.0956,118.2835 81.8856,118.2155 C81.6736,118.1495 81.4886,118.0485 81.3326,117.9115 C81.1756,117.7745 81.0516,117.6035 80.9606,117.3975 C80.8696,117.1925 80.8246,116.9525 80.8246,116.6785 C80.8246,116.4375 80.8896,116.2035 81.0206,115.9805 C81.1516,115.7575 81.3646,115.5565 81.6616,115.3795 C81.9576,115.2015 82.3436,115.0575 82.8216,114.9445 C83.2996,114.8305 83.8866,114.7675 84.5836,114.7505 L84.5836,114.3035 C84.5836,113.8415 84.4836,113.4945 84.2856,113.2655 C84.0906,113.0355 83.7996,112.9205 83.4176,112.9205 C83.1586,112.9205 82.9426,112.9525 82.7676,113.0175 C82.5916,113.0805 82.4396,113.1535 82.3136,113.2305 C82.1876,113.3095 82.0766,113.3825 81.9816,113.4455 C81.8866,113.5105 81.7886,113.5425 81.6876,113.5425 C81.6066,113.5425 81.5386,113.5195 81.4796,113.4765 C81.4216,113.4315 81.3736,113.3795 81.3386,113.3195 L81.1266,112.9385 Z" id="Fill-61" fill="#050302" mask="url(#mask-4)"></path>
                            <path d="M91.2769,113.5673 C91.0839,113.3133 90.8759,113.1353 90.6509,113.0353 C90.4279,112.9353 90.1769,112.8843 89.8999,112.8843 C89.3599,112.8843 88.9429,113.0783 88.6459,113.4673 C88.3499,113.8563 88.2019,114.4223 88.2019,115.1673 C88.2019,115.5593 88.2349,115.8923 88.3009,116.1683 C88.3689,116.4443 88.4639,116.6703 88.5909,116.8443 C88.7179,117.0203 88.8749,117.1493 89.0599,117.2313 C89.2449,117.3143 89.4549,117.3553 89.6879,117.3553 C90.0309,117.3553 90.3269,117.2783 90.5759,117.1253 C90.8259,116.9733 91.0599,116.7573 91.2769,116.4783 L91.2769,113.5673 Z M92.4619,109.3013 L92.4619,118.2193 L91.7489,118.2193 C91.5839,118.2193 91.4809,118.1403 91.4409,117.9833 L91.3389,117.2763 C91.0759,117.5873 90.7789,117.8363 90.4459,118.0233 C90.1149,118.2103 89.7309,118.3043 89.2959,118.3043 C88.9449,118.3043 88.6289,118.2353 88.3439,118.0993 C88.0599,117.9623 87.8169,117.7613 87.6159,117.4973 C87.4149,117.2343 87.2589,116.9053 87.1509,116.5153 C87.0429,116.1243 86.9879,115.6743 86.9879,115.1673 C86.9879,114.7133 87.0479,114.2893 87.1689,113.8993 C87.2909,113.5083 87.4649,113.1693 87.6939,112.8843 C87.9239,112.5983 88.2019,112.3733 88.5279,112.2103 C88.8549,112.0473 89.2229,111.9653 89.6339,111.9653 C90.0049,111.9653 90.3199,112.0263 90.5799,112.1463 C90.8399,112.2683 91.0719,112.4393 91.2769,112.6613 L91.2769,109.3013 L92.4619,109.3013 Z" id="Fill-62" fill="#050302" mask="url(#mask-4)"></path>
                            <path d="M196.4537,1.6493 L196.4537,137.1523" id="Stroke-63" stroke="#C2C3C8" stroke-width="0.587" stroke-linecap="square" mask="url(#mask-4)"></path>
                        </g>
                    </g>
                </g>
            </g>
        </g>
    </g>
</svg>