<?xml version="1.0" encoding="UTF-8"?>
<svg width="433px" height="203px" viewBox="0 0 433 203" version="1.1" xmlns="http://www.w3.org/2000/svg" xmlns:xlink="http://www.w3.org/1999/xlink">
    <!-- Generator: Sketch 49.3 (51167) - http://www.bohemiancoding.com/sketch -->
    <title>reporte consolidado de venta total por día 03</title>
    <desc>Created with Sketch.</desc>
    <defs>
        <polygon id="path-1" points="0 0.3001 432.2738 0.3001 432.2738 203 0 203"></polygon>
        <polygon id="path-3" points="0 203.7 432.274 203.7 432.274 1 0 1"></polygon>
    </defs>
    <g id="RUTAS" stroke="none" stroke-width="1" fill="none" fill-rule="evenodd">
        <g id="SOV-RUTAS-Copy-3" transform="translate(-402.000000, -8133.000000)">
            <g id="parte-nube-copy" transform="translate(0.000000, 6055.000000)">
                <g id="CONSOLIDADO-DE-VENTA-TOTAL-POR-DÍA" transform="translate(130.000000, 677.000000)">
                    <g id="reporte-consolidado-de-venta-total-por-día-03" transform="translate(272.000000, 1400.000000)">
                        <g id="Group-3" transform="translate(0.000000, 0.700000)">
                            <mask id="mask-2" fill="white">
                                <use xlink:href="#path-1"></use>
                            </mask>
                            <g id="Clip-2"></g>
                            <path d="M431.5598,203.0001 L0.7138,203.0001 C0.3198,203.0001 -0.0002,202.6801 -0.0002,202.2861 L-0.0002,1.0141 C-0.0002,0.6201 0.3198,0.3001 0.7138,0.3001 L431.5598,0.3001 C431.9548,0.3001 432.2738,0.6201 432.2738,1.0141 L432.2738,202.2861 C432.2738,202.6801 431.9548,203.0001 431.5598,203.0001" id="Fill-1" fill="#D9D9D9" mask="url(#mask-2)"></path>
                        </g>
                        <path d="M428.7541,64.1938 L3.7281,64.1938 C2.4711,64.1938 1.4521,63.1748 1.4521,61.9178 L1.4521,8.8038 C1.4521,7.5468 2.4711,6.5278 3.7281,6.5278 L428.7541,6.5278 C430.0111,6.5278 431.0301,7.5468 431.0301,8.8038 L431.0301,61.9178 C431.0301,63.1748 430.0111,64.1938 428.7541,64.1938" id="Fill-4" fill="#FFFFFF"></path>
                        <path d="M42.5266,37.9252 C42.6336,37.9252 42.7276,37.9672 42.8046,38.0512 L43.5576,38.8752 C43.0326,39.4962 42.3916,39.9782 41.6356,40.3172 C40.8806,40.6582 39.9696,40.8282 38.9056,40.8282 C37.9746,40.8282 37.1306,40.6672 36.3756,40.3432 C35.6196,40.0222 34.9756,39.5702 34.4396,38.9912 C33.9056,38.4112 33.4916,37.7182 33.1986,36.9122 C32.9066,36.1072 32.7596,35.2192 32.7596,34.2522 C32.7596,33.2842 32.9136,32.3972 33.2216,31.5902 C33.5296,30.7832 33.9606,30.0902 34.5166,29.5112 C35.0736,28.9312 35.7366,28.4822 36.5096,28.1582 C37.2836,27.8362 38.1396,27.6752 39.0776,27.6752 C39.9906,27.6752 40.8026,27.8232 41.5136,28.1232 C42.2236,28.4212 42.8436,28.8182 43.3686,29.3152 L42.7416,30.2022 C42.6996,30.2672 42.6476,30.3212 42.5846,30.3632 C42.5216,30.4052 42.4416,30.4262 42.3396,30.4262 C42.2236,30.4262 42.0926,30.3682 41.9406,30.2552 C41.7866,30.1422 41.5876,30.0152 41.3386,29.8752 C41.0916,29.7352 40.7856,29.6072 40.4216,29.4932 C40.0576,29.3802 39.6026,29.3232 39.0596,29.3232 C38.4196,29.3232 37.8346,29.4352 37.3026,29.6592 C36.7706,29.8832 36.3126,30.2052 35.9276,30.6272 C35.5426,31.0472 35.2446,31.5652 35.0316,32.1782 C34.8196,32.7892 34.7126,33.4822 34.7126,34.2522 C34.7126,35.0342 34.8246,35.7302 35.0456,36.3402 C35.2656,36.9482 35.5696,37.4652 35.9586,37.8902 C36.3476,38.3142 36.8036,38.6352 37.3306,38.8582 C37.8556,39.0782 38.4226,39.1892 39.0316,39.1892 C39.4026,39.1892 39.7356,39.1662 40.0306,39.1222 C40.3266,39.0762 40.5996,39.0102 40.8466,38.9192 C41.0936,38.8302 41.3276,38.7142 41.5496,38.5742 C41.7726,38.4342 41.9896,38.2662 42.2046,38.0692 C42.2526,38.0272 42.3026,37.9912 42.3576,37.9652 C42.4096,37.9392 42.4666,37.9252 42.5266,37.9252" id="Fill-6" fill="#050302"></path>
                        <mask id="mask-4" fill="white">
                            <use xlink:href="#path-3"></use>
                        </mask>
                        <g id="Clip-9"></g>
                        <polygon id="Fill-8" fill="#050302" mask="url(#mask-4)" points="45.161 40.685 46.918 40.685 46.918 27.46 45.161 27.46"></polygon>
                        <path d="M49.49,40.685 L51.237,40.685 L51.237,31.581 L49.49,31.581 L49.49,40.685 Z M51.569,28.767 C51.569,28.93 51.534,29.082 51.469,29.229 C51.404,29.376 51.316,29.504 51.205,29.614 C51.095,29.725 50.964,29.812 50.817,29.875 C50.666,29.938 50.51,29.968 50.349,29.968 C50.189,29.968 50.036,29.938 49.893,29.875 C49.749,29.812 49.623,29.725 49.511,29.614 C49.401,29.504 49.315,29.376 49.252,29.229 C49.189,29.082 49.157,28.93 49.157,28.767 C49.157,28.601 49.189,28.443 49.252,28.298 C49.315,28.151 49.401,28.023 49.511,27.912 C49.623,27.801 49.749,27.715 49.893,27.652 C50.036,27.589 50.189,27.558 50.349,27.558 C50.51,27.558 50.666,27.589 50.817,27.652 C50.964,27.715 51.095,27.801 51.205,27.912 C51.316,28.023 51.404,28.151 51.469,28.298 C51.534,28.443 51.569,28.601 51.569,28.767 Z" id="Fill-10" fill="#050302" mask="url(#mask-4)"></path>
                        <path d="M59.8015,35.12 C59.8015,34.775 59.7525,34.455 59.6545,34.162 C59.5565,33.869 59.4115,33.615 59.2205,33.399 C59.0285,33.186 58.7975,33.018 58.5205,32.899 C58.2475,32.778 57.9285,32.719 57.5725,32.719 C56.8375,32.719 56.2595,32.932 55.8375,33.356 C55.4155,33.779 55.1495,34.367 55.0365,35.12 L59.8015,35.12 Z M61.2455,39.387 C61.0305,39.637 60.7815,39.854 60.5015,40.036 C60.2215,40.218 59.9225,40.365 59.6055,40.478 C59.2885,40.592 58.9615,40.676 58.6255,40.73 C58.2855,40.783 57.9535,40.811 57.6245,40.811 C56.9975,40.811 56.4165,40.704 55.8815,40.493 C55.3475,40.281 54.8845,39.969 54.4935,39.56 C54.1035,39.152 53.7995,38.644 53.5805,38.037 C53.3615,37.432 53.2525,36.733 53.2525,35.946 C53.2525,35.312 53.3505,34.723 53.5485,34.175 C53.7465,33.629 54.0285,33.153 54.3955,32.747 C54.7615,32.341 55.2135,32.02 55.7445,31.787 C56.2755,31.555 56.8715,31.438 57.5365,31.438 C58.0915,31.438 58.6045,31.529 59.0735,31.711 C59.5425,31.893 59.9455,32.159 60.2865,32.503 C60.6275,32.85 60.8935,33.279 61.0895,33.787 C61.2815,34.294 61.3805,34.873 61.3805,35.524 C61.3805,35.792 61.3485,35.974 61.2895,36.067 C61.2295,36.16 61.1205,36.205 60.9585,36.205 L54.9925,36.205 C55.0095,36.749 55.0865,37.222 55.2235,37.626 C55.3615,38.028 55.5525,38.365 55.7935,38.634 C56.0355,38.902 56.3225,39.103 56.6585,39.234 C56.9905,39.366 57.3655,39.43 57.7785,39.43 C58.1665,39.43 58.5035,39.387 58.7865,39.295 C59.0705,39.206 59.3155,39.11 59.5215,39.005 C59.7265,38.9 59.8995,38.804 60.0395,38.714 C60.1795,38.623 60.3055,38.579 60.4125,38.579 C60.5555,38.579 60.6665,38.634 60.7425,38.741 L61.2455,39.387 Z" id="Fill-11" fill="#050302" mask="url(#mask-4)"></path>
                        <path d="M64.9011,32.8447 C65.0971,32.6367 65.3031,32.4447 65.5191,32.2707 C65.7341,32.0977 65.9621,31.9507 66.2051,31.8277 C66.4461,31.7057 66.7071,31.6097 66.9841,31.5407 C67.2621,31.4727 67.5591,31.4377 67.8761,31.4377 C68.3771,31.4377 68.8181,31.5217 69.1971,31.6897 C69.5771,31.8557 69.8961,32.0907 70.1511,32.3917 C70.4081,32.6947 70.6031,33.0567 70.7341,33.4817 C70.8651,33.9057 70.9321,34.3747 70.9321,34.8867 L70.9321,40.6847 L69.1751,40.6847 L69.1751,34.8867 C69.1751,34.2367 69.0261,33.7307 68.7271,33.3697 C68.4291,33.0077 67.9711,32.8267 67.3571,32.8267 C66.9081,32.8267 66.4881,32.9317 66.0981,33.1457 C65.7061,33.3577 65.3421,33.6447 65.0091,34.0107 L65.0091,40.6847 L63.2611,40.6847 L63.2611,31.5817 L64.3101,31.5817 C64.5541,31.5817 64.7071,31.6987 64.7661,31.9307 L64.9011,32.8447 Z" id="Fill-12" fill="#050302" mask="url(#mask-4)"></path>
                        <path d="M76.0105,40.8285 C75.2775,40.8285 74.7125,40.6215 74.3135,40.2105 C73.9175,39.7975 73.7185,39.2095 73.7185,38.4445 L73.7185,32.9965 L72.6605,32.9965 C72.5595,32.9965 72.4735,32.9655 72.4055,32.9025 C72.3355,32.8395 72.3025,32.7465 72.3025,32.6205 L72.3025,31.9135 L73.7815,31.7075 L74.1745,28.9915 C74.1975,28.8895 74.2445,28.8105 74.3135,28.7545 C74.3835,28.6975 74.4705,28.6695 74.5785,28.6695 L75.4645,28.6695 L75.4645,31.7245 L78.0455,31.7245 L78.0455,32.9965 L75.4645,32.9965 L75.4645,38.3275 C75.4645,38.6865 75.5525,38.9535 75.7305,39.1305 C75.9055,39.3065 76.1315,39.3955 76.4065,39.3955 C76.5675,39.3955 76.7075,39.3745 76.8225,39.3325 C76.9385,39.2905 77.0395,39.2445 77.1235,39.1935 C77.2055,39.1425 77.2775,39.0965 77.3375,39.0545 C77.3965,39.0125 77.4505,38.9915 77.4985,38.9915 C77.5575,38.9915 77.6045,39.0045 77.6375,39.0315 C77.6695,39.0585 77.7045,39.1025 77.7415,39.1625 L78.2605,40.0045 C77.9735,40.2665 77.6345,40.4695 77.2395,40.6135 C76.8455,40.7565 76.4355,40.8285 76.0105,40.8285" id="Fill-13" fill="#050302" mask="url(#mask-4)"></path>
                        <path d="M85.6252,35.12 C85.6252,34.775 85.5762,34.455 85.4782,34.162 C85.3802,33.869 85.2352,33.615 85.0442,33.399 C84.8522,33.186 84.6212,33.018 84.3442,32.899 C84.0712,32.778 83.7522,32.719 83.3962,32.719 C82.6612,32.719 82.0832,32.932 81.6612,33.356 C81.2392,33.779 80.9742,34.367 80.8602,35.12 L85.6252,35.12 Z M87.0692,39.387 C86.8542,39.637 86.6052,39.854 86.3252,40.036 C86.0452,40.218 85.7462,40.365 85.4292,40.478 C85.1122,40.592 84.7852,40.676 84.4492,40.73 C84.1092,40.783 83.7772,40.811 83.4482,40.811 C82.8212,40.811 82.2412,40.704 81.7052,40.493 C81.1712,40.281 80.7082,39.969 80.3172,39.56 C79.9272,39.152 79.6232,38.644 79.4042,38.037 C79.1852,37.432 79.0762,36.733 79.0762,35.946 C79.0762,35.312 79.1742,34.723 79.3722,34.175 C79.5702,33.629 79.8522,33.153 80.2192,32.747 C80.5852,32.341 81.0372,32.02 81.5682,31.787 C82.0992,31.555 82.6952,31.438 83.3602,31.438 C83.9162,31.438 84.4282,31.529 84.8972,31.711 C85.3662,31.893 85.7692,32.159 86.1102,32.503 C86.4512,32.85 86.7172,33.279 86.9132,33.787 C87.1052,34.294 87.2042,34.873 87.2042,35.524 C87.2042,35.792 87.1722,35.974 87.1132,36.067 C87.0532,36.16 86.9452,36.205 86.7822,36.205 L80.8162,36.205 C80.8332,36.749 80.9112,37.222 81.0472,37.626 C81.1852,38.028 81.3762,38.365 81.6182,38.634 C81.8592,38.902 82.1462,39.103 82.4822,39.234 C82.8142,39.366 83.1892,39.43 83.6022,39.43 C83.9912,39.43 84.3272,39.387 84.6102,39.295 C84.8942,39.206 85.1392,39.11 85.3452,39.005 C85.5502,38.9 85.7232,38.804 85.8632,38.714 C86.0032,38.623 86.1292,38.579 86.2362,38.579 C86.3792,38.579 86.4902,38.634 86.5662,38.741 L87.0692,39.387 Z" id="Fill-14" fill="#050302" mask="url(#mask-4)"></path>
                        <path d="M94.4523,33.1493 C94.4033,33.2263 94.3543,33.2823 94.3003,33.3153 C94.2463,33.3483 94.1783,33.3643 94.0943,33.3643 C93.9973,33.3643 93.8923,33.3313 93.7773,33.2663 C93.6583,33.2003 93.5183,33.1283 93.3533,33.0513 C93.1893,32.9723 92.9963,32.9003 92.7763,32.8363 C92.5553,32.7693 92.2933,32.7383 91.9883,32.7383 C91.7363,32.7383 91.5093,32.7683 91.3023,32.8313 C91.0963,32.8943 90.9213,32.9813 90.7773,33.0913 C90.6343,33.2013 90.5253,33.3333 90.4463,33.4853 C90.3693,33.6373 90.3293,33.8003 90.3293,33.9733 C90.3293,34.2013 90.3973,34.3883 90.5323,34.5393 C90.6653,34.6873 90.8443,34.8153 91.0603,34.9233 C91.2783,35.0303 91.5263,35.1283 91.8053,35.2143 C92.0833,35.3013 92.3663,35.3933 92.6573,35.4873 C92.9463,35.5833 93.2293,35.6923 93.5073,35.8153 C93.7843,35.9373 94.0323,36.0893 94.2493,36.2713 C94.4683,36.4553 94.6453,36.6733 94.7783,36.9313 C94.9143,37.1883 94.9813,37.5023 94.9813,37.8713 C94.9813,38.2963 94.9043,38.6883 94.7533,39.0503 C94.5993,39.4113 94.3753,39.7223 94.0813,39.9863 C93.7843,40.2493 93.4203,40.4563 92.9823,40.6043 C92.5463,40.7533 92.0483,40.8283 91.4863,40.8283 C90.8583,40.8283 90.2803,40.7233 89.7483,40.5153 C89.2163,40.3053 88.7713,40.0393 88.4133,39.7173 L88.8243,39.0453 C88.8733,38.9613 88.9323,38.8983 89.0043,38.8533 C89.0763,38.8073 89.1713,38.7863 89.2893,38.7863 C89.4053,38.7863 89.5203,38.8263 89.6403,38.9103 C89.7593,38.9943 89.9023,39.0853 90.0703,39.1833 C90.2383,39.2833 90.4413,39.3723 90.6793,39.4533 C90.9193,39.5333 91.2183,39.5733 91.5753,39.5733 C91.8743,39.5733 92.1353,39.5373 92.3563,39.4613 C92.5763,39.3863 92.7603,39.2853 92.9053,39.1573 C93.0523,39.0293 93.1603,38.8803 93.2343,38.7143 C93.3043,38.5463 93.3413,38.3693 93.3413,38.1863 C93.3413,37.9463 93.2733,37.7483 93.1403,37.5893 C93.0053,37.4313 92.8283,37.2953 92.6113,37.1813 C92.3923,37.0673 92.1423,36.9693 91.8623,36.8853 C91.5823,36.8013 91.2953,36.7123 91.0013,36.6183 C90.7113,36.5213 90.4243,36.4113 90.1423,36.2853 C89.8603,36.1593 89.6123,36.0023 89.3943,35.8113 C89.1763,35.6203 88.9993,35.3853 88.8663,35.1113 C88.7293,34.8363 88.6633,34.5023 88.6633,34.1083 C88.6633,33.7563 88.7373,33.4193 88.8843,33.0953 C89.0313,32.7733 89.2413,32.4893 89.5203,32.2443 C89.7973,31.9993 90.1403,31.8033 90.5503,31.6583 C90.9593,31.5113 91.4273,31.4383 91.9533,31.4383 C92.5553,31.4383 93.1013,31.5343 93.5883,31.7243 C94.0743,31.9153 94.4913,32.1783 94.8373,32.5143 L94.4523,33.1493 Z" id="Fill-15" fill="#050302" mask="url(#mask-4)"></path>
                        <path d="M108.8693,31.5815 L105.1773,40.6855 L103.5983,40.6855 L99.9093,31.5815 L101.3513,31.5815 C101.4883,31.5815 101.6013,31.6145 101.6903,31.6795 C101.7823,31.7455 101.8413,31.8295 101.8693,31.9315 L104.0463,37.5225 C104.1253,37.7555 104.1933,37.9865 104.2493,38.2155 C104.3053,38.4465 104.3583,38.6745 104.4073,38.9015 C104.4543,38.6745 104.5083,38.4485 104.5683,38.2215 C104.6273,37.9935 104.6973,37.7605 104.7813,37.5225 L106.9863,31.9315 C107.0213,31.8295 107.0843,31.7455 107.1753,31.6795 C107.2653,31.6145 107.3713,31.5815 107.4973,31.5815 L108.8693,31.5815 Z" id="Fill-16" fill="#050302" mask="url(#mask-4)"></path>
                        <path d="M110.346,40.685 L112.093,40.685 L112.093,31.581 L110.346,31.581 L110.346,40.685 Z M112.425,28.767 C112.425,28.93 112.392,29.082 112.328,29.229 C112.261,29.376 112.174,29.504 112.062,29.614 C111.953,29.725 111.822,29.812 111.673,29.875 C111.523,29.938 111.368,29.968 111.208,29.968 C111.047,29.968 110.893,29.938 110.749,29.875 C110.606,29.812 110.48,29.725 110.369,29.614 C110.259,29.504 110.172,29.376 110.109,29.229 C110.046,29.082 110.014,28.93 110.014,28.767 C110.014,28.601 110.046,28.443 110.109,28.298 C110.172,28.151 110.259,28.023 110.369,27.912 C110.48,27.801 110.606,27.715 110.749,27.652 C110.893,27.589 111.047,27.558 111.208,27.558 C111.368,27.558 111.523,27.589 111.673,27.652 C111.822,27.715 111.953,27.801 112.062,27.912 C112.174,28.023 112.261,28.151 112.328,28.298 C112.392,28.443 112.425,28.601 112.425,28.767 Z" id="Fill-17" fill="#050302" mask="url(#mask-4)"></path>
                        <path d="M119.9963,33.1493 C119.9493,33.2263 119.8983,33.2823 119.8463,33.3153 C119.7893,33.3483 119.7233,33.3643 119.6393,33.3643 C119.5433,33.3643 119.4363,33.3313 119.3213,33.2663 C119.2043,33.2003 119.0633,33.1283 118.8993,33.0513 C118.7343,32.9723 118.5423,32.9003 118.3213,32.8363 C118.0993,32.7693 117.8363,32.7383 117.5323,32.7383 C117.2823,32.7383 117.0533,32.7683 116.8463,32.8313 C116.6413,32.8943 116.4663,32.9813 116.3233,33.0913 C116.1793,33.2013 116.0693,33.3333 115.9923,33.4853 C115.9153,33.6373 115.8753,33.8003 115.8753,33.9733 C115.8753,34.2013 115.9433,34.3883 116.0763,34.5393 C116.2113,34.6873 116.3883,34.8153 116.6043,34.9233 C116.8233,35.0303 117.0703,35.1283 117.3503,35.2143 C117.6263,35.3013 117.9103,35.3933 118.2013,35.4873 C118.4913,35.5833 118.7743,35.6923 119.0513,35.8153 C119.3293,35.9373 119.5763,36.0893 119.7953,36.2713 C120.0143,36.4553 120.1883,36.6733 120.3233,36.9313 C120.4583,37.1883 120.5253,37.5023 120.5253,37.8713 C120.5253,38.2963 120.4493,38.6883 120.2973,39.0503 C120.1453,39.4113 119.9213,39.7223 119.6253,39.9863 C119.3293,40.2493 118.9643,40.4563 118.5263,40.6043 C118.0923,40.7533 117.5923,40.8283 117.0323,40.8283 C116.4033,40.8283 115.8243,40.7233 115.2923,40.5153 C114.7603,40.3053 114.3153,40.0393 113.9583,39.7173 L114.3703,39.0453 C114.4173,38.9613 114.4763,38.8983 114.5503,38.8533 C114.6203,38.8073 114.7163,38.7863 114.8353,38.7863 C114.9493,38.7863 115.0643,38.8263 115.1853,38.9103 C115.3043,38.9943 115.4483,39.0853 115.6143,39.1833 C115.7823,39.2833 115.9853,39.3723 116.2253,39.4533 C116.4643,39.5333 116.7623,39.5733 117.1213,39.5733 C117.4203,39.5733 117.6793,39.5373 117.8993,39.4613 C118.1203,39.3863 118.3063,39.2853 118.4513,39.1573 C118.5963,39.0293 118.7063,38.8803 118.7783,38.7143 C118.8503,38.5463 118.8873,38.3693 118.8873,38.1863 C118.8873,37.9463 118.8183,37.7483 118.6843,37.5893 C118.5513,37.4313 118.3723,37.2953 118.1553,37.1813 C117.9383,37.0673 117.6883,36.9693 117.4063,36.8853 C117.1263,36.8013 116.8393,36.7123 116.5473,36.6183 C116.2543,36.5213 115.9683,36.4113 115.6873,36.2853 C115.4063,36.1593 115.1563,36.0023 114.9383,35.8113 C114.7223,35.6203 114.5453,35.3853 114.4103,35.1113 C114.2753,34.8363 114.2093,34.5023 114.2093,34.1083 C114.2093,33.7563 114.2803,33.4193 114.4283,33.0953 C114.5753,32.7733 114.7863,32.4893 115.0643,32.2443 C115.3413,31.9993 115.6843,31.8033 116.0943,31.6583 C116.5033,31.5113 116.9723,31.4383 117.4973,31.4383 C118.0993,31.4383 118.6453,31.5343 119.1323,31.7243 C119.6183,31.9153 120.0353,32.1783 120.3813,32.5143 L119.9963,33.1493 Z" id="Fill-18" fill="#050302" mask="url(#mask-4)"></path>
                        <path d="M122.495,40.685 L124.244,40.685 L124.244,31.581 L122.495,31.581 L122.495,40.685 Z M124.574,28.767 C124.574,28.93 124.543,29.082 124.476,29.229 C124.41,29.376 124.322,29.504 124.212,29.614 C124.102,29.725 123.972,29.812 123.822,29.875 C123.673,29.938 123.517,29.968 123.357,29.968 C123.196,29.968 123.043,29.938 122.9,29.875 C122.756,29.812 122.629,29.725 122.52,29.614 C122.408,29.504 122.321,29.376 122.259,29.229 C122.196,29.082 122.165,28.93 122.165,28.767 C122.165,28.601 122.196,28.443 122.259,28.298 C122.321,28.151 122.408,28.023 122.52,27.912 C122.629,27.801 122.756,27.715 122.9,27.652 C123.043,27.589 123.196,27.558 123.357,27.558 C123.517,27.558 123.673,27.589 123.822,27.652 C123.972,27.715 124.102,27.801 124.212,27.912 C124.322,28.023 124.41,28.151 124.476,28.298 C124.543,28.443 124.574,28.601 124.574,28.767 Z" id="Fill-19" fill="#050302" mask="url(#mask-4)"></path>
                        <path d="M129.6286,40.8285 C128.8936,40.8285 128.3286,40.6215 127.9316,40.2105 C127.5336,39.7975 127.3366,39.2095 127.3366,38.4445 L127.3366,32.9965 L126.2776,32.9965 C126.1756,32.9965 126.0896,32.9655 126.0236,32.9025 C125.9536,32.8395 125.9186,32.7465 125.9186,32.6205 L125.9186,31.9135 L127.3976,31.7075 L127.7916,28.9915 C127.8156,28.8895 127.8606,28.8105 127.9316,28.7545 C127.9996,28.6975 128.0886,28.6695 128.1956,28.6695 L129.0826,28.6695 L129.0826,31.7245 L131.6626,31.7245 L131.6626,32.9965 L129.0826,32.9965 L129.0826,38.3275 C129.0826,38.6865 129.1706,38.9535 129.3466,39.1305 C129.5236,39.3065 129.7476,39.3955 130.0246,39.3955 C130.1856,39.3955 130.3236,39.3745 130.4406,39.3325 C130.5566,39.2905 130.6556,39.2445 130.7396,39.1935 C130.8216,39.1425 130.8956,39.0965 130.9556,39.0545 C131.0146,39.0125 131.0666,38.9915 131.1166,38.9915 C131.1756,38.9915 131.2216,39.0045 131.2556,39.0315 C131.2876,39.0585 131.3226,39.1025 131.3576,39.1625 L131.8776,40.0045 C131.5916,40.2665 131.2516,40.4695 130.8576,40.6135 C130.4616,40.7565 130.0516,40.8285 129.6286,40.8285" id="Fill-20" fill="#050302" mask="url(#mask-4)"></path>
                        <path d="M138.1584,36.644 C137.4484,36.669 136.8464,36.723 136.3484,36.811 C135.8534,36.896 135.4494,37.012 135.1394,37.155 C134.8294,37.299 134.6054,37.467 134.4674,37.661 C134.3294,37.855 134.2624,38.072 134.2624,38.31 C134.2624,38.538 134.2984,38.734 134.3744,38.898 C134.4484,39.061 134.5504,39.196 134.6794,39.301 C134.8054,39.406 134.9574,39.481 135.1314,39.53 C135.3044,39.577 135.4914,39.6 135.6944,39.6 C135.9644,39.6 136.2104,39.574 136.4344,39.519 C136.6584,39.467 136.8684,39.39 137.0664,39.292 C137.2624,39.194 137.4514,39.072 137.6304,38.928 C137.8104,38.786 137.9874,38.622 138.1584,38.436 L138.1584,36.644 Z M133.0344,32.853 C133.5414,32.371 134.0934,32.008 134.6864,31.77 C135.2814,31.531 135.9344,31.412 136.6444,31.412 C137.1644,31.412 137.6244,31.496 138.0254,31.667 C138.4244,31.837 138.7624,32.075 139.0364,32.379 C139.3114,32.684 139.5204,33.048 139.6594,33.471 C139.8004,33.896 139.8694,34.366 139.8694,34.878 L139.8694,40.685 L139.0914,40.685 C138.9184,40.685 138.7864,40.657 138.6974,40.599 C138.6064,40.543 138.5364,40.436 138.4824,40.283 L138.2954,39.484 C138.0604,39.7 137.8294,39.889 137.6034,40.053 C137.3784,40.218 137.1394,40.358 136.8914,40.475 C136.6424,40.591 136.3804,40.68 136.0984,40.739 C135.8174,40.799 135.5074,40.829 135.1654,40.829 C134.8084,40.829 134.4724,40.78 134.1584,40.68 C133.8444,40.582 133.5714,40.431 133.3384,40.228 C133.1064,40.025 132.9224,39.771 132.7874,39.467 C132.6524,39.163 132.5864,38.807 132.5864,38.399 C132.5864,38.042 132.6844,37.696 132.8764,37.365 C133.0714,37.035 133.3874,36.737 133.8264,36.475 C134.2664,36.21 134.8404,35.997 135.5474,35.829 C136.2544,35.661 137.1254,35.566 138.1584,35.541 L138.1584,34.878 C138.1584,34.192 138.0134,33.678 137.7214,33.338 C137.4274,32.997 136.9964,32.827 136.4294,32.827 C136.0484,32.827 135.7254,32.874 135.4674,32.971 C135.2074,33.065 134.9834,33.172 134.7944,33.288 C134.6054,33.405 134.4414,33.512 134.3014,33.606 C134.1614,33.702 134.0174,33.749 133.8674,33.749 C133.7484,33.749 133.6454,33.716 133.5594,33.652 C133.4714,33.585 133.4014,33.508 133.3474,33.419 L133.0344,32.853 Z" id="Fill-21" fill="#050302" mask="url(#mask-4)"></path>
                        <path d="M148.0881,33.7865 C147.8011,33.4105 147.4911,33.1455 147.1611,32.9965 C146.8281,32.8485 146.4571,32.7725 146.0441,32.7725 C145.2431,32.7725 144.6231,33.0615 144.1861,33.6375 C143.7461,34.2155 143.5271,35.0555 143.5271,36.1595 C143.5271,36.7405 143.5761,37.2335 143.6741,37.6435 C143.7731,38.0535 143.9161,38.3875 144.1051,38.6465 C144.2921,38.9075 144.5251,39.0975 144.7981,39.2205 C145.0741,39.3425 145.3841,39.4045 145.7311,39.4045 C146.2381,39.4045 146.6781,39.2905 147.0481,39.0625 C147.4181,38.8365 147.7641,38.5165 148.0881,38.1035 L148.0881,33.7865 Z M149.8431,27.4595 L149.8431,40.6845 L148.7861,40.6845 C148.5421,40.6845 148.3891,40.5675 148.3301,40.3345 L148.1761,39.2865 C147.7891,39.7465 147.3481,40.1165 146.8561,40.3945 C146.3621,40.6705 145.7941,40.8105 145.1481,40.8105 C144.6291,40.8105 144.1571,40.7095 143.7371,40.5065 C143.3161,40.3035 142.9571,40.0055 142.6581,39.6145 C142.3591,39.2235 142.1281,38.7375 141.9661,38.1585 C141.8051,37.5785 141.7251,36.9115 141.7251,36.1595 C141.7251,35.4855 141.8161,34.8575 141.9941,34.2785 C142.1731,33.6985 142.4341,33.1965 142.7751,32.7725 C143.1141,32.3495 143.5271,32.0155 144.0101,31.7735 C144.4941,31.5325 145.0401,31.4115 145.6501,31.4115 C146.2001,31.4115 146.6671,31.5005 147.0521,31.6795 C147.4371,31.8595 147.7841,32.1135 148.0881,32.4425 L148.0881,27.4595 L149.8431,27.4595 Z" id="Fill-22" fill="#050302" mask="url(#mask-4)"></path>
                        <path d="M156.1701,39.4477 C157.0311,39.4477 157.6711,39.1587 158.0951,38.5797 C158.5201,38.0007 158.7321,37.1847 158.7321,36.1337 C158.7321,35.0817 158.5201,34.2657 158.0951,33.6827 C157.6711,33.1007 157.0311,32.8097 156.1701,32.8097 C155.2981,32.8097 154.6481,33.1007 154.2201,33.6827 C153.7941,34.2657 153.5801,35.0817 153.5801,36.1337 C153.5801,37.1847 153.7941,38.0007 154.2201,38.5797 C154.6481,39.1587 155.2981,39.4477 156.1701,39.4477 M156.1701,31.4377 C156.8381,31.4377 157.4441,31.5467 157.9831,31.7647 C158.5251,31.9837 158.9841,32.2967 159.3641,32.7067 C159.7441,33.1147 160.0341,33.6077 160.2371,34.1837 C160.4401,34.7607 160.5421,35.4067 160.5421,36.1247 C160.5421,36.8417 160.4401,37.4897 160.2371,38.0687 C160.0341,38.6477 159.7441,39.1417 159.3641,39.5477 C158.9841,39.9537 158.5251,40.2647 157.9831,40.4837 C157.4441,40.7007 156.8381,40.8107 156.1701,40.8107 C155.4941,40.8107 154.8871,40.7007 154.3461,40.4837 C153.8061,40.2647 153.3451,39.9537 152.9621,39.5477 C152.5791,39.1417 152.2851,38.6477 152.0781,38.0687 C151.8741,37.4897 151.7701,36.8417 151.7701,36.1247 C151.7701,35.4067 151.8741,34.7607 152.0781,34.1837 C152.2851,33.6077 152.5791,33.1147 152.9621,32.7067 C153.3451,32.2967 153.8061,31.9837 154.3461,31.7647 C154.8871,31.5467 155.4941,31.4377 156.1701,31.4377" id="Fill-23" fill="#050302" mask="url(#mask-4)"></path>
                        <path d="M167.8532,33.1493 C167.8062,33.2263 167.7552,33.2823 167.7032,33.3153 C167.6462,33.3483 167.5802,33.3643 167.4962,33.3643 C167.4002,33.3643 167.2932,33.3313 167.1782,33.2663 C167.0612,33.2003 166.9202,33.1283 166.7562,33.0513 C166.5912,32.9723 166.3992,32.9003 166.1782,32.8363 C165.9562,32.7693 165.6932,32.7383 165.3892,32.7383 C165.1392,32.7383 164.9102,32.7683 164.7032,32.8313 C164.4992,32.8943 164.3232,32.9813 164.1802,33.0913 C164.0362,33.2013 163.9262,33.3333 163.8492,33.4853 C163.7722,33.6373 163.7322,33.8003 163.7322,33.9733 C163.7322,34.2013 163.8002,34.3883 163.9332,34.5393 C164.0682,34.6873 164.2452,34.8153 164.4612,34.9233 C164.6802,35.0303 164.9272,35.1283 165.2072,35.2143 C165.4832,35.3013 165.7672,35.3933 166.0582,35.4873 C166.3482,35.5833 166.6322,35.6923 166.9082,35.8153 C167.1862,35.9373 167.4332,36.0893 167.6522,36.2713 C167.8712,36.4553 168.0462,36.6733 168.1812,36.9313 C168.3152,37.1883 168.3822,37.5023 168.3822,37.8713 C168.3822,38.2963 168.3072,38.6883 168.1542,39.0503 C168.0022,39.4113 167.7782,39.7223 167.4822,39.9863 C167.1862,40.2493 166.8212,40.4563 166.3832,40.6043 C165.9492,40.7533 165.4492,40.8283 164.8892,40.8283 C164.2602,40.8283 163.6812,40.7233 163.1492,40.5153 C162.6172,40.3053 162.1722,40.0393 161.8152,39.7173 L162.2272,39.0453 C162.2742,38.9613 162.3332,38.8983 162.4072,38.8533 C162.4772,38.8073 162.5732,38.7863 162.6922,38.7863 C162.8062,38.7863 162.9212,38.8263 163.0422,38.9103 C163.1612,38.9943 163.3052,39.0853 163.4712,39.1833 C163.6392,39.2833 163.8422,39.3723 164.0822,39.4533 C164.3222,39.5333 164.6192,39.5733 164.9782,39.5733 C165.2772,39.5733 165.5362,39.5373 165.7572,39.4613 C165.9772,39.3863 166.1632,39.2853 166.3082,39.1573 C166.4532,39.0293 166.5632,38.8803 166.6352,38.7143 C166.7072,38.5463 166.7442,38.3693 166.7442,38.1863 C166.7442,37.9463 166.6752,37.7483 166.5412,37.5893 C166.4082,37.4313 166.2292,37.2953 166.0122,37.1813 C165.7952,37.0673 165.5452,36.9693 165.2632,36.8853 C164.9832,36.8013 164.6962,36.7123 164.4042,36.6183 C164.1112,36.5213 163.8252,36.4113 163.5442,36.2853 C163.2632,36.1593 163.0132,36.0023 162.7952,35.8113 C162.5792,35.6203 162.4022,35.3853 162.2672,35.1113 C162.1322,34.8363 162.0662,34.5023 162.0662,34.1083 C162.0662,33.7563 162.1382,33.4193 162.2852,33.0953 C162.4322,32.7733 162.6432,32.4893 162.9212,32.2443 C163.1982,31.9993 163.5412,31.8033 163.9512,31.6583 C164.3602,31.5113 164.8292,31.4383 165.3542,31.4383 C165.9562,31.4383 166.5022,31.5343 166.9892,31.7243 C167.4752,31.9153 167.8922,32.1783 168.2382,32.5143 L167.8532,33.1493 Z" id="Fill-24" fill="#050302" mask="url(#mask-4)"></path>
                        <path d="M428.7541,131.1928 L3.7281,131.1928 C2.4711,131.1928 1.4521,130.1738 1.4521,128.9168 L1.4521,75.8028 C1.4521,74.5468 2.4711,73.5268 3.7281,73.5268 L428.7541,73.5268 C430.0111,73.5268 431.0301,74.5468 431.0301,75.8028 L431.0301,128.9168 C431.0301,130.1738 430.0111,131.1928 428.7541,131.1928" id="Fill-25" fill="#FFFFFF" mask="url(#mask-4)"></path>
                        <path d="M42.5251,104.9242 C42.6331,104.9242 42.7261,104.9662 42.8051,105.0502 L43.5571,105.8742 C43.0311,106.4962 42.3901,106.9772 41.6341,107.3172 C40.8801,107.6572 39.9701,107.8272 38.9061,107.8272 C37.9751,107.8272 37.1311,107.6662 36.3751,107.3422 C35.6191,107.0212 34.9731,106.5692 34.4401,105.9902 C33.9041,105.4102 33.4911,104.7172 33.1971,103.9112 C32.9061,103.1062 32.7591,102.2182 32.7591,101.2512 C32.7591,100.2832 32.9141,99.3962 33.2221,98.5892 C33.5281,97.7822 33.9601,97.0892 34.5171,96.5102 C35.0711,95.9302 35.7341,95.4812 36.5081,95.1572 C37.2821,94.8352 38.1391,94.6742 39.0771,94.6742 C39.9911,94.6742 40.8031,94.8232 41.5131,95.1222 C42.2241,95.4202 42.8431,95.8172 43.3681,96.3142 L42.7421,97.2012 C42.7001,97.2662 42.6481,97.3202 42.5851,97.3622 C42.5221,97.4042 42.4391,97.4252 42.3381,97.4252 C42.2241,97.4252 42.0911,97.3672 41.9391,97.2542 C41.7861,97.1422 41.5871,97.0142 41.3381,96.8742 C41.0901,96.7342 40.7851,96.6062 40.4211,96.4922 C40.0561,96.3792 39.6021,96.3222 39.0581,96.3222 C38.4191,96.3222 37.8351,96.4352 37.3031,96.6582 C36.7711,96.8822 36.3121,97.2052 35.9271,97.6262 C35.5421,98.0472 35.2431,98.5642 35.0311,99.1772 C34.8171,99.7882 34.7131,100.4812 34.7131,101.2512 C34.7131,102.0332 34.8231,102.7302 35.0451,103.3392 C35.2661,103.9472 35.5701,104.4642 35.9591,104.8892 C36.3471,105.3132 36.8021,105.6342 37.3291,105.8572 C37.8561,106.0772 38.4231,106.1882 39.0321,106.1882 C39.4031,106.1882 39.7351,106.1652 40.0291,106.1212 C40.3271,106.0752 40.5981,106.0092 40.8451,105.9182 C41.0931,105.8292 41.3281,105.7142 41.5481,105.5732 C41.7711,105.4332 41.9891,105.2652 42.2031,105.0682 C42.2521,105.0262 42.3011,104.9902 42.3571,104.9652 C42.4091,104.9382 42.4651,104.9242 42.5251,104.9242" id="Fill-26" fill="#050302" mask="url(#mask-4)"></path>
                        <polygon id="Fill-27" fill="#050302" mask="url(#mask-4)" points="45.161 107.684 46.918 107.684 46.918 94.459 45.161 94.459"></polygon>
                        <path d="M49.489,107.684 L51.237,107.684 L51.237,98.58 L49.489,98.58 L49.489,107.684 Z M51.568,95.766 C51.568,95.929 51.534,96.081 51.468,96.228 C51.403,96.375 51.314,96.503 51.205,96.613 C51.093,96.724 50.964,96.811 50.815,96.874 C50.666,96.937 50.508,96.967 50.348,96.967 C50.187,96.967 50.036,96.937 49.893,96.874 C49.749,96.811 49.621,96.724 49.511,96.613 C49.399,96.503 49.313,96.375 49.252,96.228 C49.189,96.081 49.157,95.929 49.157,95.766 C49.157,95.6 49.189,95.442 49.252,95.297 C49.313,95.15 49.399,95.022 49.511,94.911 C49.621,94.8 49.749,94.714 49.893,94.651 C50.036,94.588 50.187,94.557 50.348,94.557 C50.508,94.557 50.666,94.588 50.815,94.651 C50.964,94.714 51.093,94.8 51.205,94.911 C51.314,95.022 51.403,95.15 51.468,95.297 C51.534,95.442 51.568,95.6 51.568,95.766 Z" id="Fill-28" fill="#050302" mask="url(#mask-4)"></path>
                        <path d="M59.8015,102.1191 C59.8015,101.7741 59.7525,101.4541 59.6545,101.1611 C59.5565,100.8681 59.4095,100.6141 59.2205,100.3991 C59.0285,100.1851 58.7955,100.0171 58.5205,99.8981 C58.2455,99.7771 57.9285,99.7181 57.5725,99.7181 C56.8375,99.7181 56.2575,99.9311 55.8355,100.3551 C55.4155,100.7781 55.1485,101.3671 55.0345,102.1191 L59.8015,102.1191 Z M61.2435,106.3861 C61.0305,106.6361 60.7815,106.8531 60.5015,107.0351 C60.2195,107.2171 59.9205,107.3641 59.6055,107.4771 C59.2865,107.5911 58.9615,107.6751 58.6235,107.7291 C58.2855,107.7821 57.9535,107.8101 57.6245,107.8101 C56.9975,107.8101 56.4165,107.7031 55.8815,107.4921 C55.3455,107.2801 54.8845,106.9681 54.4915,106.5591 C54.1015,106.1511 53.7975,105.6431 53.5785,105.0361 C53.3615,104.4311 53.2525,103.7321 53.2525,102.9451 C53.2525,102.3111 53.3505,101.7221 53.5465,101.1741 C53.7445,100.6281 54.0265,100.1521 54.3935,99.7461 C54.7615,99.3401 55.2115,99.0191 55.7425,98.7871 C56.2735,98.5541 56.8715,98.4371 57.5355,98.4371 C58.0905,98.4371 58.6025,98.5281 59.0715,98.7101 C59.5405,98.8921 59.9455,99.1581 60.2845,99.5031 C60.6255,99.8491 60.8935,100.2781 61.0875,100.7861 C61.2815,101.2931 61.3805,101.8721 61.3805,102.5231 C61.3805,102.7911 61.3485,102.9731 61.2895,103.0661 C61.2295,103.1591 61.1195,103.2041 60.9565,103.2041 L54.9905,103.2041 C55.0085,103.7481 55.0865,104.2211 55.2235,104.6251 C55.3605,105.0281 55.5505,105.3641 55.7925,105.6331 C56.0335,105.9011 56.3225,106.1021 56.6565,106.2331 C56.9905,106.3651 57.3655,106.4291 57.7765,106.4291 C58.1655,106.4291 58.5015,106.3861 58.7845,106.2941 C59.0685,106.2051 59.3135,106.1091 59.5195,106.0041 C59.7245,105.8991 59.8995,105.8031 60.0395,105.7141 C60.1795,105.6221 60.3035,105.5791 60.4105,105.5791 C60.5535,105.5791 60.6665,105.6331 60.7425,105.7401 L61.2435,106.3861 Z" id="Fill-29" fill="#050302" mask="url(#mask-4)"></path>
                        <path d="M64.9011,99.8437 C65.0971,99.6357 65.3031,99.4437 65.5171,99.2697 C65.7341,99.0967 65.9621,98.9497 66.2031,98.8267 C66.4441,98.7047 66.7051,98.6087 66.9841,98.5397 C67.2601,98.4717 67.5581,98.4367 67.8751,98.4367 C68.3771,98.4367 68.8181,98.5207 69.1961,98.6887 C69.5751,98.8547 69.8941,99.0897 70.1511,99.3907 C70.4071,99.6937 70.6031,100.0557 70.7321,100.4807 C70.8651,100.9047 70.9301,101.3737 70.9301,101.8857 L70.9301,107.6837 L69.1751,107.6837 L69.1751,101.8857 C69.1751,101.2357 69.0241,100.7297 68.7271,100.3687 C68.4271,100.0067 67.9711,99.8267 67.3551,99.8267 C66.9071,99.8267 66.4861,99.9317 66.0961,100.1447 C65.7061,100.3567 65.3421,100.6437 65.0081,101.0097 L65.0081,107.6837 L63.2591,107.6837 L63.2591,98.5807 L64.3101,98.5807 C64.5541,98.5807 64.7051,98.6977 64.7651,98.9307 L64.9011,99.8437 Z" id="Fill-30" fill="#050302" mask="url(#mask-4)"></path>
                        <path d="M76.0105,107.8276 C75.2755,107.8276 74.7105,107.6206 74.3135,107.2096 C73.9155,106.7966 73.7185,106.2086 73.7185,105.4446 L73.7185,99.9956 L72.6595,99.9956 C72.5575,99.9956 72.4715,99.9646 72.4055,99.9016 C72.3355,99.8386 72.3005,99.7456 72.3005,99.6196 L72.3005,98.9126 L73.7795,98.7066 L74.1735,95.9906 C74.1975,95.8886 74.2425,95.8096 74.3135,95.7536 C74.3815,95.6966 74.4705,95.6686 74.5775,95.6686 L75.4645,95.6686 L75.4645,98.7236 L78.0445,98.7236 L78.0445,99.9956 L75.4645,99.9956 L75.4645,105.3266 C75.4645,105.6856 75.5525,105.9536 75.7285,106.1306 C75.9055,106.3056 76.1295,106.3946 76.4065,106.3946 C76.5675,106.3946 76.7055,106.3736 76.8225,106.3316 C76.9385,106.2896 77.0375,106.2446 77.1215,106.1936 C77.2035,106.1426 77.2775,106.0956 77.3375,106.0536 C77.3965,106.0116 77.4485,105.9906 77.4985,105.9906 C77.5575,105.9906 77.6035,106.0036 77.6375,106.0306 C77.6695,106.0586 77.7045,106.1016 77.7395,106.1616 L78.2595,107.0036 C77.9735,107.2656 77.6335,107.4686 77.2395,107.6126 C76.8435,107.7556 76.4335,107.8276 76.0105,107.8276" id="Fill-31" fill="#050302" mask="url(#mask-4)"></path>
                        <path d="M85.6252,102.1191 C85.6252,101.7741 85.5762,101.4541 85.4782,101.1611 C85.3802,100.8681 85.2332,100.6141 85.0442,100.3991 C84.8522,100.1851 84.6192,100.0171 84.3442,99.8981 C84.0692,99.7771 83.7522,99.7181 83.3962,99.7181 C82.6612,99.7181 82.0812,99.9311 81.6602,100.3551 C81.2392,100.7781 80.9722,101.3671 80.8582,102.1191 L85.6252,102.1191 Z M87.0672,106.3861 C86.8542,106.6361 86.6052,106.8531 86.3252,107.0351 C86.0432,107.2171 85.7442,107.3641 85.4292,107.4771 C85.1102,107.5911 84.7852,107.6751 84.4472,107.7291 C84.1092,107.7821 83.7772,107.8101 83.4482,107.8101 C82.8212,107.8101 82.2412,107.7031 81.7052,107.4921 C81.1692,107.2801 80.7082,106.9681 80.3152,106.5591 C79.9252,106.1511 79.6212,105.6431 79.4022,105.0361 C79.1852,104.4311 79.0762,103.7321 79.0762,102.9451 C79.0762,102.3111 79.1742,101.7221 79.3712,101.1741 C79.5682,100.6281 79.8502,100.1521 80.2172,99.7461 C80.5852,99.3401 81.0352,99.0191 81.5672,98.7871 C82.0972,98.5541 82.6952,98.4371 83.3592,98.4371 C83.9142,98.4371 84.4262,98.5281 84.8962,98.7101 C85.3642,98.8921 85.7692,99.1581 86.1082,99.5031 C86.4492,99.8491 86.7172,100.2781 86.9122,100.7861 C87.1052,101.2931 87.2042,101.8721 87.2042,102.5231 C87.2042,102.7911 87.1722,102.9731 87.1132,103.0661 C87.0532,103.1591 86.9432,103.2041 86.7802,103.2041 L80.8142,103.2041 C80.8322,103.7481 80.9112,104.2211 81.0472,104.6251 C81.1842,105.0281 81.3742,105.3641 81.6162,105.6331 C81.8572,105.9011 82.1462,106.1021 82.4802,106.2331 C82.8142,106.3651 83.1892,106.4291 83.6002,106.4291 C83.9892,106.4291 84.3252,106.3861 84.6082,106.2941 C84.8922,106.2051 85.1372,106.1091 85.3432,106.0041 C85.5482,105.8991 85.7232,105.8031 85.8632,105.7141 C86.0032,105.6221 86.1272,105.5791 86.2342,105.5791 C86.3772,105.5791 86.4902,105.6331 86.5662,105.7401 L87.0672,106.3861 Z" id="Fill-32" fill="#050302" mask="url(#mask-4)"></path>
                        <path d="M94.4523,100.1484 C94.4033,100.2254 94.3523,100.2814 94.2983,100.3154 C94.2463,100.3484 94.1763,100.3634 94.0923,100.3634 C93.9973,100.3634 93.8923,100.3304 93.7753,100.2654 C93.6583,100.1994 93.5183,100.1274 93.3533,100.0504 C93.1893,99.9714 92.9963,99.8994 92.7763,99.8354 C92.5553,99.7684 92.2933,99.7374 91.9883,99.7374 C91.7363,99.7374 91.5093,99.7674 91.3023,99.8304 C91.0963,99.8934 90.9213,99.9804 90.7773,100.0904 C90.6343,100.2014 90.5233,100.3324 90.4453,100.4844 C90.3683,100.6364 90.3293,100.7994 90.3293,100.9724 C90.3293,101.2004 90.3953,101.3874 90.5323,101.5384 C90.6653,101.6864 90.8423,101.8144 91.0603,101.9224 C91.2783,102.0294 91.5263,102.1274 91.8033,102.2134 C92.0813,102.3014 92.3653,102.3924 92.6553,102.4864 C92.9443,102.5834 93.2273,102.6914 93.5053,102.8144 C93.7843,102.9364 94.0323,103.0884 94.2493,103.2704 C94.4663,103.4544 94.6453,103.6724 94.7783,103.9304 C94.9123,104.1874 94.9813,104.5014 94.9813,104.8704 C94.9813,105.2954 94.9043,105.6874 94.7513,106.0494 C94.5993,106.4104 94.3753,106.7214 94.0793,106.9854 C93.7843,107.2484 93.4183,107.4554 92.9823,107.6034 C92.5453,107.7524 92.0483,107.8274 91.4843,107.8274 C90.8583,107.8274 90.2783,107.7224 89.7483,107.5144 C89.2163,107.3044 88.7703,107.0384 88.4113,106.7164 L88.8243,106.0444 C88.8713,105.9604 88.9323,105.8974 89.0033,105.8524 C89.0763,105.8064 89.1713,105.7854 89.2893,105.7854 C89.4033,105.7854 89.5203,105.8254 89.6403,105.9094 C89.7593,105.9934 89.9023,106.0844 90.0703,106.1824 C90.2363,106.2824 90.4393,106.3714 90.6793,106.4524 C90.9173,106.5324 91.2163,106.5724 91.5753,106.5724 C91.8723,106.5724 92.1343,106.5364 92.3543,106.4604 C92.5763,106.3854 92.7583,106.2844 92.9053,106.1564 C93.0523,106.0284 93.1603,105.8794 93.2323,105.7134 C93.3043,105.5454 93.3393,105.3684 93.3393,105.1854 C93.3393,104.9454 93.2733,104.7474 93.1383,104.5884 C93.0033,104.4304 92.8283,104.2944 92.6093,104.1804 C92.3903,104.0664 92.1423,103.9684 91.8623,103.8844 C91.5803,103.8004 91.2953,103.7114 91.0013,103.6174 C90.7093,103.5214 90.4223,103.4104 90.1403,103.2844 C89.8603,103.1584 89.6123,103.0014 89.3933,102.8104 C89.1743,102.6194 88.9993,102.3854 88.8643,102.1104 C88.7293,101.8354 88.6633,101.5014 88.6633,101.1074 C88.6633,100.7554 88.7373,100.4184 88.8823,100.0944 C89.0293,99.7724 89.2413,99.4884 89.5193,99.2434 C89.7973,98.9984 90.1403,98.8024 90.5503,98.6574 C90.9593,98.5104 91.4253,98.4374 91.9523,98.4374 C92.5553,98.4374 93.0993,98.5334 93.5863,98.7244 C94.0743,98.9144 94.4913,99.1774 94.8373,99.5134 L94.4523,100.1484 Z" id="Fill-33" fill="#050302" mask="url(#mask-4)"></path>
                        <path d="M107.7741,100.2831 C107.7211,100.3481 107.6691,100.4001 107.6181,100.4391 C107.5671,100.4791 107.4941,100.4981 107.3991,100.4981 C107.3011,100.4981 107.2031,100.4601 107.0981,100.3861 C106.9931,100.3111 106.8621,100.2301 106.7031,100.1451 C106.5451,100.0571 106.3551,99.9771 106.1301,99.9021 C105.9061,99.8281 105.6301,99.7891 105.3031,99.7891 C104.8721,99.7891 104.4911,99.8681 104.1641,100.0221 C103.8361,100.1781 103.5621,100.3991 103.3431,100.6851 C103.1261,100.9721 102.9601,101.3231 102.8461,101.7341 C102.7331,102.1471 102.6761,102.6091 102.6761,103.1231 C102.6761,103.6561 102.7351,104.1281 102.8561,104.5431 C102.9751,104.9591 103.1451,105.3071 103.3671,105.5911 C103.5881,105.8761 103.8561,106.0921 104.1721,106.2371 C104.4891,106.3841 104.8411,106.4571 105.2291,106.4571 C105.6071,106.4571 105.9171,106.4101 106.1621,106.3171 C106.4051,106.2241 106.6101,106.1251 106.7711,106.0181 C106.9321,105.9091 107.0671,105.8101 107.1751,105.7171 C107.2821,105.6241 107.3921,105.5791 107.5061,105.5791 C107.6481,105.5791 107.7601,105.6331 107.8371,105.7401 L108.3391,106.3861 C108.1311,106.6411 107.8971,106.8601 107.6361,107.0381 C107.3751,107.2191 107.0981,107.3641 106.8081,107.4771 C106.5141,107.5911 106.2081,107.6751 105.8871,107.7291 C105.5691,107.7821 105.2451,107.8101 104.9161,107.8101 C104.3491,107.8101 103.8191,107.7051 103.3251,107.4951 C102.8321,107.2871 102.4051,106.9821 102.0441,106.5811 C101.6841,106.1821 101.3971,105.6911 101.1891,105.1081 C100.9801,104.5251 100.8751,103.8641 100.8751,103.1231 C100.8751,102.4481 100.9701,101.8251 101.1591,101.2511 C101.3461,100.6771 101.6241,100.1831 101.9921,99.7671 C102.3591,99.3521 102.8111,99.0271 103.3481,98.7901 C103.8851,98.5561 104.5011,98.4371 105.1941,98.4371 C105.8451,98.4371 106.4201,98.5421 106.9151,98.7501 C107.4101,98.9601 107.8511,99.2561 108.2391,99.6371 L107.7741,100.2831 Z" id="Fill-34" fill="#050302" mask="url(#mask-4)"></path>
                        <path d="M113.6892,106.4467 C114.5482,106.4467 115.1902,106.1577 115.6142,105.5787 C116.0382,104.9997 116.2512,104.1837 116.2512,103.1327 C116.2512,102.0807 116.0382,101.2647 115.6142,100.6817 C115.1902,100.0997 114.5482,99.8087 113.6892,99.8087 C112.8162,99.8087 112.1672,100.0997 111.7392,100.6817 C111.3132,101.2647 111.0992,102.0807 111.0992,103.1327 C111.0992,104.1837 111.3132,104.9997 111.7392,105.5787 C112.1672,106.1577 112.8162,106.4467 113.6892,106.4467 M113.6892,98.4367 C114.3572,98.4367 114.9612,98.5457 115.5022,98.7637 C116.0432,98.9827 116.5032,99.2967 116.8812,99.7057 C117.2632,100.1137 117.5532,100.6067 117.7562,101.1827 C117.9592,101.7597 118.0612,102.4057 118.0612,103.1237 C118.0612,103.8417 117.9592,104.4887 117.7562,105.0677 C117.5532,105.6467 117.2632,106.1407 116.8812,106.5467 C116.5032,106.9527 116.0432,107.2637 115.5022,107.4827 C114.9612,107.6997 114.3572,107.8097 113.6892,107.8097 C113.0142,107.8097 112.4042,107.6997 111.8652,107.4827 C111.3232,107.2637 110.8632,106.9527 110.4802,106.5467 C110.0982,106.1407 109.8042,105.6467 109.5972,105.0677 C109.3912,104.4887 109.2902,103.8417 109.2902,103.1237 C109.2902,102.4057 109.3912,101.7597 109.5972,101.1827 C109.8042,100.6067 110.0982,100.1137 110.4802,99.7057 C110.8632,99.2967 111.3232,98.9827 111.8652,98.7637 C112.4042,98.5457 113.0142,98.4367 113.6892,98.4367" id="Fill-35" fill="#050302" mask="url(#mask-4)"></path>
                        <path d="M121.6447,99.8437 C121.8407,99.6357 122.0477,99.4437 122.2627,99.2697 C122.4777,99.0967 122.7057,98.9497 122.9487,98.8267 C123.1897,98.7047 123.4507,98.6087 123.7277,98.5397 C124.0057,98.4717 124.3037,98.4367 124.6197,98.4367 C125.1207,98.4367 125.5617,98.5207 125.9407,98.6887 C126.3207,98.8547 126.6397,99.0897 126.8947,99.3907 C127.1527,99.6937 127.3467,100.0557 127.4777,100.4807 C127.6087,100.9047 127.6757,101.3737 127.6757,101.8857 L127.6757,107.6837 L125.9187,107.6837 L125.9187,101.8857 C125.9187,101.2357 125.7697,100.7297 125.4707,100.3687 C125.1727,100.0067 124.7147,99.8267 124.1007,99.8267 C123.6517,99.8267 123.2317,99.9317 122.8417,100.1447 C122.4497,100.3567 122.0857,100.6437 121.7537,101.0097 L121.7537,107.6837 L120.0047,107.6837 L120.0047,98.5807 L121.0537,98.5807 C121.2987,98.5807 121.4507,98.6977 121.5097,98.9307 L121.6447,99.8437 Z" id="Fill-36" fill="#050302" mask="url(#mask-4)"></path>
                        <path d="M140.9357,100.2831 C140.8817,100.3481 140.8287,100.4001 140.7797,100.4391 C140.7277,100.4791 140.6537,100.4981 140.5597,100.4981 C140.4627,100.4981 140.3637,100.4601 140.2587,100.3861 C140.1537,100.3111 140.0237,100.2301 139.8647,100.1451 C139.7057,100.0571 139.5167,99.9771 139.2927,99.9021 C139.0687,99.8281 138.7917,99.7891 138.4627,99.7891 C138.0327,99.7891 137.6527,99.8681 137.3257,100.0221 C136.9967,100.1781 136.7237,100.3991 136.5047,100.6851 C136.2857,100.9721 136.1217,101.3231 136.0077,101.7341 C135.8937,102.1471 135.8377,102.6091 135.8377,103.1231 C135.8377,103.6561 135.8967,104.1281 136.0167,104.5431 C136.1357,104.9591 136.3067,105.3071 136.5277,105.5911 C136.7477,105.8761 137.0177,106.0921 137.3317,106.2371 C137.6507,106.3841 138.0027,106.4571 138.3917,106.4571 C138.7677,106.4571 139.0787,106.4101 139.3237,106.3171 C139.5667,106.2241 139.7717,106.1251 139.9327,106.0181 C140.0937,105.9091 140.2267,105.8101 140.3357,105.7171 C140.4437,105.6241 140.5527,105.5791 140.6677,105.5791 C140.8097,105.5791 140.9197,105.6331 140.9977,105.7401 L141.5007,106.3861 C141.2907,106.6411 141.0567,106.8601 140.7977,107.0381 C140.5367,107.2191 140.2607,107.3641 139.9677,107.4771 C139.6737,107.5911 139.3697,107.6751 139.0487,107.7291 C138.7287,107.7821 138.4067,107.8101 138.0777,107.8101 C137.5107,107.8101 136.9787,107.7051 136.4867,107.4951 C135.9937,107.2871 135.5667,106.9821 135.2047,106.5811 C134.8437,106.1821 134.5587,105.6911 134.3507,105.1081 C134.1407,104.5251 134.0357,103.8641 134.0357,103.1231 C134.0357,102.4481 134.1297,101.8251 134.3187,101.2511 C134.5077,100.6771 134.7847,100.1831 135.1517,99.7671 C135.5187,99.3521 135.9707,99.0271 136.5097,98.7901 C137.0467,98.5561 137.6617,98.4371 138.3537,98.4371 C139.0057,98.4371 139.5797,98.5421 140.0767,98.7501 C140.5697,98.9601 141.0127,99.2561 141.4007,99.6371 L140.9357,100.2831 Z" id="Fill-37" fill="#050302" mask="url(#mask-4)"></path>
                        <path d="M146.8493,106.4467 C147.7083,106.4467 148.3503,106.1577 148.7743,105.5787 C149.1983,104.9997 149.4113,104.1837 149.4113,103.1327 C149.4113,102.0807 149.1983,101.2647 148.7743,100.6817 C148.3503,100.0997 147.7083,99.8087 146.8493,99.8087 C145.9753,99.8087 145.3273,100.0997 144.8993,100.6817 C144.4733,101.2647 144.2593,102.0807 144.2593,103.1327 C144.2593,104.1837 144.4733,104.9997 144.8993,105.5787 C145.3273,106.1577 145.9753,106.4467 146.8493,106.4467 M146.8493,98.4367 C147.5173,98.4367 148.1213,98.5457 148.6623,98.7637 C149.2033,98.9827 149.6633,99.2967 150.0413,99.7057 C150.4233,100.1137 150.7133,100.6067 150.9163,101.1827 C151.1193,101.7597 151.2213,102.4057 151.2213,103.1237 C151.2213,103.8417 151.1193,104.4887 150.9163,105.0677 C150.7133,105.6467 150.4233,106.1407 150.0413,106.5467 C149.6633,106.9527 149.2033,107.2637 148.6623,107.4827 C148.1213,107.6997 147.5173,107.8097 146.8493,107.8097 C146.1733,107.8097 145.5643,107.6997 145.0253,107.4827 C144.4833,107.2637 144.0223,106.9527 143.6403,106.5467 C143.2583,106.1407 142.9643,105.6467 142.7573,105.0677 C142.5513,104.4887 142.4493,103.8417 142.4493,103.1237 C142.4493,102.4057 142.5513,101.7597 142.7573,101.1827 C142.9643,100.6067 143.2583,100.1137 143.6403,99.7057 C144.0223,99.2967 144.4833,98.9827 145.0253,98.7637 C145.5643,98.5457 146.1733,98.4367 146.8493,98.4367" id="Fill-38" fill="#050302" mask="url(#mask-4)"></path>
                        <path d="M153.1667,107.684 L153.1667,98.58 L154.2137,98.58 C154.4587,98.58 154.6127,98.698 154.6717,98.931 L154.7977,99.798 C155.1307,99.399 155.5027,99.072 155.9107,98.818 C156.3207,98.564 156.7997,98.437 157.3497,98.437 C157.9537,98.437 158.4437,98.603 158.8197,98.934 C159.1957,99.267 159.4707,99.716 159.6437,100.283 C159.7747,99.961 159.9467,99.683 160.1547,99.45 C160.3627,99.217 160.5977,99.025 160.8537,98.876 C161.1107,98.727 161.3847,98.617 161.6737,98.545 C161.9627,98.474 162.2567,98.437 162.5557,98.437 C163.0407,98.437 163.4717,98.514 163.8507,98.666 C164.2307,98.818 164.5507,99.04 164.8147,99.333 C165.0777,99.625 165.2767,99.987 165.4137,100.418 C165.5517,100.847 165.6207,101.337 165.6207,101.886 L165.6207,107.684 L163.8637,107.684 L163.8637,101.886 C163.8637,101.205 163.7157,100.693 163.4217,100.346 C163.1247,99.999 162.6937,99.827 162.1267,99.827 C161.8747,99.827 161.6377,99.87 161.4097,99.956 C161.1827,100.043 160.9827,100.173 160.8147,100.346 C160.6437,100.519 160.5097,100.735 160.4107,100.99 C160.3107,101.247 160.2617,101.547 160.2617,101.886 L160.2617,107.684 L158.5067,107.684 L158.5067,101.886 C158.5067,101.183 158.3647,100.663 158.0847,100.327 C157.8047,99.993 157.3917,99.827 156.8487,99.827 C156.4707,99.827 156.1227,99.924 155.7987,100.122 C155.4767,100.318 155.1827,100.588 154.9137,100.929 L154.9137,107.684 L153.1667,107.684 Z" id="Fill-39" fill="#050302" mask="url(#mask-4)"></path>
                        <path d="M169.7243,105.4443 C170.0093,105.8203 170.3213,106.0833 170.6513,106.2333 C170.9823,106.3823 171.3533,106.4573 171.7663,106.4573 C172.5683,106.4573 173.1873,106.1683 173.6253,105.5913 C174.0663,105.0153 174.2853,104.1753 174.2853,103.0693 C174.2853,102.4903 174.2363,101.9963 174.1363,101.5873 C174.0383,101.1773 173.8943,100.8433 173.7053,100.5823 C173.5183,100.3233 173.2873,100.1323 173.0123,100.0103 C172.7383,99.8873 172.4283,99.8263 172.0813,99.8263 C171.5723,99.8263 171.1333,99.9403 170.7583,100.1663 C170.3853,100.3933 170.0403,100.7153 169.7243,101.1333 L169.7243,105.4443 Z M169.6353,99.9423 C169.8263,99.7163 170.0303,99.5073 170.2473,99.3193 C170.4663,99.1323 170.7013,98.9703 170.9513,98.8363 C171.2033,98.7013 171.4693,98.5983 171.7523,98.5223 C172.0363,98.4473 172.3403,98.4103 172.6623,98.4103 C173.1823,98.4103 173.6533,98.5123 174.0733,98.7153 C174.4953,98.9183 174.8553,99.2173 175.1543,99.6113 C175.4523,100.0053 175.6833,100.4913 175.8483,101.0703 C176.0123,101.6523 176.0943,102.3173 176.0943,103.0693 C176.0943,103.7443 176.0033,104.3693 175.8213,104.9473 C175.6393,105.5233 175.3783,106.0233 175.0423,106.4463 C174.7033,106.8723 174.2913,107.2043 173.8053,107.4463 C173.3183,107.6893 172.7713,107.8103 172.1623,107.8103 C171.6183,107.8103 171.1503,107.7193 170.7643,107.5403 C170.3753,107.3623 170.0283,107.1103 169.7243,106.7883 L169.7243,110.7393 L167.9753,110.7393 L167.9753,98.5803 L169.0263,98.5803 C169.2703,98.5803 169.4213,98.6973 169.4813,98.9303 L169.6353,99.9423 Z" id="Fill-40" fill="#050302" mask="url(#mask-4)"></path>
                        <path d="M179.7048,100.3271 C179.9988,99.7301 180.3508,99.2611 180.7618,98.9221 C181.1748,98.5801 181.6718,98.4101 182.2488,98.4101 C182.4468,98.4101 182.6348,98.4331 182.8088,98.4771 C182.9858,98.5221 183.1408,98.5891 183.2708,98.6781 L183.1558,99.9961 C183.1138,100.1571 183.0158,100.2381 182.8598,100.2381 C182.7758,100.2381 182.6498,100.2221 182.4838,100.1881 C182.3158,100.1551 182.1378,100.1401 181.9448,100.1401 C181.6648,100.1401 181.4158,100.1801 181.2028,100.2601 C180.9858,100.3411 180.7928,100.4601 180.6248,100.6191 C180.4538,100.7771 180.3038,100.9711 180.1718,101.2021 C180.0408,101.4311 179.9178,101.6921 179.8048,101.9861 L179.8048,107.6841 L178.0568,107.6841 L178.0568,98.5801 L179.0608,98.5801 C179.2518,98.5801 179.3828,98.6151 179.4498,98.6831 C179.5188,98.7521 179.5678,98.8721 179.5978,99.0461 L179.7048,100.3271 Z" id="Fill-41" fill="#050302" mask="url(#mask-4)"></path>
                        <path d="M189.3757,103.6435 C188.6637,103.6675 188.0597,103.7225 187.5637,103.8095 C187.0687,103.8955 186.6667,104.0105 186.3547,104.1545 C186.0437,104.2975 185.8197,104.4655 185.6827,104.6605 C185.5467,104.8545 185.4767,105.0715 185.4767,105.3095 C185.4767,105.5375 185.5147,105.7325 185.5887,105.8975 C185.6637,106.0605 185.7657,106.1945 185.8927,106.2995 C186.0227,106.4045 186.1727,106.4795 186.3467,106.5295 C186.5197,106.5765 186.7087,106.5995 186.9117,106.5995 C187.1797,106.5995 187.4257,106.5725 187.6497,106.5185 C187.8747,106.4665 188.0837,106.3895 188.2817,106.2905 C188.4797,106.1935 188.6667,106.0705 188.8467,105.9275 C189.0257,105.7855 189.2007,105.6215 189.3757,105.4355 L189.3757,103.6435 Z M184.2497,99.8525 C184.7567,99.3695 185.3087,99.0075 185.9037,98.7695 C186.4967,98.5295 187.1497,98.4105 187.8597,98.4105 C188.3797,98.4105 188.8397,98.4945 189.2387,98.6655 C189.6417,98.8355 189.9777,99.0735 190.2517,99.3785 C190.5267,99.6835 190.7357,100.0465 190.8757,100.4705 C191.0157,100.8955 191.0867,101.3645 191.0867,101.8775 L191.0867,107.6845 L190.3067,107.6845 C190.1337,107.6845 190.0017,107.6565 189.9107,107.5985 C189.8237,107.5425 189.7507,107.4355 189.6977,107.2815 L189.5087,106.4835 C189.2757,106.6985 189.0467,106.8875 188.8187,107.0525 C188.5917,107.2165 188.3537,107.3565 188.1067,107.4745 C187.8597,107.5895 187.5937,107.6785 187.3137,107.7385 C187.0337,107.7975 186.7227,107.8275 186.3827,107.8275 C186.0227,107.8275 185.6867,107.7785 185.3747,107.6785 C185.0597,107.5815 184.7867,107.4305 184.5537,107.2275 C184.3217,107.0245 184.1377,106.7705 184.0027,106.4665 C183.8677,106.1615 183.8017,105.8065 183.8017,105.3985 C183.8017,105.0415 183.8977,104.6955 184.0917,104.3645 C184.2867,104.0335 184.6037,103.7355 185.0427,103.4735 C185.4817,103.2095 186.0537,102.9955 186.7627,102.8275 C187.4717,102.6595 188.3407,102.5655 189.3757,102.5405 L189.3757,101.8775 C189.3757,101.1915 189.2287,100.6765 188.9347,100.3375 C188.6447,99.9965 188.2137,99.8265 187.6467,99.8265 C187.2637,99.8265 186.9427,99.8735 186.6827,99.9695 C186.4217,100.0645 186.1977,100.1715 186.0097,100.2865 C185.8227,100.4035 185.6587,100.5105 185.5187,100.6045 C185.3767,100.7015 185.2317,100.7485 185.0827,100.7485 C184.9617,100.7485 184.8607,100.7155 184.7727,100.6505 C184.6877,100.5835 184.6157,100.5075 184.5627,100.4175 L184.2497,99.8525 Z" id="Fill-42" fill="#050302" mask="url(#mask-4)"></path>
                        <path d="M340.5803,39.0278 C340.7713,39.0278 340.9193,39.0818 341.0283,39.1938 C341.1373,39.3038 341.1893,39.4478 341.1893,39.6278 L341.1893,40.6848 L332.5513,40.6848 L332.5513,40.0848 C332.5513,39.9658 332.5753,39.8378 332.6243,39.7028 C332.6703,39.5698 332.7503,39.4478 332.8663,39.3408 L336.9333,35.2638 C337.2723,34.9238 337.5803,34.5948 337.8573,34.2778 C338.1303,33.9618 338.3643,33.6468 338.5543,33.3328 C338.7463,33.0198 338.8933,32.6978 338.9983,32.3708 C339.1033,32.0418 339.1553,31.6948 339.1553,31.3308 C339.1553,30.9718 339.1003,30.6568 338.9843,30.3858 C338.8723,30.1128 338.7163,29.8868 338.5183,29.7088 C338.3223,29.5298 338.0883,29.3958 337.8203,29.3058 C337.5523,29.2148 337.2623,29.1718 336.9513,29.1718 C336.6393,29.1718 336.3553,29.2148 336.0963,29.3058 C335.8353,29.3958 335.6033,29.5198 335.4003,29.6828 C335.1973,29.8438 335.0273,30.0338 334.8893,30.2548 C334.7523,30.4768 334.6543,30.7148 334.5953,30.9718 C334.5113,31.1998 334.4063,31.3518 334.2763,31.4288 C334.1473,31.5058 333.9613,31.5258 333.7163,31.4838 L332.8033,31.3218 C332.8873,30.7238 333.0513,30.1988 333.2963,29.7438 C333.5393,29.2908 333.8483,28.9108 334.2173,28.6028 C334.5883,28.2948 335.0153,28.0638 335.4953,27.9078 C335.9763,27.7528 336.4943,27.6748 337.0483,27.6748 C337.6123,27.6748 338.1303,27.7568 338.6043,27.9218 C339.0793,28.0848 339.4903,28.3228 339.8363,28.6338 C340.1833,28.9438 340.4543,29.3218 340.6523,29.7668 C340.8503,30.2128 340.9483,30.7148 340.9483,31.2768 C340.9483,31.7548 340.8773,32.1988 340.7383,32.6068 C340.5963,33.0168 340.4053,33.4068 340.1633,33.7758 C339.9223,34.1468 339.6403,34.5068 339.3203,34.8558 C339.0013,35.2058 338.6623,35.5588 338.3053,35.9178 L335.0433,39.2518 C335.2933,39.1858 335.5453,39.1328 335.7993,39.0908 C336.0543,39.0488 336.2923,39.0278 336.5203,39.0278 L340.5803,39.0278 Z" id="Fill-43" fill="#050302" mask="url(#mask-4)"></path>
                        <path d="M345.4802,32.621 C346.1382,32.484 346.7332,32.414 347.2642,32.414 C347.9342,32.414 348.5252,32.514 349.0382,32.715 C349.5512,32.915 349.9832,33.189 350.3322,33.539 C350.6812,33.888 350.9442,34.301 351.1232,34.775 C351.2972,35.251 351.3852,35.766 351.3852,36.322 C351.3852,37.003 351.2662,37.621 351.0282,38.175 C350.7882,38.732 350.4592,39.206 350.0412,39.6 C349.6252,39.996 349.1292,40.298 348.5592,40.51 C347.9882,40.722 347.3742,40.829 346.7172,40.829 C346.3292,40.829 345.9602,40.79 345.6102,40.711 C345.2612,40.634 344.9342,40.531 344.6302,40.403 C344.3252,40.274 344.0422,40.127 343.7832,39.959 C343.5232,39.792 343.2912,39.616 343.0882,39.43 L343.6252,38.678 C343.7392,38.512 343.8912,38.428 344.0842,38.428 C344.2082,38.428 344.3462,38.473 344.5002,38.566 C344.6512,38.659 344.8332,38.762 345.0432,38.875 C345.2512,38.989 345.4982,39.093 345.7852,39.183 C346.0722,39.276 346.4112,39.324 346.8072,39.324 C347.2432,39.324 347.6362,39.253 347.9862,39.112 C348.3342,38.972 348.6302,38.774 348.8722,38.517 C349.1132,38.26 349.2992,37.952 349.4282,37.595 C349.5562,37.236 349.6212,36.838 349.6212,36.403 C349.6212,36.014 349.5632,35.664 349.4492,35.354 C349.3372,35.043 349.1662,34.777 348.9382,34.557 C348.7122,34.336 348.4272,34.166 348.0882,34.051 C347.7482,33.933 347.3492,33.875 346.8962,33.875 C346.2642,33.875 345.5892,33.989 344.8712,34.215 L343.7692,33.893 L344.8192,27.819 L350.9822,27.819 L350.9822,28.58 C350.9822,28.83 350.9022,29.035 350.7442,29.194 C350.5872,29.351 350.3212,29.431 349.9522,29.431 L346.0372,29.431 L345.4802,32.621 Z" id="Fill-44" fill="#050302" mask="url(#mask-4)"></path>
                        <path d="M340.5803,106.0268 C340.7713,106.0268 340.9193,106.0808 341.0283,106.1938 C341.1373,106.3028 341.1893,106.4468 341.1893,106.6268 L341.1893,107.6838 L332.5513,107.6838 L332.5513,107.0838 C332.5513,106.9648 332.5753,106.8378 332.6243,106.7028 C332.6703,106.5688 332.7503,106.4468 332.8663,106.3398 L336.9333,102.2628 C337.2723,101.9228 337.5803,101.5938 337.8573,101.2768 C338.1303,100.9608 338.3643,100.6458 338.5543,100.3318 C338.7463,100.0188 338.8933,99.6968 338.9983,99.3698 C339.1033,99.0408 339.1553,98.6938 339.1553,98.3298 C339.1553,97.9708 339.1003,97.6558 338.9843,97.3848 C338.8723,97.1118 338.7163,96.8858 338.5183,96.7078 C338.3223,96.5288 338.0883,96.3948 337.8203,96.3048 C337.5523,96.2138 337.2623,96.1708 336.9513,96.1708 C336.6393,96.1708 336.3553,96.2138 336.0963,96.3048 C335.8353,96.3948 335.6033,96.5188 335.4003,96.6818 C335.1973,96.8428 335.0273,97.0328 334.8893,97.2538 C334.7523,97.4758 334.6543,97.7138 334.5953,97.9708 C334.5113,98.1988 334.4063,98.3508 334.2763,98.4278 C334.1473,98.5058 333.9613,98.5248 333.7163,98.4828 L332.8033,98.3208 C332.8873,97.7228 333.0513,97.1978 333.2963,96.7428 C333.5393,96.2898 333.8483,95.9098 334.2173,95.6018 C334.5883,95.2938 335.0153,95.0628 335.4953,94.9068 C335.9763,94.7518 336.4943,94.6738 337.0483,94.6738 C337.6123,94.6738 338.1303,94.7558 338.6043,94.9208 C339.0793,95.0838 339.4903,95.3218 339.8363,95.6328 C340.1833,95.9428 340.4543,96.3208 340.6523,96.7658 C340.8503,97.2118 340.9483,97.7138 340.9483,98.2758 C340.9483,98.7538 340.8773,99.1978 340.7383,99.6058 C340.5963,100.0158 340.4053,100.4058 340.1633,100.7748 C339.9223,101.1458 339.6403,101.5058 339.3203,101.8548 C339.0013,102.2048 338.6623,102.5578 338.3053,102.9168 L335.0433,106.2508 C335.2933,106.1848 335.5453,106.1318 335.7993,106.0898 C336.0543,106.0478 336.2923,106.0268 336.5203,106.0268 L340.5803,106.0268 Z" id="Fill-45" fill="#050302" mask="url(#mask-4)"></path>
                        <path d="M350.2018,101.2509 C350.2018,100.2829 350.1228,99.4729 349.9658,98.8219 C349.8058,98.1709 349.5948,97.6469 349.3308,97.2509 C349.0648,96.8529 348.7568,96.5709 348.4098,96.4029 C348.0638,96.2349 347.7028,96.1529 347.3268,96.1529 C346.9508,96.1529 346.5898,96.2349 346.2438,96.4029 C345.8968,96.5709 345.5888,96.8529 345.3228,97.2509 C345.0568,97.6469 344.8468,98.1709 344.6928,98.8219 C344.5368,99.4729 344.4578,100.2829 344.4578,101.2509 C344.4578,102.2189 344.5368,103.0269 344.6928,103.6779 C344.8468,104.3289 345.0568,104.8529 345.3228,105.2469 C345.5888,105.6419 345.8968,105.9219 346.2438,106.0899 C346.5898,106.2559 346.9508,106.3399 347.3268,106.3399 C347.7028,106.3399 348.0638,106.2559 348.4098,106.0899 C348.7568,105.9219 349.0648,105.6419 349.3308,105.2469 C349.5948,104.8529 349.8058,104.3289 349.9658,103.6779 C350.1228,103.0269 350.2018,102.2189 350.2018,101.2509 M352.0118,101.2509 C352.0118,102.3749 351.8928,103.3479 351.6508,104.1719 C351.4078,104.9959 351.0768,105.6789 350.6558,106.2189 C350.2338,106.7599 349.7388,107.1609 349.1678,107.4249 C348.5978,107.6879 347.9828,107.8189 347.3268,107.8189 C346.6708,107.8189 346.0548,107.6879 345.4858,107.4249 C344.9148,107.1609 344.4198,106.7599 344.0028,106.2189 C343.5828,105.6789 343.2538,104.9959 343.0158,104.1719 C342.7788,103.3479 342.6598,102.3749 342.6598,101.2509 C342.6598,100.1269 342.7788,99.1529 343.0158,98.3249 C343.2538,97.4969 343.5828,96.8139 344.0028,96.2739 C344.4198,95.7329 344.9148,95.3309 345.4858,95.0679 C346.0548,94.8059 346.6708,94.6739 347.3268,94.6739 C347.9828,94.6739 348.5978,94.8059 349.1678,95.0679 C349.7388,95.3309 350.2338,95.7329 350.6558,96.2739 C351.0768,96.8139 351.4078,97.4969 351.6508,98.3249 C351.8928,99.1529 352.0118,100.1269 352.0118,101.2509" id="Fill-46" fill="#050302" mask="url(#mask-4)"></path>
                        <path d="M428.7541,198.162 L3.7281,198.162 C2.4711,198.162 1.4521,197.143 1.4521,195.886 L1.4521,142.772 C1.4521,141.516 2.4711,140.496 3.7281,140.496 L428.7541,140.496 C430.0111,140.496 431.0301,141.516 431.0301,142.772 L431.0301,195.886 C431.0301,197.143 430.0111,198.162 428.7541,198.162" id="Fill-47" fill="#FFFFFF" mask="url(#mask-4)"></path>
                        <path d="M323.3176,162.9892 C322.9486,162.9892 322.6246,163.0432 322.3466,163.1542 C322.0676,163.2662 321.8376,163.4162 321.6516,163.6072 C321.4656,163.7982 321.3276,164.0202 321.2346,164.2702 C321.1426,164.5202 321.0966,164.7902 321.0966,165.0772 C321.0966,165.3572 321.1366,165.6302 321.2176,165.8962 C321.2976,166.1622 321.4276,166.3982 321.6026,166.6052 C321.7796,166.8092 322.0086,166.9762 322.2886,167.1022 C322.5686,167.2282 322.9116,167.2892 323.3176,167.2892 C323.7186,167.2892 324.0596,167.2282 324.3446,167.1022 C324.6286,166.9762 324.8576,166.8092 325.0346,166.6052 C325.2116,166.3982 325.3386,166.1622 325.4196,165.8962 C325.5016,165.6302 325.5406,165.3572 325.5406,165.0772 C325.5406,164.7902 325.4946,164.5202 325.4016,164.2702 C325.3096,164.0202 325.1696,163.7982 324.9856,163.6072 C324.7996,163.4162 324.5686,163.2662 324.2906,163.1542 C324.0146,163.0432 323.6886,162.9892 323.3176,162.9892 M323.3176,173.4092 C323.7236,173.4092 324.0866,173.3532 324.4026,173.2392 C324.7196,173.1262 324.9876,172.9662 325.2096,172.7602 C325.4296,172.5532 325.5976,172.3082 325.7116,172.0212 C325.8236,171.7342 325.8816,171.4212 325.8816,171.0802 C325.8816,170.6612 325.8136,170.3022 325.6746,170.0002 C325.5366,169.6992 325.3536,169.4502 325.1206,169.2562 C324.8856,169.0622 324.6146,168.9182 324.3046,168.8252 C323.9936,168.7352 323.6646,168.6872 323.3176,168.6872 C322.9656,168.6872 322.6346,168.7352 322.3236,168.8252 C322.0136,168.9182 321.7426,169.0622 321.5076,169.2562 C321.2756,169.4502 321.0916,169.6992 320.9586,170.0002 C320.8216,170.3022 320.7556,170.6612 320.7556,171.0802 C320.7556,171.4212 320.8116,171.7342 320.9266,172.0212 C321.0396,172.3082 321.2076,172.5532 321.4276,172.7602 C321.6486,172.9662 321.9176,173.1262 322.2346,173.2392 C322.5506,173.3532 322.9116,173.4092 323.3176,173.4092 M325.2466,167.9442 C326.0466,168.1832 326.6536,168.5682 327.0696,169.1002 C327.4826,169.6312 327.6916,170.3022 327.6916,171.1162 C327.6916,171.6772 327.5846,172.1862 327.3746,172.6392 C327.1606,173.0922 326.8636,173.4792 326.4786,173.7992 C326.0916,174.1192 325.6306,174.3642 325.0926,174.5382 C324.5546,174.7112 323.9636,174.7992 323.3176,174.7992 C322.6736,174.7992 322.0826,174.7112 321.5456,174.5382 C321.0076,174.3642 320.5456,174.1192 320.1606,173.7992 C319.7756,173.4792 319.4766,173.0922 319.2646,172.6392 C319.0506,172.1862 318.9456,171.6772 318.9456,171.1162 C318.9456,170.3022 319.1526,169.6312 319.5686,169.1002 C319.9846,168.5682 320.5906,168.1832 321.3926,167.9442 C320.7296,167.6932 320.2306,167.3192 319.8966,166.8202 C319.5626,166.3212 319.3946,165.7282 319.3946,165.0402 C319.3946,164.5622 319.4886,164.1162 319.6776,163.7012 C319.8646,163.2872 320.1296,162.9262 320.4736,162.6222 C320.8176,162.3172 321.2316,162.0772 321.7146,161.9042 C322.1976,161.7312 322.7336,161.6452 323.3176,161.6452 C323.9036,161.6452 324.4376,161.7312 324.9226,161.9042 C325.4076,162.0772 325.8206,162.3172 326.1636,162.6222 C326.5066,162.9262 326.7726,163.2872 326.9616,163.7012 C327.1506,164.1162 327.2426,164.5622 327.2426,165.0402 C327.2426,165.7282 327.0766,166.3212 326.7406,166.8202 C326.4066,167.3192 325.9076,167.6932 325.2466,167.9442" id="Fill-48" fill="#050302" mask="url(#mask-4)"></path>
                        <path d="M336.5798,168.2221 C336.5798,167.2541 336.4988,166.4441 336.3418,165.7931 C336.1838,165.1421 335.9708,164.6181 335.7058,164.2221 C335.4398,163.8241 335.1338,163.5421 334.7878,163.3741 C334.4408,163.2061 334.0808,163.1241 333.7028,163.1241 C333.3278,163.1241 332.9658,163.2061 332.6198,163.3741 C332.2728,163.5421 331.9668,163.8241 331.7008,164.2221 C331.4338,164.6181 331.2248,165.1421 331.0688,165.7931 C330.9128,166.4441 330.8358,167.2541 330.8358,168.2221 C330.8358,169.1901 330.9128,169.9981 331.0688,170.6491 C331.2248,171.3001 331.4338,171.8241 331.7008,172.2171 C331.9668,172.6131 332.2728,172.8931 332.6198,173.0611 C332.9658,173.2271 333.3278,173.3111 333.7028,173.3111 C334.0808,173.3111 334.4408,173.2271 334.7878,173.0611 C335.1338,172.8931 335.4398,172.6131 335.7058,172.2171 C335.9708,171.8241 336.1838,171.3001 336.3418,170.6491 C336.4988,169.9981 336.5798,169.1901 336.5798,168.2221 M338.3898,168.2221 C338.3898,169.3461 338.2678,170.3191 338.0268,171.1431 C337.7838,171.9671 337.4528,172.6501 337.0308,173.1901 C336.6108,173.7311 336.1138,174.1321 335.5438,174.3961 C334.9728,174.6591 334.3608,174.7901 333.7028,174.7901 C333.0458,174.7901 332.4318,174.6591 331.8618,174.3961 C331.2908,174.1321 330.7978,173.7311 330.3788,173.1901 C329.9608,172.6501 329.6318,171.9671 329.3938,171.1431 C329.1538,170.3191 329.0358,169.3461 329.0358,168.2221 C329.0358,167.0981 329.1538,166.1231 329.3938,165.2961 C329.6318,164.4681 329.9608,163.7851 330.3788,163.2451 C330.7978,162.7041 331.2908,162.3021 331.8618,162.0391 C332.4318,161.7771 333.0458,161.6451 333.7028,161.6451 C334.3608,161.6451 334.9728,161.7771 335.5438,162.0391 C336.1138,162.3021 336.6108,162.7041 337.0308,163.2451 C337.4528,163.7851 337.7838,164.4681 338.0268,165.2961 C338.2678,166.1231 338.3898,167.0981 338.3898,168.2221" id="Fill-49" fill="#050302" mask="url(#mask-4)"></path>
                        <path d="M339.8488,173.6069 C339.8488,173.4459 339.8798,173.2939 339.9398,173.1499 C339.9988,173.0069 340.0808,172.8809 340.1848,172.7739 C340.2898,172.6659 340.4138,172.5819 340.5568,172.5189 C340.7008,172.4559 340.8568,172.4239 341.0248,172.4239 C341.1858,172.4239 341.3358,172.4559 341.4798,172.5189 C341.6228,172.5819 341.7488,172.6659 341.8578,172.7739 C341.9648,172.8809 342.0508,173.0069 342.1138,173.1499 C342.1748,173.2939 342.2058,173.4459 342.2058,173.6069 C342.2058,173.7749 342.1748,173.9289 342.1138,174.0729 C342.0508,174.2159 341.9648,174.3419 341.8578,174.4489 C341.7488,174.5569 341.6228,174.6409 341.4798,174.7009 C341.3358,174.7599 341.1858,174.7899 341.0248,174.7899 C340.8568,174.7899 340.7008,174.7599 340.5568,174.7009 C340.4138,174.6409 340.2898,174.5569 340.1848,174.4489 C340.0808,174.3419 339.9988,174.2159 339.9398,174.0729 C339.8798,173.9289 339.8488,173.7749 339.8488,173.6069" id="Fill-50" fill="#050302" mask="url(#mask-4)"></path>
                        <path d="M351.2033,168.2221 C351.2033,167.2541 351.1223,166.4441 350.9653,165.7931 C350.8073,165.1421 350.5943,164.6181 350.3283,164.2221 C350.0623,163.8241 349.7573,163.5421 349.4113,163.3741 C349.0643,163.2061 348.7023,163.1241 348.3263,163.1241 C347.9503,163.1241 347.5873,163.2061 347.2413,163.3741 C346.8943,163.5421 346.5903,163.8241 346.3243,164.2221 C346.0573,164.6181 345.8483,165.1421 345.6903,165.7931 C345.5363,166.4441 345.4593,167.2541 345.4593,168.2221 C345.4593,169.1901 345.5363,169.9981 345.6903,170.6491 C345.8483,171.3001 346.0573,171.8241 346.3243,172.2171 C346.5903,172.6131 346.8943,172.8931 347.2413,173.0611 C347.5873,173.2271 347.9503,173.3111 348.3263,173.3111 C348.7023,173.3111 349.0643,173.2271 349.4113,173.0611 C349.7573,172.8931 350.0623,172.6131 350.3283,172.2171 C350.5943,171.8241 350.8073,171.3001 350.9653,170.6491 C351.1223,169.9981 351.2033,169.1901 351.2033,168.2221 M353.0123,168.2221 C353.0123,169.3461 352.8903,170.3191 352.6483,171.1431 C352.4073,171.9671 352.0743,172.6501 351.6543,173.1901 C351.2343,173.7311 350.7373,174.1321 350.1673,174.3961 C349.5963,174.6591 348.9843,174.7901 348.3263,174.7901 C347.6683,174.7901 347.0553,174.6591 346.4853,174.3961 C345.9143,174.1321 345.4213,173.7311 345.0003,173.1901 C344.5843,172.6501 344.2553,171.9671 344.0173,171.1431 C343.7763,170.3191 343.6573,169.3461 343.6573,168.2221 C343.6573,167.0981 343.7763,166.1231 344.0173,165.2961 C344.2553,164.4681 344.5843,163.7851 345.0003,163.2451 C345.4213,162.7041 345.9143,162.3021 346.4853,162.0391 C347.0553,161.7771 347.6683,161.6451 348.3263,161.6451 C348.9843,161.6451 349.5963,161.7771 350.1673,162.0391 C350.7373,162.3021 351.2343,162.7041 351.6543,163.2451 C352.0743,163.7851 352.4073,164.4681 352.6483,165.2961 C352.8903,166.1231 353.0123,167.0981 353.0123,168.2221" id="Fill-51" fill="#050302" mask="url(#mask-4)"></path>
                        <path d="M361.5949,168.2221 C361.5949,167.2541 361.5159,166.4441 361.3589,165.7931 C361.1989,165.1421 360.9879,164.6181 360.7229,164.2221 C360.4569,163.8241 360.1499,163.5421 359.8029,163.3741 C359.4559,163.2061 359.0959,163.1241 358.7199,163.1241 C358.3439,163.1241 357.9829,163.2061 357.6369,163.3741 C357.2899,163.5421 356.9819,163.8241 356.7159,164.2221 C356.4499,164.6181 356.2399,165.1421 356.0859,165.7931 C355.9299,166.4441 355.8509,167.2541 355.8509,168.2221 C355.8509,169.1901 355.9299,169.9981 356.0859,170.6491 C356.2399,171.3001 356.4499,171.8241 356.7159,172.2171 C356.9819,172.6131 357.2899,172.8931 357.6369,173.0611 C357.9829,173.2271 358.3439,173.3111 358.7199,173.3111 C359.0959,173.3111 359.4559,173.2271 359.8029,173.0611 C360.1499,172.8931 360.4569,172.6131 360.7229,172.2171 C360.9879,171.8241 361.1989,171.3001 361.3589,170.6491 C361.5159,169.9981 361.5949,169.1901 361.5949,168.2221 M363.4049,168.2221 C363.4049,169.3461 363.2849,170.3191 363.0439,171.1431 C362.8009,171.9671 362.4699,172.6501 362.0479,173.1901 C361.6259,173.7311 361.1309,174.1321 360.5609,174.3961 C359.9899,174.6591 359.3759,174.7901 358.7199,174.7901 C358.0629,174.7901 357.4479,174.6591 356.8789,174.3961 C356.3079,174.1321 355.8129,173.7311 355.3959,173.1901 C354.9759,172.6501 354.6469,171.9671 354.4089,171.1431 C354.1709,170.3191 354.0519,169.3461 354.0519,168.2221 C354.0519,167.0981 354.1709,166.1231 354.4089,165.2961 C354.6469,164.4681 354.9759,163.7851 355.3959,163.2451 C355.8129,162.7041 356.3079,162.3021 356.8789,162.0391 C357.4479,161.7771 358.0629,161.6451 358.7199,161.6451 C359.3759,161.6451 359.9899,161.7771 360.5609,162.0391 C361.1309,162.3021 361.6259,162.7041 362.0479,163.2451 C362.4699,163.7851 362.8009,164.4681 363.0439,165.2961 C363.2849,166.1231 363.4049,167.0981 363.4049,168.2221" id="Fill-52" fill="#050302" mask="url(#mask-4)"></path>
                        <path d="M376.2463,171.6171 C376.2463,171.2361 376.2043,170.9131 376.1233,170.6491 C376.0433,170.3871 375.9343,170.1731 375.7983,170.0091 C375.6603,169.8441 375.4993,169.7251 375.3133,169.6501 C375.1283,169.5761 374.9303,169.5381 374.7223,169.5381 C374.5073,169.5381 374.3073,169.5761 374.1253,169.6501 C373.9433,169.7251 373.7863,169.8441 373.6533,170.0091 C373.5163,170.1731 373.4113,170.3871 373.3343,170.6491 C373.2553,170.9131 373.2173,171.2361 373.2173,171.6171 C373.2173,171.9931 373.2553,172.3101 373.3343,172.5671 C373.4113,172.8251 373.5163,173.0331 373.6533,173.1941 C373.7863,173.3571 373.9433,173.4721 374.1253,173.5441 C374.3073,173.6161 374.5073,173.6521 374.7223,173.6521 C374.9303,173.6521 375.1283,173.6161 375.3133,173.5441 C375.4993,173.4721 375.6603,173.3571 375.7983,173.1941 C375.9343,173.0331 376.0433,172.8251 376.1233,172.5671 C376.2043,172.3101 376.2463,171.9931 376.2463,171.6171 Z M377.6083,171.6171 C377.6083,172.1191 377.5273,172.5671 377.3703,172.9611 C377.2123,173.3571 377.0023,173.6891 376.7383,173.9601 C376.4753,174.2331 376.1693,174.4421 375.8193,174.5891 C375.4693,174.7341 375.1053,174.8071 374.7223,174.8071 C374.3103,174.8071 373.9293,174.7341 373.5793,174.5891 C373.2293,174.4421 372.9283,174.2331 372.6693,173.9601 C372.4133,173.6891 372.2103,173.3571 372.0653,172.9611 C371.9203,172.5671 371.8473,172.1191 371.8473,171.6171 C371.8473,171.1041 371.9203,170.6471 372.0653,170.2471 C372.2103,169.8461 372.4133,169.5081 372.6693,169.2301 C372.9283,168.9511 373.2293,168.7421 373.5793,168.5981 C373.9293,168.4551 374.3103,168.3831 374.7223,168.3831 C375.1333,168.3831 375.5153,168.4551 375.8653,168.5981 C376.2153,168.7421 376.5193,168.9511 376.7783,169.2301 C377.0373,169.5081 377.2403,169.8461 377.3873,170.2471 C377.5343,170.6471 377.6083,171.1041 377.6083,171.6171 Z M369.0853,164.8971 C369.0853,164.5151 369.0463,164.1921 368.9663,163.9261 C368.8853,163.6591 368.7753,163.4441 368.6373,163.2801 C368.5003,163.1151 368.3393,162.9961 368.1543,162.9211 C367.9683,162.8471 367.7723,162.8091 367.5623,162.8091 C367.3523,162.8091 367.1563,162.8471 366.9713,162.9211 C366.7853,162.9961 366.6263,163.1151 366.4913,163.2801 C366.3583,163.4441 366.2513,163.6591 366.1733,163.9261 C366.0963,164.1921 366.0573,164.5151 366.0573,164.8971 C366.0573,165.2681 366.0963,165.5831 366.1733,165.8421 C366.2513,166.1021 366.3583,166.3131 366.4913,166.4731 C366.6263,166.6371 366.7853,166.7521 366.9713,166.8241 C367.1563,166.8951 367.3523,166.9321 367.5623,166.9321 C367.7723,166.9321 367.9683,166.8951 368.1543,166.8241 C368.3393,166.7521 368.5003,166.6371 368.6373,166.4731 C368.7753,166.3131 368.8853,166.1021 368.9663,165.8421 C369.0463,165.5831 369.0853,165.2681 369.0853,164.8971 Z M374.9283,162.0751 C374.9933,161.9971 375.0703,161.9301 375.1583,161.8731 C375.2433,161.8171 375.3643,161.7891 375.5203,161.7891 L376.7823,161.7891 L367.3383,174.3771 C367.2723,174.4611 367.1953,174.5291 367.1053,174.5781 C367.0173,174.6311 366.9083,174.6551 366.7843,174.6551 L365.4833,174.6551 L374.9283,162.0751 Z M370.4483,164.8971 C370.4483,165.3991 370.3703,165.8471 370.2103,166.2411 C370.0513,166.6371 369.8413,166.9691 369.5793,167.2401 C369.3163,167.5131 369.0103,167.7211 368.6623,167.8681 C368.3113,168.0131 367.9443,168.0871 367.5623,168.0871 C367.1493,168.0871 366.7693,168.0131 366.4213,167.8681 C366.0713,167.7211 365.7673,167.5131 365.5113,167.2401 C365.2543,166.9691 365.0533,166.6371 364.9063,166.2411 C364.7593,165.8471 364.6853,165.3991 364.6853,164.8971 C364.6853,164.3841 364.7593,163.9271 364.9063,163.5271 C365.0533,163.1261 365.2543,162.7881 365.5113,162.5101 C365.7673,162.2311 366.0713,162.0201 366.4213,161.8731 C366.7693,161.7271 367.1493,161.6541 367.5623,161.6541 C367.9753,161.6541 368.3573,161.7271 368.7053,161.8731 C369.0533,162.0201 369.3603,162.2311 369.6213,162.5101 C369.8793,162.7881 370.0823,163.1261 370.2293,163.5271 C370.3743,163.9271 370.4483,164.3841 370.4483,164.8971 Z" id="Fill-53" fill="#050302" mask="url(#mask-4)"></path>
                        <path d="M44.2731,171.7939 C44.2731,171.4129 44.2331,171.0899 44.1521,170.8259 C44.0721,170.5639 43.9631,170.3499 43.8251,170.1859 C43.6871,170.0209 43.5261,169.9019 43.3401,169.8269 C43.1551,169.7529 42.9591,169.7149 42.7491,169.7149 C42.5351,169.7149 42.3361,169.7529 42.1541,169.8269 C41.9721,169.9019 41.8151,170.0209 41.6801,170.1859 C41.5451,170.3499 41.4401,170.5639 41.3611,170.8259 C41.2821,171.0899 41.2441,171.4129 41.2441,171.7939 C41.2441,172.1699 41.2821,172.4869 41.3611,172.7439 C41.4401,173.0019 41.5451,173.2099 41.6801,173.3709 C41.8151,173.5339 41.9721,173.6489 42.1541,173.7209 C42.3361,173.7929 42.5351,173.8289 42.7491,173.8289 C42.9591,173.8289 43.1551,173.7929 43.3401,173.7209 C43.5261,173.6489 43.6871,173.5339 43.8251,173.3709 C43.9631,173.2099 44.0721,173.0019 44.1521,172.7439 C44.2331,172.4869 44.2731,172.1699 44.2731,171.7939 Z M45.6351,171.7939 C45.6351,172.2959 45.5561,172.7439 45.3981,173.1379 C45.2391,173.5339 45.0291,173.8659 44.7651,174.1369 C44.5021,174.4099 44.1981,174.6189 43.8481,174.7659 C43.4981,174.9109 43.1321,174.9839 42.7491,174.9839 C42.3371,174.9839 41.9581,174.9109 41.6081,174.7659 C41.2581,174.6189 40.9551,174.4099 40.6981,174.1369 C40.4421,173.8659 40.2391,173.5339 40.0921,173.1379 C39.9471,172.7439 39.8741,172.2959 39.8741,171.7939 C39.8741,171.2809 39.9471,170.8239 40.0921,170.4239 C40.2391,170.0229 40.4421,169.6849 40.6981,169.4069 C40.9551,169.1279 41.2581,168.9189 41.6081,168.7749 C41.9581,168.6319 42.3371,168.5599 42.7491,168.5599 C43.1621,168.5599 43.5441,168.6319 43.8931,168.7749 C44.2421,168.9189 44.5461,169.1279 44.8071,169.4069 C45.0661,169.6849 45.2691,170.0229 45.4161,170.4239 C45.5631,170.8239 45.6351,171.2809 45.6351,171.7939 Z M37.1141,165.0739 C37.1141,164.6919 37.0731,164.3689 36.9931,164.1029 C36.9121,163.8359 36.8021,163.6209 36.6661,163.4569 C36.5291,163.2919 36.3681,163.1729 36.1831,163.0979 C35.9971,163.0239 35.7991,162.9859 35.5911,162.9859 C35.3811,162.9859 35.1851,163.0239 35.0001,163.0979 C34.8141,163.1729 34.6531,163.2919 34.5201,163.4569 C34.3851,163.6209 34.2781,163.8359 34.2021,164.1029 C34.1251,164.3689 34.0861,164.6919 34.0861,165.0739 C34.0861,165.4449 34.1251,165.7599 34.2021,166.0189 C34.2781,166.2789 34.3851,166.4899 34.5201,166.6499 C34.6531,166.8139 34.8141,166.9289 35.0001,167.0009 C35.1851,167.0719 35.3811,167.1089 35.5911,167.1089 C35.7991,167.1089 35.9971,167.0719 36.1831,167.0009 C36.3681,166.9289 36.5291,166.8139 36.6661,166.6499 C36.8021,166.4899 36.9121,166.2789 36.9931,166.0189 C37.0731,165.7599 37.1141,165.4449 37.1141,165.0739 Z M42.9551,162.2519 C43.0221,162.1739 43.0991,162.1069 43.1851,162.0499 C43.2711,161.9939 43.3931,161.9659 43.5471,161.9659 L44.8111,161.9659 L35.3671,174.5539 C35.3001,174.6379 35.2241,174.7059 35.1321,174.7549 C35.0451,174.8079 34.9371,174.8319 34.8111,174.8319 L33.5121,174.8319 L42.9551,162.2519 Z M38.4751,165.0739 C38.4751,165.5759 38.3971,166.0239 38.2371,166.4179 C38.0801,166.8139 37.8701,167.1459 37.6071,167.4169 C37.3451,167.6899 37.0371,167.8979 36.6891,168.0449 C36.3381,168.1899 35.9731,168.2639 35.5911,168.2639 C35.1781,168.2639 34.7961,168.1899 34.4481,168.0449 C34.0981,167.8979 33.7951,167.6899 33.5381,167.4169 C33.2811,167.1459 33.0801,166.8139 32.9351,166.4179 C32.7881,166.0239 32.7141,165.5759 32.7141,165.0739 C32.7141,164.5609 32.7881,164.1039 32.9351,163.7039 C33.0801,163.3029 33.2811,162.9649 33.5381,162.6869 C33.7951,162.4079 34.0981,162.1969 34.4481,162.0499 C34.7961,161.9039 35.1781,161.8309 35.5911,161.8309 C36.0021,161.8309 36.3841,161.9039 36.7321,162.0499 C37.0821,162.1969 37.3871,162.4079 37.6481,162.6869 C37.9061,162.9649 38.1091,163.3029 38.2561,163.7039 C38.4021,164.1039 38.4751,164.5609 38.4751,165.0739 Z" id="Fill-54" fill="#050302" mask="url(#mask-4)"></path>
                        <path d="M58.1794,169.267 C58.1794,168.922 58.1304,168.602 58.0304,168.309 C57.9324,168.016 57.7884,167.762 57.5964,167.546 C57.4054,167.333 57.1734,167.165 56.8984,167.046 C56.6234,166.925 56.3064,166.866 55.9484,166.866 C55.2134,166.866 54.6354,167.079 54.2154,167.503 C53.7934,167.926 53.5254,168.514 53.4134,169.267 L58.1794,169.267 Z M59.6224,173.534 C59.4064,173.784 59.1594,174.001 58.8774,174.183 C58.5974,174.365 58.3004,174.512 57.9814,174.625 C57.6664,174.739 57.3374,174.823 57.0014,174.877 C56.6634,174.93 56.3294,174.958 56.0024,174.958 C55.3734,174.958 54.7924,174.851 54.2594,174.64 C53.7254,174.428 53.2614,174.116 52.8714,173.706 C52.4794,173.299 52.1744,172.791 51.9574,172.184 C51.7374,171.579 51.6284,170.88 51.6284,170.093 C51.6284,169.459 51.7284,168.87 51.9264,168.322 C52.1224,167.776 52.4064,167.3 52.7734,166.893 C53.1384,166.488 53.5884,166.167 54.1204,165.934 C54.6534,165.702 55.2494,165.585 55.9124,165.585 C56.4694,165.585 56.9804,165.676 57.4494,165.858 C57.9184,166.039 58.3224,166.306 58.6634,166.65 C59.0034,166.997 59.2714,167.426 59.4654,167.933 C59.6594,168.441 59.7564,169.02 59.7564,169.671 C59.7564,169.939 59.7264,170.121 59.6664,170.214 C59.6074,170.307 59.4964,170.352 59.3364,170.352 L53.3684,170.352 C53.3864,170.896 53.4624,171.369 53.6014,171.773 C53.7394,172.175 53.9284,172.511 54.1694,172.781 C54.4114,173.049 54.7004,173.25 55.0344,173.381 C55.3684,173.513 55.7414,173.577 56.1544,173.577 C56.5424,173.577 56.8794,173.534 57.1624,173.442 C57.4464,173.353 57.6914,173.257 57.8974,173.152 C58.1034,173.047 58.2754,172.951 58.4174,172.861 C58.5574,172.77 58.6814,172.726 58.7894,172.726 C58.9334,172.726 59.0424,172.781 59.1204,172.888 L59.6224,173.534 Z" id="Fill-55" fill="#050302" mask="url(#mask-4)"></path>
                        <path d="M62.1394,174.832 L62.1394,167.162 L61.1914,167.046 C61.0534,167.016 60.9404,166.967 60.8554,166.897 C60.7674,166.829 60.7254,166.729 60.7254,166.598 L60.7254,165.872 L62.1394,165.872 L62.1394,165.047 C62.1394,164.528 62.2154,164.066 62.3634,163.658 C62.5144,163.252 62.7274,162.907 63.0044,162.624 C63.2844,162.34 63.6164,162.125 64.0084,161.978 C64.4004,161.832 64.8414,161.759 65.3294,161.759 C65.7414,161.759 66.1224,161.819 66.4694,161.937 L66.4324,162.816 C66.4274,162.893 66.4024,162.953 66.3604,162.991 C66.3184,163.03 66.2634,163.058 66.1964,163.077 C66.1264,163.094 66.0424,163.105 65.9444,163.106 C65.8464,163.11 65.7394,163.112 65.6254,163.112 C65.3564,163.112 65.1114,163.145 64.8904,163.21 C64.6704,163.276 64.4814,163.387 64.3274,163.542 C64.1714,163.698 64.0504,163.901 63.9684,164.157 C63.8844,164.411 63.8444,164.726 63.8444,165.102 L63.8444,165.872 L66.3954,165.872 L66.3954,167.144 L63.8964,167.144 L63.8964,174.832 L62.1394,174.832 Z" id="Fill-56" fill="#050302" mask="url(#mask-4)"></path>
                        <path d="M73.6096,169.267 C73.6096,168.922 73.5606,168.602 73.4606,168.309 C73.3626,168.016 73.2176,167.762 73.0266,167.546 C72.8366,167.333 72.6016,167.165 72.3286,167.046 C72.0516,166.925 71.7366,166.866 71.3786,166.866 C70.6436,166.866 70.0636,167.079 69.6436,167.503 C69.2236,167.926 68.9546,168.514 68.8426,169.267 L73.6096,169.267 Z M75.0516,173.534 C74.8366,173.784 74.5896,174.001 74.3076,174.183 C74.0266,174.365 73.7286,174.512 73.4116,174.625 C73.0946,174.739 72.7676,174.823 72.4296,174.877 C72.0936,174.93 71.7596,174.958 71.4326,174.958 C70.8036,174.958 70.2226,174.851 69.6896,174.64 C69.1536,174.428 68.6916,174.116 68.2996,173.706 C67.9076,173.299 67.6036,172.791 67.3866,172.184 C67.1676,171.579 67.0586,170.88 67.0586,170.093 C67.0586,169.459 67.1586,168.87 67.3546,168.322 C67.5506,167.776 67.8346,167.3 68.2016,166.893 C68.5686,166.488 69.0176,166.167 69.5496,165.934 C70.0816,165.702 70.6796,165.585 71.3416,165.585 C71.8976,165.585 72.4086,165.676 72.8786,165.858 C73.3466,166.039 73.7536,166.306 74.0926,166.65 C74.4316,166.997 74.7016,167.426 74.8936,167.933 C75.0896,168.441 75.1866,169.02 75.1866,169.671 C75.1866,169.939 75.1566,170.121 75.0966,170.214 C75.0376,170.307 74.9256,170.352 74.7646,170.352 L68.7966,170.352 C68.8146,170.896 68.8936,171.369 69.0316,171.773 C69.1676,172.175 69.3566,172.511 69.5986,172.781 C69.8396,173.049 70.1306,173.25 70.4626,173.381 C70.7986,173.513 71.1716,173.577 71.5826,173.577 C71.9716,173.577 72.3076,173.534 72.5906,173.442 C72.8746,173.353 73.1196,173.257 73.3256,173.152 C73.5326,173.047 73.7056,172.951 73.8476,172.861 C73.9876,172.77 74.1096,172.726 74.2186,172.726 C74.3616,172.726 74.4726,172.781 74.5506,172.888 L75.0516,173.534 Z" id="Fill-57" fill="#050302" mask="url(#mask-4)"></path>
                        <path d="M83.4484,167.4311 C83.3924,167.4951 83.3394,167.5481 83.2904,167.5871 C83.2384,167.6271 83.1664,167.6461 83.0704,167.6461 C82.9754,167.6461 82.8744,167.6081 82.7714,167.5341 C82.6654,167.4591 82.5344,167.3781 82.3774,167.2931 C82.2184,167.2051 82.0274,167.1251 81.8034,167.0491 C81.5794,166.9761 81.3024,166.9371 80.9734,166.9371 C80.5434,166.9371 80.1654,167.0161 79.8364,167.1701 C79.5074,167.3261 79.2344,167.5461 79.0174,167.8331 C78.7984,168.1201 78.6324,168.4711 78.5204,168.8821 C78.4044,169.2951 78.3484,169.7571 78.3484,170.2711 C78.3484,170.8031 78.4074,171.2761 78.5274,171.6911 C78.6464,172.1071 78.8174,172.4551 79.0384,172.7391 C79.2584,173.0241 79.5284,173.2391 79.8444,173.3851 C80.1614,173.5321 80.5154,173.6051 80.9034,173.6051 C81.2784,173.6051 81.5894,173.5581 81.8344,173.4651 C82.0794,173.3721 82.2824,173.2731 82.4434,173.1661 C82.6044,173.0571 82.7394,172.9571 82.8464,172.8651 C82.9544,172.7721 83.0654,172.7261 83.1784,172.7261 C83.3224,172.7261 83.4324,172.7811 83.5094,172.8881 L84.0114,173.5341 C83.8024,173.7891 83.5674,174.0081 83.3084,174.1861 C83.0494,174.3671 82.7724,174.5121 82.4784,174.6251 C82.1864,174.7391 81.8804,174.8231 81.5614,174.8771 C81.2414,174.9301 80.9174,174.9581 80.5884,174.9581 C80.0214,174.9581 79.4914,174.8531 78.9994,174.6431 C78.5064,174.4341 78.0794,174.1301 77.7174,173.7291 C77.3544,173.3301 77.0714,172.8391 76.8614,172.2561 C76.6514,171.6731 76.5474,171.0121 76.5474,170.2711 C76.5474,169.5961 76.6404,168.9731 76.8294,168.3991 C77.0184,167.8251 77.2954,167.3311 77.6624,166.9141 C78.0304,166.5001 78.4834,166.1741 79.0204,165.9381 C79.5594,165.7031 80.1744,165.5851 80.8664,165.5851 C81.5174,165.5851 82.0904,165.6901 82.5874,165.8981 C83.0824,166.1081 83.5254,166.4041 83.9134,166.7851 L83.4484,167.4311 Z" id="Fill-58" fill="#050302" mask="url(#mask-4)"></path>
                        <path d="M94.6662,162.8617 C94.6662,163.0227 94.6312,163.1767 94.5662,163.3217 C94.5012,163.4687 94.4122,163.5967 94.3022,163.7087 C94.1902,163.8187 94.0612,163.9047 93.9122,163.9677 C93.7632,164.0307 93.6072,164.0617 93.4462,164.0617 C93.2852,164.0617 93.1332,164.0307 92.9892,163.9677 C92.8462,163.9047 92.7202,163.8187 92.6082,163.7087 C92.4982,163.5967 92.4122,163.4687 92.3492,163.3217 C92.2862,163.1767 92.2542,163.0227 92.2542,162.8617 C92.2542,162.6937 92.2862,162.5357 92.3492,162.3857 C92.4122,162.2367 92.4982,162.1077 92.6082,161.9967 C92.7202,161.8847 92.8462,161.7997 92.9892,161.7367 C93.1332,161.6737 93.2852,161.6417 93.4462,161.6417 C93.6072,161.6417 93.7632,161.6737 93.9122,161.7367 C94.0612,161.7997 94.1902,161.8847 94.3022,161.9967 C94.4122,162.1077 94.5012,162.2367 94.5662,162.3857 C94.6312,162.5357 94.6662,162.6937 94.6662,162.8617 Z M94.2702,174.8317 L92.5132,174.8317 L92.5132,167.1437 L87.9462,167.1437 L87.9462,172.4747 C87.9462,172.8337 88.0332,173.1007 88.2082,173.2777 C88.3852,173.4527 88.6112,173.5427 88.8852,173.5427 C89.0462,173.5427 89.1852,173.5217 89.3022,173.4797 C89.4192,173.4367 89.5172,173.3917 89.6012,173.3407 C89.6852,173.2897 89.7572,173.2427 89.8182,173.2007 C89.8782,173.1587 89.9302,173.1377 89.9792,173.1377 C90.0392,173.1377 90.0842,173.1517 90.1182,173.1777 C90.1512,173.2057 90.1862,173.2497 90.2212,173.3097 L90.7392,174.1517 C90.4542,174.4137 90.1122,174.6167 89.7182,174.7597 C89.3252,174.9037 88.9152,174.9757 88.4922,174.9757 C87.7572,174.9757 87.1892,174.7687 86.7942,174.3577 C86.3952,173.9447 86.1972,173.3567 86.1972,172.5917 L86.1972,167.1437 L85.1392,167.1437 C85.0372,167.1437 84.9532,167.1127 84.8852,167.0487 C84.8162,166.9867 84.7822,166.8937 84.7822,166.7677 L84.7822,166.0607 L86.2692,165.8547 L86.6542,163.1377 C86.6792,163.0367 86.7242,162.9577 86.7942,162.9017 C86.8612,162.8437 86.9502,162.8167 87.0572,162.8167 L87.9462,162.8167 L87.9462,165.8717 L94.2702,165.8717 L94.2702,174.8317 Z" id="Fill-59" fill="#050302" mask="url(#mask-4)"></path>
                        <path d="M104.7097,165.728 L101.0187,174.832 L99.4397,174.832 L95.7497,165.728 L97.1917,165.728 C97.3297,165.728 97.4417,165.762 97.5327,165.826 C97.6217,165.893 97.6817,165.977 97.7107,166.078 L99.8887,171.67 C99.9647,171.902 100.0337,172.133 100.0907,172.363 C100.1477,172.594 100.1997,172.821 100.2467,173.049 C100.2937,172.821 100.3487,172.596 100.4077,172.368 C100.4697,172.141 100.5397,171.908 100.6237,171.67 L102.8287,166.078 C102.8637,165.977 102.9267,165.893 103.0157,165.826 C103.1047,165.762 103.2137,165.728 103.3397,165.728 L104.7097,165.728 Z" id="Fill-60" fill="#050302" mask="url(#mask-4)"></path>
                        <path d="M106.189,174.832 L107.935,174.832 L107.935,165.728 L106.189,165.728 L106.189,174.832 Z M108.267,162.914 C108.267,163.077 108.233,163.229 108.168,163.376 C108.103,163.523 108.014,163.651 107.904,163.761 C107.793,163.872 107.662,163.959 107.515,164.022 C107.364,164.085 107.209,164.115 107.048,164.115 C106.887,164.115 106.735,164.085 106.591,164.022 C106.447,163.959 106.321,163.872 106.21,163.761 C106.099,163.651 106.013,163.523 105.95,163.376 C105.887,163.229 105.856,163.077 105.856,162.914 C105.856,162.748 105.887,162.59 105.95,162.445 C106.013,162.298 106.099,162.17 106.21,162.059 C106.321,161.948 106.447,161.862 106.591,161.799 C106.735,161.736 106.887,161.705 107.048,161.705 C107.209,161.705 107.364,161.736 107.515,161.799 C107.662,161.862 107.793,161.948 107.904,162.059 C108.014,162.17 108.103,162.298 108.168,162.445 C108.233,162.59 108.267,162.748 108.267,162.914 Z" id="Fill-61" fill="#050302" mask="url(#mask-4)"></path>
                        <path d="M116.3386,167.933 C116.0516,167.557 115.7436,167.293 115.4116,167.144 C115.0806,166.995 114.7076,166.92 114.2966,166.92 C113.4966,166.92 112.8776,167.209 112.4376,167.785 C111.9986,168.362 111.7776,169.202 111.7776,170.307 C111.7776,170.887 111.8276,171.381 111.9266,171.79 C112.0266,172.2 112.1686,172.534 112.3556,172.793 C112.5446,173.054 112.7756,173.245 113.0516,173.367 C113.3256,173.49 113.6366,173.551 113.9836,173.551 C114.4906,173.551 114.9296,173.437 115.2986,173.21 C115.6706,172.984 116.0166,172.663 116.3386,172.25 L116.3386,167.933 Z M118.0956,161.607 L118.0956,174.832 L117.0386,174.832 C116.7936,174.832 116.6416,174.715 116.5826,174.482 L116.4296,173.433 C116.0416,173.894 115.6006,174.263 115.1066,174.541 C114.6146,174.818 114.0466,174.958 113.4006,174.958 C112.8806,174.958 112.4116,174.856 111.9896,174.653 C111.5676,174.451 111.2076,174.153 110.9096,173.761 C110.6106,173.37 110.3816,172.884 110.2206,172.305 C110.0596,171.725 109.9796,171.059 109.9796,170.307 C109.9796,169.633 110.0666,169.004 110.2466,168.425 C110.4266,167.846 110.6866,167.344 111.0256,166.92 C111.3666,166.496 111.7776,166.162 112.2626,165.921 C112.7476,165.679 113.2936,165.558 113.9026,165.558 C114.4526,165.558 114.9196,165.648 115.3046,165.826 C115.6916,166.006 116.0346,166.26 116.3386,166.589 L116.3386,161.607 L118.0956,161.607 Z" id="Fill-62" fill="#050302" mask="url(#mask-4)"></path>
                        <path d="M125.4357,170.7909 C124.7237,170.8149 124.1197,170.8699 123.6237,170.9579 C123.1287,171.0429 122.7267,171.1589 122.4147,171.3019 C122.1027,171.4459 121.8797,171.6139 121.7427,171.8079 C121.6067,172.0019 121.5367,172.2189 121.5367,172.4569 C121.5367,172.6849 121.5747,172.8809 121.6487,173.0449 C121.7237,173.2079 121.8257,173.3429 121.9527,173.4479 C122.0817,173.5529 122.2327,173.6279 122.4057,173.6769 C122.5797,173.7239 122.7687,173.7469 122.9717,173.7469 C123.2397,173.7469 123.4857,173.7209 123.7097,173.6659 C123.9337,173.6139 124.1437,173.5369 124.3417,173.4389 C124.5397,173.3409 124.7267,173.2179 124.9067,173.0749 C125.0857,172.9329 125.2607,172.7689 125.4357,172.5829 L125.4357,170.7909 Z M120.3097,166.9999 C120.8167,166.5179 121.3687,166.1549 121.9637,165.9169 C122.5567,165.6779 123.2097,165.5589 123.9197,165.5589 C124.4397,165.5589 124.8997,165.6429 125.2987,165.8139 C125.7017,165.9839 126.0377,166.2219 126.3117,166.5259 C126.5867,166.8309 126.7947,167.1949 126.9357,167.6179 C127.0757,168.0429 127.1467,168.5129 127.1467,169.0249 L127.1467,174.8319 L126.3667,174.8319 C126.1937,174.8319 126.0617,174.8039 125.9707,174.7459 C125.8837,174.6899 125.8107,174.5829 125.7577,174.4299 L125.5687,173.6309 C125.3357,173.8469 125.1067,174.0359 124.8787,174.1999 C124.6517,174.3649 124.4137,174.5049 124.1667,174.6219 C123.9197,174.7369 123.6537,174.8269 123.3737,174.8859 C123.0937,174.9459 122.7827,174.9759 122.4427,174.9759 C122.0817,174.9759 121.7467,174.9269 121.4347,174.8269 C121.1197,174.7289 120.8467,174.5779 120.6137,174.3749 C120.3817,174.1719 120.1977,173.9179 120.0627,173.6139 C119.9277,173.3099 119.8617,172.9539 119.8617,172.5459 C119.8617,172.1889 119.9577,171.8429 120.1517,171.5119 C120.3467,171.1819 120.6637,170.8839 121.1027,170.6219 C121.5417,170.3569 122.1137,170.1439 122.8227,169.9759 C123.5317,169.8079 124.4007,169.7129 125.4357,169.6879 L125.4357,169.0249 C125.4357,168.3389 125.2887,167.8249 124.9947,167.4849 C124.7037,167.1439 124.2737,166.9739 123.7067,166.9739 C123.3237,166.9739 123.0027,167.0209 122.7427,167.1179 C122.4817,167.2119 122.2577,167.3189 122.0697,167.4349 C121.8827,167.5519 121.7187,167.6589 121.5787,167.7529 C121.4367,167.8489 121.2907,167.8959 121.1427,167.8959 C121.0217,167.8959 120.9207,167.8629 120.8327,167.7979 C120.7477,167.7319 120.6757,167.6549 120.6227,167.5659 L120.3097,166.9999 Z" id="Fill-63" fill="#050302" mask="url(#mask-4)"></path>
                        <path d="M135.362,167.933 C135.075,167.557 134.767,167.293 134.434,167.144 C134.104,166.995 133.731,166.92 133.32,166.92 C132.52,166.92 131.9,167.209 131.461,167.785 C131.022,168.362 130.801,169.202 130.801,170.307 C130.801,170.887 130.85,171.381 130.95,171.79 C131.05,172.2 131.192,172.534 131.379,172.793 C131.568,173.054 131.799,173.245 132.075,173.367 C132.348,173.49 132.66,173.551 133.006,173.551 C133.514,173.551 133.953,173.437 134.322,173.21 C134.694,172.984 135.04,172.663 135.362,172.25 L135.362,167.933 Z M137.119,161.607 L137.119,174.832 L136.062,174.832 C135.817,174.832 135.665,174.715 135.605,174.482 L135.453,173.433 C135.064,173.894 134.623,174.263 134.13,174.541 C133.638,174.818 133.069,174.958 132.424,174.958 C131.904,174.958 131.435,174.856 131.013,174.653 C130.591,174.451 130.231,174.153 129.933,173.761 C129.634,173.37 129.404,172.884 129.244,172.305 C129.083,171.725 129.002,171.059 129.002,170.307 C129.002,169.633 129.09,169.004 129.27,168.425 C129.45,167.846 129.709,167.344 130.049,166.92 C130.39,166.496 130.801,166.162 131.286,165.921 C131.771,165.679 132.317,165.558 132.926,165.558 C133.475,165.558 133.943,165.648 134.327,165.826 C134.715,166.006 135.057,166.26 135.362,166.589 L135.362,161.607 L137.119,161.607 Z" id="Fill-64" fill="#050302" mask="url(#mask-4)"></path>
                        <path d="M291.3351,1.9628 L291.3351,202.9098" id="Stroke-65" stroke="#C2C3C8" stroke-width="0.87" stroke-linecap="square" mask="url(#mask-4)"></path>
                    </g>
                </g>
            </g>
        </g>
    </g>
</svg>