<?xml version="1.0" encoding="UTF-8"?>
<svg width="113px" height="118px" viewBox="0 0 113 118" version="1.1" xmlns="http://www.w3.org/2000/svg" xmlns:xlink="http://www.w3.org/1999/xlink">
    <!-- Generator: Sketch 49.3 (51167) - http://www.bohemiancoding.com/sketch -->
    <title>icono calendario</title>
    <desc>Created with Sketch.</desc>
    <defs>
        <polygon id="path-1" points="0 118 112.989135 118 112.989135 0.292814815 0 0.292814815"></polygon>
    </defs>
    <g id="EVALUACION" stroke="none" stroke-width="1" fill="none" fill-rule="evenodd" opacity="0.21">
        <g id="SOV-EVALUACION" transform="translate(-346.000000, -4586.000000)">
            <g id="Parte-8" transform="translate(1.000000, 4387.000000)">
                <g id="icono-calendario" transform="translate(345.000000, 199.000000)">
                    <g id="Group-4" transform="translate(1.000000, 2.000000)" stroke="#FFFFFF" stroke-linecap="round" stroke-linejoin="round" stroke-width="3">
                        <polygon id="Stroke-1" points="0.847115385 114.142593 110.142019 114.142593 110.142019 0.150222222 0.847115385 0.150222222"></polygon>
                        <path d="M17.3748865,33.4257852 L109.826271,33.4257852" id="Stroke-3"></path>
                    </g>
                    <path d="M10,35 L13,35" id="Stroke-5" stroke="#FFFFFF" stroke-width="3" stroke-linecap="round" stroke-linejoin="round"></path>
                    <g id="Group-15">
                        <path d="M25.2168192,82.5460259 L41.2389154,66.9634704 C41.7039538,66.4936556 42.1907231,65.9976185 42.6948769,65.4709889 C43.1990308,64.9421741 43.6553769,64.3849519 44.0639154,63.7993222 C44.4702808,63.2136926 44.8114538,62.5974704 45.0830885,61.9528407 C45.3547231,61.3082111 45.4916269,60.6373593 45.4916269,59.9315444 C45.4916269,59.0749519 45.3264731,58.3123222 44.9961654,57.6480259 C44.6658577,56.9859148 44.2290692,56.4177667 43.6858,55.9479519 C43.1403577,55.4803222 42.5101654,55.1197667 41.7908769,54.8641 C41.0715885,54.6128037 40.3044923,54.4838778 39.4895885,54.4838778 C37.7424346,54.4838778 36.3060308,54.9930259 35.1782038,56.0069519 C34.0503769,57.023063 33.3723769,58.3888037 33.1398577,60.1085444 L25.7992038,59.5229148 C25.9534923,57.6108778 26.4120115,55.9195444 27.1660692,54.4554704 C27.9244731,52.9913963 28.9045308,51.7698778 30.1105885,50.7931 C31.3144731,49.8163222 32.7117615,49.0755444 34.3068,48.5663963 C35.8974923,48.0616185 37.6250885,47.8059519 39.4895885,47.8059519 C41.3540885,47.8059519 43.09255,48.0506926 44.7049731,48.5379889 C46.3152231,49.0274704 47.7233769,49.7485815 48.9272615,50.7056926 C50.1333192,51.6628037 51.0829538,52.8843222 51.7848577,54.3658778 C52.4824154,55.8518037 52.8322808,57.5890259 52.8322808,59.5819148 C52.8322808,62.1975815 52.2412038,64.4548778 51.0547038,66.3472481 C49.8703769,68.2418037 48.34705,70.0489519 46.4803769,71.7665074 L33.7222423,83.6604704 L52.8322808,83.6604704 L52.8322808,89.9865815 L25.2168192,89.9865815 L25.2168192,82.5460259 Z" id="Fill-6" fill="#FFFFFF"></path>
                        <path d="M65.5906327,69.2472074 C65.5906327,70.5364667 65.6775558,72.0289481 65.8514019,73.7312074 C66.0252481,75.4290963 66.3859788,77.0395778 66.9292481,78.564837 C67.4725173,80.0857259 68.2678635,81.3749852 69.3196327,82.4282444 C70.3670558,83.4858741 71.7665173,84.0125037 73.5136712,84.0125037 C75.260825,84.0125037 76.6602865,83.4858741 77.7077096,82.4282444 C78.7573058,81.3749852 79.5526519,80.0857259 80.0980942,78.564837 C80.6413635,77.0395778 80.9999212,75.4290963 81.1737673,73.7312074 C81.3497865,72.0289481 81.4367096,70.5364667 81.4367096,69.2472074 C81.4367096,67.9579481 81.3497865,66.4654667 81.1737673,64.7653926 C80.9999212,63.0675037 80.6413635,61.4570222 80.0980942,59.931763 C79.5526519,58.4086889 78.7573058,57.1194296 77.7077096,56.0661704 C76.6602865,55.0107259 75.260825,54.4840963 73.5136712,54.4840963 C71.7665173,54.4840963 70.3670558,55.0107259 69.3196327,56.0661704 C68.2678635,57.1194296 67.4725173,58.4086889 66.9292481,59.931763 C66.3859788,61.4570222 66.0252481,63.0675037 65.8514019,64.7653926 C65.6775558,66.4654667 65.5906327,67.9579481 65.5906327,69.2472074 M58.5976712,69.2472074 C58.5976712,65.9672444 58.8606135,63.165837 59.3864981,60.8408 C59.9102096,58.5179481 60.599075,56.5643926 61.4530942,54.9823185 C62.3071135,53.4002444 63.2697865,52.132837 64.3367673,51.1735407 C65.4059212,50.2186148 66.4924596,49.4953185 67.6007288,49.005837 C68.706825,48.5185407 69.7759788,48.1951333 70.8038442,48.0399852 C71.8317096,47.884837 72.7357096,47.8039852 73.5136712,47.8039852 C74.2894596,47.8039852 75.1934596,47.884837 76.2234981,48.0399852 C77.2513635,48.1951333 78.3183442,48.5185407 79.4266135,49.005837 C80.5327096,49.4953185 81.6214212,50.2186148 82.6884019,51.1735407 C83.7553827,52.132837 84.7180558,53.4002444 85.572075,54.9823185 C86.4282673,56.5643926 87.1171327,58.5179481 87.6408442,60.8408 C88.1667288,63.165837 88.4274981,65.9672444 88.4274981,69.2472074 C88.4274981,72.5293556 88.1667288,75.330763 87.6408442,77.6558 C87.1171327,79.9786519 86.4282673,81.9322074 85.572075,83.5120963 C84.7180558,85.0963556 83.7553827,86.3659481 82.6884019,87.3208741 C81.6214212,88.2801704 80.5327096,89.0012815 79.4266135,89.490763 C78.3183442,89.9780593 77.2513635,90.2992815 76.2234981,90.4566148 C75.1934596,90.611763 74.2894596,90.6904296 73.5136712,90.6904296 C72.7357096,90.6904296 71.8317096,90.611763 70.8038442,90.4566148 C69.7759788,90.2992815 68.706825,89.9780593 67.6007288,89.490763 C66.4924596,89.0012815 65.4059212,88.2801704 64.3367673,87.3208741 C63.2697865,86.3659481 62.3071135,85.0963556 61.4530942,83.5120963 C60.599075,81.9322074 59.9102096,79.9786519 59.3864981,77.6558 C58.8606135,75.330763 58.5976712,72.5293556 58.5976712,69.2472074" id="Fill-8" fill="#FFFFFF"></path>
                        <path d="M43.8174885,24.5638852 C44.6888923,24.5638852 45.5124885,24.4633667 46.2882769,24.2623296 C47.0640654,24.0634778 47.7398923,23.7509963 48.3157577,23.3292556 C48.8916231,22.9031444 49.3457962,22.354663 49.6782769,21.6794407 C50.0107577,21.0020333 50.1759115,20.1825889 50.1759115,19.216737 C50.1759115,18.2661815 50.0281423,17.4489222 49.7347769,16.7671444 C49.4370654,16.0831815 49.0263538,15.5303296 48.5026423,15.1064037 C47.9789308,14.684663 47.3596038,14.3721815 46.6424885,14.1711444 C45.9275462,13.9701074 45.1387192,13.8695889 44.2847,13.8695889 L41.7356808,13.8695889 L41.7356808,24.5638852 L43.8174885,24.5638852 Z M38.94545,11.3304037 L45.1256808,11.3304037 C46.1578923,11.3304037 47.1553346,11.4921074 48.1180077,11.8089593 C49.0763346,12.1301815 49.9260077,12.6152926 50.6626808,13.268663 C51.4015269,13.9242185 51.9926038,14.743663 52.4359115,15.7313667 C52.8792192,16.7190704 53.0987,17.8794037 53.0987,19.216737 C53.0987,20.5693667 52.84445,21.7384407 52.33595,22.7261444 C51.82745,23.7138481 51.1690077,24.5289222 50.3649692,25.175737 C49.5609308,25.8225519 48.6656231,26.3054778 47.6833923,26.6245148 C46.7011615,26.9435519 45.7384885,27.1030704 44.7932,27.1030704 L38.94545,27.1030704 L38.94545,11.3304037 Z" id="Fill-10" fill="#FFFFFF"></path>
                        <mask id="mask-2" fill="white">
                            <use xlink:href="#path-1"></use>
                        </mask>
                        <g id="Clip-13"></g>
                        <polygon id="Fill-12" fill="#FFFFFF" mask="url(#mask-2)" points="55.6916154 27.1028519 58.4840192 27.1028519 58.4840192 11.3301852 55.6916154 11.3301852"></polygon>
                        <path d="M72.6829038,15.0292667 C72.1070385,14.4064889 71.5507308,13.9891185 71.0096346,13.7815259 C70.4707115,13.5739333 69.9274423,13.4690444 69.382,13.4690444 C68.5692692,13.4690444 67.8369423,13.6154519 67.1785,13.9038963 C66.5200577,14.1923407 65.9550577,14.5944148 65.4835,15.1057481 C65.0119423,15.6214519 64.6446923,16.2180074 64.3882692,16.8997852 C64.1275,17.5837481 63.9992885,18.3179704 63.9992885,19.104637 C63.9992885,19.9524889 64.1275,20.7304148 64.3882692,21.4449704 C64.6446923,22.1573407 65.0119423,22.773563 65.4835,23.293637 C65.9550577,23.8158963 66.5200577,24.2223407 67.1785,24.5195259 C67.8369423,24.8167111 68.5692692,24.9653037 69.382,24.9653037 C70.0165385,24.9653037 70.6358654,24.8145259 71.2312885,24.5086 C71.8288846,24.2026741 72.3873654,23.717563 72.9067308,23.0488963 L75.2080192,24.6987111 C74.4995962,25.6776741 73.6347115,26.3900444 72.6177115,26.8358222 C71.5985385,27.2816 70.512,27.5044889 69.3602692,27.5044889 C68.1498654,27.5044889 67.03725,27.3078222 66.0267692,26.9123037 C65.0141154,26.5211556 64.1427115,25.9639333 63.4103846,25.2428222 C62.6802308,24.5238963 62.1087115,23.6563778 61.6936538,22.6468222 C61.2807692,21.6372667 61.0743269,20.5184519 61.0743269,19.2838222 C61.0743269,18.0207852 61.2807692,16.8757481 61.6936538,15.8421556 C62.1087115,14.808563 62.6802308,13.9301185 63.4103846,13.2024519 C64.1427115,12.4747852 65.0141154,11.9131926 66.0267692,11.5220444 C67.03725,11.1265259 68.1498654,10.9298593 69.3602692,10.9298593 C70.4229038,10.9298593 71.4094808,11.1199704 72.3178269,11.4980074 C73.2261731,11.8782296 74.0715,12.5206741 74.8538077,13.4253407 L72.6829038,15.0292667 Z" id="Fill-14" fill="#FFFFFF" mask="url(#mask-2)"></path>
                    </g>
                </g>
            </g>
        </g>
    </g>
</svg>