<?xml version="1.0" encoding="UTF-8"?>
<svg width="112px" height="120px" viewBox="0 0 112 120" version="1.1" xmlns="http://www.w3.org/2000/svg" xmlns:xlink="http://www.w3.org/1999/xlink">
    <!-- Generator: Sketch 49.3 (51167) - http://www.bohemiancoding.com/sketch -->
    <title>icono autoadministrable</title>
    <desc>Created with Sketch.</desc>
    <defs>
        <polygon id="path-1" points="0 0 112 0 112 120 0 120"></polygon>
    </defs>
    <g id="EVALUACION" stroke="none" stroke-width="1" fill="none" fill-rule="evenodd" opacity="0.21">
        <g id="SOV-EVALUACION" transform="translate(-982.000000, -4601.000000)">
            <g id="Parte-8" transform="translate(1.000000, 4387.000000)">
                <g id="ICONOS" transform="translate(352.000000, 214.000000)">
                    <g id="icono-autoadministrable" transform="translate(629.000000, 0.000000)">
                        <mask id="mask-2" fill="white">
                            <use xlink:href="#path-1"></use>
                        </mask>
                        <g id="Clip-2"></g>
                        <path d="M99.5054215,28.7424 C98.8118116,27.8856 97.5541936,27.7536 96.6949814,28.4496 C95.8381691,29.1432 95.7061672,30.4032 96.4021772,31.2624 C103.880684,40.4808 107.999143,52.1064 107.999143,64.0008 C107.999143,92.6736 84.6708096,116.0016 56,116.0016 C27.3291904,116.0016 3.99845712,92.6736 3.99845712,64.0008 C3.99845712,36 26.251575,13.1064 54.0007714,12.0528 L54.0007714,20.052 C30.662838,21.1008 12.0001714,40.4112 12.0001714,64.0008 C12.0001714,88.2648 31.7380534,108 56,108 C80.2619466,108 99.9998286,88.2648 99.9998286,64.0008 C99.9998286,52.0824 95.3125616,40.92 86.79724,32.5776 C86.0076287,31.8024 84.7428106,31.8144 83.9675995,32.604 C83.1947885,33.3912 83.2067887,34.6608 83.9988,35.4312 C91.7389106,43.0176 95.9989714,53.1672 95.9989714,64.0008 C95.9989714,86.0592 78.0539151,104.0016 56,104.0016 C33.9436849,104.0016 15.9986286,86.0568 15.9986286,64.0008 C15.9986286,42.6216 32.8756697,25.1568 54.0007714,24.1032 L54.0007714,32.1024 C37.2869327,33.144 24.0003429,47.0328 24.0003429,64.0008 C24.0003429,81.6456 38.3549479,96 56,96 C73.6450521,96 87.9996571,81.6456 87.9996571,64.0008 C87.9996571,50.4552 79.4219346,38.328 66.6561522,33.8184 C65.6121373,33.4512 64.472121,33.996 64.1049158,35.04 C63.7377105,36.084 64.2825183,37.224 65.3265332,37.5936 C76.4962928,41.5368 83.9988,52.1472 83.9988,64.0008 C83.9988,79.4424 71.4418206,92.0016 56,92.0016 C40.5581794,92.0016 27.9988,79.4424 27.9988,64.0008 C27.9988,49.2384 39.4925642,37.1352 53.9983714,36.1032 L53.9983714,44.1024 C43.9086273,45.1104 35.9981143,53.6472 35.9981143,64.0008 C35.9981143,75.0288 44.9718425,84 56,84 C67.0281575,84 75.9994857,75.0288 75.9994857,64.0008 C75.9994857,56.3544 71.7442249,49.4904 64.889727,46.0824 C63.8985128,45.588 62.6984957,45.9936 62.2064887,46.9848 C61.7168817,47.9736 62.1224875,49.1736 63.1089016,49.6656 C68.5929799,52.3896 71.9986286,57.8832 71.9986286,64.0008 C71.9986286,72.8232 64.822526,80.0016 56,80.0016 C47.177474,80.0016 39.9989714,72.8232 39.9989714,64.0008 C39.9989714,55.8576 46.1190588,49.1304 53.9983714,48.1392 L53.9983714,56.2872 C50.5591223,57.18 47.9982857,60.288 47.9982857,64.0008 C47.9982857,68.4144 51.5863369,72 56,72 C60.411263,72 63.9993143,68.4144 63.9993143,64.0008 C63.9993143,62.8968 63.1041015,62.0016 62.0000857,62.0016 C60.8960699,62.0016 59.9984571,62.8968 59.9984571,64.0008 C59.9984571,66.2064 58.2056315,68.0016 56,68.0016 C53.7919685,68.0016 51.9991428,66.2064 51.9991428,64.0008 C51.9991428,62.5272 52.8103544,61.2528 53.9983714,60.5592 L53.9983714,64.0008 C53.9983714,65.1048 54.8959842,66 56,66 C57.1040158,66 57.9992286,65.1048 57.9992286,64.0008 L57.9992286,4.0008 L71.9986286,4.0008 L71.9986286,20.0016 L63.9993143,20.0016 C62.8952985,20.0016 61.9976857,20.8968 61.9976857,22.0008 C61.9976857,23.1048 62.8952985,24.0024 63.9993143,24.0024 L71.9986286,24.0024 L71.9986286,26.0016 C71.9986286,27.1056 72.8938413,28.0008 73.9978571,28.0008 L89.9988857,28.0008 C91.1029015,28.0008 91.9981143,27.1056 91.9981143,26.0016 L91.9981143,6 C91.9981143,4.896 91.1029015,4.0008 89.9988857,4.0008 L81.9995714,4.0008 C80.8955557,4.0008 79.9979428,4.896 79.9979428,6 C79.9979428,7.104 80.8955557,8.0016 81.9995714,8.0016 L87.9996571,8.0016 L87.9996571,24 L75.9994857,24 L75.9994857,2.0016 C75.9994857,0.8976 75.1018729,0 73.9978571,0 L56,0 C54.8959842,0 54.0007714,0.8976 54.0007714,2.0016 L54.0007714,8.052 C24.0435435,9.1104 0,33.792 0,64.0008 C0,94.8816 25.1211589,120 56,120 C86.8764411,120 112,94.8816 112,64.0008 C112,51.192 107.562337,38.6712 99.5054215,28.7424" id="Fill-1" fill="#FFFFFF" mask="url(#mask-2)"></path>
                    </g>
                </g>
            </g>
        </g>
    </g>
</svg>