<?xml version="1.0" encoding="UTF-8"?>
<svg width="106px" height="106px" viewBox="0 0 106 106" version="1.1" xmlns="http://www.w3.org/2000/svg" xmlns:xlink="http://www.w3.org/1999/xlink">
    <!-- Generator: Sketch 49.3 (51167) - http://www.bohemiancoding.com/sketch -->
    <title>OBJETIVO</title>
    <desc>Created with Sketch.</desc>
    <defs>
        <polygon id="path-1" points="0 0.192883333 105.715558 0.192883333 105.715558 70.9984786 0 70.9984786"></polygon>
        <polygon id="path-3" points="0.550628571 0.229485714 11.3232 0.229485714 11.3232 11 0.550628571 11"></polygon>
    </defs>
    <g id="EVALUACION" stroke="none" stroke-width="1" fill="none" fill-rule="evenodd">
        <g id="SOV-EVALUACION" transform="translate(-818.000000, -709.000000)">
            <g id="Parte-1">
                <g id="slider" transform="translate(0.000000, 416.000000)">
                    <g id="slider-1" transform="translate(248.000000, 157.000000)">
                        <g id="OBJETIVO" transform="translate(570.000000, 136.000000)">
                            <path d="M18.6659239,31.8039241 C19.5249085,31.3557185 19.8674996,30.2861369 19.4246379,29.4117964 C18.1478593,26.87536 17.5011141,24.1572645 17.5011141,21.3339086 C17.5011141,11.5277129 25.3489575,3.55508552 34.9983288,3.55508552 C44.6493713,3.55508552 52.4988859,11.5277129 52.4988859,21.3339086 C52.4988859,24.1572645 51.8487983,26.87536 50.5720197,29.4117964 C50.1325004,30.2844392 50.4734203,31.3557185 51.3340761,31.8039241 C51.589766,31.9363485 51.8588254,31.9991652 52.1278848,31.9991652 C52.7646029,31.9991652 53.3779246,31.6460335 53.6887633,31.0314485 C55.2212319,27.9890831 56,24.7260103 56,21.3339086 C56,9.56851099 46.5762375,0 34.9983288,0 C23.4204202,0 14,9.56851099 14,21.3339086 C14,24.7260103 14.7770969,27.9890831 16.3095655,31.0314485 C16.750756,31.905789 17.8019258,32.2521298 18.6659239,31.8039241" id="Fill-1" fill="#FFFFFF"></path>
                            <path d="M70,19.4017192 C71.9288443,19.4017192 73.5,21.0160458 73.5,23.0017192 C73.5,23.9954155 74.2839064,24.8017192 75.2516714,24.8017192 C76.2160936,24.8017192 77,23.9954155 77,23.0017192 C77,19.6544413 74.7602674,16.860745 71.75,16.0561605 L71.75,15.8 C71.75,14.8063037 70.9660936,14 70,14 C69.032235,14 68.25,14.8063037 68.25,15.8 L68.25,16.0561605 C65.2380611,16.860745 63,19.6544413 63,23.0017192 C63,26.9713467 66.1389685,30.2017192 70,30.2017192 C70.9911652,30.2017192 71.9405444,30.6383954 72.604107,31.4 C72.951767,31.7954155 73.428128,32 73.9078319,32 C74.324021,32 74.7418816,31.8469914 75.07617,31.539255 C75.7965616,30.8756447 75.8567335,29.7375358 75.2115568,28.9982808 C73.8861032,27.4733524 71.9856734,26.6017192 70,26.6017192 C68.0694842,26.6017192 66.5,24.9891117 66.5,23.0017192 C66.4983286,21.0160458 68.0694842,19.4017192 70,19.4017192" id="Fill-3" fill="#FFFFFF"></path>
                            <path d="M60.7716276,13.7514875 C63.7423977,11.6496731 67.2391016,10.5396312 70.8870326,10.5396312 C80.5874035,10.5396312 88.4814521,18.4738118 88.4814521,28.2310292 C88.4814521,29.2075957 89.2678325,30 90.2407261,30 C91.2136197,30 92,29.2075957 92,28.2310292 C92,16.5257474 82.5264695,7 70.8870326,7 C66.5081712,7 62.3107822,8.33475354 58.7468663,10.8606479 C57.9504042,11.4232719 57.7622106,12.5265555 58.3217504,13.3240285 C58.8812903,14.1231911 59.9785261,14.3158011 60.7716276,13.7514875" id="Fill-5" fill="#FFFFFF"></path>
                            <path d="M40.2510445,24.5004178 C39.2850663,24.5004178 38.5012534,25.2825594 38.5012534,26.2502089 C38.5012534,27.2161872 39.2850663,28 40.2510445,28 C43.5016116,28 46.2190522,25.7605348 47.0011937,22.7506267 L47.2518801,22.7506267 C48.2178584,22.7506267 49,21.9651427 49,20.9991644 C49,20.0331861 48.2178584,19.2510445 47.2518801,19.2510445 L47.0011937,19.2510445 C46.2190522,16.237794 43.5016116,14 40.2510445,14 C36.3904739,14 33.2518801,17.140265 33.2518801,20.9991644 C33.2518801,22.9311209 31.680912,24.5004178 29.7506267,24.5004178 C27.8220127,24.5004178 26.2510445,22.9311209 26.2510445,20.9991644 C26.2510445,19.0705503 27.8220127,17.5012534 29.7506267,17.5012534 C30.716605,17.5012534 31.5020891,16.7157694 31.5020891,15.7497911 C31.5020891,14.7821416 30.716605,14 29.7506267,14 C26.4983884,14 23.7826191,16.237794 23.0004775,19.2510445 L22.7514623,19.2510445 C21.7821416,19.2510445 21,20.0331861 21,20.9991644 C21,21.9651427 21.7821416,22.7506267 22.7514623,22.7506267 L23.0004775,22.7506267 C23.7826191,25.7605348 26.4983884,28 29.7506267,28 C33.6095261,28 36.7514623,24.859735 36.7514623,20.9991644 C36.7514623,19.0705503 38.3207592,17.5012534 40.2510445,17.5012534 C42.1813298,17.5012534 43.752298,19.0705503 43.752298,20.9991644 C43.752298,22.9311209 42.1813298,24.5004178 40.2510445,24.5004178" id="Fill-7" fill="#FFFFFF"></path>
                            <g id="Group-11" transform="translate(0.000000, 35.000000)">
                                <mask id="mask-2" fill="white">
                                    <use xlink:href="#path-1"></use>
                                </mask>
                                <g id="Clip-10"></g>
                                <path d="M105.198606,4.0082881 C104.609717,2.58490714 102.979337,0.192883333 98.6568921,0.192883333 L7.05270159,0.192883333 C2.73530476,0.192883333 1.10660635,2.57983571 0.5194,4.00321667 C-0.865330159,7.3588119 0.586701587,12.1293357 4.04600317,15.6049548 L38.7652095,50.4896214 L38.7652095,69.2302405 C38.7652095,70.2056452 39.5509556,70.9984786 40.525146,70.9984786 C41.4993365,70.9984786 42.2867651,70.2056452 42.2867651,69.2302405 L42.2867651,49.7576452 C42.2867651,49.2860024 42.1016857,48.8363357 41.7719079,48.5066929 L6.5361619,13.1013595 C4.17555873,10.727931 2.96076508,7.32838333 3.77511429,5.3572881 C4.21930476,4.28045476 5.32305079,3.73274048 7.05270159,3.73274048 L98.6568921,3.73274048 C100.393273,3.73274048 101.498702,4.28214524 101.942892,5.36405 C102.652924,7.08833571 101.811654,10.4506929 99.1751143,13.1013595 L63.9460984,48.5066929 C63.6180032,48.8363357 63.4312413,49.2860024 63.4312413,49.7576452 L63.4312413,65.6886929 C63.4312413,66.6657881 64.2186698,67.4586214 65.1928603,67.4586214 C66.1653683,67.4586214 66.9544794,66.6657881 66.9544794,65.6886929 L66.9544794,50.4913119 L101.66359,15.6049548 C105.12794,12.1276452 106.578289,7.36050238 105.198606,4.0082881" id="Fill-9" fill="#FFFFFF" mask="url(#mask-2)"></path>
                            </g>
                            <path d="M61.5008754,67.3333333 C60.4889384,67.3333333 59.6660831,66.510347 59.6660831,65.5 C59.6660831,64.4879019 60.4889384,63.6666667 61.5008754,63.6666667 C62.5110616,63.6666667 63.3339169,64.4879019 63.3339169,65.5 C63.3339169,66.510347 62.5110616,67.3333333 61.5008754,67.3333333 M67,65.5 C67,62.4654569 64.531434,60 61.5008754,60 C58.468566,60 56,62.4654569 56,65.5 C56,68.5327921 58.468566,71 61.5008754,71 C64.531434,71 67,68.5327921 67,65.5" id="Fill-12" fill="#FFFFFF"></path>
                            <g id="Group-16" transform="translate(49.000000, 95.000000)">
                                <mask id="mask-4" fill="white">
                                    <use xlink:href="#path-3"></use>
                                </mask>
                                <g id="Clip-15"></g>
                                <path d="M5.93691429,7.40891429 C4.94777143,7.40891429 4.14205714,6.6032 4.14205714,5.61405714 C4.14205714,4.6232 4.94777143,3.8192 5.93691429,3.8192 C6.92605714,3.8192 7.73348571,4.6232 7.73348571,5.61405714 C7.73348571,6.6032 6.92605714,7.40891429 5.93691429,7.40891429 M5.93691429,0.229485714 C2.96777143,0.229485714 0.550628571,2.6432 0.550628571,5.61405714 C0.550628571,8.5832 2.96777143,11.0003429 5.93691429,11.0003429 C8.90605714,11.0003429 11.3232,8.5832 11.3232,5.61405714 C11.3232,2.6432 8.90605714,0.229485714 5.93691429,0.229485714" id="Fill-14" fill="#FFFFFF" mask="url(#mask-4)"></path>
                            </g>
                            <path d="M49.6660831,81.5 C49.6660831,80.4882241 50.4889384,79.6672502 51.5008754,79.6672502 C52.5110616,79.6672502 53.3339169,80.4882241 53.3339169,81.5 C53.3339169,82.5100255 52.5110616,83.3327498 51.5008754,83.3327498 C50.4889384,83.3327498 49.6660831,82.5100255 49.6660831,81.5 M57,81.5 C57,78.4664227 54.531434,76 51.5008754,76 C48.4650645,76 46,78.4664227 46,81.5 C46,84.5300764 48.4650645,87 51.5008754,87 C54.531434,87 57,84.5300764 57,81.5" id="Fill-17" fill="#FFFFFF"></path>
                        </g>
                    </g>
                </g>
            </g>
        </g>
    </g>
</svg>