<?xml version="1.0" encoding="UTF-8"?>
<svg width="108px" height="108px" viewBox="0 0 108 108" version="1.1" xmlns="http://www.w3.org/2000/svg" xmlns:xlink="http://www.w3.org/1999/xlink">
    <!-- Generator: Sketch 49.3 (51167) - http://www.bohemiancoding.com/sketch -->
    <title>EFICACIA</title>
    <desc>Created with Sketch.</desc>
    <defs>
        <polygon id="path-1" points="0.734563636 0.759272727 34.5058364 0.759272727 34.5058364 34.5300545 0.734563636 34.5300545"></polygon>
        <polygon id="path-3" points="0.000212056008 0.73953 33.1109308 0.73953 33.1109308 33 0.000212056008 33"></polygon>
        <polygon id="path-5" points="0.878325837 0.73953 33.9900737 0.73953 33.9900737 33 0.878325837 33"></polygon>
        <polygon id="path-7" points="0.138421075 0.73953 33.2487619 0.73953 33.2487619 33 0.138421075 33"></polygon>
    </defs>
    <g id="EVALUACION" stroke="none" stroke-width="1" fill="none" fill-rule="evenodd">
        <g id="SOV-EVALUACION" transform="translate(-509.000000, -709.000000)">
            <g id="Parte-1">
                <g id="slider" transform="translate(0.000000, 416.000000)">
                    <g id="slider-1" transform="translate(248.000000, 157.000000)">
                        <g id="EFICACIA" transform="translate(261.000000, 136.000000)">
                            <g id="Group-3" transform="translate(36.000000, 0.000000)">
                                <mask id="mask-2" fill="white">
                                    <use xlink:href="#path-1"></use>
                                </mask>
                                <g id="Clip-2"></g>
                                <path d="M17.6202,4.18205455 C25.0443818,4.18205455 31.0842,10.2218727 31.0842,17.6460545 C31.0842,25.0686 25.0443818,31.1084182 17.6202,31.1084182 C10.1976545,31.1084182 4.15783636,25.0686 4.15783636,17.6460545 C4.15783636,10.2218727 10.1976545,4.18205455 17.6202,4.18205455 M17.6202,34.5300545 C26.9311091,34.5300545 34.5058364,26.9553273 34.5058364,17.6460545 C34.5058364,8.33514545 26.9311091,0.758781818 17.6202,0.758781818 C8.30929091,0.758781818 0.734563636,8.33514545 0.734563636,17.6460545 C0.734563636,26.9553273 8.30929091,34.5300545 17.6202,34.5300545" id="Fill-1" fill="#FFFFFF" mask="url(#mask-2)"></path>
                            </g>
                            <path d="M53.5,26 C55.8239255,26 58.034282,24.9376371 59.56492,23.0874144 C60.2073473,22.3102496 60.1293746,21.1338074 59.390329,20.4582444 C58.6529784,19.780899 57.5325446,19.8646759 56.8901174,20.6418407 C56.0341128,21.6774663 54.798415,22.2728173 53.5,22.2728173 C52.2032801,22.2728173 50.9675823,21.6774663 50.1098826,20.6418407 C49.4691504,19.8646759 48.3487166,19.780899 47.609671,20.4582444 C46.8706254,21.1338074 46.7926527,22.3102496 47.43508,23.0874144 C48.965718,24.9376371 51.1760745,26 53.5,26" id="Fill-4" fill="#FFFFFF"></path>
                            <path d="M52.9991878,41.429864 C66.5477357,41.429864 77.6695326,52.1082068 78.5466715,65.5684957 L39.2882068,65.5684957 C38.3493433,65.5684957 37.5891562,66.3377957 37.5891562,67.2842478 C37.5891562,68.2323403 38.3493433,69 39.2882068,69 L80.3009494,69 C81.2398129,69 82,68.2323403 82,67.2842478 C82,51.1371501 68.9907301,38 52.9991878,38 C37.0092699,38 24,51.1371501 24,67.2842478 C24,68.2323403 24.7601871,69 25.6990506,69 L32.4936287,69 C33.4308679,69 34.191055,68.2323403 34.191055,67.2842478 C34.191055,66.3377957 33.4308679,65.5684957 32.4936287,65.5684957 L27.4517041,65.5684957 C28.3288431,52.1082068 39.4522643,41.429864 52.9991878,41.429864" id="Fill-6" fill="#FFFFFF"></path>
                            <g id="Group-10" transform="translate(0.000000, 75.000000)">
                                <mask id="mask-4" fill="white">
                                    <use xlink:href="#path-3"></use>
                                </mask>
                                <g id="Clip-9"></g>
                                <path d="M23.0212381,19.72278 C22.6504762,20.10723 22.4772381,20.65008 22.5549524,21.18468 L23.5879048,28.25328 L17.3108571,25.06713 C16.8364762,24.82623 16.2762857,24.82623 15.8019048,25.06713 L9.52485714,28.25328 L10.5578095,21.18468 C10.6355238,20.65008 10.4622857,20.10723 10.0915238,19.72278 L5.17771429,14.62263 L12.0926667,13.43958 C12.6172381,13.34883 13.0689524,13.01553 13.3150476,12.53538 L16.556381,6.19773 L19.7960952,12.53538 C20.0421905,13.01553 20.4939048,13.34883 21.0184762,13.43958 L27.9334286,14.62263 L23.0212381,19.72278 Z M31.6977143,11.76648 L22.4108571,10.17753 L18.0572381,1.66683 C17.7641905,1.09593 17.1861905,0.73953 16.556381,0.73953 C15.9249524,0.73953 15.3453333,1.09593 15.0555238,1.66683 L10.7019048,10.17753 L1.41342857,11.76648 C0.790095238,11.87373 0.27847619,12.32418 0.0825714286,12.93633 C-0.111714286,13.54683 0.0437142857,14.22003 0.485714286,14.67708 L7.08333333,21.52623 L5.69580952,31.02033 C5.60190476,31.65558 5.86419048,32.29248 6.37419048,32.67033 C6.88580952,33.04818 7.55933333,33.10593 8.126,32.81883 L16.556381,28.54038 L24.9867619,32.81883 C25.2247619,32.94093 25.4838095,33.00033 25.7412381,33.00033 C26.0925714,33.00033 26.4422857,32.88813 26.7353333,32.67033 C27.2469524,32.29248 27.507619,31.65558 27.4153333,31.02033 L26.0278095,21.52623 L32.6254286,14.67708 C33.0674286,14.22003 33.2228571,13.54683 33.0285714,12.93468 C32.8342857,12.32418 32.3210476,11.87373 31.6977143,11.76648 Z" id="Fill-8" fill="#FFFFFF" mask="url(#mask-4)"></path>
                            </g>
                            <g id="Group-13" transform="translate(36.000000, 75.000000)">
                                <mask id="mask-6" fill="white">
                                    <use xlink:href="#path-5"></use>
                                </mask>
                                <g id="Clip-12"></g>
                                <path d="M23.8987619,19.72278 C23.528,20.10723 23.3547619,20.65008 23.4324762,21.18468 L24.4654286,28.25328 L18.19,25.06713 C17.950381,24.94833 17.6929524,24.88728 17.4339048,24.88728 C17.1764762,24.88728 16.9174286,24.94833 16.6794286,25.06713 L10.402381,28.25328 L11.4353333,21.18468 C11.5130476,20.65008 11.3414286,20.10723 10.9690476,19.72278 L6.0552381,14.62263 L12.9718095,13.43958 C13.4947619,13.34883 13.9480952,13.01553 14.1925714,12.53538 L17.4339048,6.19773 L20.6752381,12.53538 C20.9213333,13.01553 21.3714286,13.34883 21.896,13.43958 L28.8125714,14.62263 L23.8987619,19.72278 Z M32.5768571,11.76648 L23.288381,10.17753 L18.9347619,1.66683 C18.6433333,1.09593 18.0653333,0.73953 17.4339048,0.73953 C16.8040952,0.73953 16.2244762,1.09593 15.9330476,1.66683 L11.5794286,10.17753 L2.29095238,11.76648 C1.6692381,11.87373 1.15761905,12.32418 0.961714286,12.93633 C0.765809524,13.54683 0.921238095,14.22003 1.3632381,14.67708 L7.96247619,21.52623 L6.57333333,31.02033 C6.48104762,31.65558 6.74333333,32.29248 7.25333333,32.67033 C7.76495238,33.04818 8.43847619,33.10593 9.00352381,32.81883 L17.4339048,28.54038 L25.8642857,32.81883 C26.1039048,32.94093 26.3613333,33.00033 26.620381,33.00033 C26.9700952,33.00033 27.3198095,32.88813 27.6144762,32.67033 C28.1244762,32.29248 28.3867619,31.65558 28.2944762,31.02033 L26.9053333,21.52623 L33.5045714,14.67708 C33.9465714,14.22003 34.102,13.54683 33.9077143,12.93468 C33.7118095,12.32418 33.2001905,11.87373 32.5768571,11.76648 Z" id="Fill-11" fill="#FFFFFF" mask="url(#mask-6)"></path>
                            </g>
                            <g id="Group-16" transform="translate(74.000000, 75.000000)">
                                <mask id="mask-8" fill="white">
                                    <use xlink:href="#path-7"></use>
                                </mask>
                                <g id="Clip-15"></g>
                                <path d="M23.1588571,19.72278 C22.7864762,20.10723 22.6148571,20.65008 22.6925714,21.18468 L23.7255238,28.25328 L17.4484762,25.06713 C17.2104762,24.94833 16.9514286,24.88728 16.694,24.88728 C16.4349524,24.88728 16.1759048,24.94833 15.9395238,25.06713 L9.66247619,28.25328 L10.6954286,21.18468 C10.7731429,20.65008 10.5999048,20.10723 10.2291429,19.72278 L5.31533333,14.62263 L12.2319048,13.43958 C12.7548571,13.34883 13.2081905,13.01553 13.4526667,12.53538 L16.694,6.19773 L19.9353333,12.53538 C20.1798095,13.01553 20.6315238,13.34883 21.1560952,13.43958 L28.0726667,14.62263 L23.1588571,19.72278 Z M33.1661905,12.93633 C32.9719048,12.32418 32.4586667,11.87373 31.8353333,11.76648 L22.5468571,10.17753 L18.1948571,1.66683 C17.9034286,1.09593 17.3238095,0.73953 16.692381,0.73953 C16.0625714,0.73953 15.4829524,1.09593 15.1915238,1.66683 L10.8395238,10.17753 L1.54942857,11.76648 C0.929333333,11.87373 0.416095238,12.32418 0.221809524,12.93633 C0.0259047619,13.54683 0.181333333,14.22003 0.623333333,14.67708 L7.22095238,21.52623 L5.83180952,31.02033 C5.73952381,31.65558 6.00180952,32.29248 6.51342857,32.67033 C7.02342857,33.04818 7.69857143,33.10593 8.262,32.81883 L16.692381,28.54038 L25.1227619,32.81883 C25.362381,32.94093 25.6214286,33.00033 25.8788571,33.00033 C26.2301905,33.00033 26.5782857,32.88813 26.8729524,32.67033 C27.3845714,32.29248 27.6468571,31.65558 27.5529524,31.02033 L26.1638095,21.52623 L32.7630476,14.67708 C33.2066667,14.22003 33.3604762,13.54683 33.1661905,12.93633 Z" id="Fill-14" fill="#FFFFFF" mask="url(#mask-8)"></path>
                            </g>
                        </g>
                    </g>
                </g>
            </g>
        </g>
    </g>
</svg>