<?xml version="1.0" encoding="UTF-8"?>
<svg width="295px" height="334px" viewBox="0 0 295 334" version="1.1" xmlns="http://www.w3.org/2000/svg" xmlns:xlink="http://www.w3.org/1999/xlink">
    <!-- Generator: Sketch 49.3 (51167) - http://www.bohemiancoding.com/sketch -->
    <title>mapa</title>
    <desc>Created with Sketch.</desc>
    <defs>
        <polygon id="path-1" points="0 -0.0001 59.11 -0.0001 59.11 87.5998 0 87.5998"></polygon>
        <polygon id="path-3" points="0 -0.0001 59.11 -0.0001 59.11 87.5998 0 87.5998"></polygon>
        <polygon id="path-5" points="0 -0.0001 59.11 -0.0001 59.11 87.5998 0 87.5998"></polygon>
    </defs>
    <g id="AUTOTRANSPORTE" stroke="none" stroke-width="1" fill="none" fill-rule="evenodd">
        <g id="SOV-AUTOTRANSPORTE" transform="translate(-472.000000, -530.000000)">
            <g id="mapa" transform="translate(473.000000, 530.000000)">
                <g id="Page-1" transform="translate(0.000000, 68.000000)" stroke="#FCFCFC" stroke-width="3">
                    <polygon id="Stroke-1" points="0.499 173.04 45.31 173.04 45.31 64.54 0.499 64.54"></polygon>
                    <path d="M45.3103,192.72 L45.3103,263.18 L7.3503,263.18 C3.5703,263.18 0.4993,260.11 0.4993,256.34 L0.4993,192.72 L45.3103,192.72 Z" id="Stroke-3"></path>
                    <polygon id="Stroke-4" points="66.7 263.18 162.79 263.18 162.79 192.72 66.7 192.72"></polygon>
                    <polygon id="Stroke-5" points="173.07 263.18 202.35 263.18 202.35 192.72 173.07 192.72"></polygon>
                    <path d="M263.1902,192.72 L263.1902,256.34 C263.1902,260.11 260.1202,263.18 256.3502,263.18 L223.7402,263.18 L223.7402,192.72 L263.1902,192.72 Z" id="Stroke-6"></path>
                    <polygon id="Stroke-7" points="223.74 173.04 263.19 173.04 263.19 64.54 223.74 64.54"></polygon>
                    <path d="M45.3103,0.4998 L45.3103,44.8498 L0.4993,44.8498 L0.4993,7.3398 C0.4993,3.5598 3.5703,0.4998 7.3503,0.4998 L45.3103,0.4998 Z" id="Stroke-8"></path>
                    <path d="M263.1902,7.3402 L263.1902,44.8502 L66.7002,44.8502 L66.7002,0.5002 L256.3502,0.5002 C260.1202,0.5002 263.1902,3.5602 263.1902,7.3402 Z" id="Stroke-9"></path>
                    <path d="M202.3503,173.0399 L66.7003,173.0399 L66.7003,102.8799 L135.8503,102.8799 L135.8503,92.5999 L66.7003,92.5999 L66.7003,64.5399 L202.3503,64.5399 L202.3503,173.0399 Z M263.1903,64.5399 L263.1903,44.8499 L66.7003,44.8499 L66.7003,0.4999 L45.3103,0.4999 L45.3103,44.8499 L0.4993,44.8499 L0.4993,64.5399 L45.3103,64.5399 L45.3103,173.0399 L0.4993,173.0399 L0.4993,192.7199 L45.3103,192.7199 L45.3103,263.1799 L66.7003,263.1799 L66.7003,192.7199 L162.7893,192.7199 L162.7893,263.1799 L173.0703,263.1799 L173.0703,192.7199 L202.3503,192.7199 L202.3503,263.1799 L223.7403,263.1799 L223.7403,192.7199 L263.1903,192.7199 L263.1903,173.0399 L223.7403,173.0399 L223.7403,64.5399 L263.1903,64.5399 Z" id="Stroke-10"></path>
                    <polygon id="Stroke-11" points="202.3503 64.5399 202.3503 173.0399 66.7003 173.0399 66.7003 102.8799 135.8503 102.8799 135.8503 92.5999 66.7003 92.5999 66.7003 64.5399"></polygon>
                    <polygon id="Stroke-12" points="162.79 263.55 173.07 263.55 173.07 263.18 162.79 263.18"></polygon>
                </g>
                <g id="Page-1" transform="translate(90.000000, 0.000000)">
                    <mask id="mask-2" fill="white">
                        <use xlink:href="#path-1"></use>
                    </mask>
                    <g id="Clip-2"></g>
                    <path d="M29.55,49.0698 C18.7,49.0698 9.9,40.2698 9.9,29.4098 C9.9,18.5598 18.7,9.7598 29.55,9.7598 C40.41,9.7598 49.21,18.5598 49.21,29.4098 C49.21,40.2698 40.41,49.0698 29.55,49.0698 M29.55,-0.0002 C13.23,-0.0002 0,13.2298 0,29.5498 C0,45.8798 27.48,87.5998 29.55,87.5998 C32.64,87.5998 59.11,45.8798 59.11,29.5498 C59.11,13.2298 45.88,-0.0002 29.55,-0.0002" id="Fill-1" fill="#FFFFFF" mask="url(#mask-2)"></path>
                </g>
                <g id="Page-1-Copy-3" transform="translate(234.000000, 233.000000)">
                    <mask id="mask-4" fill="white">
                        <use xlink:href="#path-3"></use>
                    </mask>
                    <g id="Clip-2"></g>
                    <path d="M29.55,49.0698 C18.7,49.0698 9.9,40.2698 9.9,29.4098 C9.9,18.5598 18.7,9.7598 29.55,9.7598 C40.41,9.7598 49.21,18.5598 49.21,29.4098 C49.21,40.2698 40.41,49.0698 29.55,49.0698 M29.55,-0.0002 C13.23,-0.0002 0,13.2298 0,29.5498 C0,45.8798 27.48,87.5998 29.55,87.5998 C32.64,87.5998 59.11,45.8798 59.11,29.5498 C59.11,13.2298 45.88,-0.0002 29.55,-0.0002" id="Fill-1" fill="#FFFFFF" mask="url(#mask-4)"></path>
                </g>
                <g id="Page-1-Copy-2" transform="translate(74.000000, 189.000000)">
                    <mask id="mask-6" fill="white">
                        <use xlink:href="#path-5"></use>
                    </mask>
                    <g id="Clip-2"></g>
                    <path d="M29.55,49.0698 C18.7,49.0698 9.9,40.2698 9.9,29.4098 C9.9,18.5598 18.7,9.7598 29.55,9.7598 C40.41,9.7598 49.21,18.5598 49.21,29.4098 C49.21,40.2698 40.41,49.0698 29.55,49.0698 M29.55,-0.0002 C13.23,-0.0002 0,13.2298 0,29.5498 C0,45.8798 27.48,87.5998 29.55,87.5998 C32.64,87.5998 59.11,45.8798 59.11,29.5498 C59.11,13.2298 45.88,-0.0002 29.55,-0.0002" id="Fill-1" fill="#FFFFFF" mask="url(#mask-6)"></path>
                </g>
            </g>
        </g>
    </g>
</svg>