<?xml version="1.0" encoding="UTF-8"?>
<svg width="211px" height="114px" viewBox="0 0 211 114" version="1.1" xmlns="http://www.w3.org/2000/svg" xmlns:xlink="http://www.w3.org/1999/xlink">
    <!-- Generator: Sketch 49.3 (51167) - http://www.bohemiancoding.com/sketch -->
    <title>Page 1</title>
    <desc>Created with Sketch.</desc>
    <defs>
        <polygon id="path-1" points="0.580348624 0.585795082 129.733174 0.585795082 129.733174 72.4440631 0.580348624 72.4440631"></polygon>
        <polygon id="path-3" points="0 0.491332231 122.76306 0.491332231 122.76306 72.9999999 0 72.9999999"></polygon>
    </defs>
    <g id="Symbols" stroke="none" stroke-width="1" fill="none" fill-rule="evenodd">
        <g id="SOV-LOGO">
            <g id="Page-1">
                <g id="Group-3" transform="translate(81.000000, 0.000000)">
                    <mask id="mask-2" fill="white">
                        <use xlink:href="#path-1"></use>
                    </mask>
                    <g id="Clip-2"></g>
                    <path d="M116.433009,71.4436041 C119.85356,44.2163992 81.4606239,15.9498418 30.6842936,8.30339098 C20.261633,6.73269426 10.1281927,6.15707131 0.580348624,6.46403033 C5.51557798,5.26252213 10.5963119,4.21718607 15.7933303,3.35614508 C73.6451193,-6.24634672 124.488239,9.91298115 129.356679,39.4486615 C131.189798,50.5721861 126.248606,62.0026697 116.288101,72.4440631 C116.344156,72.1089811 116.388284,71.7792844 116.433009,71.4436041" id="Fill-1" fill="#002E54" mask="url(#mask-2)"></path>
                </g>
                <g id="Group-6" transform="translate(0.000000, 41.000000)">
                    <mask id="mask-4" fill="white">
                        <use xlink:href="#path-3"></use>
                    </mask>
                    <g id="Clip-5"></g>
                    <path d="M122.76306,68.6902248 C120.08946,69.2428529 117.38226,69.7496298 114.63606,70.2063322 C56.43426,79.8887868 5.27826,63.5953074 0.37926,33.8161339 C-1.47054,22.5837868 3.52386,11.030481 13.59006,0.491332231 C13.39386,1.34802645 13.24266,2.22161322 13.13046,3.1060595 C9.68886,30.5582826 48.31866,59.064481 99.40746,66.7686959 C107.40546,67.9801339 115.23006,68.6003322 122.76306,68.6902248" id="Fill-4" fill="#002E54" mask="url(#mask-4)"></path>
                </g>
                <path d="M65.4698494,48.5775951 C65.4698494,57.9633117 82.6215383,57.3705296 82.6215383,72.8696859 C82.6215383,81.8135104 81.2721351,88 67.423824,88 C54.4793471,88 52,79.8782864 52,68.9207991 L65.0913878,68.9207991 C65.0913878,73.6917969 65.0913878,77.6412825 67.423824,77.6412825 C69.2308877,77.6412825 69.5301506,75.7785096 69.5301506,72.7972348 C69.5301506,62.9582494 52.6722833,64.2282402 52.6722833,48.2758151 C52.6722833,37.3237167 55.834796,33 68.0277908,33 C79.012852,33 83,40.5289315 83,51.4804311 L69.9086122,51.4804311 C69.9086122,44.9975505 69.6039083,43.3587175 67.7230868,43.3587175 C66.0683751,43.3587175 65.4698494,44.3263295 65.4698494,48.5775951" id="Fill-7" fill="#FFFFFF"></path>
                <path d="M106,77.6407965 C102.321288,77.6407965 101.87963,75.3307677 101.87963,60.5754442 C101.87963,46.1165084 102.321288,43.3592035 106,43.3592035 C109.683442,43.3592035 110.12037,46.1165084 110.12037,60.5754442 C110.12037,75.3307677 109.683442,77.6407965 106,77.6407965 M106,33 C90.1818941,33 89,41.1940755 89,60.5754442 C89,80.6220388 90.1818941,88 106,88 C121.824018,88 123,80.6220388 123,60.5754442 C123,41.1940755 121.824018,33 106,33" id="Fill-9" fill="#FFFFFF"></path>
                <polygon id="Fill-11" fill="#FFFFFF" points="164 34 151.395624 87 139.604376 87 127 34 139.531701 34 145.463662 69.5563883 151.468299 34"></polygon>
                <path d="M65.4698494,48.5775951 C65.4698494,57.9633117 82.6215383,57.3705296 82.6215383,72.8696859 C82.6215383,81.8135104 81.2721351,88 67.423824,88 C54.4793471,88 52,79.8782864 52,68.9207991 L65.0913878,68.9207991 C65.0913878,73.6917969 65.0913878,77.6412825 67.423824,77.6412825 C69.2308877,77.6412825 69.5301506,75.7785096 69.5301506,72.7972348 C69.5301506,62.9582494 52.6722833,64.2282402 52.6722833,48.2758151 C52.6722833,37.3237167 55.834796,33 68.0277908,33 C79.012852,33 83,40.5289315 83,51.4804311 L69.9086122,51.4804311 C69.9086122,44.9975505 69.6039083,43.3587175 67.7230868,43.3587175 C66.0683751,43.3587175 65.4698494,44.3263295 65.4698494,48.5775951" id="Fill-13" fill="#FFFFFF"></path>
                <path d="M106,77.6407965 C102.321288,77.6407965 101.87963,75.3307677 101.87963,60.5754442 C101.87963,46.1165084 102.321288,43.3592035 106,43.3592035 C109.683442,43.3592035 110.12037,46.1165084 110.12037,60.5754442 C110.12037,75.3307677 109.683442,77.6407965 106,77.6407965 M106,33 C90.1818941,33 89,41.1940755 89,60.5754442 C89,80.6220388 90.1818941,88 106,88 C121.824018,88 123,80.6220388 123,60.5754442 C123,41.1940755 121.824018,33 106,33" id="Fill-15" fill="#FFFFFF"></path>
                <polygon id="Fill-17" fill="#FFFFFF" points="139.604376 87 127 34 139.531701 34 145.463662 69.5557919 151.468299 34 164 34 151.395624 87"></polygon>
                <path d="M65.4698494,48.5775951 C65.4698494,44.3263295 66.0683751,43.3587175 67.7230868,43.3587175 C69.6039083,43.3587175 69.9086122,44.9975505 69.9086122,51.4804311 L83,51.4804311 C83,40.5289315 79.012852,33 68.0277908,33 C55.834796,33 52.6722833,37.3237167 52.6722833,48.2758151 C52.6722833,64.2282402 69.5301506,62.9582494 69.5301506,72.7972348 C69.5301506,75.7785096 69.2308877,77.6412825 67.423824,77.6412825 C65.0913878,77.6412825 65.0913878,73.6917969 65.0913878,68.9207991 L52,68.9207991 C52,79.8782864 54.4793471,88 67.423824,88 C81.2721351,88 82.6215383,81.8135104 82.6215383,72.8696859 C82.6215383,57.3705296 65.4698494,57.9633117 65.4698494,48.5775951" id="Fill-19" fill="#002E54"></path>
                <path d="M106,77.6407965 C102.321288,77.6407965 101.87963,75.3307677 101.87963,60.5754442 C101.87963,46.1165084 102.321288,43.3592035 106,43.3592035 C109.683442,43.3592035 110.12037,46.1165084 110.12037,60.5754442 C110.12037,75.3307677 109.683442,77.6407965 106,77.6407965 M106,33 C90.1818941,33 89,41.1940755 89,60.5754442 C89,80.6220388 90.1818941,88 106,88 C121.824018,88 123,80.6220388 123,60.5754442 C123,41.1940755 121.824018,33 106,33" id="Fill-21" fill="#002E54"></path>
                <polygon id="Fill-23" fill="#002C55" points="151.468299 34 145.463662 69.5563883 139.531701 34 127 34 139.604376 87 151.395624 87 164 34"></polygon>
            </g>
        </g>
    </g>
</svg>