<?xml version="1.0" encoding="UTF-8"?>
<svg width="121px" height="125px" viewBox="0 0 121 125" version="1.1" xmlns="http://www.w3.org/2000/svg" xmlns:xlink="http://www.w3.org/1999/xlink">
    <!-- Generator: Sketch 49.3 (51167) - http://www.bohemiancoding.com/sketch -->
    <title>finanzas icon</title>
    <desc>Created with Sketch.</desc>
    <defs>
        <polygon id="path-1" points="0 0.431482919 120.579714 0.431482919 120.579714 124.223602 0 124.223602"></polygon>
    </defs>
    <g id="RUTAS" stroke="none" stroke-width="1" fill="none" fill-rule="evenodd" opacity="0.3">
        <g id="SOV-RUTAS-Copy-2" transform="translate(-1119.000000, -2408.000000)">
            <g id="Parte-3" transform="translate(0.000000, 2165.000000)">
                <g id="ICONOS" transform="translate(207.000000, 219.000000)">
                    <g id="finanzas-icon" transform="translate(912.000000, 24.000000)">
                        <g id="Group-3">
                            <mask id="mask-2" fill="white">
                                <use xlink:href="#path-1"></use>
                            </mask>
                            <g id="Clip-2"></g>
                            <path d="M110.686622,47.2184394 L110.686622,105.847516 L105.506687,105.847516 L105.506687,40.7048525 C108.459276,41.3217003 110.686622,44.0078416 110.686622,47.2184394 Z M115.870526,110.683113 L115.870526,112.679037 C115.870526,116.377407 112.937789,119.388276 109.335392,119.388276 L11.243528,119.388276 C7.64113109,119.388276 4.70971703,116.377407 4.70971703,112.679037 L4.70971703,110.683113 L115.870526,110.683113 Z M9.89097484,47.2184394 C9.89097484,44.0078416 12.1183202,41.3203416 15.0722327,40.7048525 L15.0722327,105.847516 L9.89097484,105.847516 L9.89097484,47.2184394 Z M38.1529827,82.2904503 L38.1529827,105.847516 L29.7915045,105.847516 L29.7915045,88.4181677 L38.1529827,82.2904503 Z M51.3397139,72.6246894 L51.3397139,105.847516 L42.8630967,105.847516 L42.8630967,78.8380047 L51.3397139,72.6246894 Z M64.529092,82.242896 L64.529092,105.847516 L56.049828,105.847516 L56.049828,73.5390916 L64.529092,82.242896 Z M69.2272952,81.309472 L77.7171467,72.5934394 L77.7171467,105.847516 L69.2392061,105.847516 L69.2392061,81.5486025 C69.2392061,81.4684394 69.2352358,81.3882764 69.2272952,81.309472 Z M19.7823467,10.586646 C19.7823467,7.65322205 22.106303,5.26735248 24.964928,5.26735248 L102.266912,5.26735248 C101.335212,6.81490683 100.796573,8.6369177 100.796573,10.586646 L100.796573,105.847516 L82.4272608,105.847516 L82.4272608,67.7578416 L90.9065248,59.0540373 L90.9065248,87.774146 C90.9065248,89.1097438 91.9599811,90.1926242 93.2609202,90.1926242 C94.5618592,90.1926242 95.6153155,89.1097438 95.6153155,87.774146 L95.6153155,53.2170807 C95.6153155,52.2374612 95.042267,51.3556677 94.1621811,50.9820264 C93.2820952,50.6083851 92.268342,50.8149068 91.5960358,51.5064829 L66.4242545,77.3488742 L55.4886905,66.1246894 C54.6747764,65.2877329 53.3923655,65.1776786 52.4553717,65.8651786 L26.0686748,85.2048525 C25.4493061,85.6600155 25.0813905,86.3923525 25.0813905,87.1736025 L25.0813905,105.847516 L19.7823467,105.847516 L19.7823467,10.586646 Z M105.506687,10.586646 C105.506687,7.65322205 107.831967,5.26735248 110.687945,5.26735248 C113.545247,5.26735248 115.870526,7.65322205 115.870526,10.586646 L115.870526,21.7890916 L105.506687,21.7890916 L105.506687,10.586646 Z M118.224922,26.6246894 C119.525861,26.6246894 120.58064,25.541809 120.58064,24.2062112 L120.58064,10.586646 C120.58064,4.98610248 116.141831,0.430395963 110.687945,0.430395963 C110.257828,0.430395963 109.834328,0.463004658 109.418769,0.517352484 C109.2229,0.463004658 109.017767,0.430395963 108.804694,0.430395963 L24.964928,0.430395963 C19.5097186,0.430395963 15.0722327,4.98610248 15.0722327,10.586646 L15.0722327,35.8135481 C9.51247172,36.4738742 5.18086078,41.3352873 5.18086078,47.2184394 L5.18086078,105.847516 L2.35532172,105.847516 C1.05438266,105.847516 -0.00039703125,106.930396 -0.00039703125,108.265994 L-0.00039703125,112.679037 C-0.00039703125,119.044526 5.04454672,124.223874 11.243528,124.223874 L109.335392,124.223874 C115.535697,124.223874 120.58064,119.044526 120.58064,112.679037 L120.58064,108.265994 C120.58064,106.930396 119.525861,105.847516 118.224922,105.847516 L115.396736,105.847516 L115.396736,47.2184394 C115.396736,41.3352873 111.066448,36.4752329 105.506687,35.8135481 L105.506687,26.6246894 L118.224922,26.6246894 Z" id="Fill-1" fill="#FFFFFF" mask="url(#mask-2)"></path>
                        </g>
                        <path d="M94.6232579,96.1788328 C94.2012539,95.7429681 93.6147829,95.4968944 93.0193875,95.4968944 C92.4214421,95.4968944 91.8362461,95.7429681 91.4142421,96.1788328 C90.992238,96.6120796 90.75,97.212866 90.75,97.8254325 C90.75,98.4393079 90.992238,99.0400943 91.4142421,99.4733411 C91.8362461,99.906588 92.4214421,100.15528 93.0193875,100.15528 C93.6147829,100.15528 94.2012539,99.906588 94.6232579,99.4733411 C95.0439871,99.0400943 95.2875,98.4393079 95.2875,97.8254325 C95.2875,97.2102482 95.045262,96.6120796 94.6232579,96.1788328" id="Fill-4" fill="#FFFFFF"></path>
                        <path d="M92.945058,29.5031056 L83.2935122,29.5031056 C81.999178,29.5031056 80.9497535,30.5847235 80.9497535,31.92044 C80.9497535,33.2561566 81.999178,34.3391333 83.2935122,34.3391333 L87.2884358,34.3391333 L64.9187071,57.4227069 L54.6996558,46.8769325 C53.8885572,46.0399016 52.6113404,45.9311963 51.6791038,46.6201162 L33.499173,60.0560932 C32.4457983,60.834695 32.2035221,62.34434 32.956685,63.4313932 C33.414903,64.0890603 34.135148,64.4409938 34.86461,64.4409938 C35.3359952,64.4409938 35.8126472,64.2942416 36.2260968,63.9885079 L52.7917308,51.7469306 L63.2622754,62.5522389 C64.1773947,63.4952575 65.6600196,63.4952575 66.5764556,62.5522389 L90.6012993,37.7579154 L90.6012993,41.8805645 C90.6012993,43.2162811 91.6507238,44.2992578 92.945058,44.2992578 C94.2380754,44.2992578 95.2875,43.2162811 95.2875,41.8805645 L95.2875,31.92044 C95.2875,30.5847235 94.2380754,29.5031056 92.945058,29.5031056" id="Fill-6" fill="#FFFFFF"></path>
                        <path d="M28.0732579,65.8980208 C27.6512539,65.463465 27.0660579,65.2173913 26.4693875,65.2173913 C25.8714421,65.2173913 25.2875211,65.463465 24.865517,65.8980208 C24.4435129,66.3299587 24.2,66.932054 24.2,67.5446205 C24.2,68.1584959 24.4435129,68.7579734 24.865517,69.1925291 C25.2875211,69.625776 25.8714421,69.8757764 26.4693875,69.8757764 C27.0660579,69.8757764 27.6512539,69.625776 28.0732579,69.1925291 C28.495262,68.7579734 28.7375,68.1584959 28.7375,67.5446205 C28.7375,66.932054 28.495262,66.3299587 28.0732579,65.8980208" id="Fill-8" fill="#FFFFFF"></path>
                        <path d="M41.971875,26.3612359 C40.2016804,26.3612359 38.7610717,25.136091 38.7610717,23.6295666 C38.7610717,22.1243886 40.2016804,20.8992436 41.971875,20.8992436 C43.7420696,20.8992436 45.1826783,22.1243886 45.1826783,23.6295666 C45.1826783,24.9529924 46.2418713,26.026004 47.5469247,26.026004 C48.853307,26.026004 49.9125,24.9529924 49.9125,23.6295666 C49.9125,20.2624375 47.5642014,17.4042148 44.3374503,16.4483325 L44.3374503,16.3715926 C44.3374503,15.0481668 43.2782573,13.9751553 41.971875,13.9751553 C40.6668217,13.9751553 39.6076287,15.0481668 39.6076287,16.3715926 L39.6076287,16.4483325 C36.3795486,17.4042148 34.03125,20.2624375 34.03125,23.6295666 C34.03125,27.7789036 37.5942317,31.1527643 41.971875,31.1527643 C43.7420696,31.1527643 45.1826783,32.3779092 45.1826783,33.8830873 C45.1826783,35.3896117 43.7420696,36.6134103 41.971875,36.6134103 C40.2016804,36.6134103 38.7610717,35.3896117 38.7610717,33.8830873 C38.7610717,32.5596615 37.7018787,31.4879963 36.3954963,31.4879963 C35.090443,31.4879963 34.03125,32.5596615 34.03125,33.8830873 C34.03125,37.2515627 36.3795486,40.1097855 39.6076287,41.0643215 L39.6076287,41.0831698 C39.6076287,42.4052493 40.6668217,43.4782609 41.971875,43.4782609 C43.2782573,43.4782609 44.3374503,42.4052493 44.3374503,41.0831698 L44.3374503,41.0643215 C47.5642014,40.1097855 49.9125,37.2515627 49.9125,33.8830873 C49.9125,29.7350966 46.3508473,26.3612359 41.971875,26.3612359" id="Fill-10" fill="#FFFFFF"></path>
                        <path d="M65.7050131,112.57764 L55.2949869,112.57764 C53.9930714,112.57764 52.9375,113.620835 52.9375,114.907487 C52.9375,116.192829 53.9930714,117.236025 55.2949869,117.236025 L65.7050131,117.236025 C67.0069286,117.236025 68.0625,116.192829 68.0625,114.907487 C68.0625,113.620835 67.0069286,112.57764 65.7050131,112.57764" id="Fill-12" fill="#FFFFFF"></path>
                    </g>
                </g>
            </g>
        </g>
    </g>
</svg>