<?xml version="1.0" encoding="UTF-8"?>
<svg width="134px" height="137px" viewBox="0 0 134 137" version="1.1" xmlns="http://www.w3.org/2000/svg" xmlns:xlink="http://www.w3.org/1999/xlink">
    <!-- Generator: Sketch 49.3 (51167) - http://www.bohemiancoding.com/sketch -->
    <title>Page 1</title>
    <desc>Created with Sketch.</desc>
    <defs></defs>
    <g id="RUTAS" stroke="none" stroke-width="1" fill="none" fill-rule="evenodd" opacity="0.3">
        <g id="SOV-RUTAS-Copy-2" transform="translate(-1110.000000, -2760.000000)" fill="#FFFFFF">
            <g id="Parte-3" transform="translate(0.000000, 2165.000000)">
                <g id="ICONOS" transform="translate(207.000000, 219.000000)">
                    <g id="Page-1" transform="translate(903.000000, 376.000000)">
                        <path d="M40.3825687,93.7417988 L69.9469218,93.7417988 L69.9469218,78.0589833 L40.3825687,78.0589833 L40.3825687,93.7417988 Z M56.0662632,132.627709 L77.9352469,132.627709 L77.9352469,115.899681 L56.0662632,115.899681 L56.0662632,132.627709 Z M128.914049,9.53968469 L109.298106,9.53968469 L109.298106,2.18614558 C109.298106,0.978825067 108.342225,0 107.159832,0 L26.8401681,0 C25.6577752,0 24.7018944,0.978825067 24.7018944,2.18614558 L24.7018944,9.53968469 L5.0874607,9.53968469 C2.28173141,9.53968469 0,11.8724996 0,14.737956 L0,110.699866 C0,113.566866 2.28173141,115.899681 5.0874607,115.899681 L51.7897157,115.899681 L51.7897157,132.627709 L31.6210825,132.627709 C30.4401997,132.627709 29.4828087,133.606534 29.4828087,134.813854 C29.4828087,136.021175 30.4401997,137 31.6210825,137 L92.9137338,137 C94.0946167,137 95.0520076,136.021175 95.0520076,134.813854 C95.0520076,133.606534 94.0946167,132.627709 92.9137338,132.627709 L82.2102843,132.627709 L82.2102843,115.899681 L91.0125427,115.899681 C92.1934255,115.899681 93.1508165,114.9224 93.1508165,113.713536 C93.1508165,112.506215 92.1934255,111.52739 91.0125427,111.52739 L5.0874607,111.52739 C4.64651724,111.52739 4.27654755,111.149137 4.27654755,110.699866 L4.27654755,14.737956 C4.27654755,14.2902284 4.64651724,13.910432 5.0874607,13.910432 L24.7018944,13.910432 L24.7018944,93.7402549 L10.9828144,93.7402549 C9.80193155,93.7402549 8.84454061,94.7175361 8.84454061,95.9264005 C8.84454061,97.133721 9.80193155,98.1125461 10.9828144,98.1125461 L91.0125427,98.1125461 C92.1934255,98.1125461 93.1508165,97.133721 93.1508165,95.9264005 C93.1508165,94.7175361 92.1934255,93.7402549 91.0125427,93.7402549 L74.2234694,93.7402549 L74.2234694,75.8728377 C74.2234694,74.6655172 73.2660784,73.6866921 72.0851956,73.6866921 L38.2442949,73.6866921 C37.061902,73.6866921 36.1060212,74.6655172 36.1060212,75.8728377 L36.1060212,93.7402549 L28.9784419,93.7402549 L28.9784419,4.37229115 L105.023068,4.37229115 L105.023068,24.2915357 C105.023068,25.4988562 105.980459,26.4776812 107.161342,26.4776812 C108.342225,26.4776812 109.299616,25.4988562 109.299616,24.2915357 L109.299616,13.9119758 L128.914049,13.9119758 C129.353483,13.9119758 129.723452,14.2902284 129.723452,14.7394999 L129.723452,110.70141 C129.723452,111.149137 129.353483,111.52739 128.914049,111.52739 L123.308631,111.52739 C122.129258,111.52739 121.170357,112.506215 121.170357,113.713536 C121.170357,114.9224 122.129258,115.899681 123.308631,115.899681 L128.914049,115.899681 C131.719779,115.899681 134,113.566866 134,110.70141 L134,14.737956 C134,11.8724996 131.719779,9.53968469 128.914049,9.53968469 Z" id="Fill-1"></path>
                        <path d="M107.651685,132.625031 C104.627369,132.625031 102.164799,130.119312 102.164799,127.042003 L102.164799,121.360106 L113.138572,121.360106 L113.138572,127.042003 C113.138572,130.119312 110.67752,132.625031 107.651685,132.625031 Z M107.651685,38.8443684 L112.107693,50.1386462 L103.194159,50.1386462 L107.651685,38.8443684 Z M102.164799,116.985137 L113.138572,116.985137 L113.138572,54.5136147 L102.164799,54.5136147 L102.164799,116.985137 Z M117.410874,51.9970809 C117.406319,51.9661843 117.403283,51.9337428 117.39721,51.9043909 C117.388101,51.8565011 117.375955,51.8117009 117.365327,51.7684456 C117.357736,51.7452731 117.3547,51.7205557 117.347108,51.6989281 C117.331926,51.6525831 117.318262,51.6077829 117.300043,51.5614379 C117.29397,51.5444447 117.289416,51.5274516 117.281824,51.5104584 L117.272715,51.4841962 C117.269679,51.4795617 117.26816,51.4749272 117.266642,51.4687479 L109.646641,32.1567842 C109.320221,31.3287534 108.530741,30.7865169 107.651685,30.7865169 C106.774148,30.7865169 105.984668,31.3287534 105.65673,32.1567842 L98.0367286,51.4718376 C98.0321739,51.4811066 98.0215463,51.5104584 98.0215463,51.5104584 C98.0139552,51.5289964 98.0078823,51.5490792 98.0018093,51.5676172 C97.9851088,51.6108726 97.9699265,51.6541279 97.9562624,51.6989281 C97.9486712,51.7205557 97.9456348,51.7452731 97.9380436,51.7699904 C97.927416,51.8132458 97.9152702,51.8580459 97.907679,51.9043909 C97.9000879,51.9352876 97.8970514,51.9661843 97.8940149,51.9970809 C97.8864238,52.0357018 97.8803508,52.0727778 97.8773144,52.1113986 C97.8697232,52.182461 97.8651685,52.2535233 97.8651685,52.3261305 L97.8651685,127.042003 C97.8651685,132.532341 102.255893,137 107.653204,137 C113.048997,137 117.438202,132.533886 117.438202,127.042003 L117.438202,52.3261305 C117.438202,52.2535233 117.435166,52.182461 117.427575,52.1113986 C117.424538,52.0727778 117.416947,52.0357018 117.410874,51.9970809 Z" id="Fill-3"></path>
                        <path d="M40.4072865,27.1283479 L93.5927135,27.1283479 L93.5927135,15.9727757 L40.4072865,15.9727757 L40.4072865,27.1283479 Z M38.271059,31.5561798 L95.728941,31.5561798 C96.9086938,31.5561798 97.8651685,30.5664843 97.8651685,29.3422638 L97.8651685,13.7588598 C97.8651685,12.5362028 96.9086938,11.5449438 95.728941,11.5449438 L38.271059,11.5449438 C37.0897976,11.5449438 36.1348315,12.5362028 36.1348315,13.7588598 L36.1348315,29.3422638 C36.1348315,30.5664843 37.0897976,31.5561798 38.271059,31.5561798 Z" id="Fill-4"></path>
                        <path d="M95.7274324,36.1741573 L38.271059,36.1741573 C37.0897976,36.1741573 36.1348315,37.2076193 36.1348315,38.4839611 C36.1348315,39.7586729 37.0897976,40.7921348 38.271059,40.7921348 L95.728941,40.7921348 C96.9086938,40.7921348 97.8651685,39.7586729 97.8651685,38.4839611 C97.8651685,37.2076193 96.9086938,36.1741573 95.7274324,36.1741573" id="Fill-5"></path>
                        <path d="M72.374344,47.7191011 L38.2885774,47.7191011 C37.0976289,47.7191011 36.1348315,48.752928 36.1348315,50.0280899 C36.1348315,51.3048824 37.0976289,52.3370787 38.2885774,52.3370787 L72.374344,52.3370787 C73.5637715,52.3370787 74.5280899,51.3048824 74.5280899,50.0280899 C74.5280899,48.752928 73.5637715,47.7191011 72.374344,47.7191011" id="Fill-6"></path>
                        <path d="M91.963611,47.7191011 L81.1824564,47.7191011 C80.0004844,47.7191011 79.0449438,48.752928 79.0449438,50.0280899 C79.0449438,51.3048824 80.0004844,52.3370787 81.1824564,52.3370787 L91.963611,52.3370787 C93.1440735,52.3370787 94.1011236,51.3048824 94.1011236,50.0280899 C94.1011236,48.752928 93.1440735,47.7191011 91.963611,47.7191011" id="Fill-7"></path>
                        <path d="M72.374344,56.1853933 L38.2885774,56.1853933 C37.0976289,56.1853933 36.1348315,57.2192201 36.1348315,58.494382 C36.1348315,59.7711745 37.0976289,60.8033708 38.2885774,60.8033708 L72.374344,60.8033708 C73.5637715,60.8033708 74.5280899,59.7711745 74.5280899,58.494382 C74.5280899,57.2192201 73.5637715,56.1853933 72.374344,56.1853933" id="Fill-8"></path>
                        <path d="M91.9034583,56.1853933 L81.2426091,56.1853933 C80.0273747,56.1853933 79.0449438,57.2192201 79.0449438,58.494382 C79.0449438,59.7711745 80.0273747,60.8033708 81.2426091,60.8033708 L91.9034583,60.8033708 C93.1186927,60.8033708 94.1011236,59.7711745 94.1011236,58.494382 C94.1011236,57.2192201 93.1186927,56.1853933 91.9034583,56.1853933" id="Fill-9"></path>
                        <path d="M72.374344,65.4213483 L38.2885774,65.4213483 C37.0976289,65.4213483 36.1348315,66.4551752 36.1348315,67.7303371 C36.1348315,69.0071296 37.0976289,70.0393258 38.2885774,70.0393258 L72.374344,70.0393258 C73.5637715,70.0393258 74.5280899,69.0071296 74.5280899,67.7303371 C74.5280899,66.4551752 73.5637715,65.4213483 72.374344,65.4213483" id="Fill-10"></path>
                        <path d="M91.9034583,65.4213483 L81.2426091,65.4213483 C80.0273747,65.4213483 79.0449438,66.4551752 79.0449438,67.7303371 C79.0449438,69.0071296 80.0273747,70.0393258 81.2426091,70.0393258 L91.9034583,70.0393258 C93.1186927,70.0393258 94.1011236,69.0071296 94.1011236,67.7303371 C94.1011236,66.4551752 93.1186927,65.4213483 91.9034583,65.4213483" id="Fill-11"></path>
                    </g>
                </g>
            </g>
        </g>
    </g>
</svg>